<svg xmlns="http://www.w3.org/2000/svg" xmlns:xlink="http://www.w3.org/1999/xlink" width="498.898" height="544.252" viewBox="0 0 1320 1440" xmlns:v="https://vecta.io/nano"><defs><linearGradient id="A" x1="-1430.769" y1="-77.47" x2="-1409.955" y2="-77.47" spreadMethod="reflect" gradientUnits="userSpaceOnUse"><stop offset="0" stop-color="#ffd285"/><stop offset=".232" stop-color="#ffcd79"/><stop offset=".616" stop-color="#ffca73"/><stop offset=".808" stop-color="#ffd386"/><stop offset="1" stop-color="#ffc86e"/></linearGradient><filter id="B" x="-.016" y="-.012" width="1.031" height="1.025" color-interpolation-filters="sRGB"><feGaussianBlur stdDeviation="2.441"/></filter><linearGradient id="C" x1="-508.17" y1="-360.56" x2="-508.17" y2="125.212" gradientUnits="userSpaceOnUse"><stop offset="0"/><stop offset=".6" stop-color="#fff"/></linearGradient><filter id="D" x="-.079" y="-.083" width="1.159" height="1.166" color-interpolation-filters="sRGB"><feGaussianBlur stdDeviation=".392"/></filter><path id="E" d="M-2608.749 28.326c2.955 1.031 6.529 4.742 6.735 7.422s-2.955 4.33-5.91 3.299-5.704-4.742-5.91-7.422 2.131-4.33 5.086-3.299z"/></defs><path style="mix-blend-mode:multiply" d="M-2640.263 204.473l21.47 26.648 145.682 33.948 130.593-42.533 79.784-400.01-38.751-32.142z" transform="matrix(-2.0051 0 0 2.0051 -4364.0778 703.02903)" opacity=".5" filter="url(#B)"/><path d="M-1215.57-348.956l-134.657 37.754-8.809 28.601-71.003 440.031 10.349 7.986h408.241l10.349-7.986-71.003-440.031-8.809-28.601z" fill="url(#A)" transform="matrix(-2.0051 0 0 -2.0051 -1777.3824 489.02392)"/><path d="M-508.17-360.56l-143.466 37.754-71.003 440.031 10.348 7.986h408.241l10.349-7.986-71.004-440.031z" opacity=".25" fill="url(#C)" transform="matrix(-2.0051 0 0 -2.0051 -358.94932 408.4087)" style="mix-blend-mode:overlay"/><path d="M389.995 1113.026l-17.663-57.348L660 1131.379l287.668-75.701-17.663 57.348L660 1188.727l-270.005-75.701z" opacity=".7"/><path d="M250.668 178.407l.043-21.064-20.75 16.013 20.707 5.052z" opacity=".2"/><path d="M947.669 1055.677l-17.664-13.248L660 1114.977v16.402z" opacity=".4"/><path d="M372.331 1055.677l17.664-13.248L660 1114.977v16.402z" opacity=".6"/><path d="M372.331 1055.677l17.664-13.248-139.327-864.022-20.707-5.052z" opacity=".4"/><g fill="#fff"><path d="M947.669 1055.677l-17.664-13.248 139.327-864.022 20.707-5.052z" opacity=".3"/><path d="M1069.332 178.407l-.043-21.064 20.75 16.013-20.707 5.052z" opacity=".8"/><path d="M1069.332 178.407H250.668l.043-21.064h818.579l.043 21.064z" opacity=".3"/></g><g transform="matrix(-2.0051 0 0 -2.0051 -4611.1043 437.95024)" fill="#970000"><path d="M-2625.844 45.274h-5.92v-71.171h5.92zm-5.919.386h5.92v71.171h-5.92z"/><path d="M-2628.61 48.427v-5.92h71.171v5.92zm-.387-5.92v5.92h-71.171v-5.92z"/><path d="M-2626.574 47.424l-4.186-4.186 50.326-50.326 4.186 4.186z"/><path d="M-2626.847 43.238l-4.186 4.186-50.326-50.326 4.186-4.186z"/></g><g transform="matrix(-1.9521 0 0 -1.9521 -4327.7583 671.80477)"><path d="M-2563.126 60.085c-30.366-2.834-45.995-10.076-55.728-25.824l-8.013-12.966 7.539-15.517c4.146-8.534 14.569-23.032 23.16-32.218l15.622-16.701-.076-50.158c-.07-44.415-.858-51.155-6.891-58.868-8.742-11.176-8.964-20.905-.477-20.905 9.297 0 39.717 33.423 37.33 41.014-4.274 13.587-8.98 44.537-8.98 59.056v15.501l16.374-9.152c14.986-8.376 54.382-17.081 58.53-12.933 4.102 4.102.31 7.446-25.347 22.354-42.523 24.708-82.848 71.761-71.352 83.257 4.639 4.638 40.406 4.453 49.202-.255 11.306-6.051 23.204-4.319 33.055 4.811 24.218 22.444-3.34 35.158-63.947 29.503z" fill="maroon"/><g fill="#fff"><use xlink:href="#E" filter="url(#D)"/><use xlink:href="#E" x="101.439" y="-105.562" transform="matrix(.9769 .168541 .417391 1.1895 -100.98644 353.59557)" filter="url(#D)"/></g></g></svg>