<svg xmlns="http://www.w3.org/2000/svg" xmlns:xlink="http://www.w3.org/1999/xlink" width="498.898" height="544.252" viewBox="0 0 1320 1440" xmlns:v="https://vecta.io/nano"><style><![CDATA[.E{filter:url(#D)}.F{color-interpolation-filters:sRGB}]]></style><defs><linearGradient id="A" x1="-1430.769" y1="-77.47" x2="-1409.955" y2="-77.47" spreadMethod="reflect" gradientUnits="userSpaceOnUse"><stop offset="0" stop-color="#ffd285"/><stop offset=".232" stop-color="#ffcd79"/><stop offset=".616" stop-color="#ffca73"/><stop offset=".808" stop-color="#ffd386"/><stop offset="1" stop-color="#ffc86e"/></linearGradient><filter id="B" x="-.013" y="-.011" width="1.026" height="1.022" class="F"><feGaussianBlur stdDeviation="2.441"/></filter><linearGradient id="C" x1="-905.02" y1="-384.47" x2="-904.556" y2="184.159" gradientUnits="userSpaceOnUse"><stop offset="0"/><stop offset=".603" stop-color="#fff"/></linearGradient><filter id="D" x="-.079" y="-.083" width="1.159" height="1.166" class="F"><feGaussianBlur stdDeviation=".392"/></filter><path id="E" d="M-2632.34 29.151c2.955 1.031 6.529 4.742 6.735 7.422s-2.955 4.33-5.91 3.299-5.704-4.742-5.91-7.422 2.131-4.33 5.086-3.299z"/></defs><path style="mix-blend-mode:multiply" d="M-2659.569 204.596l26.181 28.949 150.416 46.096 171.017-51.398 98.911-437.515-45.894-49.39z" transform="matrix(-2.0051 0 0 2.0051 -4364.0778 706.82307)" opacity=".5" filter="url(#B)"/><path d="M-1220.686-340.838l-153.963 49.823-8.809 28.459-94.245 482.361 10.349 7.986h493.336l10.348-7.986-94.244-482.361-8.809-28.459z" fill="url(#A)" transform="matrix(-2.0051 0 0 -2.0051 -1787.6392 533.54186)"/><path d="M-905.02-384.47l-153.963 49.823-8.809 26.778-94.245 484.042 10.349 7.986h493.336l10.349-7.986-94.244-482.219-8.809-28.601z" opacity=".25" fill="url(#C)" transform="matrix(-2.0051 0 0 -2.0051 -1154.6881 446.05465)" style="mix-blend-mode:overlay"/><path d="M165.355 97.854l.043-21.064-20.75 16.013 20.707 5.052zm821.025 961.863l-17.664-13.248L660 1143.218v16.402z" opacity=".4"/><path d="M333.62 1059.717l17.664-13.248L660 1143.218v16.402z" opacity=".6"/><path d="M333.62 1059.717l17.664-13.248L165.355 97.854l-20.707-5.052z" opacity=".6"/><g fill="#fff"><path d="M986.38 1059.717l-17.664-13.248 185.93-948.615 20.707-5.052z" opacity=".3"/><path d="M1154.646 97.854l-.043-21.064 20.75 16.013-20.707 5.052z" opacity=".8"/><path d="M1154.646 97.854H165.355l.043-21.064h989.205l.043 21.064z" opacity=".3"/></g><path d="M830.97 527.349c30.986 11.43 51.264 34.267 44.978 50.65-3.251 8.472-20.566 9.857-77.275 6.185l-73.084-4.735v22.571c0 18.371 2.668 21.432 14.339 16.44 33.362-14.267 55.745-12.34 79.217 6.82 28.867 23.566 25.117 52.413-5.577 42.892-39.576-12.277-55.725-14.204-76.121-9.085-30.883 7.752-20.121 24.039 20.461 30.968 19.322 3.299 39.731 12.29 45.353 19.979 9.314 12.737 13.787 11.005 50.258-19.466 38.55-32.21 91.232-59.535 114.776-59.535 19.887 0 12.135 12.205-18.091 28.483-48.813 26.289-148.965 143.774-195.731 229.61-12.277 22.531-28.243 47.627-35.48 55.765-10.669 11.998-11.291 17.79-3.281 30.615 5.433 8.699 9.879 25.084 9.879 36.412 0 29.594-31.117 27.183-63.992-4.957-28.486-27.851-30.242-33.401-17.867-56.522 6.866-12.831 2.398-20.725-26.363-46.573l-100.444-92.99c-47.452-44.607-81.242-68.543-121.118-85.806-30.419-13.167-55.306-26.808-55.306-30.31 0-6.633 32.644-8.721 102.418-6.554 38.511 1.196 44.16 4.359 94.223 52.756l53.258 51.484 32.773-9.753c43.861-13.052 42.772-31.518-2.212-37.523-63.401-8.461-67.084-37.558-6.044-47.762 44.199-7.39 30.829-21.613-18.061-19.215-35.749 1.754-44.149-.609-51.589-14.509-11.804-22.058-3.984-32.651 24.105-32.651 47.653 0 74.282-9.521 74.282-26.559 0-13.071-3.67-15.238-18.436-10.883-10.139 2.989-39.32 7.59-64.845 10.224-42.251 4.359-48.309 2.889-67.597-16.396-23.969-23.969-26.666-39.955-9.192-54.46 9.473-7.861 22.933-7.211 64.023 3.094 75.53 18.942 108.865 16.87 239.431-14.88 9.013-2.191 28.782.587 43.931 6.177zM721.708 745.394c-2.666 4.313 6.598 13.763 20.587 20.998 27.059 13.992 48.84 6.164 48.84-17.555 0-13.139-61.551-16.191-69.429-3.443zm-49.376 74.09c-2.784 4.505-14.064 8.193-25.065 8.193-11.049 0-20.001 4.815-20.001 10.756 0 11.101 46.957 60.427 51.591 54.194 1.431-1.924 14.276-18.654 28.542-37.176s23.583-36.035 20.699-38.919c-8.306-8.306-50.181-6.089-55.769 2.95z" fill="maroon"/><g fill="#fff" transform="matrix(-2.1818 0 0 -2.1818 -4914.8196 622.79194)"><use xlink:href="#E" class="E"/><use xlink:href="#E" x="155.869" y="-77.11" class="E"/><use xlink:href="#E" x="60.203" y="-200.403" class="E"/><use xlink:href="#E" x="24.329" y="-77.11" class="E"/><use xlink:href="#E" x="11.546" y="-41.235" class="E"/></g><path d="M351.283 1117.065l-17.663-57.348L660 1159.62l326.38-99.903-17.663 57.348L660 1216.968l-308.717-99.903z" opacity=".7"/><g transform="rotate(180 660 676.004)" fill="#7d0000"><path d="M650.373 941.796h19.257v231.519h-19.257z"/><path d="M775.76 1047.928v19.257H544.241v-19.257z"/><path d="M735.048 968.894l13.617 13.617-84.674 84.674-13.617-13.617z"/><path d="M669.631 1053.568l-13.617 13.617-84.675-84.675 13.617-13.617z"/></g></svg>