<svg xmlns="http://www.w3.org/2000/svg" width="498.898" height="544.252" viewBox="0 0 1320 1440" xmlns:v="https://vecta.io/nano"><style><![CDATA[.B{color-interpolation-filters:sRGB}]]></style><defs><linearGradient id="A" x1="-1430.769" y1="-77.47" x2="-1409.955" y2="-77.47" spreadMethod="reflect" gradientUnits="userSpaceOnUse"><stop offset="0" stop-color="#ffd285"/><stop offset=".232" stop-color="#ffcd79"/><stop offset=".616" stop-color="#ffca73"/><stop offset=".808" stop-color="#ffd386"/><stop offset="1" stop-color="#ffc86e"/></linearGradient><filter id="B" x="-.013" y="-.011" width="1.026" height="1.022" class="B"><feGaussianBlur stdDeviation="2.441"/></filter><linearGradient id="C" x1="-905.02" y1="-384.47" x2="-904.556" y2="184.159" gradientUnits="userSpaceOnUse"><stop offset="0"/><stop offset=".604" stop-color="#fff"/></linearGradient><filter id="D" x="-.068" y="-.064" width="1.135" height="1.127" class="B"><feGaussianBlur stdDeviation=".392"/></filter><filter id="E" x="-.026" y="-.052" width="1.053" height="1.103" class="B"><feGaussianBlur stdDeviation=".392"/></filter><filter id="F" x="-.044" y="-.067" width="1.087" height="1.134" class="B"><feGaussianBlur stdDeviation=".392"/></filter><filter id="G" x="-.079" y="-.063" width="1.158" height="1.125" class="B"><feGaussianBlur stdDeviation=".392"/></filter><filter id="H" x="-.049" y="-.078" width="1.098" height="1.156" class="B"><feGaussianBlur stdDeviation=".392"/></filter></defs><path style="mix-blend-mode:multiply" d="M-2659.569 204.596l26.181 28.949 150.416 46.096 171.017-51.398 98.911-437.515-45.894-49.39z" transform="matrix(-2.0051 0 0 2.0051 -4364.0778 706.82307)" opacity=".5" filter="url(#B)"/><path d="M-1220.686-340.838l-153.963 49.823-8.809 28.459-94.245 482.361 10.349 7.986h493.336l10.348-7.986-94.244-482.361-8.809-28.459z" fill="url(#A)" transform="matrix(-2.0051 0 0 -2.0051 -1787.6392 533.54186)"/><g transform="matrix(-1.8142 0 0 -1.8142 -3975.4297 648.6564)"><path d="M-2655.773 58.424c-15.98-13.719-19.155-27.389-5.499-23.686 17.543 4.758 33.856 5.695 39.026 2.243 5.037-3.364 4.91-4.37-.99-7.847-8.889-5.238-22.122-31.477-22.122-43.865 0-11.152 4.457-12.559 11.79-3.724 2.765 3.333 11.518 9.37 19.45 13.417 16.14 8.234 21.332 18.733 15.06 30.452-3.599 6.726-3.057 7.849 3.794 7.849 7.533 0 7.93-1.825 6.876-31.545l-1.118-31.545-18.106-.33c-12.268-.224-21.833-3.086-29.667-8.878-11.529-8.524-11.597-8.527-24.264-1.148-15.688 9.139-41.592 14.428-41.592 8.493 0-2.3 4.986-6.76 11.079-9.911 16.668-8.62 54.896-52.247 83.726-95.553l25.665-38.552-8.111-16.697c-4.824-9.928-6.595-17.635-4.369-19.01 2.058-1.272 12.836 2.598 23.95 8.602 20.18 10.901 20.206 10.94 19.589 29.051-.601 17.651-.092 18.52 19.259 32.527 10.932 7.915 20.743 15.325 21.803 16.466 11.303 12.178 52.588 37.767 72.703 45.063 39.247 14.236 40.732 20.93 5.804 26.168-32.55 4.881-41.258.502-88.851-44.678-24.25-23.02-45.592-41.855-47.426-41.855s-7.199 5.633-11.92 12.518-12.948 17.267-18.278 23.071-8.502 11.742-7.047 13.197c2.686 2.686 49.506-3.582 60.677-8.123 3.558-1.446 9.987.802 15.407 5.388 9.12 7.716 9.155 7.983 1.825 13.65-4.112 3.179-11.479 5.78-16.37 5.78-5.36 0-8.893 2.309-8.893 5.811 0 4.753 3.725 5.373 20.454 3.407 18.078-2.125 21.732-1.305 31.46 7.063 12.563 10.806 11.29 22.236-2.474 22.236-8.015 0-7.718.89 4.509 13.505l13.09 13.505-16.434 16.745-16.433 16.745 22.396 2.296c17.837 1.829 24.199 4.386 31.259 12.563 8.389 9.718 8.512 10.654 2.303 17.515-6.039 6.673-10.867 7.06-60.862 4.881-35.885-1.564-61.489-.827-75.488 2.171l-30.815 6.503c-7.205 1.471-13.707-1.535-25.823-11.936zm121.296-55.585c11.288-16.648 12.159-19.766 8.049-28.789-3.402-7.466-7.478-10.12-15.548-10.12h-10.937V-7.18c0 15.889 1.3 28.844 2.889 28.789s8.585-8.501 15.548-18.769zm-56.955-63.008c0-2.662-7.147-7.071-15.882-9.797-13.968-4.359-16.754-4.168-23.111 1.585-11.659 10.552-8.618 13.052 15.883 13.052 15.984 0 23.111-1.492 23.111-4.84z"/><g fill="#fff"><path d="M-2578.01-191.24c3.468 2.121 7.042 5.832 6.671 8.897s-4.687 5.484-8.155 3.363-6.089-8.781-5.718-11.847 3.733-2.534 7.202-.413z" filter="url(#D)"/><path d="M-2466.867-73.371c8.919 2.827 17.751 7.179 18.598 10.757s-6.29 6.382-15.209 3.555-19.619-11.282-20.466-14.861 8.158-2.278 17.077.549z" filter="url(#E)"/><path d="M-2644.261 48.557c5.392 2.313 8.966 6.025 9.172 8.705s-2.955 4.33-8.347 2.016-13.014-8.589-13.221-11.27 7.004-1.765 12.396.549z" filter="url(#F)"/><path d="M-2621.207 10.253c2.955 1.031 6.529 4.742 6.992 8.384s-2.186 7.215-5.141 6.184-6.217-6.665-6.68-10.308 1.874-5.292 4.829-4.261z" filter="url(#G)"/><path d="M-2624.716-46.275c4.815 1.48 8.389 5.191 8.595 7.871s-2.955 4.33-7.77 2.85-11.283-6.088-11.489-8.769 5.85-3.432 10.664-1.952z" filter="url(#H)"/></g></g><path d="M-905.02-384.47l-153.963 49.823-8.809 26.778-94.245 484.042 10.349 7.986h493.336l10.349-7.986-94.244-482.219-8.809-28.601z" opacity=".25" fill="url(#C)" transform="matrix(-2.0051 0 0 -2.0051 -1154.6881 446.05465)" style="mix-blend-mode:overlay"/><path d="M165.355 97.854l.043-21.064-20.75 16.013 20.707 5.052zm821.025 961.863l-17.664-13.248L660 1143.218v16.402z" opacity=".4"/><path d="M333.62 1059.717l17.664-13.248L660 1143.218v16.402z" opacity=".6"/><path d="M333.62 1059.717l17.664-13.248L165.355 97.854l-20.707-5.052z" opacity=".6"/><g fill="#fff"><path d="M986.38 1059.717l-17.664-13.248 185.93-948.615 20.707-5.052z" opacity=".3"/><path d="M1154.646 97.854l-.043-21.064 20.75 16.013-20.707 5.052z" opacity=".8"/><path d="M1154.646 97.854H165.355l.043-21.064h989.205l.043 21.064z" opacity=".3"/></g><path d="M351.283 1117.065l-17.663-57.348L660 1159.62l326.38-99.903-17.663 57.348L660 1216.968l-308.717-99.903z" opacity=".7"/><g transform="rotate(180 660 675.569)" fill="#000"><path d="M650.373 941.796h19.257v231.519h-19.257z"/><path d="M775.76 1047.928v19.257H544.241v-19.257z"/><path d="M735.048 968.894l13.617 13.617-84.674 84.674-13.617-13.617z"/><path d="M669.631 1053.568l-13.617 13.617-84.675-84.675 13.617-13.617z"/></g></svg>