<svg xmlns="http://www.w3.org/2000/svg" xmlns:xlink="http://www.w3.org/1999/xlink" width="498.898" height="544.252" viewBox="0 0 1320 1440" xmlns:v="https://vecta.io/nano"><style><![CDATA[.B{filter:url(#D)}.C{color-interpolation-filters:sRGB}]]></style><defs><linearGradient id="A" x1="-1430.769" y1="-77.47" x2="-1409.955" y2="-77.47" spreadMethod="reflect" gradientUnits="userSpaceOnUse"><stop offset="0" stop-color="#ffd285"/><stop offset=".232" stop-color="#ffcd79"/><stop offset=".616" stop-color="#ffca73"/><stop offset=".808" stop-color="#ffd386"/><stop offset="1" stop-color="#ffc86e"/></linearGradient><filter id="B" x="-.013" y="-.011" width="1.026" height="1.022" class="C"><feGaussianBlur stdDeviation="2.441"/></filter><linearGradient id="C" x1="-905.02" y1="-384.47" x2="-904.556" y2="184.159" gradientUnits="userSpaceOnUse"><stop offset="0"/><stop offset=".603" stop-color="#fff"/></linearGradient><filter id="D" x="-.079" y="-.083" width="1.159" height="1.166" class="C"><feGaussianBlur stdDeviation=".392"/></filter><path id="E" d="M-2632.34 29.151c2.955 1.031 6.529 4.742 6.735 7.422s-2.955 4.33-5.91 3.299-5.704-4.742-5.91-7.422 2.131-4.33 5.086-3.299z"/></defs><path style="mix-blend-mode:multiply" d="M-2659.569 204.596l26.181 28.949 150.416 46.096 171.017-51.398 98.911-437.515-45.894-49.39z" transform="matrix(-2.0051 0 0 2.0051 -4364.0778 706.82307)" opacity=".5" filter="url(#B)"/><path d="M-1220.686-340.838l-153.963 49.823-8.809 28.459-94.245 482.361 10.349 7.986h493.336l10.348-7.986-94.244-482.361-8.809-28.459z" fill="url(#A)" transform="matrix(-2.0051 0 0 -2.0051 -1787.6392 533.54186)"/><path d="M-905.02-384.47l-153.963 49.823-8.809 26.778-94.245 484.042 10.349 7.986h493.336l10.349-7.986-94.244-482.219-8.809-28.601z" opacity=".25" fill="url(#C)" transform="matrix(-2.0051 0 0 -2.0051 -1154.6881 446.05465)" style="mix-blend-mode:overlay"/><path d="M165.355 97.854l.043-21.064-20.75 16.013 20.707 5.052zm821.025 961.863l-17.664-13.248L660 1143.218v16.402z" opacity=".4"/><path d="M333.62 1059.717l17.664-13.248L660 1143.218v16.402z" opacity=".6"/><path d="M333.62 1059.717l17.664-13.248L165.355 97.854l-20.707-5.052z" opacity=".6"/><g fill="#fff"><path d="M986.38 1059.717l-17.664-13.248 185.93-948.615 20.707-5.052z" opacity=".3"/><path d="M1154.646 97.854l-.043-21.064 20.75 16.013-20.707 5.052z" opacity=".8"/><path d="M1154.646 97.854H165.355l.043-21.064h989.205l.043 21.064z" opacity=".3"/></g><g transform="matrix(-2.1818 0 0 -2.1818 -4914.8196 622.79194)"><path d="M-2633.509 43.745c-14.202-5.239-23.496-15.706-20.615-23.215 1.49-3.883 9.426-4.518 35.418-2.835l33.497 2.17V9.52c0-8.42-1.223-9.823-6.572-7.535-15.291 6.539-25.55 5.656-36.308-3.126-13.231-10.801-11.512-24.023 2.556-19.659 18.139 5.627 25.541 6.51 34.889 4.164 14.155-3.553 9.222-11.018-9.378-14.194-8.856-1.512-18.21-5.633-20.787-9.157-4.269-5.838-6.319-5.044-23.035 8.922-17.669 14.763-41.815 27.287-52.606 27.287-9.115 0-5.562-5.594 8.292-13.055 22.373-12.049 68.276-65.897 89.711-105.239 5.627-10.327 12.945-21.829 16.262-25.559 4.89-5.499 5.175-8.154 1.504-14.032-2.49-3.987-4.528-11.497-4.528-16.689 0-13.564 14.262-12.459 29.33 2.272 13.056 12.765 13.861 15.309 8.189 25.906-3.147 5.881-1.099 9.499 12.083 21.346 8.73 7.846 29.447 27.025 46.037 42.621 21.749 20.445 37.236 31.416 55.513 39.328 13.942 6.035 25.349 12.287 25.349 13.892 0 3.04-14.962 3.997-46.942 3.004-17.651-.548-20.24-1.998-43.186-24.18l-24.41-23.597-15.021 4.47c-20.103 5.982-19.604 14.446 1.014 17.198 29.059 3.878 30.747 17.214 2.77 21.891-20.258 3.387-14.13 9.906 8.278 8.807 16.385-.804 20.235.279 23.645 6.65 5.41 10.11 1.826 14.965-11.048 14.965-21.841 0-34.046 4.364-34.046 12.173 0 5.991 1.682 6.984 8.45 4.988 4.647-1.37 18.022-3.479 29.721-4.686 19.365-1.998 22.142-1.324 30.982 7.515 10.986 10.986 12.222 18.313 4.213 24.961-4.342 3.603-10.511 3.305-29.344-1.418-34.618-8.682-49.897-7.732-109.74 6.82-4.131 1.004-13.192-.269-20.135-2.831zm50.079-99.938c1.222-1.977-3.024-6.308-9.436-9.624-12.402-6.413-22.385-2.825-22.385 8.046 0 6.022 28.211 7.421 31.822 1.578zm22.631-33.958c1.276-2.065 6.446-3.755 11.488-3.755 5.064 0 9.167-2.207 9.167-4.93 0-5.088-21.522-27.696-23.646-24.839-.656.882-6.543 8.55-13.082 17.039s-10.809 16.516-9.487 17.838c3.807 3.807 23 2.791 25.561-1.352z" fill="maroon"/><g fill="#fff"><use xlink:href="#E" class="B"/><use xlink:href="#E" x="155.869" y="-77.11" class="B"/><use xlink:href="#E" x="60.203" y="-200.403" class="B"/><use xlink:href="#E" x="24.329" y="-77.11" class="B"/><use xlink:href="#E" x="11.546" y="-41.235" class="B"/></g></g><path d="M351.283 1117.065l-17.663-57.348L660 1159.62l326.38-99.903-17.663 57.348-308.717 99.903-308.717-99.903z" opacity=".7"/><g fill="#810000"><path d="M654.065 294.356h11.87v142.708h-11.87zm11.87-.774h-11.87V150.874h11.87z"/><path d="M659.613 288.034v11.87H516.905v-11.87zm.774 11.87v-11.87h142.708v11.87z"/><path d="M655.529 290.046l8.393 8.393-100.909 100.909-8.393-8.393z"/><path d="M656.077 298.44l8.393-8.393L765.38 390.956l-8.393 8.393z"/></g></svg>