<svg xmlns="http://www.w3.org/2000/svg" xmlns:xlink="http://www.w3.org/1999/xlink" width="498.898" height="544.252" viewBox="0 0 1320 1440" xmlns:v="https://vecta.io/nano"><style><![CDATA[.E{filter:url(#D)}.F{color-interpolation-filters:sRGB}]]></style><defs><linearGradient id="A" x1="-1430.769" y1="-77.47" x2="-1409.955" y2="-77.47" spreadMethod="reflect" gradientUnits="userSpaceOnUse"><stop offset="0" stop-color="#ffd285"/><stop offset=".232" stop-color="#ffcd79"/><stop offset=".616" stop-color="#ffca73"/><stop offset=".808" stop-color="#ffd386"/><stop offset="1" stop-color="#ffc86e"/></linearGradient><filter id="B" x="-.014" y="-.011" width="1.028" height="1.022" class="F"><feGaussianBlur stdDeviation="2.441"/></filter><linearGradient id="C" x1="-905.021" y1="-376.306" x2="-904.556" y2="184.159" gradientUnits="userSpaceOnUse"><stop offset="0"/><stop offset=".602" stop-color="#fff"/></linearGradient><filter id="D" x="-.079" y="-.083" width="1.159" height="1.166" class="F"><feGaussianBlur stdDeviation=".392"/></filter><path id="E" d="M-2531.508-179.429c2.955 1.031 6.529 4.742 6.735 7.422s-2.955 4.33-5.91 3.299-5.704-4.742-5.91-7.422 2.131-4.33 5.086-3.299z"/></defs><path style="mix-blend-mode:multiply" d="M-2655.488 204.013l26.181 28.949 146.334 38.515 166.935-43.817 86.005-436.932-45.894-49.39z" transform="matrix(-2.0051 0 0 2.0051 -4364.0778 706.82307)" opacity=".5" filter="url(#B)"/><path d="M-1220.686-332.674l-149.881 42.384-8.809 28.459-81.338 481.636 10.349 7.986h459.359l10.348-7.986-81.338-481.636-8.809-28.459z" fill="url(#A)" transform="matrix(-2.0051 0 0 -2.0051 -1787.6392 533.54186)"/><path d="M-905.021-376.306l-149.881 44.065-8.809 26.778-111.156 481.636 10.349 7.986h518.995l10.349-7.986-111.156-481.636-8.809-28.601z" opacity=".25" fill="url(#C)" transform="matrix(-2.0051 0 0 -2.0051 -1154.6881 446.05465)" style="mix-blend-mode:overlay"/><path d="M199.419 97.854l.043-21.064-20.75 16.013 20.707 5.052zm778.776 960.694l-17.664-13.248L660 1126.847v16.402z" opacity=".4"/><path d="M341.805 1058.548l17.664-13.248L660 1126.847v16.402z" opacity=".6"/><path d="M341.805 1058.548l17.664-13.248-160.05-947.446-20.707-5.052z" opacity=".6"/><g fill="#fff"><path d="M978.195 1058.548l-17.664-13.248 160.05-947.446 20.707-5.052z" opacity=".3"/><path d="M1120.582 97.854l-.043-21.064 20.75 16.013-20.707 5.052z" opacity=".8"/><path d="M1120.582 97.854H199.419l.043-21.064h921.077l.043 21.064z" opacity=".3"/></g><path d="M359.468 1115.896l-17.663-57.348L660 1143.25l318.195-84.702-17.663 57.348L660 1200.598l-300.532-84.702z" opacity=".7"/><g transform="matrix(-1.9283 0 0 -1.9283 -4266.9781 632.63309)"><path d="M-2577.841 48.663l-13.245-8.989-8.112 7.621c-11.076 10.406-17.345 6.974-33.737-18.469-7.652-11.878-14.946-21.61-16.208-21.628s-4.344 2.437-6.848 5.454-7.314 5.486-10.688 5.486c-16.134 0-19.925-21.935-6.684-38.671 16.98-21.461 57.163-83.421 55.669-85.839-.855-1.383-8.823-.852-17.707 1.181-14.26 3.263-17.484 2.748-27.514-4.394-6.249-4.45-11.362-11.27-11.362-15.156 0-6.337 2.752-7.065 26.697-7.065 15.888 0 28.474-1.777 31.086-4.388 6.113-6.113 5.475-23.131-1.362-36.352-7.778-15.041-4.541-21.431 10.856-21.431 21.084 0 36.759 28.248 22.323 40.229-3.017 2.504-5.486 5.997-5.486 7.762 0 4.499 16.017 4.016 20.655-.623 2.671-2.672 6.749-2.503 13.461.555 10.914 4.973 16.138 16.657 10.133 22.663-6.827 6.827-4.477 10.41 6.037 9.201 9.764-1.123 10.057-1.816 10.033-23.741-.019-17.639-1.821-25.014-8.229-33.681-10.625-14.371-10.371-21.027.908-23.858 10.941-2.746 30.303 4.834 39.921 15.628 6.111 6.859 6.451 9.58 2.743 21.958-2.328 7.771-4.233 18.639-4.233 24.153 0 8.069 1.248 9.532 6.4 7.503 3.52-1.387 14.629-3.378 24.686-4.426 16.189-1.687 19.282-.835 26.977 7.429 14.936 16.042 12.179 17.709-49.834 30.14-5.318 1.066-8.229 4.299-8.229 9.14 0 5.407 1.78 6.972 6.4 5.624 3.52-1.027 13.921-2.926 23.115-4.22 14.65-2.063 18.151-1.145 28.343 7.431 22.15 18.638 15.175 23.763-32.341 23.763-32.946 0-40.853 3.134-32.698 12.96 2.949 3.553 11.547 5.326 25.831 5.326 19.024 0 22.105 1.06 27.643 9.512 9.93 15.155 3.092 21.574-22.981 21.574-18.766 0-21.617.934-22.541 7.387-.969 6.764.934 7.381 22.577 7.314 31.215-.096 44.311 8.646 44.311 29.58 0 12.812-1.006 14.35-10.065 15.392-6.014.692-14.544-2.032-21.195-6.767-17.338-12.346-43.993-13.168-75.729-2.334l-26.531 9.057zm36.751-29.088c3.182-1.221 5.785-5.335 5.785-9.143 0-5.293-2.65-6.923-11.253-6.923-7.631 0-14.79-3.537-22.242-10.989-12.745-12.745-11.997-20.488 1.851-19.182 31.266 2.947 29.75 3.305 30.972-7.314 1.104-9.595.432-10.058-14.629-10.071-9.12-.01-20.659-2.985-27.326-7.05-6.347-3.87-12.519-6.058-13.714-4.862-3.128 3.129-2.577 64.161.625 69.104 4.647 7.174 37.102 11.355 49.931 6.432zm-75.439-41.046c.591-16.64-.437-29.877-2.322-29.877-4.541 0-13.01 13.402-19.018 30.097-4.601 12.783-4.361 14.223 3.816 22.927 4.799 5.108 10.466 8.712 12.593 8.009.353-.117.706-.573 1.052-1.328 1.784-3.895 3.378-15.738 3.879-29.829zm84.881-49.692c0-.841.999-4.133 2.22-7.314 1.704-4.442-.206-5.788-8.229-5.799-13.305-.017-34.422-12.77-36.912-22.29-2.18-8.335-11.202-7.951-16.655.709-6.638 10.542-.05 24.009 14.743 30.145 12.316 5.108 44.832 8.407 44.832 4.549z"/><g fill="#fff"><use xlink:href="#E" class="E"/><use xlink:href="#E" x="-75.049" y="1.65" class="E"/><use xlink:href="#E" x="-124.531" y="56.905" class="E"/><use xlink:href="#E" x="-136.876" y="176.643" class="E"/><use xlink:href="#E" x="-82.446" y="212.93" class="E"/><use xlink:href="#E" x="-22.267" y="75.873" class="E"/><use xlink:href="#E" x="-25.566" y="165.766" class="E"/><use xlink:href="#E" x="-40.411" y="218.547" class="E"/></g></g><g transform="matrix(-1.6024 0 0 -1.6024 -1282.7601 324.60688)"><path d="M-1212.432 99.634c-8.503-42.888-13.794-93.984-24.473-118.599s-26.746-22.747-39.602-29.088c8.573 6.76 17.145 13.52 27.825 38.135s23.465 67.084 36.25 109.553z"/><path d="M-1212.432 99.634c8.503-42.888 13.794-93.984 24.473-118.599s26.746-22.747 39.602-29.088c-8.573 6.76-17.145 13.52-27.825 38.135s-23.465 67.084-36.25 109.553z"/></g></svg>