<svg xmlns="http://www.w3.org/2000/svg" xmlns:xlink="http://www.w3.org/1999/xlink" width="498.898" height="544.252" viewBox="0 0 1320 1440" xmlns:v="https://vecta.io/nano"><style><![CDATA[.B{filter:url(#D)}.C{color-interpolation-filters:sRGB}]]></style><defs><linearGradient id="A" x1="-1430.769" y1="-77.47" x2="-1409.955" y2="-77.47" spreadMethod="reflect" gradientUnits="userSpaceOnUse"><stop offset="0" stop-color="#ffd285"/><stop offset=".232" stop-color="#ffcd79"/><stop offset=".616" stop-color="#ffca73"/><stop offset=".808" stop-color="#ffd386"/><stop offset="1" stop-color="#ffc86e"/></linearGradient><filter id="B" x="-.012" y="-.01" width="1.024" height="1.021" class="C"><feGaussianBlur stdDeviation="2.441"/></filter><linearGradient id="C" x1="-904.556" y1="-406.052" x2="-904.556" y2="184.159" gradientUnits="userSpaceOnUse"><stop offset="0"/><stop offset=".601" stop-color="#fff"/></linearGradient><filter id="D" x="-.079" y="-.083" width="1.159" height="1.166" class="C"><feGaussianBlur stdDeviation=".392"/></filter><filter id="E" x="-.04" y="-.05" width="1.081" height="1.099" class="C"><feGaussianBlur stdDeviation=".392"/></filter><filter id="F" x="-.045" y="-.042" width="1.09" height="1.084" class="C"><feGaussianBlur stdDeviation=".392"/></filter><path id="G" d="M-6380.018-151.679c2.955 1.031 6.529 4.742 6.735 7.422s-2.955 4.33-5.91 3.299-5.704-4.742-5.91-7.422 2.131-4.33 5.086-3.299z"/></defs><path style="mix-blend-mode:multiply" d="M-2681.73 217.274l26.181 28.949 172.576 56.161 193.177-61.463 89.581-450.194-45.894-49.39z" transform="matrix(-2.0051 0 0 2.0051 -4364.0778 706.82307)" opacity=".5" filter="url(#B)"/><path d="M-1220.686-363.581l-176.123 60.03-8.809 28.459-84.914 494.898 10.349 7.986h518.995l10.348-7.986-84.914-495.039-8.809-28.459z" fill="url(#A)" transform="matrix(-2.0051 0 0 -2.0051 -1787.6392 533.54186)"/><path d="M-905.02-407.213l-176.123 59.888-8.809 26.778-84.914 496.72 10.349 7.986h518.995l10.349-7.986-84.914-494.898-8.809-28.601z" opacity=".25" fill="url(#C)" transform="matrix(-2.0051 0 0 -2.0051 -1154.6881 446.05465)" style="mix-blend-mode:overlay"/><path d="M139.629 97.854l.043-21.064-20.75 16.013 20.707 5.052zm891.185 987.285l-17.664-13.248L660 1188.821v16.402z" opacity=".4"/><path d="M289.186 1085.139l17.664-13.248L660 1188.821v16.402z" opacity=".6"/><path d="M289.186 1085.139l17.664-13.248L139.629 97.854l-20.707-5.052z" opacity=".6"/><g fill="#fff"><path d="M1030.814 1085.139l-17.664-13.248 167.221-974.037 20.707-5.052z" opacity=".3"/><path d="M1180.371 97.854l-.043-21.064 20.75 16.013-20.707 5.052z" opacity=".8"/><path d="M1180.371 97.854H139.629l.043-21.064h1040.656l.043 21.064z" opacity=".3"/></g><g transform="matrix(.7484 0 0 .7484 25407.303 -7585.4982)"><path d="M-32965.565 10892.922c30.068 33.83 52.167 64.01 49.11 67.067s-23.148-2.989-44.645-13.434-40.938-18.991-43.196-18.991-4.105 17.308-4.105 38.462c0 45.102 10.569 51.525 68.521 41.632 36.74-6.272 38.43-7.954 48.707-48.421 5.855-23.058 18.917-50.195 29.026-60.305l18.381-18.381 31.224 30.014c31.925 30.688 60.468 75.94 52.761 83.648-2.364 2.363-16.48-4.711-31.371-15.72-32.766-24.226-51.513-16.402-67.079 27.997-12.48 35.589-14.481 137.279-3.284 166.731 4.731 12.443 24.254 29.025 47.324 40.192 35.326 17.101 58.005 46.195 45.644 58.555-2.578 2.578-17.183.331-32.456-4.993s-52.655-9.68-83.069-9.68c-52.836 0-57.052 1.614-94.564 36.191-26.505 24.431-38.423 42.024-36.683 54.143 3.874 26.973 27.105 26.269 39.282-1.19 14.188-31.992 51.909-71.79 68.045-71.79 21.605 0 23.732 23.95 4.525 50.925-23.082 32.416-22.798 35.846 2.963 35.846 34.849 0 65.242 15.655 75.927 39.109 16.619 36.471-1.562 44.996-48.705 22.836-28.299-13.302-47.331-18.991-62.092-17.785-6.938.568-12.933 2.658-18.504 6.198-11.836 7.522.323 36.847 31.955 77.061 39.463 50.17.233 64.273-54.132 19.461-26.214-21.607-32.346-32.478-32.346-57.33 0-25.895-2.364-29.656-15.187-24.172-35.295 15.095-58.865 13.654-78.56-4.803-26.576-24.905-20.498-37.957 20.126-43.22 31.387-4.066 32.568-5.253 18.845-18.904-21.529-21.416-18.046-37.788 13.558-63.703l28.2-23.124-45.396 4.713c-38.772 4.026-48.905 1.79-69.417-15.32-21.843-18.217-29.017-19.435-79.149-13.428-59.314 7.107-76.036 16.543-67.722 38.213 4.321 11.26 19.569 13.546 84.518 12.672 60.205-.809 82.396 2.085 92.357 12.044 19.232 19.233 6.052 32.128-32.844 32.128h-34.196v63.455c0 59.01 1.802 65.182 25.722 88.099 43.669 41.838 5.367 57.082-42.411 16.879-19.065-16.043-26.697-30.029-26.697-48.93v-26.465l-52.112 4.726c-42.406 3.845-55.74 1.76-71.585-11.195-28.149-23.011-11.562-34.583 59.659-41.622 54.416-5.377 59.96-7.742 62.641-26.717 2.879-20.363 1.867-20.706-46.344-15.731-52.222 5.39-86.611-4.335-95.289-26.949-5.102-13.298 37.111-82.049 63.573-103.537 7.721-6.27 37.896-10.847 71.509-10.847 46.28 0 59.289-2.954 63.706-14.467 10.009-26.082-7.696-30.815-76.353-20.408-70.543 10.693-83.531 8.125-83.531-16.52 0-17.222 43.553-26.699 122.692-26.699 38.699 0 42.175-1.711 42.175-20.765 0-27.527-10.541-30.265-82.433-21.412-71.681 8.826-84.596 5.522-80.872-20.693 1.98-13.952 9.539-20.343 26.354-22.281 20.713-2.388 23.445-6.271 22.479-31.95-1.188-31.58 18.983-68.736 51.002-93.949 11.046-8.699 20.084-19.437 20.084-23.863 0-11.513-49.958-9.932-84.853 2.687-32.266 11.667-31.501 6.188-13.917 99.9 6.253 33.326-10.277 39.207-22.184 7.891-4.248-11.17-23.675-38.74-43.171-61.267s-35.449-44.021-35.449-47.764c0-22.208 84.479-61.181 133.159-61.43 37.325-.191 114.657 24.576 129.251 41.395 19.227 22.16 27.949 75.877 24.961 153.714-7.389 192.376-7.54 190.589 16.329 193.962 11.93 1.686 65.554.329 119.161-3.016 91.001-5.678 96.904-7.14 88.938-22.025-7.609-14.218-16.748-15.42-84.454-11.098-69.769 4.454-77.262 3.352-92.473-13.603-15.058-16.785-15.507-21.774-4.983-55.303 6.794-21.649 11.834-80.609 12.212-142.903.579-95.157 2.489-107.893 18.593-124.002l17.946-17.952zm-251.119 86.774c-15.032 36.292.793 60.671 39.383 60.671h30.064v-43.957c0-24.176-4.239-51.875-9.418-61.555-9.396-17.555-9.471-17.552-29.672 1.428-11.14 10.464-24.799 30.001-30.357 43.413zm213.81 78.365c-14.902 13.584 4.983 25.691 42.195 25.691 39.024 0 52.712-9.195 44.716-30.035-3.283-8.553-14.964-10.546-41.986-7.165-20.591 2.576-40.808 7.755-44.925 11.509zm-12.038 65.199c-17.595 5.408-12.431 21.059 9.732 29.485 30.496 11.595 92.226-5.977 92.226-26.254 0-13.976-5.486-15.328-45.554-11.227-25.056 2.564-50.436 6.163-56.404 7.996z" fill="maroon"/><g fill="#fff"><use xlink:href="#G" transform="matrix(-2.0051 0 0 -2.0051 -45917.913 11028.156)" class="B"/><use xlink:href="#G" x="-177.862" y="-33.823" transform="matrix(-2.0051 0 0 -2.0051 -45997.288 11043.039)" class="B"/><use xlink:href="#G" x="-5.248" y="136.458" transform="matrix(-2.0051 0 0 -2.0051 -45712.861 11272.895)" class="B"/><path d="M-6380.096 33.211c5.27 5.408 2.109 7.057-4.74 2.476s-17.39-15.398-15.808-16.223 15.279 8.339 20.549 13.747z" transform="matrix(-2.0051 0 0 -2.0051 -45795.543 10960.356)" filter="url(#E)"/><path d="M-6350.517 106.04c4.945 3.4 8.519 7.111 10.099 11.346s1.166 8.996-3.781 5.596-14.414-14.951-15.996-19.189 4.732-1.152 9.677 2.248z" transform="matrix(-2.0051 0 0 -2.0051 -45547.496 11160.28)" filter="url(#F)"/><use xlink:href="#G" x="-126.544" y="134.709" transform="matrix(-2.0051 0 0 -2.0051 -45843.499 11218.325)" class="B"/><use xlink:href="#G" x="-71.145" y="-41.987" transform="matrix(-2.0051 0 0 -2.0051 -46098.16 11122.414)" class="B"/></g></g><path d="M306.849 1142.487l-17.663-57.348L660 1205.223l370.814-120.084-17.663 57.348L660 1262.571l-353.151-120.084z" opacity=".7"/><g fill="#980000"><path d="M660 469.813l45.651-93.169-91.302.001z"/><path d="M654.065 294.356h11.87v142.708h-11.87zM660 118.125l-45.651 93.169 91.302-.001z"/><path d="M665.935 293.582h-11.87V150.874h11.87zm-181.779.387l93.169 45.651v-91.302z"/><path d="M659.613 288.034v11.87H516.905v-11.87zm176.231 5.935l-93.169-45.651.001 91.302z"/><path d="M660.387 299.904v-11.87h142.708v11.87z"/><path d="M655.529 290.046l8.393 8.393-100.909 100.909-8.393-8.393zm8.942 7.846l-8.393-8.393L756.987 188.59l8.393 8.393z"/><path d="M663.923 289.499l-8.393 8.393-100.91-100.91 8.393-8.393zm-7.846 8.941l8.393-8.393 100.91 100.909-8.393 8.393z"/></g></svg>