<svg xmlns="http://www.w3.org/2000/svg" width="498.898" height="544.252" viewBox="0 0 1320 1440" xmlns:v="https://vecta.io/nano"><style><![CDATA[.B{color-interpolation-filters:sRGB}]]></style><defs><linearGradient id="A" x1="-1430.769" y1="-77.47" x2="-1409.955" y2="-77.47" spreadMethod="reflect" gradientUnits="userSpaceOnUse"><stop offset="0" stop-color="#ffd285"/><stop offset=".232" stop-color="#ffcd79"/><stop offset=".616" stop-color="#ffca73"/><stop offset=".808" stop-color="#ffd386"/><stop offset="1" stop-color="#ffc86e"/></linearGradient><filter id="B" x="-.012" y="-.01" width="1.023" height="1.02" class="B"><feGaussianBlur stdDeviation="2.441"/></filter><filter id="C" x="-.022" y="-.036" width="1.045" height="1.071" class="B"><feGaussianBlur stdDeviation=".392"/></filter><filter id="D" x="-.04" y="-.056" width="1.08" height="1.112" class="B"><feGaussianBlur stdDeviation=".392"/></filter><filter id="E" x="-.048" y="-.065" width="1.095" height="1.13" class="B"><feGaussianBlur stdDeviation=".392"/></filter><linearGradient id="F" x1="-904.556" y1="-406.052" x2="-904.556" y2="184.159" gradientUnits="userSpaceOnUse"><stop offset="0"/><stop offset=".603" stop-color="#fff"/></linearGradient></defs><path style="mix-blend-mode:multiply" d="M-2699.281 228.709l26.181 28.949 190.592 72.165 210.264-77.468 75.234-461.629-45.894-49.39z" transform="matrix(-2.0051 0 0 2.0051 -4364.0778 706.82307)" opacity=".5" filter="url(#B)"/><path d="M-1220.221-390.88l-194.139 75.893-8.809 28.459-70.567 506.333 10.349 7.986h525.404l10.348-7.986-70.567-506.333-8.809-28.459z" fill="url(#A)" transform="matrix(-2.0051 0 0 -2.0051 -1787.6392 533.54186)"/><g transform="matrix(-1.7255 0 0 -1.7255 -1447.6878 649.9731)"><path d="M-1086.899 71.649l-20.345-12.068-73.7-.07c-60.779-.057-79.558 1.389-107.113 8.247-36.786 9.155-43.009 8.33-68.412-9.069-29.502-20.207-21.112-33.115 17.293-26.607 18.301 3.101 34.03 2.695 62.821-1.621l38.407-5.758-.343-38.579-.343-38.579-31.097 1.457c-28.064 1.314-32.67.416-47.22-9.213-10.267-6.794-16.123-13.768-16.123-19.202 0-7.771 1.363-8.22 15.259-5.029 16.167 3.713 66.812 3.637 76.59-.115 6.863-2.634 8.315-60.461 1.938-77.232-3.678-9.674-5.356-10.146-34.116-9.596-27.218.521-31.722-.545-44.96-10.642-24.767-18.891-16.638-38.67 10.191-24.796 16.369 8.464 70.74 6.274 105.63-4.256 12.13-3.661 29.379-8.553 38.33-10.873s22.357-6.82 29.789-10.001c12.311-5.27 14.515-5.071 24.775 2.236 32.012 22.795 26.252 29.547-33.251 38.982-25.15 3.988-49.905 8.786-55.013 10.662-9.195 3.379-9.215 3.542-2.034 16.687 4.076 7.462 8.142 25.748 9.286 41.758l2.034 28.483 16.225-1.412c8.923-.777 21.192-3.981 27.264-7.121 16.841-8.709 30.338-6.889 44.809 6.04 17.989 16.073 11.719 22.915-24.246 26.455l-46.759 5.152-19.328 2.452v41.866 41.866l46.031-2.267c54.27-2.673 70.148 1.256 88.211 21.829 13.371 15.229 13.651 27.018.881 37.056-8.494 6.677-7.86 6.821-31.363-7.121z"/><g fill="#fff"><path d="M-2527.808-198.738c5.302.635 26.594 12.359 27.814 19.29s-4.43 6.227-9.731 5.593-31.004-14.408-32.223-21.335 8.838-4.182 14.141-3.547z" transform="matrix(.9525 0 0 .9525 1059.1381 230.82549)" filter="url(#C)"/><path d="M-2508.172-185.09c5.833 2.027 15.644 11.216 16.096 14.531s-8.459.75-14.289-1.277-8.58-5.738-9.032-9.05 1.393-6.231 7.226-4.204z" transform="matrix(-.9525 0 0 -.9525 -3695.0395 -236.24863)" filter="url(#D)"/><path d="M-2508.095-182.105c4.926 2.478 12.444 9.086 12.651 11.767s-6.897 1.434-11.825-1.045-7.676-6.19-7.883-8.871 2.131-4.33 7.057-1.851z" transform="matrix(-.9525 0 0 -.9525 -3696.5068 -354.20384)" filter="url(#E)"/></g></g><g transform="matrix(-2.0051 0 0 -2.0051 -4373.0595 445.25651)" stroke="#000" stroke-width=".627"><path d="M-2514.888 18.883h9.604v115.465h-9.604z"/><path transform="rotate(90)" d="M71.814 2452.354h9.604v115.465h-9.604z"/><path transform="rotate(45)" d="M-1725.525 1771.342h9.604v115.465h-9.604z"/><path transform="rotate(135)" d="M1824.272 1662.991h9.604v115.465h-9.604z"/></g><path d="M-904.556-434.511l-194.139 75.893-8.809 31.887-70.567 502.905 10.349 7.986h525.404l10.349-7.986-70.567-502.905-8.809-31.887z" opacity=".25" fill="url(#F)" transform="matrix(-2.0051 0 0 -2.0051 -1154.6881 446.05465)" style="mix-blend-mode:overlay"/><path d="M133.204 97.854l.043-21.064-20.75 16.013 20.707 5.052zm932.803 1010.214l-17.664-13.248-389.274 149.021v16.402z" opacity=".4"/><path d="M253.993 1108.068l17.664-13.248 387.412 149.021v16.402z" opacity=".6"/><path d="M253.993 1108.068l17.664-13.248L133.204 97.854l-20.707-5.052z" opacity=".6"/><g fill="#fff"><path d="M1066.007 1108.068l-17.664-13.248 138.453-996.966 20.707-5.052z" opacity=".3"/><path d="M1186.796 97.854l-.043-21.064 20.75 16.013-20.707 5.052z" opacity=".8"/><path d="M1186.796 97.854H133.204l.043-21.064h1053.506l.043 21.064z" opacity=".3"/></g><path d="M271.655 1165.416l-17.663-57.348 405.076 152.176 406.938-152.176-17.663 57.348-389.275 152.176-387.413-152.176z" opacity=".7"/></svg>