<svg xmlns="http://www.w3.org/2000/svg" width="498.898" height="544.252" viewBox="0 0 1320 1440" xmlns:v="https://vecta.io/nano"><style><![CDATA[.B{color-interpolation-filters:sRGB}]]></style><defs><linearGradient id="A" x1="-1430.769" y1="-77.47" x2="-1409.955" y2="-77.47" spreadMethod="reflect" gradientUnits="userSpaceOnUse"><stop offset="0" stop-color="#ffd285"/><stop offset=".232" stop-color="#ffcd79"/><stop offset=".616" stop-color="#ffca73"/><stop offset=".808" stop-color="#ffd386"/><stop offset="1" stop-color="#ffc86e"/></linearGradient><filter id="B" x="-.014" y="-.011" width="1.028" height="1.023" class="B"><feGaussianBlur stdDeviation="2.441"/></filter><linearGradient id="C" x1="-905.02" y1="-363.658" x2="-904.556" y2="184.159" gradientUnits="userSpaceOnUse"><stop offset="0"/><stop offset=".603" stop-color="#fff"/></linearGradient><filter id="D" x="-.079" y="-.078" width="1.158" height="1.157" class="B"><feGaussianBlur stdDeviation=".392"/></filter><filter id="E" x="-.055" y="-.087" width="1.111" height="1.174" class="B"><feGaussianBlur stdDeviation=".392"/></filter><filter id="F" x="-.079" y="-.083" width="1.159" height="1.166" class="B"><feGaussianBlur stdDeviation=".392"/></filter><filter id="G" x="-.095" y="-.045" width="1.189" height="1.091" class="B"><feGaussianBlur stdDeviation=".392"/></filter><filter id="H" x="-.058" y="-.078" width="1.115" height="1.157" class="B"><feGaussianBlur stdDeviation=".392"/></filter></defs><path style="mix-blend-mode:multiply" d="M-2651.547 193.989l26.181 28.949 142.394 35.891 162.994-41.193 89.945-426.908-45.894-49.39z" transform="matrix(-2.0051 0 0 2.0051 -4364.0778 706.82307)" opacity=".5" filter="url(#B)"/><path d="M-1220.685-320.026l-145.941 39.619-8.809 28.459-85.278 471.754 10.349 7.986h459.359l10.348-7.986-85.278-471.754-8.809-28.459z" fill="url(#A)" transform="matrix(-2.0051 0 0 -2.0051 -1787.6392 533.54186)"/><path d="M-905.02-363.658l-145.941 39.619-8.809 26.778-102.267 473.435 10.349 7.986h493.336l10.349-7.986-102.267-471.612-8.809-28.601z" opacity=".25" fill="url(#C)" transform="matrix(-2.0051 0 0 -2.0051 -1154.6881 446.05465)" style="mix-blend-mode:overlay"/><path d="M199.418 97.854l.043-21.064-20.75 16.013 20.707 5.052zm770.876 940.595l-17.664-13.248L660 1101.487v16.402z" opacity=".4"/><path d="M349.706 1038.449l17.664-13.248L660 1101.487v16.402z" opacity=".6"/><path d="M349.706 1038.449l17.664-13.248L199.418 97.854l-20.707-5.052z" opacity=".6"/><g fill="#fff"><path d="M970.294 1038.449l-17.664-13.248 167.951-927.347 20.707-5.052z" opacity=".3"/><path d="M1120.582 97.854l-.043-21.064 20.75 16.013-20.707 5.052z" opacity=".8"/><path d="M1120.582 97.854H199.418l.043-21.064h921.077l.043 21.064z" opacity=".3"/></g><path d="M367.369 1095.797l-17.663-57.348L660 1117.89l310.294-79.441-17.663 57.348-292.631 79.441-292.63-79.441z" opacity=".7"/><g fill="#810000"><path d="M654.065 294.356h11.87v142.708h-11.87zm11.87-.774h-11.87V150.874h11.87z"/><path d="M659.613 288.034v11.87H516.905v-11.87zm.774 11.87v-11.87h142.708v11.87z"/><path d="M655.529 290.046l8.393 8.393-100.909 100.909-8.393-8.393z"/><path d="M656.077 298.44l8.393-8.393L765.38 390.956l-8.393 8.393z"/></g><g transform="matrix(-2.0556 0 0 -2.0556 -4590.2104 632.64957)"><path d="M-2577.102 52.997c-16.549-8.981-19.376-23.989-7.237-38.416 8.416-10.002 7.629-13.246-3.217-13.246-9.03 0-15.642-10.411-18.411-28.992-1.218-8.169-3.546-15.676-5.174-16.682-5.004-3.093-3.284-7.743 2.865-7.743 8.575 0 22.454 14.237 22.454 23.032 0 4.191 2.104 9.367 4.676 11.502 6.629 5.501 8.431-.793 7.269-25.382-.93-19.667-1.118-20.051-10.16-20.735-5.067-.383-13.276-2.38-18.242-4.437-11.84-4.904-14.65-1.802-19.187 21.186-3.27 16.564-4.416 18.401-11.488 18.401-6.55 0-8.018-1.681-8.833-10.118-1.189-12.303 5.8-27.778 19.798-43.843l10.479-12.026 3.34 8.641c2.853 7.38 5.13 8.641 15.602 8.641 24.138 0 25.833-16.56 2.819-27.555-8.209-3.922-14.925-8.427-14.925-10.012s7.777-11.799 17.282-22.697c18.48-21.19 19.93-24.751 12.569-30.86-2.592-2.151-4.713-6.662-4.713-10.023 0-4.868 1.438-5.682 7.07-4.001 12.667 3.781 21.069 10.796 23.227 19.395 1.809 7.205.214 10.071-10.948 19.685-7.186 6.189-13.065 12.466-13.065 13.95 0 3.512 28.042-.331 33.11-4.538 2.798-2.322 6.644-.917 13.671 4.997 17.103 14.391 11.06 20.537-21.119 21.479-13.715.402-14.597.935-13.608 8.235 1.591 11.747 4.585 13.123 17.139 7.878 14.834-6.198 53.012-6.309 64.848-.188 16.572 8.57 17.186 23.512 1.572 38.237-9.622 9.075-13.435 10.583-26.752 10.583-16.956 0-24.419-3.181-39.525-16.85-14.244-12.888-17.883-8.932-16 17.39.853 11.924 2.412 22.541 3.464 23.593s8.226-.498 15.942-3.445c13.137-5.017 14.541-5.023 22.066-.092 13.61 8.917 10.222 14.806-13.174 22.898-31.576 10.922-50.793 31.92-29.213 31.92 5.104 0 12.875-1.638 17.269-3.641 6.658-3.034 9.041-2.69 14.288 2.058 9.693 8.772 7.894 16.542-5.084 21.965-14.264 5.96-31.604 5.902-42.743-.143zm79.229-116.037c9.318-11.227-7.366-19.244-29.609-14.227-18.066 4.075-20.528 8.474-7.828 13.985 13.989 6.07 32.501 6.19 37.437.242z" fill="maroon"/><g fill="#fff"><path d="M-2634.678-44.248c2.955 1.031 6.529 4.742 6.182 7.597s-4.615 4.853-7.57 3.822-4.597-5.09-4.25-7.945 2.684-4.504 5.639-3.473z" transform="matrix(.6258 0 0 .6258 -985.66284 -14.552711)" filter="url(#D)"/><path d="M-2590.641-120.356c4.236.371 7.81 4.082 8.016 6.762s-2.955 4.33-7.191 3.959-9.548-2.761-9.754-5.442 4.693-5.65 8.929-5.279z" filter="url(#E)"/><path d="M-2557.568-80.535c2.955 1.031 6.529 4.742 6.735 7.422s-2.955 4.33-5.91 3.299-5.704-4.742-5.91-7.422 2.131-4.33 5.086-3.299z" filter="url(#F)"/><path d="M-2597.8-26.02c1.966-.032 4.667 6.625 6.237 11.815s2.01 8.913.044 8.945-6.338-3.625-7.909-8.816-.339-11.912 1.628-11.944z" filter="url(#G)"/><path d="M-2576.012 39.023c4.081 1.467 7.654 5.179 7.86 7.859s-2.955 4.33-7.036 2.862-9.08-6.051-9.287-8.732 4.381-3.457 8.462-1.989z" filter="url(#H)"/></g></g></svg>