<svg xmlns="http://www.w3.org/2000/svg" width="498.898" height="544.252" viewBox="0 0 1320 1440" xmlns:v="https://vecta.io/nano"><style><![CDATA[.B{color-interpolation-filters:sRGB}]]></style><defs><linearGradient id="A" x1="-1430.769" y1="-77.47" x2="-1409.955" y2="-77.47" spreadMethod="reflect" gradientUnits="userSpaceOnUse"><stop offset="0" stop-color="#ffd285"/><stop offset=".232" stop-color="#ffcd79"/><stop offset=".616" stop-color="#ffca73"/><stop offset=".808" stop-color="#ffd386"/><stop offset="1" stop-color="#ffc86e"/></linearGradient><filter id="B" x="-.012" y="-.01" width="1.024" height="1.021" class="B"><feGaussianBlur stdDeviation="2.441"/></filter><linearGradient id="C" x1="-904.556" y1="-406.052" x2="-904.556" y2="184.159" gradientUnits="userSpaceOnUse"><stop offset="0"/><stop offset=".599" stop-color="#fff"/></linearGradient><filter id="D" x="-.08" y="-.066" width="1.159" height="1.133" class="B"><feGaussianBlur stdDeviation=".392"/></filter><filter id="E" x="-.03" y="-.035" width="1.061" height="1.069" class="B"><feGaussianBlur stdDeviation=".392"/></filter><filter id="F" x="-.079" y="-.045" width="1.158" height="1.091" class="B"><feGaussianBlur stdDeviation=".392"/></filter></defs><path style="mix-blend-mode:multiply" d="M-2681.73 217.274l26.181 28.949 172.576 56.161 193.177-61.463 89.581-450.194-45.894-49.39z" transform="matrix(-2.0051 0 0 2.0051 -4364.0778 706.82307)" opacity=".5" filter="url(#B)"/><path d="M-1220.686-363.581l-176.123 60.03-8.809 28.459-84.914 494.898 10.349 7.986h518.995l10.348-7.986-84.914-495.039-8.809-28.459z" fill="url(#A)" transform="matrix(-2.0051 0 0 -2.0051 -1787.6392 533.54186)"/><path d="M-905.02-407.213l-176.123 59.888-8.809 26.778-84.914 496.72 10.349 7.986h518.995l10.349-7.986-84.914-494.898-8.809-28.601z" opacity=".25" fill="url(#C)" transform="matrix(-2.0051 0 0 -2.0051 -1154.6881 446.05465)" style="mix-blend-mode:overlay"/><path d="M139.629 97.854l.043-21.064-20.75 16.013 20.707 5.052zm891.185 987.285l-17.664-13.248L660 1188.821v16.402z" opacity=".4"/><path d="M289.186 1085.139l17.664-13.248L660 1188.821v16.402z" opacity=".6"/><path d="M289.186 1085.139l17.664-13.248L139.629 97.854l-20.707-5.052z" opacity=".6"/><g fill="#fff"><path d="M1030.814 1085.139l-17.664-13.248 167.221-974.037 20.707-5.052z" opacity=".3"/><path d="M1180.371 97.854l-.043-21.064 20.75 16.013-20.707 5.052z" opacity=".8"/><path d="M1180.371 97.854H139.629l.043-21.064h1040.656l.043 21.064z" opacity=".3"/></g><g transform="matrix(-1.6172 0 0 -1.6172 -3472.0244 651.95218)"><path d="M-2492.651 51.911c-14.412-16.005-26.777-30.69-27.477-32.633-2.609-7.249 12.167-3.157 28.569 7.912 9.327 6.295 18.589 11.445 20.581 11.445 5.026 0 4.713-124.363-.336-133.798-3.307-6.179-6.615-7.018-20.03-5.08-23.157 3.345-37.049 10.006-37.049 17.762 0 5.876 2.546 6.433 20.028 4.382 17.063-2.002 21.062-1.206 27.01 5.372 5.609 6.205 6.144 9.283 2.726 15.669-3.58 6.689-7.854 7.947-27.008 7.947-20.676 0-22.756.743-22.756 8.126 0 7.425 1.545 7.952 17.926 6.106 21.921-2.471 33.963 1.674 37.532 12.918 3.952 12.455-7.037 18.631-33.154 18.631h-22.018l-1.097 35.289-1.097 35.289h-13.352-13.353l-.04-34.144-.04-34.144-20.94-.015-20.941-.015-1.908 27.359c-2.126 30.492-8.823 41.611-22.456 37.284-13.788-4.376-15.235-18.819-7.853-78.345 2.733-22.032 5.09-52.075 5.239-66.763l.272-26.705-15.26-1.017c-21.748-1.451-32.428-4.281-32.428-8.595 0-2.058 3.224-3.742 7.164-3.742 16.336 0 38.383-13.998 65.774-41.762 15.985-16.203 32.033-33.991 35.662-39.529 6.348-9.688 6.276-10.588-1.89-23.8-5.554-8.988-7.193-15.026-4.74-17.479 5.746-5.746 22.724.121 35.861 12.394 11.524 10.766 12.127 14.324 5.256 31.016-2.443 5.934-.131 6.676 20.801 6.676a160.23 160.23 0 0 0 15.148-.732c7.218-.7 13.202-1.837 15.586-3.114 10.535-5.638 32.008 7.134 33.538 19.947 1.407 11.791-11.324 21.937-46.326 36.919-29.854 12.78-39.308 18.292-36.382 21.218 1.28 1.279 9.849.409 19.043-1.933 31.116-7.927 38.297-8.419 48.501-3.325 24.376 12.17 23.534 8.713 23.528 96.609 0 68.976-.96 82.386-6.677 93.83-10.97 21.96-19.324 19.676-49.135-13.429zm-60.539-87.05c0-5.933-3.429-7.108-22.293-7.643-23.096-.655-27.613 1.466-23.872 11.214 1.68 4.379 7.387 5.461 24.182 4.586 18.376-.957 21.983-2.296 21.983-8.156zm-3.589-37.228c4.394-7.11-7.05-14.26-24.904-15.56-13.624-.992-17.312.064-18.367 5.262-2.068 10.186 37.518 19.607 43.271 10.298zm-14.997-43.407c1.187-3.093 17.442-15.45 36.123-27.46s33.964-22.983 33.964-24.384-12.439-3.438-27.645-4.526l-27.646-1.978-24.81 23.089c-13.646 12.699-25.42 24.626-26.164 26.505-2.188 5.528 11.927 14.124 23.408 14.256 5.921.067 11.564-2.364 12.769-5.502z"/><g fill="#fff"><path d="M-2554.936-231.838c2.955 1.031 6.529 4.742 6.606 8.165s-3.344 6.557-6.3 5.525-5.444-6.224-5.521-9.648 2.26-5.073 5.215-4.042z" filter="url(#D)"/><path d="M-2478.738 47.677c7.742 6.077 11.315 9.788 11.521 12.468s-2.955 4.33-10.694-1.744-20.061-19.877-20.267-22.558 11.699 5.758 19.44 11.835z" filter="url(#E)"/><path d="M-2623.846 33.628c2.956 1.031 6.777 9.568 7.107 14.661s-2.832 6.742-5.787 5.711-5.704-4.742-6.034-9.837 1.758-11.566 4.714-10.535z" filter="url(#F)"/></g></g><path d="M306.849 1142.487l-17.663-57.348L660 1205.223l370.814-120.084-17.663 57.348L660 1262.571l-353.151-120.084z" opacity=".7"/><g transform="rotate(45 1048.752 89.631)"><path d="M918.352 684.853l45.651-93.169-91.302.001z"/><path d="M912.417 509.396h11.87v142.708h-11.87zm5.935-176.231l-45.651 93.169 91.302-.001z"/><path d="M924.287 508.622h-11.87V365.914h11.87zm-181.779.387l93.169 45.651v-91.302z"/><path d="M917.965 503.074v11.87H775.257v-11.87zm176.231 5.935l-93.169-45.651.001 91.302z"/><path d="M918.739 514.944v-11.87h142.708v11.87z"/></g></svg>