<svg xmlns="http://www.w3.org/2000/svg" width="498.898" height="544.252" viewBox="0 0 1320 1440" xmlns:v="https://vecta.io/nano"><style><![CDATA[.B{color-interpolation-filters:sRGB}]]></style><defs><linearGradient id="A" x1="-1430.769" y1="-77.47" x2="-1409.955" y2="-77.47" spreadMethod="reflect" gradientUnits="userSpaceOnUse"><stop offset="0" stop-color="#ffd285"/><stop offset=".232" stop-color="#ffcd79"/><stop offset=".616" stop-color="#ffca73"/><stop offset=".808" stop-color="#ffd386"/><stop offset="1" stop-color="#ffc86e"/></linearGradient><filter id="B" x="-.014" y="-.011" width="1.028" height="1.023" class="B"><feGaussianBlur stdDeviation="2.441"/></filter><linearGradient id="C" x1="-905.02" y1="-363.658" x2="-904.556" y2="184.159" gradientUnits="userSpaceOnUse"><stop offset="0"/><stop offset=".603" stop-color="#fff"/></linearGradient><filter id="D" x="-.079" y="-.078" width="1.158" height="1.157" class="B"><feGaussianBlur stdDeviation=".392"/></filter><filter id="E" x="-.055" y="-.087" width="1.111" height="1.174" class="B"><feGaussianBlur stdDeviation=".392"/></filter><filter id="F" x="-.079" y="-.083" width="1.159" height="1.166" class="B"><feGaussianBlur stdDeviation=".392"/></filter><filter id="G" x="-.095" y="-.045" width="1.189" height="1.091" class="B"><feGaussianBlur stdDeviation=".392"/></filter><filter id="H" x="-.058" y="-.078" width="1.115" height="1.157" class="B"><feGaussianBlur stdDeviation=".392"/></filter></defs><path style="mix-blend-mode:multiply" d="M-2651.547 193.989l26.181 28.949 142.394 35.891 162.994-41.193 89.945-426.908-45.894-49.39z" transform="matrix(-2.0051 0 0 2.0051 -4364.0778 706.82307)" opacity=".5" filter="url(#B)"/><path d="M-1220.685-320.026l-145.941 39.619-8.809 28.459-85.278 471.754 10.349 7.986h459.359l10.348-7.986-85.278-471.754-8.809-28.459z" fill="url(#A)" transform="matrix(-2.0051 0 0 -2.0051 -1787.6392 533.54186)"/><path d="M-905.02-363.658l-145.941 39.619-8.809 26.778-85.299 473.438 10.349 7.986 459.384-.003 10.349-7.986-85.284-471.612-8.809-28.601z" opacity=".25" fill="url(#C)" transform="matrix(-2.0051 0 0 -2.0051 -1154.6881 446.05465)" style="mix-blend-mode:overlay"/><path d="M199.418 97.854l.043-21.064-20.75 16.013 20.707 5.052zm770.876 940.595l-17.664-13.248L660 1101.487v16.402z" opacity=".4"/><path d="M349.706 1038.449l17.664-13.248L660 1101.487v16.402z" opacity=".6"/><path d="M349.706 1038.449l17.664-13.248L199.418 97.854l-20.707-5.052z" opacity=".6"/><path d="M707.28 523.709c34.018 18.461 39.829 49.312 14.876 78.968-17.3 20.56-15.682 27.228 6.613 27.228 18.562 0 32.154 21.401 37.846 59.596 2.504 16.792 7.289 32.224 10.636 34.292 10.286 6.358 6.751 15.917-5.889 15.917-17.627 0-46.156-29.266-46.156-47.345 0-8.615-4.325-19.255-9.612-23.644-13.627-11.308-17.331 1.63-14.942 52.175 1.912 40.427 2.298 41.217 20.885 42.623 10.416.787 27.29 4.892 37.498 9.121 24.338 10.081 30.115 3.704 39.441-43.55 6.722-34.049 9.078-37.825 23.615-37.825 13.464 0 16.482 3.455 18.157 20.799 2.444 25.29-11.922 57.1-40.697 90.124l-21.541 24.721-6.866-17.762c-5.865-15.17-10.545-17.762-32.071-17.762-49.618 0-53.102 34.041-5.795 56.642 16.874 8.062 30.68 17.323 30.68 20.581s-15.986 24.254-35.525 46.656c-37.987 43.558-40.968 50.878-25.837 63.436 5.328 4.422 9.688 13.694 9.688 20.603 0 10.007-2.956 11.68-14.533 8.224-26.038-7.772-43.309-22.192-47.745-39.868-3.719-14.811-.44-20.702 22.505-40.464 14.772-12.722 26.856-25.625 26.856-28.676 0-7.219-57.643.68-68.061 9.328-5.752 4.773-13.657 1.885-28.102-10.272-35.157-29.582-22.735-42.216 43.412-44.152 28.193-.826 30.006-1.922 27.973-16.928-3.27-24.147-9.425-26.976-35.231-16.194-30.493 12.741-108.971 12.969-133.302.386-34.065-17.616-35.328-48.331-3.231-78.6 19.779-18.655 27.617-21.754 54.991-21.754 34.855 0 50.196 6.539 81.248 34.637 29.28 26.493 36.76 18.361 32.89-35.747-1.753-24.511-4.958-46.335-7.121-48.498s-16.909 1.024-32.77 7.082c-27.004 10.313-29.89 10.325-45.359.189-27.977-18.33-21.012-30.435 27.08-47.069 64.908-22.451 104.41-65.615 60.05-65.615-10.492 0-26.466 3.367-35.498 7.484-13.686 6.237-18.585 5.53-29.37-4.23-19.925-18.032-16.227-34.004 10.451-45.151 29.321-12.251 64.965-12.132 87.863.294zM544.417 762.235c-19.154 23.078 15.142 39.558 60.864 29.245 37.136-8.377 42.197-17.419 16.091-28.748-28.756-12.477-66.809-12.724-76.955-.497z" fill="maroon"/><g fill="#fff"><path d="M970.294 1038.449l-17.664-13.248 167.951-927.347 20.707-5.052z" opacity=".3"/><path d="M1120.582 97.854l-.043-21.064 20.75 16.013-20.707 5.052z" opacity=".8"/><path d="M1120.582 97.854H199.418l.043-21.064h921.077l.043 21.064z" opacity=".3"/></g><path d="M367.369 1095.797l-17.663-57.348L660 1117.89l310.294-79.441-17.663 57.348L660 1175.238l-292.63-79.441z" opacity=".7"/><g fill="#fff" transform="matrix(-2.0556 0 0 -2.0556 -4590.2104 632.64957)"><path d="M-2634.678-44.248c2.955 1.031 6.529 4.742 6.182 7.597s-4.615 4.853-7.57 3.822-4.597-5.09-4.25-7.945 2.684-4.504 5.639-3.473z" transform="matrix(.6258 0 0 .6258 -985.66284 -14.552711)" filter="url(#D)"/><path d="M-2590.641-120.356c4.236.371 7.81 4.082 8.016 6.762s-2.955 4.33-7.191 3.959-9.548-2.761-9.754-5.442 4.693-5.65 8.929-5.279z" filter="url(#E)"/><path d="M-2557.568-80.535c2.955 1.031 6.529 4.742 6.735 7.422s-2.955 4.33-5.91 3.299-5.704-4.742-5.91-7.422 2.131-4.33 5.086-3.299z" filter="url(#F)"/><path d="M-2597.8-26.02c1.966-.032 4.667 6.625 6.237 11.815s2.01 8.913.044 8.945-6.338-3.625-7.909-8.816-.339-11.912 1.628-11.944z" filter="url(#G)"/><path d="M-2576.012 39.023c4.081 1.467 7.654 5.179 7.86 7.859s-2.955 4.33-7.036 2.862-9.08-6.051-9.287-8.732 4.381-3.457 8.462-1.989z" filter="url(#H)"/></g><g transform="rotate(180 660 676.004)" fill="#7d0000"><path d="M650.373 941.796h19.257v231.519h-19.257z"/><path d="M775.76 1047.928v19.257H544.241v-19.257z"/><path d="M735.048 968.894l13.617 13.617-84.674 84.674-13.617-13.617z"/><path d="M669.631 1053.568l-13.617 13.617-84.675-84.675 13.617-13.617z"/></g></svg>