<svg xmlns="http://www.w3.org/2000/svg" xmlns:xlink="http://www.w3.org/1999/xlink" width="498.898" height="544.252" viewBox="0 0 1320 1440" xmlns:v="https://vecta.io/nano"><style><![CDATA[.B{filter:url(#D)}.C{color-interpolation-filters:sRGB}]]></style><defs><linearGradient id="A" x1="-1430.769" y1="-77.47" x2="-1409.955" y2="-77.47" spreadMethod="reflect" gradientUnits="userSpaceOnUse"><stop offset="0" stop-color="#ffd285"/><stop offset=".232" stop-color="#ffcd79"/><stop offset=".616" stop-color="#ffca73"/><stop offset=".808" stop-color="#ffd386"/><stop offset="1" stop-color="#ffc86e"/></linearGradient><filter id="B" x="-.012" y="-.01" width="1.024" height="1.021" class="C"><feGaussianBlur stdDeviation="2.441"/></filter><linearGradient id="C" x1="-904.556" y1="-406.052" x2="-904.556" y2="184.159" gradientUnits="userSpaceOnUse"><stop offset="0"/><stop offset=".596" stop-color="#fff"/></linearGradient><filter id="D" x="-.079" y="-.083" width="1.159" height="1.166" class="C"><feGaussianBlur stdDeviation=".392"/></filter><path id="E" d="M-2599.965 35.819c2.955 1.031 6.529 4.742 6.735 7.422s-2.955 4.33-5.91 3.299-5.704-4.742-5.91-7.422 2.131-4.33 5.086-3.299z"/></defs><path style="mix-blend-mode:multiply" d="M-2681.73 217.274l26.181 28.949 172.576 56.161 193.177-61.463 89.581-450.194-45.894-49.39z" transform="matrix(-2.0051 0 0 2.0051 -4364.0778 706.82307)" opacity=".5" filter="url(#B)"/><path d="M-1220.686-363.581l-176.123 60.03-8.809 28.459-84.914 494.898 10.349 7.986h518.995l10.348-7.986-84.914-495.039-8.809-28.459z" fill="url(#A)" transform="matrix(-2.0051 0 0 -2.0051 -1787.6392 533.54186)"/><path d="M-905.02-407.213l-176.123 59.888-8.809 26.778-84.914 496.72 10.349 7.986h518.995l10.349-7.986-84.914-494.898-8.809-28.601z" opacity=".25" fill="url(#C)" transform="matrix(-2.0051 0 0 -2.0051 -1154.6881 446.05465)" style="mix-blend-mode:overlay"/><path d="M139.629 97.854l.043-21.064-20.75 16.013 20.707 5.052zm891.185 987.285l-17.664-13.248L660 1188.821v16.402z" opacity=".4"/><path d="M289.186 1085.139l17.664-13.248L660 1188.821v16.402z" opacity=".6"/><path d="M289.186 1085.139l17.664-13.248L139.629 97.854l-20.707-5.052z" opacity=".6"/><g fill="#fff"><path d="M1030.814 1085.139l-17.664-13.248 167.221-974.037 20.707-5.052z" opacity=".3"/><path d="M1180.371 97.854l-.043-21.064 20.75 16.013-20.707 5.052z" opacity=".8"/><path d="M1180.371 97.854H139.629l.043-21.064h1040.656l.043 21.064z" opacity=".3"/></g><g transform="matrix(-1.7185 0 0 -1.7185 -3731.028 636.8868)"><path d="M-2484.092 67.98c-11.205-2.48-25.384-10.222-35.999-19.656l-17.513-15.565v-48.106c0-48.421-1.32-52.391-15.882-47.77-6.47 2.054-7.411 8.304-7.411 49.221 0 49.835-5.518 77.575-16.25 81.694-4.47 1.715-15.758-7.324-35.294-28.265l-28.722-30.786-16.023 15.646c-21.29 20.79-37.593 26.294-60.004 20.26-21.746-5.856-22.115-10.97-1.033-14.341 12.26-1.961 21.076-7.7 35.479-23.098 25.5-27.261 33.451-51.482 12.632-38.481-15.184 9.483-51.805-12.702-45.988-27.86 1.972-5.138 6.316-5.971 19.851-3.807 14.112 2.257 45.509-3.256 54.289-9.533.837-.598-1.069-7.065-4.235-14.372-5.178-11.95-7.183-13.057-19.963-11.025-17.746 2.821-39.543-1.274-37.612-7.067.798-2.395 10.242-6.917 20.985-10.05 20.931-6.103 41.421-25.818 41.421-39.853 0-6.104 2.982-8.145 11.896-8.145 29.294 0 34.749 24.341 9.28 41.401-16.33 10.939-20.868 17.89-11.679 17.89 3.282 0 10.518 4.844 16.08 10.764 5.821 6.196 13.772 10.24 18.738 9.529 7.961-1.14 8.507-3.68 7.09-32.998-.844-17.47-3.222-34.966-5.285-38.881-2.548-4.834-1.665-9.203 2.752-13.62 5.847-5.847 7.995-5.791 21.299.553 16.762 7.993 22.288 21.794 15.07 37.636-5.134 11.268-6.454 36.629-2.131 40.952 1.453 1.453 9.749-.984 18.436-5.416l15.794-8.058 14.295 11.934c12.523 10.454 13.575 12.801 8.488 18.929-3.193 3.848-4.747 8.055-3.452 9.349 3.39 3.39 23.088-10.326 26.099-18.172 3.202-8.345-4.735-18.267-14.611-18.267-12.013 0-32.882-22.508-35.93-38.752-1.526-8.135-.963-24.759 1.251-36.941l4.026-22.151-13.226 2.636c-7.274 1.45-24.338 5.359-37.92 8.689s-28.392 6.053-32.913 6.053c-10.85 0-42.615-21.189-40.66-27.122.845-2.566 17.48-5.876 37.193-7.403 35.23-2.728 53.977-6.562 77.231-15.797 18.185-7.222 30.147-5.717 40.279 5.067 11.651 12.403 11.54 15.038-1.379 32.549-15.13 20.508-14.121 27.96 2.471 18.239 14.661-8.59 26.645-32.515 23.187-46.292-5.084-20.257 19.714-21.788 37.266-2.301 7.665 8.51 7.665 9.146 0 24.838-9.57 19.59-47.055 43.633-68.03 43.633-15.944 0-16.141.422-7.755 16.638 7.237 13.994 14.017 17.243 35.983 17.243 17.855 0 29.374-9.263 22.385-17.999-8.151-10.189-10.499-24.352-4.036-24.352 10.763 0 45.351 33.821 45.351 44.346 0 10.471-20.84 23.416-37.698 23.416-10.688 0-11.106 3.42-2.007 16.41 6.448 9.206 6.344 10.362-1.643 18.35-5.036 5.036-16.484 9.422-27.972 10.717-20.975 2.364-22.456 6.896-3.775 11.558 22.968 5.732 34.306 26.647 21.427 39.526-9.038 9.038-19.634 5.435-31.76-10.8-17.132-22.937-23.876-27.543-27.446-18.743-4.397 10.839-3.97 31.938.93 45.994 8.257 23.687 44.858 33.412 73.802 19.609 16.84-8.031 17.33-9.561 9.032-28.221-10.078-22.665-15.259-41.654-12.558-46.025 1.42-2.298 13.835 8.291 27.589 23.53s28.592 28.845 32.975 30.236c10.381 3.295 14.066 13.449 8.593 23.675-10.648 19.897-69.6 35.247-105.149 27.379zm-110.166-61.867c1.579-5.651 3.061-21.232 3.293-34.626.364-20.999-.654-24.352-7.392-24.352-9.074 0-16.299 7.954-29.378 32.34-9.401 17.528-12.192 29.04-6.218 25.648 1.747-.992 8.894 1.606 15.882 5.775 15.621 9.317 20.125 8.412 23.813-4.785z"/><g fill="#fff"><use xlink:href="#E" class="B"/><use xlink:href="#E" x="-93.192" y="-83.707" class="B"/><use xlink:href="#E" x="14.432" y="-192.568" class="B"/><use xlink:href="#E" x="-19.381" y="-235.453" class="B"/><use xlink:href="#E" x="122.468" y="-52.368" class="B"/></g></g><path d="M306.849 1142.487l-17.663-57.348L660 1205.223l370.814-120.084-17.663 57.348L660 1262.571l-353.151-120.084z" opacity=".7"/><g transform="rotate(90 896.696 272.313)"><path d="M918.352 684.853l45.651-93.169-91.302.001z"/><path d="M912.417 509.396h11.87v142.708h-11.87zm5.935-176.231l-45.651 93.169 91.302-.001z"/><path d="M924.287 508.622h-11.87V365.914h11.87zm-181.779.387l93.169 45.651v-91.302z"/><path d="M917.965 503.074v11.87H775.257v-11.87zm176.231 5.935l-93.169-45.651.001 91.302z"/><path d="M918.739 514.944v-11.87h142.708v11.87z"/></g></svg>