<svg xmlns="http://www.w3.org/2000/svg" xmlns:xlink="http://www.w3.org/1999/xlink" width="498.898" height="544.252" viewBox="0 0 1320 1440" xmlns:v="https://vecta.io/nano"><style><![CDATA[.E{filter:url(#D)}.F{color-interpolation-filters:sRGB}]]></style><defs><linearGradient id="A" x1="-1430.769" y1="-77.47" x2="-1409.955" y2="-77.47" spreadMethod="reflect" gradientUnits="userSpaceOnUse"><stop offset="0" stop-color="#ffd285"/><stop offset=".232" stop-color="#ffcd79"/><stop offset=".616" stop-color="#ffca73"/><stop offset=".808" stop-color="#ffd386"/><stop offset="1" stop-color="#ffc86e"/></linearGradient><filter id="B" x="-.014" y="-.011" width="1.028" height="1.022" class="F"><feGaussianBlur stdDeviation="2.441"/></filter><linearGradient id="C" x1="-905.021" y1="-376.306" x2="-904.556" y2="184.159" gradientUnits="userSpaceOnUse"><stop offset="0"/><stop offset=".603" stop-color="#fff"/></linearGradient><filter id="D" x="-.079" y="-.083" width="1.159" height="1.166" class="F"><feGaussianBlur stdDeviation=".392"/></filter><path id="E" d="M-2562.435-169.603c2.955 1.031 6.529 4.742 6.735 7.422s-2.955 4.33-5.91 3.299-5.704-4.742-5.91-7.422 2.131-4.33 5.086-3.299z"/></defs><path style="mix-blend-mode:multiply" d="M-2655.488 204.013l26.181 28.949 146.334 38.515 166.935-43.817 86.005-436.932-45.894-49.39z" transform="matrix(-2.0051 0 0 2.0051 -4364.0778 706.82307)" opacity=".5" filter="url(#B)"/><path d="M-1220.686-332.674l-149.881 42.384-8.809 28.459-81.338 481.636 10.349 7.986h459.359l10.348-7.986-81.338-481.636-8.809-28.459z" fill="url(#A)" transform="matrix(-2.0051 0 0 -2.0051 -1787.6392 533.54186)"/><path d="M-905.021-376.306l-149.881 44.065-8.809 26.778-81.358 481.64 10.349 7.986 459.383-.004 10.349-7.986-81.343-481.636-8.809-28.601z" opacity=".25" fill="url(#C)" transform="matrix(-2.0051 0 0 -2.0051 -1154.6881 446.05465)" style="mix-blend-mode:overlay"/><path d="M199.419 97.854l.043-21.064-20.75 16.013 20.707 5.052zm778.776 960.694l-17.664-13.248L660 1126.847v16.402z" opacity=".4"/><path d="M341.805 1058.548l17.664-13.248L660 1126.847v16.402z" opacity=".6"/><path d="M359.468 1115.896l-17.663-57.348L660 1143.25l318.195-84.702-17.663 57.348L660 1200.598l-300.532-84.702z" opacity=".7"/><path d="M341.805 1058.548l17.664-13.248-160.05-947.446-20.707-5.052z" opacity=".6"/><path d="M706.27 521.843c23.309 4.243 40.831 20.176 46.345 42.143 2.413 9.619 7.459 17.49 11.21 17.49s18.113 9.915 31.917 22.036c16.932 14.867 23.693 26.006 20.78 34.24-9.458 26.746-26.051 36.98-67.578 41.677-27.403 3.1-46.339 9.486-54.337 18.323-16.795 18.557-7.238 25.203 21.368 14.858 32.846-11.878 43.702-10.832 58.609 5.643 22.384 24.732 36.745 24.159 76.299-3.051 34.336-23.618 64.709-33.168 64.233-20.193-.107 2.974-11.562 13.516-25.452 23.427-38.923 27.777-167.029 171.631-183.927 206.536-12.941 26.734-13.896 34.699-6.759 56.327 15.253 46.216-11.708 54.558-49.688 15.373-22.978-23.706-23.451-25.381-14.323-50.624l9.441-26.107-75.395-75.743c-62.964-63.254-82.266-78.255-117.064-90.986-45.461-16.631-55.627-25.641-40.348-35.76 12.165-8.056 90.76-.434 111.563 10.819 17.241 9.327 40.726 36.224 96.836 110.904 21.596 28.743 43.133 52.26 47.861 52.26 7.992 0 38.409-36.561 38.409-46.165 0-2.362-13.078-4.294-29.059-4.294-32.187 0-43.917-13.993-27.902-33.291 7.676-9.248 17.825-10.542 52.19-6.654 39.846 4.509 44.02 3.526 63.232-14.879 41.007-39.288-14.1-53.366-81.543-20.831-40.067 19.328-58.942 18.197-70.957-4.253-6.237-11.657-2.544-19.959 21.634-48.634 21.353-25.323 29.155-41.022 29.155-58.663 0-14.471 7.068-33.353 17.709-47.303 9.739-12.771 15.687-25.241 13.215-27.713-7.35-7.35-37.334-5.114-51.694 3.852-17.104 10.682-32.885 4.479-48.241-18.957-11.489-17.535-11.45-19.403.698-32.825 10.16-11.227 21.394-14.025 53.212-13.25 22.182.539 48.441 2.458 58.352 4.262zm25.819 100.051c-20.086 7.708-13.084 24.458 10.222 24.458 21.984 0 30.759-16.739 12.614-24.06l-10.222-4.204c-.668-.313-6.343 1.4-12.614 3.807zm-87.746 123.523c4.998 4.998 18.675-5.157 18.675-13.87 0-4.779-4.137-4.232-10.987 1.454-6.042 5.016-9.503 10.602-7.689 12.417z" fill="maroon"/><g fill="#fff"><path d="M978.195 1058.548l-17.664-13.248 160.05-947.446 20.707-5.052z" opacity=".3"/><path d="M1120.582 97.854l-.043-21.064 20.75 16.013-20.707 5.052z" opacity=".8"/><path d="M1120.582 97.854H199.419l.043-21.064h921.077l.043 21.064z" opacity=".3"/><g transform="matrix(-2.1471 0 0 -2.1471 -4826.0011 621.14205)"><use xlink:href="#E" class="E"/><use xlink:href="#E" x="72.103" y="105.462" class="E"/><use xlink:href="#E" x="-37.112" y="115.046" class="E"/><use xlink:href="#E" x="-53.193" y="162.879" class="E"/><use xlink:href="#E" x="-20.367" y="198.713" class="E"/></g></g><g transform="rotate(180 660 675.762)" fill="#7d0000"><path d="M650.373 941.796h19.257v231.519h-19.257z"/><path d="M775.76 1047.928v19.257H544.241v-19.257z"/><path d="M735.048 968.894l13.617 13.617-84.674 84.674-13.617-13.617z"/><path d="M669.631 1053.568l-13.617 13.617-84.675-84.675 13.617-13.617z"/></g></svg>