<svg xmlns="http://www.w3.org/2000/svg" xmlns:xlink="http://www.w3.org/1999/xlink" width="498.898" height="544.252" viewBox="0 0 1320 1440" xmlns:v="https://vecta.io/nano"><style><![CDATA[.B{color-interpolation-filters:sRGB}.C{filter:url(#D)}]]></style><defs><linearGradient id="A" x1="-1430.769" y1="-77.47" x2="-1409.955" y2="-77.47" spreadMethod="reflect" gradientUnits="userSpaceOnUse"><stop offset="0" stop-color="#ffd285"/><stop offset=".232" stop-color="#ffcd79"/><stop offset=".616" stop-color="#ffca73"/><stop offset=".808" stop-color="#ffd386"/><stop offset="1" stop-color="#ffc86e"/></linearGradient><filter id="B" x="-.014" y="-.011" width="1.028" height="1.023" class="B"><feGaussianBlur stdDeviation="2.441"/></filter><linearGradient id="C" x1="-905.02" y1="-363.658" x2="-904.556" y2="184.159" gradientUnits="userSpaceOnUse"><stop offset="0"/><stop offset=".603" stop-color="#fff"/></linearGradient><filter id="D" x="-.055" y="-.208" width="1.111" height="1.416" class="B"><feGaussianBlur stdDeviation=".344"/></filter><filter id="E" x="-.079" y="-.083" width="1.159" height="1.166" class="B"><feGaussianBlur stdDeviation=".392"/></filter><path id="F" d="M-2588.058-154.81c-.412-.962-4.261-1.787-7.972-1.512s-7.285 1.649-6.872 2.612 4.811 1.512 8.522 1.237 6.735-1.375 6.323-2.337z"/></defs><path style="mix-blend-mode:multiply" d="M-2651.547 193.989l26.181 28.949 142.394 35.891 162.994-41.193 89.945-426.908-45.894-49.39z" transform="matrix(-2.0051 0 0 2.0051 -4364.0778 706.82307)" opacity=".5" filter="url(#B)"/><path d="M-1220.685-320.026l-145.941 39.619-8.809 28.459-85.278 471.754 10.349 7.986h459.359l10.348-7.986-85.278-471.754-8.809-28.459z" fill="url(#A)" transform="matrix(-2.0051 0 0 -2.0051 -1787.6392 533.54186)"/><g transform="matrix(-1.8849 0 0 -1.8849 -4154.2078 638.5993)"><path d="M-2515.278 65.208c-4.773-4.59-14.528-5.176-36.451-2.189-36.024 4.908-38.732 2.178-48.494-48.889-5.743-30.043-6.645-32.601-14.882-42.193-3.7-4.309-6.312-4.968-9.43-2.38-2.372 1.969-13.272 3.115-24.222 2.547-25.31-1.312-26.738-8.396-3.274-16.245 15.862-5.306 56.732-37.54 56.732-44.744 0-1.745-5.321-3.173-11.825-3.173-8.36 0-15.359-3.103-23.887-10.591-20.128-17.673-15.048-24.357 12.288-16.167 10.13 3.035 17.546 2.981 31.903-.232 21.563-4.826 23.506-6.755 18.93-18.792-2.753-7.241-5.562-8.817-15.707-8.817-16.512 0-32.176-9.495-32.176-19.504 0-4.287.394-7.795.876-7.795s6.116 1.503 12.521 3.34c12.508 3.587 28.034.266 72.971-15.606 36.897-13.033 55.737-9.739 52.952 9.258-.958 6.534-5.413 8.648-31.652 15.018-16.795 4.077-30.947 8.802-31.449 10.499s1.308 6.024 4.022 9.617c4.638 6.137 6.639 6.278 33.181 2.329 20.151-2.998 30.94-3.178 37.646-.628 10.511 3.996 18.174 17.38 14.874 25.98-1.88 4.899-5.925 5.328-30.727 3.263-27.616-2.3-43.079-.568-43.079 4.827 0 1.43 7.999 6.317 17.776 10.86 22.342 10.384 55.211 34.322 62.59 45.583 5.303 8.093 5.202 9.233-1.823 20.6-4.09 6.618-8.847 12.033-10.571 12.033s-18.49-15.356-37.258-34.124-35.66-34.124-37.537-34.124c-1.924 0-3.412 9.647-3.412 22.116v22.116l15.248-2.09c14.145-1.939 16.12-1.218 27.299 9.961 14.006 14.006 14.459 18.845 5.587 59.651-7.454 34.284-18.742 49.07-29.537 38.689zm-4.242-35.445c1.431-2.251 2.625-5.425 2.654-7.053.047-2.688-51.12.296-54.115 3.155-.701.669-.285 3.795.924 6.947 1.887 4.916 5.446 5.397 25.067 3.387 12.578-1.289 24.039-4.185 25.47-6.436zm-30.224-31.402c13.425-3.497 21.654-4.078 25.861-1.826 7.168 3.836 10.481 1.541 10.481-7.263 0-5.208-2.778-6.256-16.586-6.256-30.331 0-48.25 3.763-48.25 10.132 0 11.659 2.203 12.062 28.494 5.213zm-11.47-45.592c-.022-3.071-.982-11.296-2.136-18.277l-2.098-12.693-16.479 14.399c-18.919 16.531-20.648 22.033-7.402 23.557 16.469 1.895 28.155-1.009 28.115-6.986z"/><g fill="#fff"><use xlink:href="#F" transform="rotate(41.95 -2594.311 -166.311)" class="C"/><use xlink:href="#F" x="125.932" y="19.837" transform="matrix(1.675 .780258 -.651365 2.0064 1428.7729 2090.4544)" class="C"/><use xlink:href="#F" x="125.932" y="19.837" transform="rotate(42.286 -2674.781 -253.201)" class="C"/><path d="M-2579.168 47.373c2.955 1.031 6.529 4.742 6.735 7.422s-2.955 4.33-5.91 3.299-5.704-4.742-5.91-7.422 2.13-4.33 5.086-3.299z" filter="url(#E)"/></g></g><path d="M-905.02-363.658l-145.941 39.619-8.809 26.778-102.267 473.435 10.349 7.986h493.336l10.349-7.986-102.267-471.612-8.809-28.601z" opacity=".25" fill="url(#C)" transform="matrix(-2.0051 0 0 -2.0051 -1154.6881 446.05465)" style="mix-blend-mode:overlay"/><path d="M199.418 97.854l.043-21.064-20.75 16.013 20.707 5.052zm770.876 940.595l-17.664-13.248L660 1101.487v16.402z" opacity=".4"/><path d="M349.706 1038.449l17.664-13.248L660 1101.487v16.402z" opacity=".6"/><path d="M349.706 1038.449l17.664-13.248L199.418 97.854l-20.707-5.052z" opacity=".6"/><g fill="#fff"><path d="M970.294 1038.449l-17.664-13.248 167.951-927.347 20.707-5.052z" opacity=".3"/><path d="M1120.582 97.854l-.043-21.064 20.75 16.013-20.707 5.052z" opacity=".8"/><path d="M1120.582 97.854H199.418l.043-21.064h921.077l.043 21.064z" opacity=".3"/></g><path d="M367.369 1095.797l-17.663-57.348L660 1117.89l310.294-79.441-17.663 57.348-292.631 79.441-292.63-79.441z" opacity=".7"/><path d="M660 469.813l45.651-93.169-91.302.001z"/><path d="M654.065 150.874h11.87v286.19h-11.87z"/></svg>