<svg xmlns="http://www.w3.org/2000/svg" xmlns:xlink="http://www.w3.org/1999/xlink" width="498.898" height="544.252" viewBox="0 0 1320 1440" xmlns:v="https://vecta.io/nano"><style><![CDATA[.B{filter:url(#D)}.C{color-interpolation-filters:sRGB}]]></style><defs><linearGradient id="A" x1="-1430.769" y1="-77.47" x2="-1409.955" y2="-77.47" spreadMethod="reflect" gradientUnits="userSpaceOnUse"><stop offset="0" stop-color="#ffd285"/><stop offset=".232" stop-color="#ffcd79"/><stop offset=".616" stop-color="#ffca73"/><stop offset=".808" stop-color="#ffd386"/><stop offset="1" stop-color="#ffc86e"/></linearGradient><filter id="B" x="-.014" y="-.011" width="1.028" height="1.022" class="C"><feGaussianBlur stdDeviation="2.441"/></filter><linearGradient id="C" x1="-905.021" y1="-376.306" x2="-904.556" y2="184.159" gradientUnits="userSpaceOnUse"><stop offset="0"/><stop offset=".603" stop-color="#fff"/></linearGradient><filter id="D" x="-.079" y="-.083" width="1.159" height="1.166" class="C"><feGaussianBlur stdDeviation=".392"/></filter><path id="E" d="M-2562.435-169.603c2.955 1.031 6.529 4.742 6.735 7.422s-2.955 4.33-5.91 3.299-5.704-4.742-5.91-7.422 2.131-4.33 5.086-3.299z"/></defs><path style="mix-blend-mode:multiply" d="M-2655.488 204.013l26.181 28.949 146.334 38.515 166.935-43.817 86.005-436.932-45.894-49.39z" transform="matrix(-2.0051 0 0 2.0051 -4364.0778 706.82307)" opacity=".5" filter="url(#B)"/><path d="M-1220.686-332.674l-149.881 42.384-8.809 28.459-81.338 481.636 10.349 7.986h459.359l10.348-7.986-81.338-481.636-8.809-28.459z" fill="url(#A)" transform="matrix(-2.0051 0 0 -2.0051 -1787.6392 533.54186)"/><path d="M-905.021-376.306l-149.881 44.065-8.809 26.778-111.156 481.636 10.349 7.986h518.995l10.349-7.986-111.156-481.636-8.809-28.601z" opacity=".25" fill="url(#C)" transform="matrix(-2.0051 0 0 -2.0051 -1154.6881 446.05465)" style="mix-blend-mode:overlay"/><path d="M199.419 97.854l.043-21.064-20.75 16.013 20.707 5.052zm778.776 960.694l-17.664-13.248L660 1126.847v16.402z" opacity=".4"/><path d="M341.805 1058.548l17.664-13.248L660 1126.847v16.402z" opacity=".6"/><path d="M341.805 1058.548l17.664-13.248-160.05-947.446-20.707-5.052z" opacity=".6"/><g fill="#fff"><path d="M978.195 1058.548l-17.664-13.248 160.05-947.446 20.707-5.052z" opacity=".3"/><path d="M1120.582 97.854l-.043-21.064 20.75 16.013-20.707 5.052z" opacity=".8"/><path d="M1120.582 97.854H199.419l.043-21.064h921.077l.043 21.064z" opacity=".3"/></g><path d="M359.468 1115.896l-17.663-57.348L660 1143.25l318.195-84.702-17.663 57.348L660 1200.598l-300.532-84.702z" opacity=".7"/><g fill="#980000"><path d="M654.065 294.356h11.87v142.708h-11.87zm11.87-.774h-11.87V150.874h11.87z"/><path d="M659.613 288.034v11.87H516.905v-11.87zm.774 11.87v-11.87h142.708v11.87z"/><path d="M655.529 290.046l8.393 8.393-100.909 100.909-8.393-8.393z"/><path d="M656.077 298.44l8.393-8.393L765.38 390.956l-8.393 8.393z"/></g><g transform="matrix(-2.1471 0 0 -2.1471 -4826.0011 621.14205)"><path d="M-2576.625 46.248c-10.856-1.976-19.017-9.397-21.585-19.628-1.124-4.48-3.474-8.146-5.221-8.146s-8.436-4.618-14.865-10.263c-7.886-6.924-11.035-12.112-9.678-15.947 4.405-12.457 12.133-17.223 31.474-19.411 12.763-1.444 21.582-4.418 25.307-8.534 7.822-8.643 3.371-11.738-9.952-6.92-15.298 5.532-20.354 5.045-27.297-2.628-10.425-11.519-17.114-11.252-35.536 1.421-15.992 11-30.138 15.448-29.916 9.405.05-1.385 5.385-6.295 11.854-10.911 18.128-12.937 77.793-79.936 85.663-96.193 6.027-12.451 6.472-16.161 3.148-26.234-7.104-21.525 5.453-25.41 23.142-7.16 10.702 11.041 10.922 11.821 6.671 23.578l-4.397 12.159 35.115 35.277c29.325 29.46 38.315 36.447 54.522 42.376 21.173 7.746 25.908 11.942 18.792 16.655-5.666 3.752-42.271.202-51.96-5.039-8.03-4.344-18.968-16.871-45.101-51.653-10.058-13.387-20.089-24.34-22.291-24.34-3.722 0-17.889 17.028-17.889 21.501 0 1.1 6.091 2 13.534 2 14.991 0 20.454 6.517 12.995 15.505-3.575 4.307-8.302 4.91-24.307 3.099-18.558-2.1-20.502-1.642-29.45 6.93-19.099 18.298 6.567 24.855 37.978 9.702 18.661-9.002 27.452-8.475 33.048 1.981 2.905 5.429 1.185 9.296-10.076 22.651-9.945 11.794-13.579 19.106-13.579 27.322 0 6.74-3.292 15.534-8.248 22.031-4.536 5.948-7.306 11.756-6.155 12.907 3.423 3.423 17.388 2.382 24.076-1.794 7.966-4.975 15.316-2.086 22.468 8.829 5.351 8.167 5.333 9.037-.325 15.288-4.732 5.229-9.964 6.532-24.783 6.171-10.331-.251-22.561-1.145-27.177-1.985zM-2588.65-.35c9.355-3.59 6.094-11.391-4.761-11.391-10.239 0-14.326 7.796-5.875 11.206l4.761 1.958c.311.146 2.954-.652 5.875-1.773zm40.867-57.53c-2.328-2.328-8.698 2.402-8.698 6.46 0 2.226 1.927 1.971 5.117-.677 2.814-2.336 4.426-4.938 3.581-5.783z" fill="maroon"/><g fill="#fff"><use xlink:href="#E" class="B"/><use xlink:href="#E" x="72.103" y="105.462" class="B"/><use xlink:href="#E" x="-37.112" y="115.046" class="B"/><use xlink:href="#E" x="-53.193" y="162.879" class="B"/><use xlink:href="#E" x="-20.367" y="198.713" class="B"/></g></g></svg>