<svg xmlns="http://www.w3.org/2000/svg" xmlns:xlink="http://www.w3.org/1999/xlink" width="498.898" height="544.252" viewBox="0 0 1320 1440" xmlns:v="https://vecta.io/nano"><style><![CDATA[.C{color-interpolation-filters:sRGB}.D{filter:url(#G)}]]></style><defs><linearGradient id="A" x1="228.547" y1="660.584" x2="270.281" y2="660.584" spreadMethod="reflect" gradientUnits="userSpaceOnUse"><stop offset="0" stop-color="#ffd285"/><stop offset=".232" stop-color="#ffcd79"/><stop offset=".616" stop-color="#ffca73"/><stop offset=".808" stop-color="#ffd386"/><stop offset="1" stop-color="#ffc86e"/></linearGradient><linearGradient id="B" x1="660.031" y1="176.665" x2="660.029" y2="1147.595" gradientUnits="userSpaceOnUse"><stop offset=".6" stop-color="#fff"/><stop offset="1"/></linearGradient><filter id="C" x="-.048" y="-.037" width="1.096" height="1.075" class="C"><feGaussianBlur stdDeviation=".392"/></filter><filter id="D" x="-.044" y="-.068" width="1.088" height="1.136" class="C"><feGaussianBlur stdDeviation=".392"/></filter><filter id="E" x="-.056" y="-.081" width="1.112" height="1.162" class="C"><feGaussianBlur stdDeviation=".392"/></filter><filter id="F" x="-.068" y="-.05" width="1.137" height="1.099" class="C"><feGaussianBlur stdDeviation=".392"/></filter><filter id="G" x="-.079" y="-.083" width="1.159" height="1.166" class="C"><feGaussianBlur stdDeviation=".392"/></filter><path id="H" d="M-1180.363-173.925c2.955 1.031 6.529 4.742 6.735 7.422s-2.955 4.33-5.91 3.299-5.704-4.742-5.91-7.422 2.13-4.33 5.086-3.299z"/><filter id="I" x="-.011" y="-.011" width="1.021" height="1.022" class="C"><feGaussianBlur stdDeviation="2.441"/></filter></defs><path style="mix-blend-mode:multiply" d="M-2758.546 269.702l24.453 34.897h517.576l14.375-11.25-104.69-501.167-31.462-17.601z" transform="matrix(-2.0051 0 0 2.0051 -4364.0776 800.64872)" opacity=".5" filter="url(#I)"/><path d="M660.043 176.664L306.898 293.591 139.681 1267.61l13.3 73.818 20.099 16.718h973.903l20.099-16.718 13.324-73.818-167.217-974.019z" fill="url(#A)"/><path d="M660.031 176.665L306.887 293.593 139.67 1267.612l13.312 73.816 20.099 16.718h973.903l20.099-16.718 13.312-73.816-167.217-974.019z" opacity=".25" fill="url(#B)" style="mix-blend-mode:overlay"/><path d="M776.523 824.214c-18.38-4.068-41.637-16.767-59.049-32.242l-28.727-25.531v-78.91c0-79.425-2.165-85.937-26.051-78.357-10.613 3.369-12.156 13.621-12.156 80.737 0 81.744-9.051 127.246-26.655 134.003-7.332 2.813-25.848-12.014-57.893-46.363l-47.113-50.498-26.283 25.664c-34.922 34.102-61.664 43.13-98.425 33.232-35.67-9.606-36.275-17.994-1.694-23.524 20.112-3.217 34.571-12.63 58.196-37.888 41.828-44.716 54.87-84.446 20.72-63.12-24.906 15.555-84.976-20.835-75.434-45.699 3.235-8.428 10.36-9.794 32.562-6.245 23.148 3.702 74.648-5.341 89.05-15.637 1.373-.981-1.753-11.589-6.947-23.574-8.493-19.602-11.782-21.417-32.745-18.084-29.109 4.627-64.862-2.09-61.695-11.592 1.309-3.929 16.8-11.346 34.422-16.485 34.333-10.011 67.943-42.349 67.943-65.371 0-10.012 4.891-13.36 19.513-13.36 48.051 0 56.999 39.927 15.222 67.91-26.786 17.943-34.23 29.345-19.157 29.345 5.383 0 17.253 7.946 26.376 17.656 9.548 10.163 22.59 16.797 30.736 15.63 13.058-1.87 13.954-6.036 11.63-54.127-1.384-28.656-5.287-57.355-8.669-63.777-4.179-7.929-2.731-15.096 4.514-22.341 9.591-9.591 13.114-9.499 34.937.907 27.495 13.111 36.559 35.749 24.719 61.734-8.421 18.483-10.586 60.083-3.495 67.174 2.383 2.383 15.991-1.614 30.241-8.884l25.907-13.218 23.448 19.575c20.541 17.148 22.267 20.997 13.923 31.049-5.237 6.312-7.787 13.213-5.662 15.335 5.559 5.561 37.873-16.938 42.81-29.808 5.252-13.688-7.767-29.963-23.966-29.963-19.705 0-53.936-36.92-58.936-63.565-2.503-13.344-1.58-40.612 2.052-60.594l6.604-36.334-21.695 4.324c-11.932 2.378-39.922 8.79-62.2 14.253s-46.571 9.929-53.987 9.929c-17.797 0-69.901-34.756-66.695-44.488 1.386-4.209 28.672-9.638 61.008-12.143 57.788-4.475 88.538-10.764 126.682-25.912 29.829-11.846 49.45-9.378 66.07 8.311 19.111 20.345 18.929 24.667-2.262 53.39-24.818 33.639-23.163 45.863 4.053 29.917 24.048-14.09 43.706-53.334 38.034-75.933-8.339-33.228 32.337-35.739 61.127-3.774 12.573 13.959 12.573 15.002 0 40.742-15.698 32.133-77.184 71.571-111.59 71.571-26.153 0-26.476.692-12.721 27.291 11.871 22.954 22.992 28.284 59.023 28.284 29.288 0 48.182-15.194 36.718-29.524-13.37-16.713-17.222-39.945-6.62-39.945 17.655 0 74.389 55.477 74.389 72.741 0 17.176-34.184 38.409-61.834 38.409-17.532 0-18.217 5.61-3.292 26.917 10.577 15.101 10.406 16.997-2.695 30.1-8.261 8.261-27.039 15.455-45.884 17.579-34.405 3.878-36.835 11.312-6.192 18.959 37.673 9.402 56.272 43.709 35.148 64.834-14.825 14.825-32.206 8.915-52.096-17.715-28.102-37.624-39.164-45.179-45.02-30.744-7.212 17.779-6.512 52.388 1.525 75.444 13.544 38.854 73.582 54.806 121.057 32.165 27.623-13.173 28.426-15.683 14.817-46.291-16.531-37.177-25.029-68.325-20.599-75.495 2.329-3.769 22.694 13.6 45.254 38.596s46.899 47.314 54.089 49.596c17.026 5.405 23.072 22.06 14.095 38.834-17.468 32.637-114.165 57.816-172.476 44.91zM595.817 722.732c2.59-9.269 5.021-34.827 5.402-56.797.597-34.445-1.073-39.945-12.125-39.945-14.884 0-26.735 13.047-48.189 53.047-15.419 28.751-19.999 47.634-10.199 42.07 2.866-1.627 14.589 2.634 26.051 9.473 25.623 15.283 33.011 13.798 39.06-7.849z"/><g fill="#fff" transform="matrix(1.6403 0 0 1.6403 2569.2753 734.11629)"><path d="M-1020.442-7.827c2.956 1.031 13.365 11.788 16.992 17.995s.466 7.857-2.489 6.826-5.704-4.742-9.329-10.945-8.13-14.907-5.174-13.876z" filter="url(#C)"/><path d="M-1116.142-238.686c5.324 2.246 13.637 8.389 13.843 11.07s-7.692 1.899-13.017-.348-8.074-5.958-8.28-8.638 2.13-4.33 7.454-2.084z" filter="url(#D)"/><path d="M-1057.48-245.476c4.195 1.229 10.247 5.337 10.453 8.018s-5.433 3.933-9.628 2.704-6.944-4.94-7.15-7.621 2.13-4.33 6.325-3.101z" filter="url(#E)"/><path d="M-1042.458-155.358c2.956 1.031 9.53 8.651 11.238 13.288s-1.453 6.287-4.408 5.256-5.704-4.742-7.412-9.376-2.374-10.199.582-9.168z" filter="url(#F)"/><use xlink:href="#H" class="D"/><use xlink:href="#H" x="-51.957" y="3.299" class="D"/><use xlink:href="#H" x="98.964" y="135.252" class="D"/></g><path d="M660.087 1233.668l45.65-93.167h-91.3z"/><path d="M654.153 1058.214h11.87v142.705h-11.87zm5.934-176.229l-45.65 93.167 91.3-.001z"/><path d="M666.023 1057.441h-11.87V914.736h11.87zm-181.777.386l93.167 45.65v-91.3z"/><path d="M659.698 1051.891v11.87H516.993v-11.87zm176.231 5.936l-93.167-45.65v91.3z"/><path d="M660.473 1063.762v-11.87h142.705v11.87z"/><path d="M1159.664 1262.568l-.043 21.064 20.75-16.013-20.707-5.052z" opacity=".8" fill="#fff"/><path d="M1180.371 1267.619l-20.75 16.013-12.637 74.514 20.099-16.718 13.288-73.808z" opacity=".6"/><g fill="#fff"><path d="M306.85 293.583l17.664 13.248L660 193.055v-16.402z" opacity=".3"/><path d="M1013.15 293.583l-17.664 13.248L660 193.055v-16.402z" opacity=".3"/><path d="M1013.15 293.583l-17.664 13.248 164.177 955.737 20.707 5.052z" opacity=".3"/></g><path d="M306.85 293.583l17.664 13.248-164.177 955.737-20.707 5.052z" opacity=".4"/><path d="M139.629 1267.619l20.75 16.013 12.702 74.514-20.099-16.718-13.353-73.808z" opacity=".9"/><path d="M160.337 1262.568l.043 21.064-20.75-16.013 20.707-5.052z" opacity=".6"/><path d="M160.337 1262.568h999.327l-.043 21.064H160.379l-.043-21.064z" opacity=".2"/><path d="M1159.621 1283.632l-12.637 74.514H173.081l-12.702-74.514h999.241z" opacity=".7"/></svg>