<svg xmlns="http://www.w3.org/2000/svg" xmlns:xlink="http://www.w3.org/1999/xlink" width="498.898" height="544.252" viewBox="0 0 1320 1440" xmlns:v="https://vecta.io/nano"><defs><linearGradient id="A" x1="228.547" y1="805.748" x2="270.281" y2="805.748" spreadMethod="reflect" gradientUnits="userSpaceOnUse"><stop offset="0" stop-color="#ffd285"/><stop offset=".232" stop-color="#ffcd79"/><stop offset=".616" stop-color="#ffca73"/><stop offset=".808" stop-color="#ffd386"/><stop offset="1" stop-color="#ffc86e"/></linearGradient><linearGradient id="B" x1="660.031" y1="318.739" x2="660.029" y2="1292.759" gradientUnits="userSpaceOnUse"><stop offset=".604" stop-color="#fff"/><stop offset="1"/></linearGradient><filter id="C" x="-.079" y="-.083" width="1.159" height="1.166" color-interpolation-filters="sRGB"><feGaussianBlur stdDeviation=".392"/></filter><path id="D" d="M-2508.959 29.151c2.955 1.031 6.529 4.742 6.735 7.422s-2.955 4.33-5.91 3.299-5.704-4.742-5.91-7.422 2.131-4.33 5.086-3.299z"/><filter id="E" x="-.012" y="-.012" width="1.025" height="1.024"><feGaussianBlur stdDeviation="2.441"/></filter></defs><path style="mix-blend-mode:multiply" d="M-2713.437 205.288l23.119 34.853h436.247l13.285-11.264-98.703-458.797-31.462-17.601z" transform="matrix(-2.0051 0 0 2.0051 -4363.9479 945.81263)" opacity=".5" filter="url(#E)"/><path d="M660.043 318.74L372.379 394.44l-142.368 882.306 13.312 80.689 20.099 16.719h793.244l20.099-16.719 13.312-80.689L947.708 394.44z" fill="url(#A)"/><path d="M660.031 318.739L372.368 394.44 230 1283.62l13.312 73.816 20.099 16.718h793.244l20.099-16.718 13.312-73.816-142.37-889.18z" fill="url(#B)" opacity=".25" style="mix-blend-mode:overlay"/><path d="M650.458 987.175h19.257v231.518h-19.257z" fill="#7f0000"/><path d="M1069.332 1271.7l-.043 21.064 20.75-16.013-20.707-5.052z" opacity=".8" fill="#fff"/><path d="M1090.039 1276.752l-20.75 16.013-12.661 81.397 20.099-16.719 13.312-80.69z" opacity=".6"/><g fill="#fff"><path d="M372.331 394.43l17.664 13.248L660 335.13v-16.402z" opacity=".3"/><path d="M947.669 394.43l-17.664 13.248L660 335.13v-16.402z" opacity=".3"/><path d="M947.669 394.43l-17.664 13.248 139.327 864.022 20.707 5.052z" opacity=".3"/></g><path d="M372.331 394.43l17.664 13.248L250.668 1271.7l-20.707 5.052z" opacity=".4"/><path d="M229.96 1276.752l20.75 16.013 12.661 81.397-20.099-16.719-13.312-80.69z" opacity=".9"/><path d="M250.668 1271.7l.043 21.064-20.75-16.013 20.707-5.052z" opacity=".6"/><path d="M250.668 1271.7h818.665l-.043 21.064H250.71l-.043-21.064z" opacity=".2"/><path d="M1069.289 1292.764l-12.661 81.397H263.371l-12.661-81.397z" opacity=".7"/><g transform="matrix(1.9521 0 0 1.9521 5647.7041 776.23541)"><path d="M-2563.126 60.085c-30.366-2.834-45.995-10.076-55.728-25.824l-8.013-12.966 7.539-15.517c4.146-8.534 14.569-23.032 23.16-32.218l15.622-16.701-.076-50.158c-.07-44.415-.858-51.155-6.891-58.868-8.742-11.176-8.964-20.905-.477-20.905 9.297 0 39.717 33.423 37.33 41.014-4.274 13.587-8.98 44.537-8.98 59.056v15.501l16.374-9.152c14.986-8.376 54.382-17.081 58.53-12.933 4.102 4.102.31 7.446-25.347 22.354-42.523 24.708-82.848 71.761-71.352 83.257 4.639 4.638 40.406 4.453 49.202-.255 11.306-6.051 23.204-4.319 33.055 4.811 24.218 22.444-3.34 35.158-63.947 29.503z" fill="maroon"/><g fill="#fff"><use xlink:href="#D" filter="url(#C)"/><use xlink:href="#D" x="1.649" y="-106.387" transform="matrix(.643 -.754484 1.236104 .2473 -802.32417 -1946.8552)" filter="url(#C)"/><use xlink:href="#D" x="-57.73" y="-177.312" filter="url(#C)"/></g></g><g fill="#7f0000"><path d="M775.761 1093.308v19.257H544.239v-19.257z"/><path d="M735.047 1014.273l13.617 13.617-79.035 79.035-13.617-13.617z"/><path d="M571.336 1027.89l13.617-13.617 84.676 84.676-13.617 13.617z"/></g></svg>