<svg xmlns="http://www.w3.org/2000/svg" xmlns:xlink="http://www.w3.org/1999/xlink" width="498.898" height="544.252" viewBox="0 0 1320 1440" xmlns:v="https://vecta.io/nano"><style><![CDATA[.C{color-interpolation-filters:sRGB}.D{filter:url(#F)}]]></style><defs><linearGradient id="A" x1="-1430.769" y1="-77.47" x2="-1409.955" y2="-77.47" spreadMethod="reflect" gradientUnits="userSpaceOnUse"><stop offset="0" stop-color="#ffd285"/><stop offset=".232" stop-color="#ffcd79"/><stop offset=".616" stop-color="#ffca73"/><stop offset=".808" stop-color="#ffd386"/><stop offset="1" stop-color="#ffc86e"/></linearGradient><linearGradient id="B" x1="-1215.571" y1="-296.329" x2="-1215.572" y2="165.415" gradientUnits="userSpaceOnUse"><stop offset=".6" stop-color="#fff"/><stop offset="1"/></linearGradient><filter id="C" x="-.012" y="-.011" width="1.024" height="1.023" class="C"><feGaussianBlur stdDeviation="2.441"/></filter><filter id="D" x="-.047" y="-.05" width="1.095" height="1.099" class="C"><feGaussianBlur stdDeviation=".392"/></filter><filter id="E" x="-.049" y="-.077" width="1.097" height="1.154" class="C"><feGaussianBlur stdDeviation=".392"/></filter><filter id="F" x="-.079" y="-.083" width="1.159" height="1.166" class="C"><feGaussianBlur stdDeviation=".392"/></filter><path id="G" d="M-1215.571-296.329l-149.881 40.669-79.82 472.51 6.639 36.814 10.024 8.338h426.077l10.024-8.338 6.639-36.814-79.82-472.51z"/><path id="H" d="M-2542.642-71.051c2.955 1.031 6.529 4.742 6.735 7.422s-2.955 4.33-5.91 3.299-5.704-4.742-5.91-7.422 2.131-4.33 5.086-3.299z"/></defs><path style="mix-blend-mode:multiply" d="M-2728.669 264.709l28.198 35.189h455.354l10.087-9.413-98.043-493.462-31.462-17.601z" transform="matrix(-2.0051 0 0 2.0051 -4364.0778 816.66224)" opacity=".5" filter="url(#C)"/><use xlink:href="#G" fill="url(#A)" transform="matrix(2.0051 0 0 2.0051 3097.3821 831.9343)"/><use xlink:href="#G" x="315.666" y="-40.204" opacity=".25" fill="url(#B)" transform="matrix(2.0051 0 0 2.0051 2464.4309 912.54909)" style="mix-blend-mode:overlay"/><g fill="#7e0000"><path d="M650.458 945.784h19.257v231.518h-19.257z"/><path d="M775.845 1051.915v19.257H544.327v-19.257z"/><path d="M735.132 972.881l13.617 13.617-84.674 84.674-13.617-13.617z"/><path d="M669.715 1057.555l-13.617 13.617-84.674-84.674 13.617-13.617z"/></g><path d="M1099.874 1261.697l-.043 21.064 20.75-16.013-20.707-5.052z" opacity=".8" fill="#fff"/><path d="M1120.582 1266.748l-20.75 16.013-12.661 74.524 20.099-16.719 13.312-73.818z" opacity=".6"/><g fill="#fff"><path d="M359.469 319.303l17.664 13.248L660 254.157v-16.402z" opacity=".3"/><path d="M960.531 319.303l-17.664 13.248L660 254.157v-16.402z" opacity=".3"/><path d="M960.531 319.303l-17.664 13.248 157.007 929.146 20.707 5.052z" opacity=".3"/></g><path d="M359.469 319.303l17.664 13.248-157.007 929.146-20.707 5.052z" opacity=".4"/><path d="M199.419 1266.748l20.75 16.013 12.661 74.524-20.099-16.719-13.312-73.818z" opacity=".9"/><path d="M220.126 1261.697l.043 21.064-20.75-16.013 20.707-5.052z" opacity=".6"/><path d="M220.126 1261.697h879.749l-.043 21.064H220.169l-.043-21.064z" opacity=".2"/><path d="M1099.831 1282.761l-12.661 74.524H232.829l-12.661-74.524h879.663z" opacity=".7"/><g transform="matrix(2.1294 0 0 2.1294 6100.7054 742.96883)"><path d="M-2576.625 46.248c-10.856-1.976-19.017-9.397-21.585-19.628-1.124-4.48-3.474-8.146-5.221-8.146s-8.436-4.618-14.865-10.263c-7.886-6.924-11.035-12.112-9.678-15.947 4.405-12.457 12.133-17.223 31.474-19.411 12.763-1.444 21.582-4.418 25.307-8.534 7.822-8.643 3.371-11.738-9.952-6.92-15.298 5.532-20.354 5.045-27.297-2.628-10.425-11.519-17.114-11.252-35.536 1.421-15.992 11-30.138 15.448-29.916 9.405.05-1.385 5.385-6.295 11.854-10.911 18.128-12.937 77.793-79.936 85.663-96.193 6.027-12.451 6.472-16.161 3.148-26.234-7.104-21.525 5.453-25.41 23.142-7.16 10.702 11.041 10.922 11.821 6.671 23.578l-4.397 12.159 35.115 35.277c29.325 29.46 38.315 36.447 54.522 42.376 21.173 7.746 25.908 11.942 18.792 16.655-5.666 3.752-42.271.202-51.96-5.039-8.03-4.344-18.968-16.871-45.101-51.653-10.058-13.387-20.089-24.34-22.291-24.34-3.722 0-17.889 17.028-17.889 21.501 0 1.1 6.091 2 13.534 2 14.991 0 20.454 6.517 12.995 15.505-3.575 4.307-8.302 4.91-24.307 3.099-18.558-2.1-20.502-1.642-29.45 6.93-19.099 18.298 6.567 24.855 37.978 9.702 18.661-9.002 27.452-8.475 33.048 1.981 2.905 5.429 1.185 9.296-10.076 22.651-9.945 11.794-13.579 19.106-13.579 27.322 0 6.74-3.292 15.534-8.248 22.031-4.536 5.948-7.306 11.756-6.155 12.907 3.423 3.423 17.388 2.382 24.076-1.794 7.966-4.975 15.316-2.086 22.468 8.829 5.351 8.167 5.333 9.037-.325 15.288-4.732 5.229-9.964 6.532-24.783 6.171-10.331-.251-22.561-1.145-27.177-1.985zM-2588.65-.35c9.355-3.59 6.094-11.391-4.761-11.391-10.239 0-14.326 7.796-5.875 11.206l4.761 1.958c.311.146 2.954-.652 5.875-1.773zm40.867-57.53c-2.328-2.328-8.698 2.402-8.698 6.46 0 2.226 1.927 1.971 5.117-.677 2.814-2.336 4.426-4.938 3.581-5.783z" fill="maroon"/><g fill="#fff"><path d="M-2560.565-178.202c4.825 2.329 12.139 8.635 13.466 12.873s-3.335 6.408-8.16 4.079-9.815-9.155-11.141-13.393 1.01-5.888 5.836-3.559z" filter="url(#D)"/><path d="M-2474.581-66.805c4.686 1.666 11.722 6.646 13.024 9.269s-3.128 2.887-7.814 1.222-9.628-5.261-10.93-7.884 1.034-4.272 5.72-2.606z" filter="url(#E)"/><use xlink:href="#H" class="D"/><use xlink:href="#H" x="-27.628" y="45.359" class="D"/><use xlink:href="#H" x="9.322" y="92.738" class="D"/></g></g></svg>