<svg xmlns="http://www.w3.org/2000/svg" width="498.898" height="544.252" viewBox="0 0 1320 1440" xmlns:v="https://vecta.io/nano"><style><![CDATA[.B{color-interpolation-filters:sRGB}]]></style><defs><linearGradient ><stop offset="0" stop-color="#fff"/><stop offset=".506"/></linearGradient><filter id="B" x="-.027" y="-.032" width="1.055" height="1.064" class="B"><feGaussianBlur stdDeviation=".228"/></filter><filter id="C" x="-.065" y="-.061" width="1.129" height="1.122" class="B"><feGaussianBlur stdDeviation=".228"/></filter><filter id="D" x="-.047" y="-.051" width="1.093" height="1.101" class="B"><feGaussianBlur stdDeviation=".228"/></filter><filter id="E" x="-.041" y="-.037" width="1.082" height="1.074" class="B"><feGaussianBlur stdDeviation=".228"/></filter><filter id="F" x="-.044" y="-.041" width="1.088" height="1.082" class="B"><feGaussianBlur stdDeviation=".228"/></filter><filter id="G" x="-.032" y="-.038" width="1.063" height="1.077" class="B"><feGaussianBlur stdDeviation=".228"/></filter><linearGradient id="H" x1="-1430.769" y1="-77.47" x2="-1409.955" y2="-77.47" spreadMethod="reflect" gradientUnits="userSpaceOnUse"><stop offset="0" stop-color="#ffd285"/><stop offset=".232" stop-color="#ffcd79"/><stop offset=".616" stop-color="#ffca73"/><stop offset=".808" stop-color="#ffd386"/><stop offset="1" stop-color="#ffc86e"/></linearGradient><linearGradient id="I" x1="-899.905" y1="-360.56" x2="-899.906" y2="125.211" gradientUnits="userSpaceOnUse"><stop offset="0" stop-color="#fff"/><stop offset="1"/></linearGradient><filter id="J" x="-.012" y="-.012" width="1.025" height="1.023" class="B"><feGaussianBlur stdDeviation="2.441"/></filter></defs><path style="mix-blend-mode:multiply" d="M-2713.437 205.288l42.888 46.268h407.198l22.565-22.679-98.703-458.797-31.462-17.601z" transform="matrix(-2.0051 0 0 2.0051 -4364.0778 816.66224)" opacity=".5" filter="url(#J)"/><path d="M-1215.57-320.355l-143.466 37.754-71.003 440.031 6.639 40.242 10.024 8.338h395.613l10.024-8.338 6.639-40.242-71.003-440.031z" fill="url(#H)" transform="matrix(2.0051 0 0 2.0051 3097.3821 831.9343)"/><g transform="matrix(1.7255 0 0 1.7255 2757.4307 670.75114)"><path d="M-1304.68 51.383c-6.589-5.002-8.544-18.366-3.173-21.686 1.718-1.062 4.228-11.683 5.576-23.602s3.874-21.671 5.613-21.671 5.17 8.975 7.625 19.943c5.243 23.429 2.881 23.661 47.567-4.667 32.67-20.711 63.635-48.114 63.635-56.315 0-2.467-3.779-8.037-8.398-12.376l-8.398-7.89-4.571 15.359c-10.714 36.001-17.565 40.117-34.088 20.481-11.639-13.832-11.724-17.716-.389-17.716 10.684 0 15.142-12.324 10.034-27.733-3.691-11.134-14.286-14.604-25.789-8.449-6.791 3.635-6.873 4.42-1.451 13.868 5.591 9.741 5.38 10.528-7.718 28.759-14.289 19.889-18.148 21.714-29.053 13.74-7.64-5.587-5.386-13.106 9.449-31.521 10.175-12.63 6.316-18.033-10.911-15.278-11.739 1.877-15.387.675-25.573-8.426-8.168-7.298-11.147-12.526-9.534-16.73 1.852-4.827 3.824-5.325 9.36-2.361 7.671 4.105 32.332 5.041 41.377 1.569 7.19-2.759 7.427-19.335.409-28.614-12.952-17.124-2.12-28.041 18.205-18.349 11.581 5.523 12.267 6.873 12.267 24.139 0 17.829.248 18.261 9.896 17.151l9.896-1.139 1.027-32.739c.815-25.955-.118-33.689-4.498-37.324-7.101-5.894-7.124-17.711-.04-20.429 3.018-1.158 11.924 2.154 19.791 7.361 12.613 8.347 14.304 11.127 14.304 23.509 0 16.52 2.653 17.925 25.149 13.317 19.073-3.907 28.827-1.608 28.827 6.794 0 7.99-23.253 16.812-40.945 15.535-14.063-1.015-14.83-.555-14.83 8.896v9.966l32.386.794c38.752.95 56.81 8.852 55.031 24.08-1.336 11.432-59.452-1.194-74.166-2.438l-26.753-2.261 5.896 8.998c4.294 6.554 11.504 10.234 26.543 13.546 35.434 7.805 40.959 10.779 39.728 21.385-.802 6.908-3.46 9.698-10.085 10.586-8.665 1.161-28.787 17.021-28.787 22.689 0 1.516 7 5.853 15.556 9.638 20.173 8.923 28.537 25.689 18.403 36.887-10.037 11.09-19.892 7.132-33.892-13.614-6.964-10.319-13.562-18.82-14.663-18.892s-14.438 9.181-29.638 20.561c-68.167 51.035-72.417 53.139-86.208 42.67z"/><g fill="#fff"><path d="M-1213.631-201.289c4.716 2.302 11.81 7.057 13.613 10.731s-1.684 6.269-6.399 3.967-10.659-9.501-12.463-13.176.533-3.825 5.249-1.522z" filter="url(#B)"/><path d="M-1147.845-163.249c2.108.672 4.508 2.884 4.746 5.043s-1.684 4.264-3.792 3.592-4.4-4.122-4.639-6.281 1.576-3.026 3.684-2.354z" filter="url(#C)"/><path d="M-1121.496-112.347c2.727 1.161 7.083 4.481 8.3 6.966s-.706 4.134-3.433 2.973-6.258-5.133-7.475-7.618-.119-3.482 2.608-2.321z" filter="url(#D)"/><path d="M-1144.976-69.294c1.265.878 3.796 2.633 3.448 5.802s-3.574 7.752-5.178 8.277-1.585-3.007-3.319-5.71-5.218-4.577-4.88-5.979 4.501-2.335 6.582-2.801 2.082-.466 3.347.412z" filter="url(#E)"/><path d="M-1146.315-2.955c3.093 1.492 6.252 5.941 6.251 8.99s-3.163 4.698-6.256 3.206-6.119-6.125-6.118-9.174 3.029-4.514 6.123-3.022z" filter="url(#F)"/><path d="M-1261.896-156.641c3.601.916 10.033 3.751 12.613 7.215s1.309 7.557-2.291 6.641-9.53-6.839-12.111-10.303-1.811-4.468 1.789-3.553z" filter="url(#G)"/></g></g><path d="M650.458 858.026h19.257v231.518h-19.257z" opacity=".9" stroke="#000" stroke-width="1.257"/><path d="M-899.905-360.56l-143.466 37.754-71.003 443.459 6.639 36.814 10.024 8.338h395.613l10.024-8.338 6.639-36.814-71.004-443.459z" fill="url(#I)" opacity=".25" transform="matrix(2.0051 0 0 2.0051 2464.4309 912.54909)" style="mix-blend-mode:overlay"/><path d="M1069.332 1142.551l-.043 21.064 20.75-16.013-20.707-5.052z" opacity=".8" fill="#fff"/><path d="M1090.039 1147.603l-20.75 16.013-12.661 81.397 20.099-16.719 13.312-80.69z" opacity=".6"/><g fill="#fff"><path d="M372.331 265.281l17.664 13.248L660 205.981v-16.402z" opacity=".3"/><path d="M947.669 265.281l-17.664 13.248L660 205.981v-16.402z" opacity=".3"/><path d="M947.669 265.281l-17.664 13.248 139.327 864.022 20.707 5.052z" opacity=".3"/></g><path d="M372.331 265.281l17.664 13.248-139.327 864.022-20.707 5.052z" opacity=".4"/><path d="M229.96 1147.603l20.75 16.013 12.661 81.397-20.099-16.719-13.312-80.69z" opacity=".9"/><path d="M250.668 1142.551l.043 21.064-20.75-16.013 20.707-5.052z" opacity=".6"/><path d="M250.668 1142.551h818.665l-.043 21.064H250.71l-.043-21.064z" opacity=".2"/><path d="M1069.289 1163.615l-12.661 81.397H263.371l-12.661-81.397h818.579z" opacity=".7"/></svg>