<svg xmlns="http://www.w3.org/2000/svg" width="498.898" height="544.252" viewBox="0 0 1320 1440" xmlns:v="https://vecta.io/nano"><style><![CDATA[.B{color-interpolation-filters:sRGB}]]></style><defs><linearGradient id="A" x1="-1430.769" y1="-77.47" x2="-1409.955" y2="-77.47" spreadMethod="reflect" gradientUnits="userSpaceOnUse"><stop offset="0" stop-color="#ffd285"/><stop offset=".232" stop-color="#ffcd79"/><stop offset=".616" stop-color="#ffca73"/><stop offset=".808" stop-color="#ffd386"/><stop offset="1" stop-color="#ffc86e"/></linearGradient><linearGradient id="B" x1="-899.905" y1="-344.262" x2="-899.906" y2="125.211" gradientUnits="userSpaceOnUse"><stop offset=".597" stop-color="#fff"/><stop offset="1"/></linearGradient><filter id="C" x="-.011" y="-.011" width="1.022" height="1.022" class="B"><feGaussianBlur stdDeviation="2.441"/></filter><filter id="D" x="-.009" y="-.009" width="1.019" height="1.017" class="B"><feGaussianBlur stdDeviation=".599"/></filter><filter id="E" x="-.042" y="-.038" width="1.084" height="1.076" class="B"><feGaussianBlur stdDeviation=".3"/></filter><filter id="F" x="-.047" y="-.041" width="1.095" height="1.083" class="B"><feGaussianBlur stdDeviation=".3"/></filter><filter id="G" x="-.047" y="-.051" width="1.095" height="1.102" class="B"><feGaussianBlur stdDeviation=".3"/></filter><filter id="H" x="-.054" y="-.076" width="1.109" height="1.153" class="B"><feGaussianBlur stdDeviation=".3"/></filter><filter id="I" x="-.041" y="-.061" width="1.082" height="1.121" class="B"><feGaussianBlur stdDeviation=".3"/></filter><filter id="J" x="-.043" y="-.031" width="1.086" height="1.062" class="B"><feGaussianBlur stdDeviation=".3"/></filter><filter id="K" x="-.084" y="-.046" width="1.167" height="1.092" class="B"><feGaussianBlur stdDeviation=".3"/></filter><filter id="L" x="-.061" y="-.063" width="1.122" height="1.127" class="B"><feGaussianBlur stdDeviation=".3"/></filter></defs><path style="mix-blend-mode:multiply" d="M-2745.657 265.144l28.198 35.189h489.331l10.087-9.413-110.95-494.045-31.462-17.601z" transform="matrix(-2.0051 0 0 2.0051 -4364.0778 816.66224)" opacity=".5" filter="url(#C)"/><path d="M-1215.57-304.058l-153.963 48.25-92.727 473.093 6.639 36.814 10.024 8.338h460.053l10.024-8.338 6.639-36.814-92.727-473.093z" fill="url(#A)" transform="matrix(2.0051 0 0 2.0051 3097.3821 831.9343)"/><path d="M-899.905-344.262l-153.963 48.25-92.727 473.093 6.639 36.814 10.024 8.338h460.054l10.024-8.338 6.639-36.814-92.727-473.093z" opacity=".25" fill="url(#B)" transform="matrix(2.0051 0 0 2.0051 2464.4309 912.54909)" style="mix-blend-mode:overlay"/><g stroke="#000" stroke-width="1.257"><path d="M650.371 941.788h19.257v119.747h-19.257z"/><path d="M735.046 968.886l13.617 13.617-163.709 163.709-13.617-13.617z"/><path d="M748.663 1132.593l-13.617 13.617-163.709-163.709 13.617-13.617z"/></g><path d="M1133.938 1262.57l-.043 21.064 20.75-16.013-20.707-5.052z" opacity=".8" fill="#fff"/><path d="M1154.645 1267.622l-20.75 16.013-12.661 74.524 20.099-16.719 13.312-73.818z" opacity=".6"/><g fill="#fff"><path d="M351.284 319.007l17.664 13.248L660 238.66v-16.402z" opacity=".3"/><path d="M968.716 319.007l-17.664 13.248L660 238.66v-16.402z" opacity=".3"/><path d="M968.716 319.007l-17.664 13.248 182.886 930.315 20.707 5.052z" opacity=".3"/></g><path d="M351.284 319.007l17.664 13.248-182.886 930.315-20.707 5.052z" opacity=".4"/><path d="M165.355 1267.622l20.75 16.013 12.661 74.524-20.099-16.719-13.312-73.818z" opacity=".9"/><path d="M186.062 1262.57l.043 21.064-20.75-16.013 20.707-5.052z" opacity=".6"/><path d="M186.062 1262.57h947.876l-.043 21.064H186.105l-.043-21.064z" opacity=".2"/><path d="M1133.895 1283.634l-12.661 74.524H198.765l-12.66-74.524h947.791z" opacity=".7"/><path d="M438.553 824.091c-33.526-28.209-28.675-38.038 18.795-38.08 26.408-.019 47.623-4.408 61.18-12.64 19.349-11.751 20.618-15.154 18.756-50.238-1.099-20.699-4.742-44.853-8.096-53.673-5.558-14.619-8.003-15.319-27.633-7.909-17.713 6.685-24.919 6.075-40.597-3.437-35.327-21.434-26.989-31.702 36.813-45.335 32.325-6.907 40.755-28.382 9.913-25.253-11.726 1.191-25.253-4.678-37.988-16.482-15.122-14.016-24.49-17.387-39.793-14.327-28.836 5.767-25.058-5.707 14.596-44.331 37.295-36.326 84.911-105.482 84.911-123.324 0-6.038-3.875-17.185-8.611-24.769-6.499-10.405-6.624-15.778-.515-21.888s14.287-4.272 33.308 7.484c27.928 17.261 42.197 38.282 36.342 53.541-2.513 6.55 4.337 13.409 19.873 19.901 22.704 9.487 37.297 32.235 29.142 45.432-9.065 14.667-33.238 13.193-52.736-3.213-7.848-6.604-16.042-12.347-21.334-15.131-2.186-1.15-3.878-1.796-4.845-1.787-3.308.026-13.594 11.175-22.857 24.776s-27.564 34.144-40.67 45.651l-23.83 20.923h24.592c13.525 0 41.054-6.488 61.175-14.42 72.229-28.47 116.144-2.01 48.997 29.52-19.368 9.095-34.233 19.7-33.034 23.568s16.401 6.131 33.778 5.032c22.564-1.426 34.335 1.303 41.181 9.549 8.203 9.884 7.8 12.852-2.796 20.601-11.759 8.599-11.677 10.21 1.625 32.082 17.583 28.913 11.603 41.782-31.027 66.766-34.75 20.365-43.826 37.921-10.766 20.824 26.925-13.924 35.538-13.539 35.343 1.578-.193 15.029-142.885 107.218-165.952 107.218-8.583 0-25.341-8.191-37.237-18.202zm165.746-143.865c10.002-10.002 3.219-41.823-8.915-41.823-6.428 0-9.726 8.344-9.726 24.607 0 25.177 5.553 30.304 18.642 17.215zm109.934 157.499c-4.687-1.901-14.959-13.873-22.827-26.604-13.112-21.216-14.568-37.596-17.463-196.527-2.944-161.62-4.137-174.626-17.599-191.741-31.901-40.556-6.527-60.682 33.764-26.779 20.091 16.906 23.355 17.453 64.518 10.824 23.846-3.841 46.995-9.83 51.443-13.311 10.259-8.031 53.823 9.51 53.682 21.614-.056 4.823-7.524 38.752-16.598 75.396l-16.496 66.629 23.695 8.147c61.604 21.178 59.354 46.529-7.014 79.053l-48.152 23.596 27.061 21.677c46.598 37.329 86.821 83.543 86.821 99.752 0 21.582-23.339 41.247-41.944 35.343-8.156-2.589-23.091-17.901-33.189-34.029s-24.046-36.65-30.994-45.607l-12.635-16.283-14.442 28.308c-7.943 15.569-14.442 32.752-14.442 38.185 0 11.026-26.477 47.238-33.906 46.373-2.619-.304-8.597-2.111-13.284-4.012zm50.256-114.457c13.351-14.753 13.274-15.054-10.247-39.32-13.034-13.45-26.243-24.453-29.353-24.453-6.627 0-7.748 79.929-1.212 86.464 5.88 5.88 24.145-4.277 40.809-22.692zm45.12-103.192c23.417-20.043 27.947-27.381 21.619-35.005-5.727-6.9-11.67-7.686-20.866-2.765-7.074 3.785-30.469 6.882-51.992 6.882-47.781 0-51.96 12.486-12.765 38.152 14.501 9.496 28.169 17.451 30.373 17.679s17.338-10.998 33.634-24.945zm-33.663-73.317c7.48-4.003 13.599-11.816 13.599-17.361 0-7.705-7.876-9.471-33.396-7.491-27.506 2.133-33.792 5.195-35.642 17.361-1.878 12.343 1.375 14.769 19.797 14.769 12.123 0 28.162-3.275 35.642-7.278zm18.872-73.878c12.811-4.038 10.929-31.333-2.16-31.333-6.022 0-25.003 3.539-42.185 7.865-23.542 5.927-31.236 11.23-31.236 21.522 0 12.234 3.482 13.191 33.396 9.186 18.367-2.459 37.35-5.718 42.183-7.241zm-311.76 271.147c-18.235-7.343-42.243-54.991-32.576-64.657 4.365-4.364 16.306-2.22 33.437 6.003 33.018 15.849 44.83 32.766 34.411 49.283-9.404 14.909-16.7 16.848-35.271 9.371z"/><g transform="matrix(1.7588 0 0 1.7588 5153.9642 714.58493)" filter="url(#D)"><g fill="#fff"><path d="M-2459.687-178.631c4.249 1.015 11.35 5.216 11.923 9.831s-5.385 9.645-9.633 8.63-6.788-8.072-7.361-12.688.823-6.788 5.071-5.774z" filter="url(#E)"/><path d="M-2616.817-201.192c3.473 1.105 9.857 6.591 11.469 10.825s-1.55 7.214-5.023 6.109-7.257-6.295-8.869-10.529-1.05-7.51 2.423-6.405z" filter="url(#F)"/><path d="M-2583.355-159.738c3.695 1.623 8.748 6.517 9.694 9.715s-2.215 4.699-5.91 3.077-7.923-6.369-8.869-9.567 1.391-4.848 5.086-3.225z" filter="url(#G)"/><path d="M-2580.574-111.366c3.177.513 7.195 3.189 6.291 5.499s-6.727 4.256-9.905 3.743-3.707-3.484-2.804-5.795 3.24-3.96 6.417-3.447z" filter="url(#H)"/><path d="M-2439.191-76.665c4.361 1.401 10.745 5.852 10.951 8.532s-5.766 3.59-10.126 2.189-7.11-5.112-7.316-7.792 2.131-4.33 6.491-2.929z" filter="url(#I)"/><path d="M-2432.456 24.33c4.139 2.436 9.488 9.698 10.359 15.041s-2.733 8.768-6.872 6.331-8.811-10.733-9.683-16.076 2.056-7.732 6.195-5.296z" filter="url(#J)"/><path d="M-2568.311-36.939c2.142 1.031 4.828 6.961 4.59 10.751s-3.399 5.439-5.541 4.408-3.263-4.742-3.026-8.532 1.835-7.658 3.976-6.627z" filter="url(#K)"/><path d="M-2649.247-8.584c2.955 1.031 6.529 4.742 6.735 7.422s-2.955 4.33-5.91 3.299-5.704-4.742-5.91-7.422 2.131-4.33 5.086-3.299z" filter="url(#L)"/></g></g></svg>