<svg xmlns="http://www.w3.org/2000/svg" xmlns:xlink="http://www.w3.org/1999/xlink" width="498.898" height="544.252" viewBox="0 0 1320 1440" xmlns:v="https://vecta.io/nano"><defs><linearGradient id="A" x1="-1430.769" y1="-77.47" x2="-1409.955" y2="-77.47" spreadMethod="reflect" gradientUnits="userSpaceOnUse"><stop offset="0" stop-color="#ffd285"/><stop offset=".232" stop-color="#ffcd79"/><stop offset=".616" stop-color="#ffca73"/><stop offset=".808" stop-color="#ffd386"/><stop offset="1" stop-color="#ffc86e"/></linearGradient><linearGradient id="B" x1="-899.905" y1="-344.262" x2="-899.906" y2="125.211" gradientUnits="userSpaceOnUse"><stop offset=".597" stop-color="#fff"/><stop offset="1"/></linearGradient><filter id="C" x="-.011" y="-.011" width="1.022" height="1.022" color-interpolation-filters="sRGB"><feGaussianBlur stdDeviation="2.441"/></filter><path id="D" d="M693.561 549.856c5.267 1.838 11.636 8.452 12.004 13.229s-5.267 7.716-10.534 5.879-10.166-8.451-10.534-13.229 3.797-7.717 9.064-5.879z"/></defs><path style="mix-blend-mode:multiply" d="M-2745.657 265.144l28.198 35.189h489.331l10.087-9.413-110.95-494.045-31.462-17.601z" transform="matrix(-2.0051 0 0 2.0051 -4364.0778 816.66224)" opacity=".5" filter="url(#C)"/><path d="M-1215.57-304.058l-153.963 48.25-92.727 473.093 6.639 36.814 10.024 8.338h460.053l10.024-8.338 6.639-36.814-92.727-473.093z" fill="url(#A)" transform="matrix(2.0051 0 0 2.0051 3097.3821 831.9343)"/><path d="M-899.905-344.262l-153.963 48.25-92.727 473.093 6.639 36.814 10.024 8.338h460.054l10.024-8.338 6.639-36.814-92.727-473.093z" opacity=".25" fill="url(#B)" transform="matrix(2.0051 0 0 2.0051 2464.4309 912.54909)" style="mix-blend-mode:overlay"/><path d="M480.567 820.911c-28.481-24.451-34.139-48.815-9.801-42.214 31.267 8.48 60.34 10.15 69.554 3.998 8.976-5.995 8.75-7.789-1.765-13.985-15.843-9.335-39.426-56.1-39.426-78.18 0-19.875 7.944-22.384 21.013-6.637 4.928 5.94 20.528 16.7 34.666 23.912 28.765 14.675 38.019 33.388 26.841 54.274-6.415 11.987-5.448 13.989 6.761 13.989 13.426 0 14.134-3.254 12.255-56.221l-1.993-56.222-32.271-.589c-21.865-.399-38.912-5.501-52.874-15.824-20.548-15.192-20.669-15.197-43.246-2.045-27.961 16.289-74.128 25.715-74.128 15.136 0-4.099 8.886-12.048 19.747-17.664 29.707-15.362 97.839-93.118 149.222-170.302l45.742-68.71-14.457-29.758c-8.598-17.694-11.754-31.43-7.786-33.881 3.669-2.268 22.878 4.631 42.686 15.331 35.966 19.428 36.013 19.497 34.914 51.777-1.071 31.46-.164 33.008 34.325 57.972 19.485 14.107 36.97 27.314 38.858 29.348 20.145 21.704 93.726 67.312 129.577 80.315 69.949 25.372 72.596 37.303 10.344 46.638-58.012 8.699-73.532.895-158.357-79.628-43.22-41.029-81.257-74.597-84.526-74.597s-12.83 10.04-21.245 22.311-23.076 30.774-32.576 41.118-15.152 20.928-12.56 23.52c4.786 4.787 88.234-6.384 108.144-14.477 6.341-2.577 17.799 1.43 27.459 9.602 16.254 13.752 16.318 14.227 3.252 24.328-7.328 5.666-20.459 10.302-29.177 10.302-9.553 0-15.85 4.115-15.85 10.357 0 8.471 6.64 9.577 36.454 6.073 32.22-3.787 38.733-2.325 56.07 12.588 22.39 19.259 20.122 39.631-4.409 39.631-14.285 0-13.756 1.586 8.036 24.07l23.33 24.07-29.291 29.844-29.289 29.844 39.916 4.092c31.791 3.259 43.129 7.816 55.711 22.391 14.951 17.321 15.171 18.989 4.105 31.216-10.763 11.893-19.368 12.583-108.473 8.7-63.956-2.787-109.59-1.475-134.541 3.869l-54.92 11.59c-12.841 2.621-24.43-2.736-46.023-21.272zm216.182-99.067c20.118-29.671 21.671-35.228 14.345-51.31-6.064-13.307-13.329-18.036-27.711-18.036H663.89v51.488c0 28.318 2.317 51.408 5.149 51.31s15.301-15.15 27.711-33.452zM595.24 609.547c0-4.744-12.738-12.602-28.307-17.46-24.895-7.77-29.859-7.429-41.189 2.825-20.779 18.806-15.359 23.262 28.307 23.262 28.488 0 41.189-2.66 41.189-8.626z"/><g fill="#fff"><path d="M635.978 364.056c8.147 4.718 15.669 10.674 16.036 15.451s-6.419 8.375-14.567 3.657-17.655-17.751-18.023-22.528 8.406-1.297 16.553 3.42zm254.915 232.565c6.976 8.821-14.129 12.09-31.66 4.903s-31.482-24.828-20.928-26.463 45.612 12.739 52.588 21.56z"/><use xlink:href="#D"/><path d="M732.376 611.414c7.489 1.837 17.644 9.275 17.682 14.463s-10.04 8.128-17.53 6.291-12.388-8.451-12.427-13.64 4.785-8.951 12.274-7.114z"/><use xlink:href="#D" x="94.07" y="232.236"/><path d="M558.605 720.994c6.502 1.837 14.352 9.604 14.226 14.957s-8.23 8.293-14.731 6.455-11.401-8.451-11.275-13.805 5.278-9.445 11.78-7.608zm192.656-40.214c3.21.52 14.352 10.427 16.53 17.179s-4.608 10.35-7.818 9.83-2.842-5.159-5.02-11.912-6.902-15.618-3.693-15.097z"/></g><g stroke="#000" stroke-width="1.257"><path d="M650.373 941.796h19.257v231.519h-19.257z"/><path d="M775.76 1047.928v19.257H544.241v-19.257z"/><path d="M735.048 968.894l13.617 13.617-84.674 84.674-13.617-13.617z"/><path d="M669.631 1053.568l-13.617 13.617-84.675-84.675 13.617-13.617z"/></g><path d="M1133.938 1262.57l-.043 21.064 20.75-16.013-20.707-5.052z" opacity=".8" fill="#fff"/><path d="M1154.645 1267.622l-20.75 16.013-12.661 74.524 20.099-16.719 13.312-73.818z" opacity=".6"/><g fill="#fff"><path d="M351.284 319.007l17.664 13.248L660 238.66v-16.402z" opacity=".3"/><path d="M968.716 319.007l-17.664 13.248L660 238.66v-16.402z" opacity=".3"/><path d="M968.716 319.007l-17.664 13.248 182.886 930.315 20.707 5.052z" opacity=".3"/></g><path d="M351.284 319.007l17.664 13.248-182.886 930.315-20.707 5.052z" opacity=".4"/><path d="M165.355 1267.622l20.75 16.013 12.661 74.524-20.099-16.719-13.312-73.818z" opacity=".9"/><path d="M186.062 1262.57l.043 21.064-20.75-16.013 20.707-5.052z" opacity=".6"/><path d="M186.062 1262.57h947.876l-.043 21.064H186.105l-.043-21.064z" opacity=".2"/><path d="M1133.895 1283.634l-12.661 74.524H198.765l-12.66-74.524h947.791z" opacity=".7"/></svg>