<svg xmlns="http://www.w3.org/2000/svg" xmlns:xlink="http://www.w3.org/1999/xlink" width="498.898" height="544.252" viewBox="0 0 1320 1440" xmlns:v="https://vecta.io/nano"><style><![CDATA[.C{filter:url(#E)}.D{color-interpolation-filters:sRGB}]]></style><defs><linearGradient id="A" x1="-1430.769" y1="-77.47" x2="-1409.955" y2="-77.47" spreadMethod="reflect" gradientUnits="userSpaceOnUse"><stop offset="0" stop-color="#ffd285"/><stop offset=".232" stop-color="#ffcd79"/><stop offset=".616" stop-color="#ffca73"/><stop offset=".808" stop-color="#ffd386"/><stop offset="1" stop-color="#ffc86e"/></linearGradient><linearGradient id="B" x1="-1215.571" y1="-296.329" x2="-1215.572" y2="165.415" gradientUnits="userSpaceOnUse"><stop offset=".601" stop-color="#fff"/><stop offset="1"/></linearGradient><filter id="C" x="-.012" y="-.011" width="1.024" height="1.023" class="D"><feGaussianBlur stdDeviation="2.441"/></filter><filter id="D" x="-.015" y="-.011" width="1.03" height="1.022" class="D"><feGaussianBlur stdDeviation=".599"/></filter><filter id="E" x="-.079" y="-.083" width="1.159" height="1.166" class="D"><feGaussianBlur stdDeviation=".392"/></filter><path id="F" d="M-1215.571-296.329l-149.881 40.669-79.82 472.51 6.639 36.814 10.024 8.338h426.077l10.024-8.338 6.639-36.814-79.82-472.51z"/><path id="G" d="M-2510.066-183.552c2.955 1.031 6.529 4.742 6.735 7.422s-2.955 4.33-5.91 3.299-5.704-4.742-5.91-7.422 2.131-4.33 5.086-3.299z"/></defs><path style="mix-blend-mode:multiply" d="M-2728.669 264.709l28.198 35.189h455.354l10.087-9.413-98.043-493.462-31.462-17.601z" transform="matrix(-2.0051 0 0 2.0051 -4364.0778 816.66224)" opacity=".5" filter="url(#C)"/><use xlink:href="#F" fill="url(#A)" transform="matrix(2.0051 0 0 2.0051 3097.3821 831.9343)"/><use xlink:href="#F" x="315.666" y="-40.204" opacity=".25" fill="url(#B)" transform="matrix(2.0051 0 0 2.0051 2464.4309 912.54909)" style="mix-blend-mode:overlay"/><path d="M616.142 829.766l-25.54-17.334-15.643 14.695c-21.358 20.066-33.446 13.448-65.055-35.614-14.755-22.904-28.82-41.671-31.253-41.705s-8.377 4.7-13.205 10.517-14.103 10.579-20.61 10.579c-31.111 0-38.421-42.297-12.888-74.569 32.742-41.383 110.227-160.86 107.347-165.523-1.648-2.667-17.014-1.642-34.144 2.277-27.497 6.292-33.715 5.299-53.055-8.473-12.05-8.581-21.909-21.732-21.909-29.225 0-12.22 5.307-13.624 51.48-13.624 30.637 0 54.906-3.427 59.943-8.462 11.787-11.787 10.558-44.603-2.627-70.098-14.998-29.003-8.757-41.325 20.933-41.325 40.656 0 70.883 54.471 43.046 77.573-5.817 4.828-10.579 11.564-10.579 14.967 0 8.676 30.885 7.744 39.829-1.201 5.15-5.152 13.014-4.826 25.957 1.07 21.045 9.589 31.119 32.12 19.539 43.701-13.165 13.164-8.633 20.074 11.641 17.742 18.828-2.165 19.393-3.502 19.346-45.779-.037-34.013-3.512-48.235-15.868-64.946-20.488-27.711-19.999-40.546 1.751-46.005 21.098-5.295 58.433 9.321 76.979 30.136 11.783 13.226 12.44 18.473 5.29 42.342-4.489 14.985-8.163 35.941-8.163 46.574 0 15.559 2.407 18.38 12.341 14.468 6.788-2.674 28.209-6.513 47.602-8.535 31.217-3.253 37.182-1.61 52.019 14.325 28.801 30.934 23.485 34.148-96.095 58.119-10.255 2.055-15.868 8.29-15.868 17.625 0 10.426 3.432 13.444 12.341 10.845 6.788-1.98 26.844-5.642 44.572-8.137 28.25-3.978 35.001-2.208 54.654 14.329 42.712 35.939 29.261 45.822-62.363 45.822-63.53 0-78.776 6.043-63.051 24.99 5.687 6.851 22.266 10.27 49.81 10.27 36.684 0 42.625 2.044 53.304 18.342 19.148 29.223 5.962 41.601-44.314 41.601-36.187 0-41.683 1.801-43.466 14.245-1.868 13.043 1.801 14.233 43.535 14.103 60.191-.185 85.445 16.672 85.445 57.039 0 24.705-1.939 27.671-19.409 29.68-11.596 1.335-28.045-3.919-40.871-13.049-33.433-23.806-84.831-25.391-146.027-4.501l-51.159 17.464zm70.867-56.09c6.136-2.354 11.155-10.287 11.155-17.631 0-10.206-5.11-13.35-21.699-13.35-14.715 0-28.519-6.82-42.889-21.19-24.576-24.576-23.134-39.506 3.569-36.989 60.29 5.683 57.367 6.373 59.723-14.103 2.129-18.502.833-19.395-28.209-19.42-17.586-.019-39.837-5.756-52.693-13.594-12.239-7.463-24.14-11.681-26.445-9.376-6.031 6.033-4.969 123.721 1.205 133.253 8.961 13.834 71.544 21.896 96.282 12.403zm-145.469-79.148c1.14-32.087-.843-57.611-4.478-57.611-8.757 0-25.087 25.843-36.672 58.036-8.872 24.649-8.409 27.426 7.358 44.21 9.254 9.85 20.182 16.799 24.283 15.444 4.198-1.388 8.353-27.646 9.506-60.078zm163.676-95.821c0-1.622 1.927-7.97 4.281-14.103 3.286-8.566-.397-11.161-15.868-11.182-25.656-.033-66.376-24.624-71.178-42.981-4.204-16.072-21.601-15.332-32.116 1.367-12.8 20.328-.096 46.296 28.429 58.128 23.749 9.85 86.449 16.211 86.449 8.772z"/><g transform="matrix(1.9477 0 0 1.9477 5636.5683 732.19029)" filter="url(#D)"><g fill="#fff"><use xlink:href="#G" class="C"/><use xlink:href="#G" x="56.905" y="58.554" class="C"/><use xlink:href="#G" x="-87.419" y="-1.65" class="C"/><use xlink:href="#G" x="-49.72" y="43.306" class="C"/><use xlink:href="#G" x="59.379" y="106.387" class="C"/><use xlink:href="#G" x="47.05" y="157.198" class="C"/><use xlink:href="#G" x="61.028" y="204.527" class="C"/></g></g><path d="M1099.874 1261.697l-.043 21.064 20.75-16.013-20.707-5.052z" opacity=".8" fill="#fff"/><path d="M1120.582 1266.748l-20.75 16.013-12.661 74.524 20.099-16.719 13.312-73.818z" opacity=".6"/><g fill="#fff"><path d="M359.469 319.303l17.664 13.248L660 254.157v-16.402z" opacity=".3"/><path d="M960.531 319.303l-17.664 13.248L660 254.157v-16.402z" opacity=".3"/><path d="M960.531 319.303l-17.664 13.248 157.007 929.146 20.707 5.052z" opacity=".3"/></g><path d="M359.469 319.303l17.664 13.248-157.007 929.146-20.707 5.052z" opacity=".4"/><path d="M199.419 1266.748l20.75 16.013 12.661 74.524-20.099-16.719-13.312-73.818z" opacity=".9"/><path d="M220.126 1261.697l.043 21.064-20.75-16.013 20.707-5.052z" opacity=".6"/><path d="M220.126 1261.697h879.749l-.043 21.064H220.169l-.043-21.064z" opacity=".2"/><path d="M1099.831 1282.761l-12.661 74.524H232.829l-12.661-74.524h879.663z" opacity=".7"/><path d="M659.959 1175.883c-13.625-68.723-22.103-150.6-39.216-190.044s-42.858-36.45-63.458-46.611c13.737 10.832 27.474 21.664 44.586 61.107s37.6 107.495 58.088 175.548z"/><path d="M659.959 1175.883c13.625-68.723 22.103-150.6 39.216-190.044s42.858-36.45 63.458-46.611c-13.737 10.832-27.474 21.664-44.586 61.107s-37.6 107.495-58.088 175.548z"/></svg>