<svg xmlns="http://www.w3.org/2000/svg" xmlns:xlink="http://www.w3.org/1999/xlink" width="498.898" height="544.252" viewBox="0 0 1320 1440" xmlns:v="https://vecta.io/nano"><style><![CDATA[.C{color-interpolation-filters:sRGB}.D{filter:url(#H)}]]></style><defs><linearGradient id="A" x1="-1430.769" y1="-77.47" x2="-1409.955" y2="-77.47" spreadMethod="reflect" gradientUnits="userSpaceOnUse"><stop offset="0" stop-color="#ffd285"/><stop offset=".232" stop-color="#ffcd79"/><stop offset=".616" stop-color="#ffca73"/><stop offset=".808" stop-color="#ffd386"/><stop offset="1" stop-color="#ffc86e"/></linearGradient><linearGradient id="B" x1="-899.905" y1="-359.019" x2="-899.906" y2="125.211" gradientUnits="userSpaceOnUse"><stop offset=".6" stop-color="#fff"/><stop offset="1"/></linearGradient><filter id="C" x="0" y="0" width="1" height="1" class="C"><feGaussianBlur stdDeviation=".002"/></filter><filter id="D" x="-.048" y="-.037" width="1.096" height="1.075" class="C"><feGaussianBlur stdDeviation=".392"/></filter><filter id="E" x="-.044" y="-.068" width="1.088" height="1.136" class="C"><feGaussianBlur stdDeviation=".392"/></filter><filter id="F" x="-.056" y="-.081" width="1.112" height="1.162" class="C"><feGaussianBlur stdDeviation=".392"/></filter><filter id="G" x="-.068" y="-.05" width="1.137" height="1.099" class="C"><feGaussianBlur stdDeviation=".392"/></filter><filter id="H" x="-.079" y="-.083" width="1.159" height="1.166" class="C"><feGaussianBlur stdDeviation=".392"/></filter><path id="I" d="M-1180.363-173.925c2.955 1.031 6.529 4.742 6.735 7.422s-2.955 4.33-5.91 3.299-5.704-4.742-5.91-7.422 2.13-4.33 5.086-3.299z"/><filter id="J" x="-.011" y="-.011" width="1.021" height="1.022" class="C"><feGaussianBlur stdDeviation="2.441"/></filter></defs><path style="mix-blend-mode:multiply" d="M-2758.546 269.702l24.453 34.897h517.576l14.375-11.25-104.69-501.167-31.462-17.601z" transform="matrix(-2.0051 0 0 2.0051 -4364.0779 816.66224)" opacity=".5" filter="url(#J)"/><path d="M-1215.57-318.815l-176.123 58.315-83.396 485.771 6.633 36.815 10.024 8.338h485.713l10.024-8.338 6.645-36.815-83.396-485.771z" fill="url(#A)" transform="matrix(2.0051 0 0 2.0051 3097.3821 831.9343)"/><path d="M-899.905-359.019l-176.123 58.315-83.396 485.771 6.639 36.814 10.024 8.338h485.713l10.024-8.338 6.639-36.814-83.396-485.771z" opacity=".25" fill="url(#B)" transform="matrix(2.0051 0 0 2.0051 2464.4309 912.54909)" style="mix-blend-mode:overlay"/><g transform="matrix(1.6403 0 0 1.6403 2569.2753 750.13106)"><path d="M-1092.942 54.928c-11.205-2.48-25.384-10.222-35.999-19.656l-17.513-15.565V-28.4c0-48.421-1.32-52.391-15.882-47.77-6.47 2.054-7.411 8.304-7.411 49.221 0 49.835-5.518 77.575-16.25 81.694-4.47 1.715-15.758-7.324-35.294-28.265l-28.722-30.786-16.023 15.646c-21.29 20.79-37.593 26.294-60.004 20.26-21.746-5.856-22.115-10.97-1.033-14.341 12.261-1.961 21.076-7.7 35.479-23.098 25.5-27.261 33.451-51.482 12.632-38.481-15.184 9.483-51.805-12.702-45.988-27.86 1.972-5.138 6.316-5.971 19.851-3.807 14.112 2.257 45.509-3.256 54.289-9.533.837-.598-1.069-7.065-4.235-14.372-5.178-11.95-7.183-13.057-19.963-11.025-17.746 2.821-39.543-1.274-37.612-7.067.798-2.395 10.242-6.917 20.985-10.05 20.931-6.103 41.421-25.818 41.421-39.853 0-6.104 2.982-8.145 11.896-8.145 29.294 0 34.749 24.341 9.28 41.401-16.33 10.939-20.868 17.89-11.679 17.89 3.282 0 10.518 4.844 16.08 10.764 5.821 6.196 13.772 10.24 18.738 9.529 7.961-1.14 8.507-3.68 7.09-32.998-.844-17.47-3.223-34.966-5.285-38.881-2.548-4.834-1.665-9.203 2.752-13.62 5.847-5.847 7.995-5.791 21.299.553 16.762 7.993 22.288 21.794 15.07 37.636-5.134 11.268-6.454 36.629-2.131 40.952 1.453 1.453 9.749-.984 18.436-5.416l15.794-8.058 14.295 11.934c12.523 10.454 13.575 12.801 8.488 18.929-3.193 3.848-4.747 8.055-3.452 9.349 3.389 3.39 23.089-10.326 26.099-18.172 3.202-8.345-4.735-18.267-14.611-18.267-12.013 0-32.882-22.508-35.93-38.752-1.526-8.135-.963-24.759 1.251-36.941l4.026-22.151-13.226 2.636c-7.274 1.45-24.338 5.359-37.92 8.689s-28.392 6.053-32.913 6.053c-10.85 0-42.615-21.189-40.66-27.122.845-2.566 17.48-5.876 37.193-7.403 35.23-2.728 53.977-6.562 77.231-15.797 18.185-7.222 30.147-5.717 40.279 5.067 11.651 12.403 11.54 15.038-1.379 32.549-15.13 20.508-14.121 27.96 2.471 18.239 14.661-8.59 26.645-32.515 23.187-46.292-5.084-20.257 19.714-21.788 37.266-2.301 7.665 8.51 7.665 9.146 0 24.838-9.57 19.59-47.055 43.633-68.03 43.633-15.944 0-16.141.422-7.755 16.638 7.237 13.994 14.017 17.243 35.983 17.243 17.855 0 29.374-9.263 22.385-17.999-8.151-10.189-10.499-24.352-4.036-24.352 10.763 0 45.351 33.821 45.351 44.346 0 10.471-20.84 23.416-37.697 23.416-10.688 0-11.106 3.42-2.007 16.41 6.448 9.206 6.344 10.362-1.643 18.35-5.036 5.036-16.484 9.422-27.973 10.717-20.975 2.364-22.456 6.896-3.775 11.558 22.967 5.732 34.306 26.647 21.428 39.526-9.038 9.038-19.634 5.435-31.76-10.8-17.132-22.937-23.876-27.543-27.446-18.743-4.397 10.839-3.97 31.938.93 45.994 8.257 23.687 44.859 33.412 73.802 19.609 16.84-8.031 17.33-9.561 9.033-28.221-10.078-22.665-15.259-41.654-12.558-46.025 1.42-2.298 13.835 8.291 27.589 23.53s28.592 28.845 32.975 30.236c10.38 3.295 14.066 13.449 8.593 23.675-10.649 19.897-69.6 35.247-105.149 27.379zM-1203.108-6.94c1.579-5.651 3.061-21.232 3.293-34.626.364-20.999-.654-24.352-7.392-24.352-9.074 0-16.299 7.954-29.378 32.34-9.4 17.528-12.192 29.04-6.218 25.648 1.747-.992 8.894 1.606 15.882 5.775 15.621 9.317 20.125 8.412 23.813-4.785z" filter="url(#C)"/><g fill="#fff"><path d="M-1020.442-7.827c2.956 1.031 13.365 11.788 16.992 17.995s.466 7.857-2.489 6.826-5.704-4.742-9.329-10.945-8.13-14.907-5.174-13.876z" filter="url(#D)"/><path d="M-1116.142-238.686c5.324 2.246 13.637 8.389 13.843 11.07s-7.692 1.899-13.017-.348-8.074-5.958-8.28-8.638 2.13-4.33 7.454-2.084z" filter="url(#E)"/><path d="M-1057.48-245.476c4.195 1.229 10.247 5.337 10.453 8.018s-5.433 3.933-9.628 2.704-6.944-4.94-7.15-7.621 2.13-4.33 6.325-3.101z" filter="url(#F)"/><path d="M-1042.458-155.358c2.956 1.031 9.53 8.651 11.238 13.288s-1.453 6.287-4.408 5.256-5.704-4.742-7.412-9.376-2.374-10.199.582-9.168z" filter="url(#G)"/><use xlink:href="#I" class="D"/><use xlink:href="#I" x="-51.957" y="3.299" class="D"/><use xlink:href="#I" x="98.964" y="135.252" class="D"/></g></g><path d="M660.087 1249.683l45.65-93.167h-91.3z"/><path d="M654.153 1074.229h11.87v142.705h-11.87zM660.087 898l-45.65 93.167 91.3-.001z"/><path d="M666.023 1073.456h-11.87V930.751h11.87zm-181.777.386l93.167 45.65v-91.3z"/><path d="M659.698 1067.906v11.87H516.993v-11.87zm176.231 5.936l-93.167-45.65v91.3z"/><path d="M660.473 1079.777v-11.87h142.705v11.87z"/><path d="M1159.664 1278.583l-.043 21.064 20.75-16.013-20.707-5.052z" opacity=".8" fill="#fff"/><path d="M1180.371 1283.634l-20.75 16.013-12.637 74.514 20.099-16.718 13.288-73.808z" opacity=".6"/><g fill="#fff"><path d="M306.85 309.598l17.664 13.248L660 209.07v-16.402z" opacity=".3"/><path d="M1013.15 309.598l-17.664 13.248L660 209.07v-16.402z" opacity=".3"/><path d="M1013.15 309.598l-17.664 13.248 164.177 955.737 20.707 5.052z" opacity=".3"/></g><path d="M306.85 309.598l17.664 13.248-164.177 955.737-20.707 5.052z" opacity=".4"/><path d="M139.629 1283.634l20.75 16.013 12.702 74.514-20.099-16.718-13.353-73.808z" opacity=".9"/><path d="M160.337 1278.583l.043 21.064-20.75-16.013 20.707-5.052z" opacity=".6"/><path d="M160.337 1278.583h999.327l-.043 21.064H160.379l-.043-21.064z" opacity=".2"/><path d="M1159.621 1299.647l-12.637 74.514H173.081l-12.702-74.514h999.241z" opacity=".7"/></svg>