<svg xmlns="http://www.w3.org/2000/svg" width="498.898" height="544.252" viewBox="0 0 1320 1440" xmlns:v="https://vecta.io/nano"><style><![CDATA[.B{color-interpolation-filters:sRGB}]]></style><defs><linearGradient id="A" x1="228.547" y1="660.587" x2="270.281" y2="660.587" spreadMethod="reflect" gradientUnits="userSpaceOnUse"><stop offset="0" stop-color="#ffd285"/><stop offset=".232" stop-color="#ffcd79"/><stop offset=".616" stop-color="#ffca73"/><stop offset=".808" stop-color="#ffd386"/><stop offset="1" stop-color="#ffc86e"/></linearGradient><linearGradient id="B" x1="660.031" y1="176.668" x2="660.029" y2="1147.598" gradientUnits="userSpaceOnUse"><stop offset=".599" stop-color="#fff"/><stop offset="1"/></linearGradient><filter id="C" x="-.04" y="-.066" width="1.079" height="1.133" class="B"><feGaussianBlur stdDeviation=".333"/></filter><filter id="D" x="-.047" y="-.073" width="1.093" height="1.146" class="B"><feGaussianBlur stdDeviation=".333"/></filter><filter id="E" x="-.036" y="-.049" width="1.071" height="1.097" class="B"><feGaussianBlur stdDeviation=".333"/></filter><filter id="F" x="-.067" y="-.07" width="1.135" height="1.141" class="B"><feGaussianBlur stdDeviation=".333"/></filter><filter id="G" x="-.036" y="-.028" width="1.072" height="1.056" class="B"><feGaussianBlur stdDeviation=".333"/></filter><filter id="H" x="-.04" y="-.05" width="1.081" height="1.1" class="B"><feGaussianBlur stdDeviation=".333"/></filter><filter id="I" x="-.011" y="-.011" width="1.021" height="1.022" class="B"><feGaussianBlur stdDeviation="2.441"/></filter></defs><path style="mix-blend-mode:multiply" d="M-2758.546 269.702l24.453 34.897h517.576l14.375-11.25-104.69-501.167-31.462-17.601z" transform="matrix(-2.0051 0 0 2.0051 -4364.0779 800.65019)" opacity=".5" filter="url(#I)"/><path d="M660.043 176.666L306.898 293.594l-167.217 974.019 13.3 73.818 20.099 16.718h973.903l20.099-16.718 13.324-73.818-167.217-974.019z" fill="url(#A)"/><path d="M660.031 176.668L306.887 293.595 139.67 1267.615l13.312 73.816 20.099 16.719h973.903l20.099-16.719 13.312-73.816-167.217-974.019z" opacity=".25" fill="url(#B)" style="mix-blend-mode:overlay"/><g transform="matrix(.7211 0 0 .7211 19493.914 -8448.8579)"><path d="M-26218.882 12804.136c-30.068-33.83-52.167-64.01-49.11-67.067s23.148 2.989 44.645 13.434 40.938 18.991 43.196 18.991 4.105-17.308 4.105-38.463c0-45.101-10.569-51.524-68.521-41.631-36.74 6.272-38.43 7.954-48.707 48.421-5.855 23.058-18.917 50.195-29.026 60.304l-18.381 18.381-31.224-30.014c-31.925-30.687-60.468-75.939-52.761-83.647 2.364-2.363 16.48 4.711 31.371 15.72 32.766 24.225 51.513 16.401 67.079-27.997 12.48-35.589 14.481-137.28 3.284-166.731-4.731-12.443-24.254-29.025-47.324-40.192-35.326-17.102-58.005-46.195-45.644-58.555 2.578-2.578 17.183-.331 32.456 4.992s52.655 9.681 83.069 9.681c52.836 0 57.052-1.614 94.564-36.191 26.505-24.431 38.423-42.024 36.683-54.143-3.874-26.973-27.105-26.269-39.282 1.19-14.188 31.992-51.909 71.79-68.045 71.79-21.605 0-23.732-23.951-4.525-50.925 23.082-32.416 22.798-35.847-2.963-35.847-34.849 0-65.242-15.655-75.927-39.108-16.619-36.472 1.562-44.996 48.705-22.837 41.602 19.556 63.175 22.657 80.596 11.588 11.836-7.522-.323-36.848-31.955-77.062-39.463-50.169-.233-64.273 54.132-19.46 26.214 21.607 32.346 32.478 32.346 57.329 0 25.896 2.364 29.657 15.187 24.173 35.295-15.095 58.865-13.654 78.56 4.803 26.576 24.905 20.498 37.957-20.126 43.22-31.387 4.066-32.568 5.253-18.845 18.904 21.529 21.415 18.046 37.788-13.558 63.702l-28.2 23.125 45.396-4.714c38.772-4.025 48.905-1.789 69.417 15.32 21.843 18.218 29.017 19.435 79.149 13.429 59.314-7.107 76.036-16.543 67.722-38.213-4.321-11.26-19.569-13.546-84.518-12.673-60.205.81-82.396-2.084-92.357-12.043-19.232-19.234-6.052-32.128 32.844-32.128h34.196v-63.455c0-59.01-1.802-65.182-25.722-88.1-43.669-41.837-5.367-57.081 42.411-16.878 19.065 16.043 26.697 30.029 26.697 48.929v26.465l52.112-4.725c42.406-3.845 55.74-1.76 71.585 11.195 28.149 23.01 11.562 34.583-59.659 41.621-54.416 5.378-59.96 7.743-62.641 26.718-2.879 20.363-1.867 20.706 46.344 15.73 52.222-5.39 86.611 4.336 95.289 26.95 5.102 13.298-37.111 82.049-63.573 103.537-7.721 6.27-37.896 10.847-71.509 10.847-46.28 0-59.289 2.953-63.706 14.466-10.009 26.083 7.696 30.816 76.353 20.408 70.543-10.693 83.531-8.124 83.531 16.521 0 17.222-43.553 26.699-122.692 26.699-38.699 0-42.175 1.711-42.175 20.764 0 27.528 10.541 30.266 82.433 21.413 71.681-8.826 84.596-5.522 80.872 20.693-1.98 13.952-9.539 20.342-26.354 22.281-20.713 2.387-23.445 6.27-22.479 31.95 1.188 31.58-18.983 68.736-51.002 93.949-11.046 8.698-20.084 19.436-20.084 23.862 0 11.514 49.958 9.933 84.853-2.686 32.266-11.667 31.501-6.188 13.917-99.9-6.253-33.326 10.277-39.207 22.184-7.891 4.248 11.169 23.675 38.74 43.171 61.267s35.449 44.021 35.449 47.763c0 22.209-84.479 61.182-133.159 61.431-37.325.19-114.657-24.577-129.251-41.395-19.227-22.16-27.949-75.877-24.961-153.714 7.389-192.377 7.54-190.59-16.329-193.963-11.93-1.686-65.554-.329-119.161 3.016-91.001 5.678-96.904 7.14-88.938 22.026 7.609 14.218 16.748 15.419 84.454 11.097 69.769-4.453 77.262-3.351 92.473 13.604 15.058 16.785 15.507 21.774 4.983 55.303-6.794 21.649-11.834 80.609-12.212 142.903-.579 95.157-2.489 107.893-18.593 124.001l-17.946 17.952zm251.119-86.775c15.032-36.292-.793-60.67-39.383-60.67h-30.064v43.956c0 24.176 4.239 51.876 9.418 61.556 9.396 17.555 9.471 17.551 29.672-1.428 11.14-10.465 24.799-30.001 30.357-43.414zm-213.81-78.364c14.902-13.584-4.983-25.692-42.195-25.692-39.024 0-52.712 9.196-44.716 30.035 3.283 8.553 14.964 10.547 41.986 7.166 20.591-2.576 40.808-7.756 44.925-11.509zm12.038-65.199c17.595-5.408 12.431-21.059-9.732-29.485-30.496-11.595-92.226 5.977-92.226 26.253 0 13.977 5.486 15.329 45.554 11.228 25.056-2.565 50.436-6.163 56.404-7.996zm34.526-278.112c-2.883-2.883 2.883 2.884 0 0z" fill="maroon"/><g transform="matrix(2.0051 0 0 2.0051 -13084.633 12561.415)" fill="#fff"><path d="M-6377.951-151.23c5.022 1.479 12.73 6.089 12.936 8.769s-7.088 3.432-12.111 1.952-7.772-5.191-7.978-7.871 2.131-4.33 7.152-2.85z" filter="url(#C)"/><path d="M-6370.521-98.391c4.288.668 10.527 3.654 10.733 6.335s-5.62 5.055-9.908 4.386-7.037-4.379-7.243-7.06 2.13-4.33 6.418-3.662z" filter="url(#D)"/><path d="M-6557.549-188.743c5.561 1.832 15.472 9.161 16.247 12.853s-7.591 3.741-13.15 1.91-8.308-5.542-9.083-9.233.425-7.362 5.985-5.53z" filter="url(#E)"/><path d="M-6385.265-15.221c2.954 1.031 6.529 4.744 6.735 7.423s-2.953 4.328-5.91 3.298-5.704-4.74-5.911-7.421 2.131-4.332 5.086-3.3z" filter="url(#F)"/><path d="M-6365.149 90.697c2.956 1.031 14.835 13.592 19.199 20.703s1.203 8.76-1.752 7.729-5.704-4.742-10.065-11.849-10.337-17.614-7.381-16.583z" filter="url(#G)"/><path d="M-6449.174-191.72c4.944 2.977 12.497 10.583 12.703 13.264s-6.932.437-11.877-2.541-7.694-6.689-7.9-9.37 2.131-4.33 7.074-1.353z" filter="url(#H)"/></g></g><g fill="#7f0000"><path d="M660.087 1233.671l45.65-93.167h-91.3z"/><path d="M654.153 1058.217h11.87v142.705h-11.87zm5.934-176.229l-45.65 93.167 91.3-.001z"/><path d="M666.023 1057.444h-11.87V914.739h11.87zm-181.777.386l93.167 45.65v-91.3z"/><path d="M659.698 1051.894v11.87H516.993v-11.87zm176.231 5.936l-93.167-45.65v91.3z"/><path d="M660.473 1063.765v-11.87h142.705v11.87z"/><path d="M655.617 1053.907l8.393 8.393-100.908 100.908-8.393-8.393zm8.941 7.846l-8.393-8.393 100.908-100.908 8.393 8.393z"/><path d="M664.01 1053.359l-8.393 8.393-100.908-100.908 8.393-8.393zm-7.847 8.942l8.393-8.393 100.908 100.908-8.393 8.393z"/></g><path d="M1159.664 1262.571l-.043 21.064 20.75-16.013-20.707-5.052z" opacity=".8" fill="#fff"/><path d="M1180.371 1267.622l-20.75 16.013-12.637 74.514 20.099-16.718 13.288-73.808z" opacity=".6"/><g fill="#fff"><path d="M306.85 293.586l17.664 13.248L660 193.058v-16.402z" opacity=".3"/><path d="M1013.15 293.586l-17.664 13.248L660 193.058v-16.402z" opacity=".3"/><path d="M1013.15 293.586l-17.664 13.248 164.177 955.737 20.707 5.052z" opacity=".3"/></g><path d="M306.85 293.586l17.664 13.248-164.177 955.737-20.707 5.052z" opacity=".4"/><path d="M139.629 1267.622l20.75 16.013 12.702 74.514-20.099-16.718-13.353-73.808z" opacity=".9"/><path d="M160.337 1262.571l.043 21.064-20.75-16.013 20.707-5.052z" opacity=".6"/><path d="M160.337 1262.571h999.327l-.043 21.064H160.379l-.043-21.064z" opacity=".2"/><path d="M1159.621 1283.635l-12.637 74.514H173.081l-12.702-74.514h999.241z" opacity=".7"/></svg>