<svg xmlns="http://www.w3.org/2000/svg" width="498.898" height="544.252" viewBox="0 0 1320 1440" xmlns:v="https://vecta.io/nano"><style><![CDATA[.B{color-interpolation-filters:sRGB}.C{filter:url(#F)}]]></style><defs><linearGradient ><stop offset="0" stop-color="#fff"/><stop offset=".506"/></linearGradient><linearGradient id="B" x1="-1430.769" y1="-77.47" x2="-1409.955" y2="-77.47" spreadMethod="reflect" gradientUnits="userSpaceOnUse"><stop offset="0" stop-color="#ffd285"/><stop offset=".232" stop-color="#ffcd79"/><stop offset=".616" stop-color="#ffca73"/><stop offset=".808" stop-color="#ffd386"/><stop offset="1" stop-color="#ffc86e"/></linearGradient><linearGradient id="C" x1="-899.903" y1="-319.311" x2="-899.906" y2="125.211" gradientUnits="userSpaceOnUse"><stop offset="0" stop-color="#fff"/><stop offset="1"/></linearGradient><filter id="D" x="-.012" y="-.011" width="1.024" height="1.023" class="B"><feGaussianBlur stdDeviation="2.441"/></filter><filter id="E" x="-.006" y="-.005" width="1.013" height="1.011" class="B"><feGaussianBlur stdDeviation=".599"/></filter><filter id="F" x="-.054" y="-.12" width="1.108" height="1.24" class="B"><feGaussianBlur stdDeviation=".344"/></filter><filter id="G" x="-.048" y="-.052" width="1.095" height="1.104" class="B"><feGaussianBlur stdDeviation=".392"/></filter></defs><path style="mix-blend-mode:multiply" d="M-2728.669 265.144l28.198 35.189h455.354l10.087-9.413-101.985-483.44-31.462-17.601z" transform="matrix(-2.0051 0 0 2.0051 -4364.0778 816.66224)" opacity=".5" filter="url(#D)"/><path d="M-1215.568-283.246l-145.942 38.045-83.762 462.487 6.639 36.814 10.024 8.338h426.077l10.024-8.338 6.639-36.814-83.759-462.487z" fill="url(#B)" transform="matrix(2.0051 0 0 2.0051 3097.3821 831.9343)"/><g transform="matrix(1.7332 0 0 1.7332 5086.7234 723.07028)" filter="url(#E)"><path d="M-2515.278 65.208c-4.773-4.59-14.528-5.176-36.451-2.189-36.024 4.908-38.732 2.178-48.494-48.889-5.743-30.043-6.645-32.601-14.882-42.193-3.7-4.309-6.312-4.968-9.43-2.38-2.372 1.969-13.272 3.115-24.222 2.547-25.31-1.312-26.738-8.396-3.274-16.245 15.862-5.306 56.732-37.54 56.732-44.744 0-1.745-5.321-3.173-11.825-3.173-8.36 0-15.359-3.103-23.887-10.591-20.128-17.673-15.048-24.357 12.288-16.167 10.13 3.035 17.546 2.981 31.903-.232 21.563-4.826 23.506-6.755 18.93-18.792-2.753-7.241-5.562-8.817-15.707-8.817-16.512 0-32.176-9.495-32.176-19.504 0-4.287.394-7.795.876-7.795s6.116 1.503 12.521 3.34c12.508 3.587 28.034.266 72.971-15.606 36.897-13.033 55.737-9.739 52.952 9.258-.958 6.534-5.413 8.648-31.652 15.018-16.795 4.077-30.947 8.802-31.449 10.499s1.308 6.024 4.022 9.617c4.638 6.137 6.639 6.278 33.181 2.329 20.151-2.998 30.94-3.178 37.646-.628 10.511 3.996 18.174 17.38 14.874 25.98-1.88 4.899-5.925 5.328-30.727 3.263-27.616-2.3-43.079-.568-43.079 4.827 0 1.43 7.999 6.317 17.776 10.86 22.342 10.384 55.211 34.322 62.59 45.583 5.303 8.093 5.202 9.233-1.823 20.6-4.09 6.618-8.847 12.033-10.571 12.033s-18.49-15.356-37.258-34.124-35.66-34.124-37.537-34.124c-1.924 0-3.412 9.647-3.412 22.116v22.116l15.248-2.09c14.145-1.939 16.12-1.218 27.299 9.961 14.006 14.006 14.459 18.845 5.587 59.651-7.454 34.284-18.742 49.07-29.537 38.689zm-4.242-35.445c1.431-2.251 2.625-5.425 2.654-7.053.047-2.688-51.12.296-54.115 3.155-.701.669-.285 3.795.924 6.947 1.887 4.916 5.446 5.397 25.067 3.387 12.578-1.289 24.039-4.185 25.47-6.436zm-30.224-31.402c13.425-3.497 21.654-4.078 25.861-1.826 7.168 3.836 10.481 1.541 10.481-7.263 0-5.208-2.778-6.256-16.586-6.256-30.331 0-48.25 3.763-48.25 10.132 0 11.659 2.203 12.062 28.494 5.213zm-11.47-45.592c-.022-3.071-.982-11.296-2.136-18.277l-2.098-12.693-16.479 14.399c-18.919 16.531-20.648 22.033-7.402 23.557 16.469 1.895 28.155-1.009 28.115-6.986z"/><g fill="#fff"><path d="M-2485.68-186.79c-1.351-2.795-5.199-3.62-8.911-3.345s-7.285 1.649-5.934 4.443 7.627 7.008 11.338 6.733 4.857-5.035 3.506-7.831z" class="C"/><path d="M-2456.026-131.448c-2.026-2.659-8.119-4.398-12.951-4.58s-8.406 1.192-6.381 3.85 9.652 6.598 14.486 6.779 6.872-3.39 4.846-6.049z" transform="rotate(21.25 -2469.546 -134.552)" class="C"/><path d="M-2461.454-134.234c-1.084-1.702-4.933-2.526-8.644-2.252s-7.285 1.649-6.201 3.351 6.827 3.73 10.54 3.454 5.39-2.851 4.305-4.553z" transform="rotate(42.286 -2573.489 -70.519)" class="C"/><path d="M-2500.434-32.941c4.913 2.037 12.173 8.165 12.823 12.272s-5.308 6.186-10.222 4.149-8.772-8.187-9.422-12.294 1.908-6.165 6.821-4.127z" filter="url(#G)"/></g></g><path d="M-899.903-323.401l-145.942 37.996-83.762 462.487 6.639 36.814 10.024 8.338h426.077l10.024-8.338 6.639-36.814-83.759-462.487z" opacity=".25" fill="url(#C)" transform="matrix(2.0051 0 0 2.0051 2464.4309 912.54909)" style="mix-blend-mode:overlay"/><path d="M666.021 1217.322h-11.87V931.137h11.87z"/><path d="M660.087 898.388l-45.65 93.167 91.3-.001z"/><path d="M1099.875 1262.57l-.043 21.064 20.75-16.013-20.707-5.052z" opacity=".8" fill="#fff"/><path d="M1120.582 1267.622l-20.75 16.013-12.661 74.524 20.099-16.719 13.312-73.818z" opacity=".6"/><g fill="#fff"><path d="M367.372 340.273l17.664 13.248 274.969-73.032v-16.402z" opacity=".3"/><path d="M952.633 340.273l-17.664 13.248-274.964-73.032v-16.402z" opacity=".3"/><path d="M952.633 340.273l-17.664 13.248 164.905 909.049 20.707 5.052z" opacity=".3"/></g><path d="M367.372 340.273l17.664 13.248-164.91 909.049-20.707 5.052z" opacity=".4"/><path d="M199.418 1267.622l20.75 16.013 12.661 74.524-20.099-16.719-13.312-73.818z" opacity=".9"/><path d="M220.126 1262.57l.043 21.064-20.75-16.013 20.707-5.052z" opacity=".6"/><path d="M220.126 1262.57h879.749l-.043 21.064H220.168l-.043-21.064z" opacity=".2"/><path d="M1099.832 1283.634l-12.661 74.524H232.829l-12.661-74.524h879.663z" opacity=".7"/></svg>