<svg xmlns="http://www.w3.org/2000/svg" width="498.898" height="544.252" viewBox="0 0 1320 1440" xmlns:v="https://vecta.io/nano"><style><![CDATA[.C{color-interpolation-filters:sRGB}.D{filter:url(#E)}]]></style><defs><linearGradient id="A" x1="-1430.769" y1="-77.47" x2="-1409.955" y2="-77.47" spreadMethod="reflect" gradientUnits="userSpaceOnUse"><stop offset="0" stop-color="#ffd285"/><stop offset=".232" stop-color="#ffcd79"/><stop offset=".616" stop-color="#ffca73"/><stop offset=".808" stop-color="#ffd386"/><stop offset="1" stop-color="#ffc86e"/></linearGradient><linearGradient id="B" x1="-899.903" y1="-319.311" x2="-899.906" y2="125.211" gradientUnits="userSpaceOnUse"><stop offset=".598" stop-color="#fff"/><stop offset="1"/></linearGradient><filter id="C" x="-.012" y="-.011" width="1.024" height="1.023" class="C"><feGaussianBlur stdDeviation="2.441"/></filter><filter id="D" x="-.04" y="-.016" width="1.113" height="1.03" class="C"><feGaussianBlur stdDeviation=".599"/></filter><filter id="E" x="-.054" y="-.12" width="1.107" height="1.24" class="C"><feGaussianBlur stdDeviation=".344"/></filter><filter id="F" x="-.048" y="-.052" width="1.095" height="1.104" class="C"><feGaussianBlur stdDeviation=".392"/></filter></defs><path style="mix-blend-mode:multiply" d="M-2728.669 265.144l28.198 35.189h455.354l10.087-9.413-101.985-483.44-31.462-17.601z" transform="matrix(-2.0051 0 0 2.0051 -4364.0778 816.66224)" opacity=".5" filter="url(#C)"/><path d="M-1215.568-283.246l-145.942 38.045-83.762 462.487 6.639 36.814 10.024 8.338h426.077l10.024-8.338 6.639-36.814-83.759-462.487z" fill="url(#A)" transform="matrix(2.0051 0 0 2.0051 3097.3821 831.9343)"/><path d="M-899.903-323.401l-145.942 37.996-83.762 462.487 6.639 36.814 10.024 8.338h426.077l10.024-8.338 6.639-36.814-83.759-462.487z" opacity=".25" fill="url(#B)" transform="matrix(2.0051 0 0 2.0051 2464.4309 912.5491)" style="mix-blend-mode:overlay"/><path d="M727.243 836.089c-8.273-7.955-25.18-8.971-63.177-3.794-62.437 8.507-67.13 3.775-84.05-84.734-9.954-52.071-11.517-56.504-25.793-73.129-6.413-7.468-10.94-8.611-16.344-4.125-4.111 3.413-23.003 5.399-41.982 4.414-43.867-2.274-46.342-14.552-5.674-28.156 27.492-9.196 98.328-65.064 98.328-77.55 0-3.024-9.222-5.499-20.495-5.499-14.49 0-26.62-5.378-41.401-18.356-34.886-30.631-26.081-42.216 21.298-28.021 17.557 5.26 30.411 5.167 55.294-.402 37.373-8.364 40.741-11.708 32.809-32.57-4.771-12.55-9.64-15.282-27.223-15.282-28.619 0-55.767-16.457-55.767-33.804 0-7.43.683-13.51 1.518-13.51s10.6 2.605 21.701 5.789c21.679 6.217 48.589.461 126.473-27.048 63.95-22.589 96.603-16.88 91.776 16.046-1.66 11.325-9.382 14.989-54.859 26.029-29.109 7.066-53.637 15.256-54.507 18.197s2.267 10.441 6.971 16.668c8.039 10.637 11.507 10.881 57.509 4.037 34.926-5.196 53.625-5.508 65.248-1.088 18.218 6.926 31.499 30.123 25.78 45.029-3.258 8.491-10.269 9.234-53.256 5.655-47.864-3.986-74.665-.984-74.665 8.366 0 2.478 13.864 10.949 30.809 18.823 38.723 17.998 95.692 59.487 108.481 79.004 9.191 14.027 9.016 16.003-3.16 35.704-7.089 11.47-15.334 20.856-18.322 20.856s-32.047-26.615-64.576-59.144-61.806-59.144-65.059-59.144c-3.335 0-5.914 16.72-5.914 38.331v38.331l26.428-3.622c24.516-3.361 27.939-2.111 47.315 17.264 24.275 24.275 25.06 32.662 9.683 103.387-12.919 59.421-32.484 85.048-51.194 67.056zm-7.352-61.433c2.48-3.901 4.55-9.403 4.6-12.224.081-4.659-88.601.513-93.792 5.468-1.215 1.16-.494 6.577 1.601 12.041 3.271 8.52 9.439 9.354 43.446 5.87 21.8-2.234 41.664-7.253 44.145-11.155zm-52.384-54.426c23.268-6.061 37.531-7.068 44.822-3.165 12.424 6.649 18.166 2.671 18.166-12.588 0-9.027-4.815-10.843-28.747-10.843-52.57 0-83.627 6.522-83.627 17.561 0 20.207 3.818 20.906 49.386 9.035zm-19.88-79.02c-.038-5.323-1.702-19.578-3.702-31.678l-3.636-22-28.561 24.956c-32.79 28.652-35.787 38.188-12.829 40.829 28.544 3.284 48.798-1.749 48.729-12.108z"/><g transform="matrix(1.7332 0 0 1.7332 5086.7234 723.07028)" filter="url(#D)"><g fill="#fff"><path d="M-2485.68-186.79c-1.351-2.795-5.199-3.62-8.911-3.345s-7.285 1.649-5.934 4.443 7.627 7.008 11.338 6.733 4.857-5.035 3.506-7.831z" class="D"/><path d="M-2456.026-131.448c-2.026-2.659-8.119-4.398-12.951-4.58s-8.406 1.192-6.381 3.85 9.652 6.598 14.486 6.779 6.872-3.39 4.846-6.049z" transform="rotate(21.25 -2469.546 -134.552)" class="D"/><path d="M-2461.454-134.234c-1.084-1.702-4.933-2.526-8.644-2.252s-7.285 1.649-6.201 3.351 6.827 3.73 10.54 3.454 5.39-2.851 4.305-4.553z" transform="rotate(42.286 -2573.489 -70.519)" class="D"/><path d="M-2500.434-32.941c4.913 2.037 12.173 8.165 12.823 12.272s-5.308 6.186-10.222 4.149-8.772-8.187-9.422-12.294 1.908-6.165 6.821-4.127z" filter="url(#F)"/></g></g><path d="M666.021 1200.648h-11.87V914.463h11.87z"/><path d="M660.087 881.714l-45.65 93.167 91.3-.001z"/><path d="M1099.875 1262.57l-.043 21.064 20.75-16.013-20.707-5.052z" opacity=".8" fill="#fff"/><path d="M1120.582 1267.622l-20.75 16.013-12.661 74.524 20.099-16.719 13.312-73.818z" opacity=".6"/><g fill="#fff"><path d="M367.372 340.273l17.664 13.248 274.969-73.032v-16.402z" opacity=".3"/><path d="M952.633 340.273l-17.664 13.248-274.964-73.032v-16.402z" opacity=".3"/><path d="M952.633 340.273l-17.664 13.248 164.905 909.049 20.707 5.052z" opacity=".3"/></g><path d="M367.372 340.273l17.664 13.248-164.91 909.049-20.707 5.052z" opacity=".4"/><path d="M199.418 1267.622l20.75 16.013 12.661 74.524-20.099-16.719-13.312-73.818z" opacity=".9"/><path d="M220.126 1262.57l.043 21.064-20.75-16.013 20.707-5.052z" opacity=".6"/><path d="M220.126 1262.57h879.749l-.043 21.064H220.168l-.043-21.064z" opacity=".2"/><path d="M1099.832 1283.634l-12.661 74.524H232.829l-12.661-74.524h879.663z" opacity=".7"/></svg>