<svg xmlns="http://www.w3.org/2000/svg" width="498.898" height="544.252" viewBox="0 0 1320 1440" xmlns:v="https://vecta.io/nano"><style><![CDATA[.B{color-interpolation-filters:sRGB}]]></style><defs><linearGradient id="A" x1="-1430.769" y1="-77.47" x2="-1409.955" y2="-77.47" spreadMethod="reflect" gradientUnits="userSpaceOnUse"><stop offset="0" stop-color="#ffd285"/><stop offset=".232" stop-color="#ffcd79"/><stop offset=".616" stop-color="#ffca73"/><stop offset=".808" stop-color="#ffd386"/><stop offset="1" stop-color="#ffc86e"/></linearGradient><linearGradient id="B" x1="-899.905" y1="-344.262" x2="-899.906" y2="125.211" gradientUnits="userSpaceOnUse"><stop offset=".597" stop-color="#fff"/><stop offset="1"/></linearGradient><filter id="C" x="-.011" y="-.011" width="1.022" height="1.022" class="B"><feGaussianBlur stdDeviation="2.441"/></filter><filter id="D" x="-.005" y="-.005" width="1.01" height="1.01" class="B"><feGaussianBlur stdDeviation=".599"/></filter><filter id="E" x="-.042" y="-.038" width="1.084" height="1.076" class="B"><feGaussianBlur stdDeviation=".3"/></filter><filter id="F" x="-.047" y="-.041" width="1.095" height="1.083" class="B"><feGaussianBlur stdDeviation=".3"/></filter><filter id="G" x="-.047" y="-.051" width="1.095" height="1.102" class="B"><feGaussianBlur stdDeviation=".3"/></filter><filter id="H" x="-.054" y="-.076" width="1.109" height="1.153" class="B"><feGaussianBlur stdDeviation=".3"/></filter><filter id="I" x="-.041" y="-.061" width="1.082" height="1.121" class="B"><feGaussianBlur stdDeviation=".3"/></filter><filter id="J" x="-.043" y="-.031" width="1.086" height="1.062" class="B"><feGaussianBlur stdDeviation=".3"/></filter><filter id="K" x="-.084" y="-.046" width="1.167" height="1.092" class="B"><feGaussianBlur stdDeviation=".3"/></filter><filter id="L" x="-.061" y="-.063" width="1.122" height="1.127" class="B"><feGaussianBlur stdDeviation=".3"/></filter></defs><path style="mix-blend-mode:multiply" d="M-2745.657 265.144l28.198 35.189h489.331l10.087-9.413-110.95-494.045-31.462-17.601z" transform="matrix(-2.0051 0 0 2.0051 -4364.0778 816.66224)" opacity=".5" filter="url(#C)"/><path d="M-1215.57-304.058l-153.963 48.25-92.727 473.093 6.639 36.814 10.024 8.338h460.053l10.024-8.338 6.639-36.814-92.727-473.093z" fill="url(#A)" transform="matrix(2.0051 0 0 2.0051 3097.3821 831.9343)"/><path d="M-899.905-344.262l-153.963 48.25-92.727 473.093 6.639 36.814 10.024 8.338h460.054l10.024-8.338 6.639-36.814-92.727-473.093z" opacity=".25" fill="url(#B)" transform="matrix(2.0051 0 0 2.0051 2464.4309 912.54909)" style="mix-blend-mode:overlay"/><g stroke="#000" stroke-width="1.257"><path d="M650.457 958.082h19.257v119.747h-19.257z"/><path d="M735.132 985.18l13.617 13.617-163.709 163.709-13.617-13.617z"/><path d="M748.749 1148.887l-13.617 13.617-163.709-163.709 13.617-13.617z"/></g><path d="M1133.938 1262.57l-.043 21.064 20.75-16.013-20.707-5.052z" opacity=".8" fill="#fff"/><path d="M1154.645 1267.622l-20.75 16.013-12.661 74.524 20.099-16.719 13.312-73.818z" opacity=".6"/><g fill="#fff"><path d="M351.284 319.007l17.664 13.248L660 238.66v-16.402z" opacity=".3"/><path d="M968.716 319.007l-17.664 13.248L660 238.66v-16.402z" opacity=".3"/><path d="M968.716 319.007l-17.664 13.248 182.886 930.315 20.707 5.052z" opacity=".3"/></g><path d="M351.284 319.007l17.664 13.248-182.886 930.315-20.707 5.052z" opacity=".4"/><path d="M165.355 1267.622l20.75 16.013 12.661 74.524-20.099-16.719-13.312-73.818z" opacity=".9"/><path d="M186.062 1262.57l.043 21.064-20.75-16.013 20.707-5.052z" opacity=".6"/><path d="M186.062 1262.57h947.876l-.043 21.064H186.105l-.043-21.064z" opacity=".2"/><path d="M1133.895 1283.634l-12.661 74.524H198.765l-12.66-74.524h947.791z" opacity=".7"/><g transform="matrix(1.7588 0 0 1.7588 5153.9642 714.58493)" filter="url(#D)"><path d="M-2681.039 62.262c-19.062-16.039-16.304-21.627 10.686-21.651 15.015-.011 27.077-2.506 34.785-7.187 11.001-6.681 11.723-8.616 10.664-28.564-.625-11.769-2.696-25.502-4.603-30.517-3.16-8.312-4.55-8.71-15.711-4.497-10.071 3.801-14.168 3.454-23.082-1.954-20.086-12.187-15.345-18.025 20.931-25.776 18.379-3.927 23.172-16.137 5.636-14.358-6.667.677-14.358-2.66-21.599-9.371-8.598-7.969-13.924-9.886-22.625-8.146-16.395 3.279-14.247-3.245 8.299-25.205 21.205-20.654 48.278-59.974 48.278-70.118 0-3.433-2.203-9.771-4.896-14.083-3.695-5.916-3.766-8.971-.293-12.445s8.123-2.429 18.938 4.255c15.879 9.814 23.992 21.766 20.663 30.442-1.429 3.724 2.466 7.624 11.299 11.315 12.909 5.394 21.206 18.328 16.569 25.831-5.154 8.339-18.898 7.501-29.984-1.827-4.462-3.755-9.121-7.02-12.13-8.603-1.243-.654-2.205-1.021-2.755-1.016-1.881.015-7.729 6.354-12.996 14.087s-15.672 19.413-23.124 25.956l-13.549 11.896h13.982c7.69 0 23.342-3.689 34.782-8.199 41.067-16.187 66.036-1.143 27.858 16.784-11.012 5.171-19.464 11.201-18.782 13.4s9.325 3.486 19.205 2.861c12.829-.811 19.522.741 23.414 5.429 4.664 5.62 4.435 7.307-1.59 11.713-6.686 4.889-6.639 5.805.924 18.241 9.997 16.439 6.597 23.756-17.641 37.961-19.758 11.579-24.918 21.561-6.121 11.84 15.309-7.917 20.206-7.698 20.095.897-.11 8.545-81.24 60.961-94.355 60.961-4.88 0-14.408-4.657-21.172-10.349zm94.238-81.797c5.687-5.687 1.83-23.779-5.069-23.779-3.655 0-5.53 4.744-5.53 13.991 0 14.315 3.157 17.23 10.599 9.788zm62.505 89.549c-2.665-1.081-8.505-7.888-12.979-15.126-7.455-12.063-8.283-21.376-9.929-111.739-1.674-91.892-2.352-99.287-10.006-109.018-18.138-23.059-3.711-34.502 19.197-15.226 11.423 9.612 13.279 9.923 36.683 6.154 13.558-2.184 26.72-5.589 29.249-7.568 5.833-4.566 30.602 5.407 30.522 12.289-.032 2.742-4.278 22.033-9.437 42.868l-9.379 37.883 13.472 4.632c35.026 12.041 33.747 26.455-3.988 44.947l-27.378 13.416 15.386 12.325c26.494 21.224 49.364 47.5 49.364 56.716 0 12.271-13.27 23.452-23.848 20.095-4.637-1.472-13.129-10.178-18.87-19.348s-13.672-20.838-17.622-25.931l-7.184-9.258-8.211 16.095c-4.516 8.852-8.211 18.622-8.211 21.711 0 6.269-15.054 26.858-19.278 26.366-1.489-.173-4.888-1.2-7.553-2.281zm28.574-65.077c7.591-8.388 7.547-8.559-5.826-22.356-7.411-7.647-14.921-13.903-16.689-13.903-3.768 0-4.405 45.445-.689 49.161 3.343 3.343 13.728-2.432 23.203-12.902zm25.654-58.672c13.314-11.396 15.89-15.568 12.292-19.903-3.256-3.923-6.635-4.37-11.864-1.572-4.022 2.152-17.324 3.913-29.561 3.913-27.167 0-29.543 7.099-7.258 21.692 8.245 5.399 16.016 9.922 17.269 10.052s9.858-6.253 19.123-14.183zm-19.14-41.686c4.253-2.276 7.732-6.718 7.732-9.871 0-4.381-4.478-5.385-18.988-4.259-15.639 1.213-19.213 2.954-20.265 9.871-1.068 7.018.782 8.397 11.256 8.397 6.893 0 16.012-1.862 20.265-4.138zm10.73-42.005c7.284-2.296 6.214-17.815-1.228-17.815-3.424 0-14.216 2.012-23.985 4.472-13.385 3.37-17.76 6.385-17.76 12.237 0 6.956 1.98 7.5 18.988 5.223 10.443-1.398 21.236-3.251 23.984-4.117zM-2655.735 16.74c-10.368-4.175-24.018-31.266-18.522-36.762 2.482-2.481 9.271-1.262 19.011 3.413 18.773 9.011 25.489 18.63 19.565 28.021-5.347 8.477-9.495 9.579-20.054 5.328z"/><g fill="#fff"><path d="M-2459.687-178.631c4.249 1.015 11.35 5.216 11.923 9.831s-5.385 9.645-9.633 8.63-6.788-8.072-7.361-12.688.823-6.788 5.071-5.774z" filter="url(#E)"/><path d="M-2616.817-201.192c3.473 1.105 9.857 6.591 11.469 10.825s-1.55 7.214-5.023 6.109-7.257-6.295-8.869-10.529-1.05-7.51 2.423-6.405z" filter="url(#F)"/><path d="M-2583.355-159.738c3.695 1.623 8.748 6.517 9.694 9.715s-2.215 4.699-5.91 3.077-7.923-6.369-8.869-9.567 1.391-4.848 5.086-3.225z" filter="url(#G)"/><path d="M-2580.574-111.366c3.177.513 7.195 3.189 6.291 5.499s-6.727 4.256-9.905 3.743-3.707-3.484-2.804-5.795 3.24-3.96 6.417-3.447z" filter="url(#H)"/><path d="M-2439.191-76.665c4.361 1.401 10.745 5.852 10.951 8.532s-5.766 3.59-10.126 2.189-7.11-5.112-7.316-7.792 2.131-4.33 6.491-2.929z" filter="url(#I)"/><path d="M-2432.456 24.33c4.139 2.436 9.488 9.698 10.359 15.041s-2.733 8.768-6.872 6.331-8.811-10.733-9.683-16.076 2.056-7.732 6.195-5.296z" filter="url(#J)"/><path d="M-2568.311-36.939c2.142 1.031 4.828 6.961 4.59 10.751s-3.399 5.439-5.541 4.408-3.263-4.742-3.026-8.532 1.835-7.658 3.976-6.627z" filter="url(#K)"/><path d="M-2649.247-8.584c2.955 1.031 6.529 4.742 6.735 7.422s-2.955 4.33-5.91 3.299-5.704-4.742-5.91-7.422 2.131-4.33 5.086-3.299z" filter="url(#L)"/></g></g></svg>