<svg xmlns="http://www.w3.org/2000/svg" xmlns:xlink="http://www.w3.org/1999/xlink" width="498.898" height="544.252" viewBox="0 0 1320 1440" xmlns:v="https://vecta.io/nano"><style><![CDATA[.C{filter:url(#E)}.D{color-interpolation-filters:sRGB}]]></style><defs><linearGradient id="A" x1="-1430.769" y1="-77.47" x2="-1409.955" y2="-77.47" spreadMethod="reflect" gradientUnits="userSpaceOnUse"><stop offset="0" stop-color="#ffd285"/><stop offset=".232" stop-color="#ffcd79"/><stop offset=".616" stop-color="#ffca73"/><stop offset=".808" stop-color="#ffd386"/><stop offset="1" stop-color="#ffc86e"/></linearGradient><linearGradient id="B" x1="-1215.571" y1="-296.329" x2="-1215.572" y2="165.415" gradientUnits="userSpaceOnUse"><stop offset=".601" stop-color="#fff"/><stop offset="1"/></linearGradient><filter id="C" x="-.012" y="-.011" width="1.024" height="1.023" class="D"><feGaussianBlur stdDeviation="2.441"/></filter><filter id="D" x="-.006" y="-.006" width="1.011" height="1.011" class="D"><feGaussianBlur stdDeviation=".599"/></filter><filter id="E" x="-.079" y="-.083" width="1.159" height="1.166" class="D"><feGaussianBlur stdDeviation=".392"/></filter><path id="F" d="M-1215.571-296.329l-149.881 40.669-79.82 472.51 6.639 36.814 10.024 8.338h426.077l10.024-8.338 6.639-36.814-79.82-472.51z"/><path id="G" d="M-2510.066-183.552c2.955 1.031 6.529 4.742 6.735 7.422s-2.955 4.33-5.91 3.299-5.704-4.742-5.91-7.422 2.131-4.33 5.086-3.299z"/></defs><path style="mix-blend-mode:multiply" d="M-2728.669 264.709l28.198 35.189h455.354l10.087-9.413-98.043-493.462-31.462-17.601z" transform="matrix(-2.0051 0 0 2.0051 -4364.0778 816.66224)" opacity=".5" filter="url(#C)"/><use xlink:href="#F" fill="url(#A)" transform="matrix(2.0051 0 0 2.0051 3097.3821 831.9343)"/><use xlink:href="#F" x="315.666" y="-40.204" opacity=".25" fill="url(#B)" transform="matrix(2.0051 0 0 2.0051 2464.4309 912.54909)" style="mix-blend-mode:overlay"/><path d="M615.707 826.971l-25.797-17.508-15.8 14.843c-21.573 20.268-33.783 13.583-65.71-35.972-14.904-23.135-29.11-42.09-31.568-42.125s-8.461 4.747-13.338 10.623-14.245 10.685-20.817 10.685c-31.424 0-38.808-42.723-13.018-75.32 33.072-41.8 111.336-162.479 108.427-167.189-1.665-2.694-17.185-1.659-34.488 2.3-27.774 6.355-34.054 5.352-53.589-8.558-12.171-8.667-22.13-21.951-22.13-29.519 0-12.343 5.36-13.761 51.998-13.761 30.945 0 55.459-3.461 60.546-8.547 11.906-11.906 10.664-45.052-2.653-70.803-15.149-29.295-8.845-41.741 21.144-41.741 41.065 0 71.596 55.019 43.479 78.354-5.876 4.877-10.685 11.68-10.685 15.118 0 8.763 31.196 7.822 40.23-1.213 5.202-5.204 13.145-4.875 26.218 1.081 21.257 9.686 31.432 32.443 19.736 44.141-13.297 13.297-8.72 20.276 11.758 17.921 19.017-2.187 19.588-3.537 19.541-46.24-.037-34.355-3.547-48.72-16.028-65.6-20.694-27.99-20.2-40.954 1.769-46.468 21.31-5.348 59.021 9.415 77.754 30.439 11.902 13.359 12.565 18.659 5.343 42.768-4.534 15.136-8.245 36.303-8.245 47.043 0 15.716 2.431 18.565 12.465 14.614 6.856-2.701 28.493-6.579 48.081-8.621 31.531-3.286 37.556-1.626 52.543 14.469 29.091 31.245 23.721 34.492-97.062 58.704-10.358 2.076-16.028 8.373-16.028 17.802 0 10.531 3.467 13.579 12.465 10.954 6.856-2 27.114-5.699 45.021-8.219 28.534-4.018 35.353-2.23 55.204 14.473 43.142 36.301 29.556 46.283-62.991 46.283-64.169 0-79.569 6.104-63.686 25.242 5.744 6.92 22.49 10.373 50.311 10.373 37.053 0 43.054 2.065 53.84 18.527 19.341 29.517 6.022 42.02-44.76 42.02-36.551 0-42.103 1.819-43.903 14.388-1.887 13.174 1.819 14.376 43.973 14.245 60.797-.187 86.305 16.84 86.305 57.613 0 24.954-1.959 27.949-19.604 29.979-11.713 1.348-28.327-3.958-41.282-13.18-33.769-24.046-85.685-25.647-147.497-4.546l-51.674 17.64zm71.58-56.655c6.198-2.378 11.267-10.391 11.267-17.808 0-10.309-5.161-13.484-21.917-13.484-14.863 0-28.806-6.889-43.321-21.403-24.823-24.823-23.367-39.904 3.605-37.361 60.897 5.74 57.944 6.437 60.324-14.245 2.15-18.688.841-19.59-28.493-19.615-17.763-.019-40.238-5.814-53.223-13.731-12.362-7.538-24.383-11.799-26.711-9.47-6.092 6.094-5.019 124.966 1.217 134.594 9.051 13.973 72.264 22.116 97.251 12.528zm-146.933-79.945c1.151-32.41-.851-58.191-4.523-58.191-8.845 0-25.34 26.103-37.041 58.62-8.961 24.897-8.494 27.702 7.432 44.655 9.347 9.949 20.385 16.968 24.527 15.599 4.24-1.402 8.437-27.924 9.602-60.683zm165.323-96.785c0-1.638 1.946-8.05 4.324-14.245 3.319-8.652-.401-11.273-16.028-11.295-25.914-.033-67.044-24.872-71.894-43.414-4.246-16.234-21.818-15.486-32.439 1.381-12.929 20.533-.097 46.762 28.715 58.713 23.988 9.949 87.319 16.374 87.319 8.86z"/><g transform="matrix(1.9477 0 0 1.9477 5636.5683 732.19029)" filter="url(#D)"><g fill="#fff"><use xlink:href="#G" class="C"/><use xlink:href="#G" x="56.905" y="58.554" class="C"/><use xlink:href="#G" x="-87.419" y="-1.65" class="C"/><use xlink:href="#G" x="-50.307" y="39.586" class="C"/><use xlink:href="#G" x="59.379" y="106.387" class="C"/><use xlink:href="#G" x="47.833" y="155.044" class="C"/><use xlink:href="#G" x="61.028" y="204.527" class="C"/></g></g><path d="M1099.874 1261.697l-.043 21.064 20.75-16.013-20.707-5.052z" opacity=".8" fill="#fff"/><path d="M1120.582 1266.748l-20.75 16.013-12.661 74.524 20.099-16.719 13.312-73.818z" opacity=".6"/><g fill="#fff"><path d="M359.469 319.303l17.664 13.248L660 254.157v-16.402z" opacity=".3"/><path d="M960.531 319.303l-17.664 13.248L660 254.157v-16.402z" opacity=".3"/><path d="M960.531 319.303l-17.664 13.248 157.007 929.146 20.707 5.052z" opacity=".3"/></g><path d="M359.469 319.303l17.664 13.248-157.007 929.146-20.707 5.052z" opacity=".4"/><path d="M199.419 1266.748l20.75 16.013 12.661 74.524-20.099-16.719-13.312-73.818z" opacity=".9"/><path d="M220.126 1261.697l.043 21.064-20.75-16.013 20.707-5.052z" opacity=".6"/><path d="M220.126 1261.697h879.749l-.043 21.064H220.169l-.043-21.064z" opacity=".2"/><path d="M1099.831 1282.761l-12.661 74.524H232.829l-12.661-74.524h879.663z" opacity=".7"/><path d="M659.959 1202.43c-13.625-68.723-22.103-150.6-39.216-190.044s-42.858-36.45-63.458-46.611c13.737 10.832 27.474 21.664 44.586 61.107s37.6 107.495 58.088 175.548z"/><path d="M659.959 1202.43c13.625-68.723 22.103-150.6 39.216-190.044s42.858-36.45 63.458-46.611c-13.737 10.832-27.474 21.664-44.586 61.107s-37.6 107.495-58.088 175.548z"/></svg>