<svg xmlns="http://www.w3.org/2000/svg" xmlns:xlink="http://www.w3.org/1999/xlink" width="498.898" height="544.252" viewBox="0 0 1320 1440" xmlns:v="https://vecta.io/nano"><defs><linearGradient ><stop offset="0" stop-color="#fff"/><stop offset=".506"/></linearGradient><linearGradient id="B" x1="-1430.769" y1="-77.47" x2="-1409.955" y2="-77.47" spreadMethod="reflect" gradientUnits="userSpaceOnUse"><stop offset="0" stop-color="#ffd285"/><stop offset=".232" stop-color="#ffcd79"/><stop offset=".616" stop-color="#ffca73"/><stop offset=".808" stop-color="#ffd386"/><stop offset="1" stop-color="#ffc86e"/></linearGradient><linearGradient id="C" x1="-899.905" y1="-360.56" x2="-899.906" y2="125.211" gradientUnits="userSpaceOnUse"><stop offset="0" stop-color="#fff"/><stop offset="1"/></linearGradient><filter id="D" x="-.012" y="-.012" width="1.025" height="1.023" color-interpolation-filters="sRGB"><feGaussianBlur stdDeviation="2.441"/></filter><filter id="E" x="-.079" y="-.083" width="1.159" height="1.166" color-interpolation-filters="sRGB"><feGaussianBlur stdDeviation=".392"/></filter><path id="F" d="M-2508.959 29.151c2.955 1.031 6.529 4.742 6.735 7.422s-2.955 4.33-5.91 3.299-5.704-4.742-5.91-7.422 2.131-4.33 5.086-3.299z"/></defs><path style="mix-blend-mode:multiply" d="M-2713.437 205.288l42.888 46.268h407.198l22.565-22.679-98.703-458.797-31.462-17.601z" transform="matrix(-2.0051 0 0 2.0051 -4364.0778 816.66224)" opacity=".5" filter="url(#D)"/><path d="M-1215.57-320.355l-143.466 37.754-71.003 440.031 6.639 40.242 10.024 8.338h395.613l10.024-8.338 6.639-40.242-71.003-440.031z" fill="url(#B)" transform="matrix(2.0051 0 0 2.0051 3097.3821 831.9343)"/><path d="M650.458 858.026h19.257v231.518h-19.257z" fill="#7f0000"/><path d="M-899.905-360.56l-143.466 37.754-71.003 443.459 6.639 36.814 10.024 8.338h395.613l10.024-8.338 6.639-36.814-71.004-443.459z" fill="url(#C)" opacity=".25" transform="matrix(2.0051 0 0 2.0051 2464.4309 912.54909)" style="mix-blend-mode:overlay"/><path d="M1069.332 1142.551l-.043 21.064 20.75-16.013-20.707-5.052z" opacity=".8" fill="#fff"/><path d="M1090.039 1147.603l-20.75 16.013-12.661 81.397 20.099-16.719 13.312-80.69z" opacity=".6"/><g fill="#fff"><path d="M372.331 265.281l17.664 13.248L660 205.981v-16.402z" opacity=".3"/><path d="M947.669 265.281l-17.664 13.248L660 205.981v-16.402z" opacity=".3"/><path d="M947.669 265.281l-17.664 13.248 139.327 864.022 20.707 5.052z" opacity=".3"/></g><path d="M372.331 265.281l17.664 13.248-139.327 864.022-20.707 5.052z" opacity=".4"/><path d="M229.96 1147.603l20.75 16.013 12.661 81.397-20.099-16.719-13.312-80.69z" opacity=".9"/><path d="M250.668 1142.551l.043 21.064-20.75-16.013 20.707-5.052z" opacity=".6"/><path d="M250.668 1142.551h818.665l-.043 21.064H250.71l-.043-21.064z" opacity=".2"/><path d="M1069.289 1163.615l-12.661 81.397H263.371l-12.661-81.397h818.579z" opacity=".7"/><g transform="matrix(1.9521 0 0 1.9521 5647.7041 647.08621)"><path d="M-2563.126 60.085c-30.366-2.834-45.995-10.076-55.728-25.824l-8.013-12.966 7.539-15.517c4.146-8.534 14.569-23.032 23.16-32.218l15.622-16.701-.076-50.158c-.07-44.415-.858-51.155-6.891-58.868-8.742-11.176-8.964-20.905-.477-20.905 9.297 0 39.717 33.423 37.33 41.014-4.274 13.587-8.98 44.537-8.98 59.056v15.501l16.374-9.152c14.986-8.376 54.382-17.081 58.53-12.933 4.102 4.102.31 7.446-25.347 22.354-42.523 24.708-82.848 71.761-71.352 83.257 4.639 4.638 40.406 4.453 49.202-.255 11.306-6.051 23.204-4.319 33.055 4.811 24.218 22.444-3.34 35.158-63.947 29.503z" fill="maroon"/><g fill="#fff"><use xlink:href="#F" filter="url(#E)"/><use xlink:href="#F" x="1.649" y="-106.387" transform="matrix(.643 -.754484 1.236104 .2473 -802.32417 -1946.8552)" filter="url(#E)"/><use xlink:href="#F" x="-57.73" y="-177.312" filter="url(#E)"/></g></g><g fill="#7f0000"><path d="M775.761 964.159v19.257H544.239v-19.257z"/><path d="M735.047 885.124l13.617 13.617-79.035 79.035-13.617-13.617z"/><path d="M571.336 898.741l13.617-13.617 84.676 84.676-13.617 13.617z"/></g></svg>