<svg xmlns="http://www.w3.org/2000/svg" xmlns:xlink="http://www.w3.org/1999/xlink" width="498.898" height="544.252" viewBox="0 0 1320 1440" xmlns:v="https://vecta.io/nano"><style><![CDATA[.B{color-interpolation-filters:sRGB}]]></style><defs><linearGradient id="A" x1="-1430.769" y1="-77.47" x2="-1409.955" y2="-77.47" spreadMethod="reflect" gradientUnits="userSpaceOnUse"><stop offset="0" stop-color="#ffd285"/><stop offset=".232" stop-color="#ffcd79"/><stop offset=".616" stop-color="#ffca73"/><stop offset=".808" stop-color="#ffd386"/><stop offset="1" stop-color="#ffc86e"/></linearGradient><linearGradient id="B" x1="-899.905" y1="-344.262" x2="-899.906" y2="125.211" gradientUnits="userSpaceOnUse"><stop offset=".6" stop-color="#fff"/><stop offset="1"/></linearGradient><filter id="C" x="-.011" y="-.011" width="1.022" height="1.022" class="B"><feGaussianBlur stdDeviation="2.441"/></filter><filter id="D" x="-.061" y="-.049" width="1.121" height="1.098" class="B"><feGaussianBlur stdDeviation=".392"/></filter><filter id="E" x="-.056" y="-.074" width="1.112" height="1.148" class="B"><feGaussianBlur stdDeviation=".392"/></filter><filter id="F" x="-.079" y="-.083" width="1.159" height="1.166" class="B"><feGaussianBlur stdDeviation=".392"/></filter><filter id="G" x="-.059" y="-.057" width="1.117" height="1.114" class="B"><feGaussianBlur stdDeviation=".392"/></filter><path id="H" d="M-2530.077-54.144c2.955 1.031 6.529 4.742 6.735 7.422s-2.955 4.33-5.91 3.299-5.704-4.742-5.91-7.422 2.131-4.33 5.086-3.299z"/></defs><path style="mix-blend-mode:multiply" d="M-2745.657 265.144l28.198 35.189h489.331l10.087-9.413-110.95-494.045-31.462-17.601z" transform="matrix(-2.0051 0 0 2.0051 -4364.0778 816.66224)" opacity=".5" filter="url(#C)"/><path d="M-1215.57-304.058l-153.963 48.25-92.727 473.093 6.639 36.814 10.024 8.338h460.053l10.024-8.338 6.639-36.814-92.727-473.093z" fill="url(#A)" transform="matrix(2.0051 0 0 2.0051 3097.3821 831.9343)"/><path d="M-899.905-344.262l-153.963 48.25-92.727 473.093 6.639 36.814 10.024 8.338h460.054l10.024-8.338 6.639-36.814-92.727-473.093z" opacity=".25" fill="url(#B)" transform="matrix(2.0051 0 0 2.0051 2464.4309 912.54909)" style="mix-blend-mode:overlay"/><g fill="#7d0000"><path d="M650.458 941.796h19.257v231.518h-19.257z"/><path d="M775.845 1047.927v19.257H544.327v-19.257z"/><path d="M735.132 968.893l13.617 13.617-82.061 82.061-13.617-13.617z"/><path d="M669.715 1053.567l-13.617 13.617-84.674-84.674 13.617-13.617z"/></g><path d="M1133.938 1262.57l-.043 21.064 20.75-16.013-20.707-5.052z" opacity=".8" fill="#fff"/><path d="M1154.645 1267.622l-20.75 16.013-12.661 74.524 20.099-16.719 13.312-73.818z" opacity=".6"/><g fill="#fff"><path d="M351.284 319.007l17.664 13.248L660 238.66v-16.402z" opacity=".3"/><path d="M968.716 319.007l-17.664 13.248L660 238.66v-16.402z" opacity=".3"/><path d="M968.716 319.007l-17.664 13.248 182.886 930.315 20.707 5.052z" opacity=".3"/></g><path d="M351.284 319.007l17.664 13.248-182.886 930.315-20.707 5.052z" opacity=".4"/><path d="M165.355 1267.622l20.75 16.013 12.661 74.524-20.099-16.719-13.312-73.818z" opacity=".9"/><path d="M186.062 1262.57l.043 21.064-20.75-16.013 20.707-5.052z" opacity=".6"/><path d="M186.062 1262.57h947.876l-.043 21.064H186.105l-.043-21.064z" opacity=".2"/><path d="M1133.895 1283.634l-12.661 74.524H198.765l-12.66-74.524h947.791z" opacity=".7"/><g transform="matrix(2.1653 0 0 2.1653 6192.4858 745.90915)"><path d="M-2633.509 43.745c-14.202-5.239-23.496-15.706-20.615-23.215 1.49-3.883 9.426-4.518 35.418-2.835l33.497 2.17V9.52c0-8.42-1.223-9.823-6.572-7.535-15.291 6.539-25.55 5.656-36.308-3.126-13.231-10.801-11.512-24.023 2.556-19.659 18.139 5.627 25.541 6.51 34.889 4.164 14.155-3.553 9.222-11.018-9.378-14.194-8.856-1.512-18.21-5.633-20.787-9.157-4.269-5.838-6.319-5.044-23.035 8.922-17.669 14.763-41.815 27.287-52.606 27.287-9.115 0-5.562-5.594 8.292-13.055 22.373-12.049 68.276-65.897 89.711-105.239 5.627-10.327 12.945-21.829 16.262-25.559 4.89-5.499 5.175-8.154 1.504-14.032-2.49-3.987-4.528-11.497-4.528-16.689 0-13.564 14.262-12.459 29.33 2.272 13.056 12.765 13.861 15.309 8.189 25.906-3.147 5.881-1.099 9.499 12.083 21.346 8.73 7.846 29.447 27.025 46.037 42.621 21.749 20.445 37.236 31.416 55.513 39.328 13.942 6.035 25.349 12.287 25.349 13.892 0 3.04-14.962 3.997-46.942 3.004-17.651-.548-20.24-1.998-43.186-24.18l-24.41-23.597-15.021 4.47c-20.103 5.982-19.604 14.446 1.014 17.198 29.059 3.878 30.747 17.214 2.77 21.891-20.258 3.387-14.13 9.906 8.278 8.807 16.385-.804 20.235.279 23.645 6.65 5.41 10.11 1.826 14.965-11.048 14.965-21.841 0-34.046 4.364-34.046 12.173 0 5.991 1.682 6.984 8.45 4.988 4.647-1.37 18.022-3.479 29.721-4.686 19.365-1.998 22.142-1.324 30.982 7.515 10.986 10.986 12.222 18.313 4.213 24.961-4.342 3.603-10.511 3.305-29.344-1.418-34.618-8.682-49.897-7.732-109.74 6.82-4.131 1.004-13.192-.269-20.135-2.831zm50.079-99.938c1.222-1.977-3.024-6.308-9.436-9.624-12.402-6.413-22.385-2.825-22.385 8.046 0 6.022 28.211 7.421 31.822 1.578zm22.631-33.958c1.276-2.065 6.446-3.755 11.488-3.755 5.064 0 9.167-2.207 9.167-4.93 0-5.088-21.522-27.696-23.646-24.839-.656.882-6.543 8.55-13.082 17.039s-10.809 16.516-9.487 17.838c3.807 3.807 23 2.791 25.561-1.352z" fill="maroon"/><g fill="#fff"><path d="M-2566.309-179.918c3.834 2.262 9.166 8.435 9.783 12.757s-3.482 6.792-7.316 4.53-7.404-9.256-8.021-13.578 1.72-5.971 5.555-3.709z" filter="url(#D)"/><path d="M-2459.57-54.589c4.186 1.824 10.222 7.12 10.428 9.8s-5.417 2.744-9.604.921-6.935-5.535-7.142-8.215 2.131-4.33 6.317-2.506z" filter="url(#E)"/><use xlink:href="#H" filter="url(#F)"/><use xlink:href="#H" x="14.433" y="30.101" filter="url(#F)"/><path d="M-2491.118 13.888c3.977 2.262 9.594 8.435 10.128 12.019s-4.013 4.576-7.99 2.314-7.383-7.779-7.917-11.362 1.802-5.233 5.779-2.971z" filter="url(#G)"/></g></g></svg>