<svg xmlns="http://www.w3.org/2000/svg" width="498.898" height="544.252" viewBox="0 0 1320 1440" xmlns:v="https://vecta.io/nano"><style><![CDATA[.B{color-interpolation-filters:sRGB}]]></style><defs><linearGradient id="A" x1="-1430.769" y1="-77.47" x2="-1409.955" y2="-77.47" spreadMethod="reflect" gradientUnits="userSpaceOnUse"><stop offset="0" stop-color="#ffd285"/><stop offset=".232" stop-color="#ffcd79"/><stop offset=".616" stop-color="#ffca73"/><stop offset=".808" stop-color="#ffd386"/><stop offset="1" stop-color="#ffc86e"/></linearGradient><filter id="B" x="-.013" y="-.011" width="1.026" height="1.022" class="B"><feGaussianBlur stdDeviation="2.441"/></filter><linearGradient id="C" x1="-905.02" y1="-384.47" x2="-904.556" y2="184.159" gradientUnits="userSpaceOnUse"><stop offset="0"/><stop offset=".599" stop-color="#fff"/></linearGradient><filter id="D" x="-.09" y="-.097" width="1.179" height="1.193" class="B"><feGaussianBlur stdDeviation=".392"/></filter><filter id="E" x="-.103" y="-.104" width="1.205" height="1.208" class="B"><feGaussianBlur stdDeviation=".392"/></filter><filter id="F" x="-.071" y="-.082" width="1.142" height="1.165" class="B"><feGaussianBlur stdDeviation=".392"/></filter><filter id="G" x="-.065" y="-.084" width="1.13" height="1.167" class="B"><feGaussianBlur stdDeviation=".392"/></filter><filter id="H" x="-.058" y="-.05" width="1.115" height="1.1" class="B"><feGaussianBlur stdDeviation=".392"/></filter><filter id="I" x="-.05" y="-.054" width="1.099" height="1.108" class="B"><feGaussianBlur stdDeviation=".392"/></filter><filter id="J" x="-.079" y="-.083" width="1.159" height="1.166" class="B"><feGaussianBlur stdDeviation=".392"/></filter><filter id="K" x="-.066" y="-.07" width="1.132" height="1.14" class="B"><feGaussianBlur stdDeviation=".392"/></filter></defs><path style="mix-blend-mode:multiply" d="M-2659.569 204.596l26.181 28.949 150.416 46.096 171.017-51.398 98.911-437.515-45.894-49.39z" transform="matrix(-2.0051 0 0 2.0051 -4364.0778 706.82307)" opacity=".5" filter="url(#B)"/><path d="M-1220.686-340.838l-153.963 49.823-8.809 28.459-94.245 482.361 10.349 7.986h493.336l10.348-7.986-94.244-482.361-8.809-28.459z" fill="url(#A)" transform="matrix(-2.0051 0 0 -2.0051 -1787.6392 533.54186)"/><path d="M-905.02-384.47l-153.963 49.823-8.809 26.778-94.245 484.042 10.349 7.986h493.336l10.349-7.986-94.244-482.219-8.809-28.601z" opacity=".25" fill="url(#C)" transform="matrix(-2.0051 0 0 -2.0051 -1154.6881 446.05465)" style="mix-blend-mode:overlay"/><path d="M165.355 97.854l.043-21.064-20.75 16.013 20.707 5.052zm821.025 961.863l-17.664-13.248L660 1143.218v16.402z" opacity=".4"/><path d="M333.62 1059.717l17.664-13.248L660 1143.218v16.402z" opacity=".6"/><path d="M333.62 1059.717l17.664-13.248L165.355 97.854l-20.707-5.052z" opacity=".6"/><g fill="#fff"><path d="M986.38 1059.717l-17.664-13.248 185.93-948.615 20.707-5.052z" opacity=".3"/><path d="M1154.646 97.854l-.043-21.064 20.75 16.013-20.707 5.052z" opacity=".8"/><path d="M1154.646 97.854H165.355l.043-21.064h989.205l.043 21.064z" opacity=".3"/></g><g transform="matrix(-1.6507 0 0 -1.6507 -3557.5982 693.96433)"><path d="M-2681.039 62.262c-19.062-16.039-16.304-21.627 10.686-21.651 15.015-.011 27.077-2.506 34.785-7.187 11.001-6.681 11.723-8.616 10.664-28.564-.625-11.769-2.696-25.502-4.603-30.517-3.16-8.312-4.55-8.71-15.711-4.497-10.071 3.801-14.168 3.454-23.082-1.954-20.086-12.187-15.345-18.025 20.931-25.776 18.379-3.927 23.172-16.137 5.636-14.358-6.667.677-14.358-2.66-21.599-9.371-8.598-7.969-13.924-9.886-22.625-8.146-16.395 3.279-14.247-3.245 8.299-25.205 21.205-20.654 48.278-59.974 48.278-70.118 0-3.433-2.203-9.771-4.896-14.083-3.695-5.916-3.766-8.971-.293-12.445s8.123-2.429 18.938 4.255c15.879 9.814 23.992 21.766 20.663 30.442-1.429 3.724 2.466 7.624 11.299 11.315 12.909 5.394 21.206 18.328 16.569 25.831-5.154 8.339-18.898 7.501-29.984-1.827-6.306-5.306-13.004-9.635-14.885-9.619s-7.729 6.354-12.996 14.087-15.672 19.413-23.124 25.956l-13.549 11.896h13.982c7.69 0 23.342-3.689 34.782-8.199 41.067-16.187 66.036-1.143 27.858 16.784-11.012 5.171-19.464 11.201-18.782 13.4s9.325 3.486 19.205 2.861c12.829-.811 19.522.741 23.414 5.429 4.664 5.62 4.435 7.307-1.59 11.713-6.686 4.889-6.639 5.805.924 18.241 9.997 16.439 6.597 23.756-17.641 37.961-19.758 11.579-24.918 21.561-6.121 11.84 15.309-7.917 20.206-7.698 20.095.897-.11 8.545-81.24 60.961-94.355 60.961-4.88 0-14.408-4.657-21.172-10.349zm94.238-81.797c5.687-5.687 1.83-23.779-5.069-23.779-3.655 0-5.53 4.744-5.53 13.991 0 14.315 3.157 17.23 10.599 9.788zm62.505 89.549c-2.665-1.081-8.505-7.888-12.979-15.126-7.455-12.063-8.283-21.376-9.929-111.739-1.674-91.892-2.352-99.287-10.006-109.018-18.138-23.059-3.711-34.502 19.197-15.226 11.423 9.612 13.279 9.923 36.683 6.154 13.558-2.184 26.72-5.589 29.249-7.568 5.833-4.566 30.602 5.407 30.522 12.289-.032 2.742-4.278 22.033-9.437 42.868l-9.379 37.883 13.472 4.632c35.026 12.041 33.747 26.455-3.988 44.947l-27.378 13.416 15.386 12.325c26.494 21.224 49.364 47.5 49.364 56.716 0 12.271-13.27 23.452-23.848 20.095-4.637-1.472-13.129-10.178-18.87-19.348s-13.672-20.838-17.622-25.931l-7.184-9.258-8.211 16.095c-4.516 8.852-8.211 18.622-8.211 21.711 0 6.269-15.054 26.858-19.278 26.366-1.489-.173-4.888-1.2-7.553-2.281zm28.574-65.077c7.591-8.388 7.547-8.559-5.826-22.356-7.411-7.647-14.921-13.903-16.689-13.903-3.768 0-4.405 45.445-.689 49.161 3.343 3.343 13.728-2.432 23.203-12.902zm25.654-58.672c13.314-11.396 15.89-15.568 12.292-19.903-3.256-3.923-6.635-4.37-11.864-1.572-4.022 2.152-17.324 3.913-29.561 3.913-27.167 0-29.543 7.099-7.258 21.692 8.245 5.399 16.016 9.922 17.269 10.052s9.858-6.253 19.123-14.183zm-19.14-41.686c4.253-2.276 7.732-6.718 7.732-9.871 0-4.381-4.478-5.385-18.988-4.259-15.639 1.213-19.213 2.954-20.265 9.871-1.068 7.018.782 8.397 11.256 8.397 6.893 0 16.012-1.862 20.265-4.138zm10.73-42.005c7.284-2.296 6.214-17.815-1.228-17.815-3.424 0-14.216 2.012-23.985 4.472-13.385 3.37-17.76 6.385-17.76 12.237 0 6.956 1.98 7.5 18.988 5.223 10.443-1.398 21.236-3.251 23.984-4.117zM-2655.735 16.74c-10.368-4.175-24.018-31.266-18.522-36.762 2.482-2.481 9.271-1.262 19.011 3.413 18.773 9.011 25.489 18.63 19.565 28.021-5.347 8.477-9.495 9.579-20.054 5.328z"/><g fill="#fff"><path d="M-2546.4-170.341c2.04 2.965-.233 5.354-3.411 3.583s-7.257-7.7-6.12-8.895 7.491 2.346 9.531 5.311z" filter="url(#D)"/><path d="M-2618.988-190.043c1.301 2.743-1.713 4.836-4.52 3.14s-5.408-7.182-3.901-8.229 7.121 2.346 8.421 5.089z" filter="url(#E)"/><path d="M-2653.405-87.478c3.296 1.081 6.13 5.384 6.336 8.064s-2.215 3.738-5.512 2.657-7.467-4.301-7.673-6.982 3.552-4.821 6.849-3.74z" filter="url(#F)"/><path d="M-2663.687-43.102c3.621.957 7.195 4.668 7.401 7.348s-2.955 4.33-6.576 3.373-7.701-4.52-7.907-7.2 3.462-4.478 7.083-3.521z" filter="url(#G)"/><path d="M-2528.243 44.202c3.991 1.475 9.783 7.7 10.729 12.23s-2.955 7.362-6.946 5.887-8.071-7.256-9.017-11.786 1.242-7.806 5.233-6.331z" filter="url(#H)"/><path d="M-2447.246 39.384c4.213 1.919 12.076 7.553 14.353 11.564s-1.032 6.401-5.245 4.482-9.328-8.144-11.606-12.156-1.716-5.809 2.497-3.89z" filter="url(#I)"/><path d="M-2671.785 52.64c2.955 1.031 6.529 4.742 6.735 7.422s-2.955 4.33-5.91 3.299-5.704-4.742-5.91-7.422 2.131-4.33 5.086-3.299z" filter="url(#J)"/><path d="M-2655.974-3.805c3.547 1.179 7.565 5.926 7.993 9.124s-2.733 4.847-6.28 3.669-7.479-5.186-7.907-8.384 2.648-5.587 6.195-4.408z" filter="url(#K)"/></g></g><path d="M351.283 1117.065l-17.663-57.348L660 1159.62l326.38-99.903-17.663 57.348L660 1216.968l-308.717-99.903z" opacity=".7"/><g transform="matrix(.8548 0 0 .8548 1747.523 -367.77064)"><path d="M-1256.353 1071.147h-31.394V821.213h31.394z"/><path d="M-1025.008 1048.806l-21.475 21.475-225.27-225.27 21.475-21.475zm-248.012-246.655l-21.108 21.108-225.548-225.548 21.108-21.108zm-224.869 268.996l-21.133-21.133 225.825-225.825 21.133 21.133z"/><path d="M-1250.438 823.695l-22.063-22.063 225.707-225.707 22.063 22.063z"/><circle cx="-1272.342" cy="823.258" r="50.308"/></g></svg>