<svg xmlns="http://www.w3.org/2000/svg" width="498.898" height="544.252" viewBox="0 0 1320 1440" xmlns:v="https://vecta.io/nano"><style><![CDATA[.B{color-interpolation-filters:sRGB}]]></style><defs><linearGradient id="A" x1="-1430.769" y1="-77.47" x2="-1409.955" y2="-77.47" spreadMethod="reflect" gradientUnits="userSpaceOnUse"><stop offset="0" stop-color="#ffd285"/><stop offset=".232" stop-color="#ffcd79"/><stop offset=".616" stop-color="#ffca73"/><stop offset=".808" stop-color="#ffd386"/><stop offset="1" stop-color="#ffc86e"/></linearGradient><filter id="B" x="-.014" y="-.011" width="1.028" height="1.023" class="B"><feGaussianBlur stdDeviation="2.441"/></filter><linearGradient id="C" x1="-905.02" y1="-363.658" x2="-904.556" y2="184.159" gradientUnits="userSpaceOnUse"><stop offset="0"/><stop offset=".603" stop-color="#fff"/></linearGradient><filter id="D" x="-.079" y="-.078" width="1.158" height="1.157" class="B"><feGaussianBlur stdDeviation=".392"/></filter><filter id="E" x="-.055" y="-.087" width="1.111" height="1.174" class="B"><feGaussianBlur stdDeviation=".392"/></filter><filter id="F" x="-.079" y="-.083" width="1.159" height="1.166" class="B"><feGaussianBlur stdDeviation=".392"/></filter><filter id="G" x="-.095" y="-.045" width="1.189" height="1.091" class="B"><feGaussianBlur stdDeviation=".392"/></filter><filter id="H" x="-.058" y="-.078" width="1.115" height="1.157" class="B"><feGaussianBlur stdDeviation=".392"/></filter></defs><path style="mix-blend-mode:multiply" d="M-2651.547 193.989l26.181 28.949 142.394 35.891 162.994-41.193 89.945-426.908-45.894-49.39z" transform="matrix(-2.0051 0 0 2.0051 -4364.0778 706.82307)" opacity=".5" filter="url(#B)"/><path d="M-1220.685-320.026l-145.941 39.619-8.809 28.459-85.278 471.754 10.349 7.986h459.359l10.348-7.986-85.278-471.754-8.809-28.459z" fill="url(#A)" transform="matrix(-2.0051 0 0 -2.0051 -1787.6392 533.54186)"/><path d="M-905.02-363.658l-145.941 39.619-8.809 26.778-85.299 473.438 10.349 7.986 459.384-.003 10.349-7.986-85.284-471.612-8.809-28.601z" opacity=".25" fill="url(#C)" transform="matrix(-2.0051 0 0 -2.0051 -1154.6881 446.05465)" style="mix-blend-mode:overlay"/><path d="M199.418 97.854l.043-21.064-20.75 16.013 20.707 5.052zm770.876 940.595l-17.664-13.248L660 1101.487v16.402z" opacity=".4"/><path d="M349.706 1038.449l17.664-13.248L660 1101.487v16.402z" opacity=".6"/><path d="M349.706 1038.449l17.664-13.248L199.418 97.854l-20.707-5.052z" opacity=".6"/><path d="M703.189 582.702c31.113 16.884 36.428 45.101 13.606 72.224-15.823 18.804-14.343 24.903 6.048 24.903 16.977 0 29.408 19.573 34.614 54.506 2.29 15.358 6.667 29.472 9.728 31.363 9.408 5.815 6.174 14.558-5.386 14.558-16.122 0-42.214-26.767-42.214-43.302 0-7.879-3.956-17.611-8.791-21.625-12.463-10.342-15.851 1.491-13.666 47.719 1.749 36.974 2.102 37.697 19.101 38.983 9.526.72 24.959 4.474 34.296 8.342 22.259 9.22 27.543 3.388 36.073-39.831 6.148-31.141 8.303-34.595 21.598-34.595 12.314 0 15.074 3.16 16.606 19.023 2.235 23.13-10.904 52.224-37.221 82.427l-19.701 22.61-6.28-16.245c-5.364-13.874-9.644-16.245-29.332-16.245-45.381 0-48.567 31.134-5.3 51.805 15.433 7.373 28.06 15.844 28.06 18.823s-14.621 22.183-32.491 42.671c-34.743 39.838-37.469 46.533-23.63 58.018 4.873 4.044 8.861 12.524 8.861 18.843 0 9.152-2.704 10.682-13.292 7.522-23.814-7.108-39.61-20.297-43.667-36.463-3.401-13.546-.402-18.934 20.583-37.008 13.51-11.636 24.562-23.437 24.562-26.227 0-6.602-52.72.622-62.248 8.531-5.261 4.365-12.491 1.724-25.702-9.395-32.155-27.056-20.793-38.611 39.705-40.381 25.785-.755 27.443-1.758 25.584-15.482-2.991-22.085-8.62-24.672-32.222-14.811-27.889 11.653-99.665 11.861-121.918.353-31.156-16.112-32.311-44.203-2.955-71.887 18.09-17.062 25.258-19.896 50.295-19.896 31.878 0 45.909 5.981 74.309 31.679 26.779 24.23 33.621 16.793 30.081-32.694-1.603-22.418-4.535-42.378-6.513-44.356s-15.465.937-29.971 6.477c-24.698 9.432-27.337 9.443-41.485.173-25.588-16.765-19.218-27.836 24.767-43.049 59.365-20.534 95.493-60.011 54.922-60.011-9.596 0-24.206 3.079-32.466 6.845-12.517 5.704-16.998 5.058-26.862-3.869-18.223-16.492-14.841-31.1 9.558-41.295 26.817-11.205 59.417-11.096 80.359.269zM554.235 800.857c-17.518 21.107 13.849 36.18 55.666 26.747 33.965-7.662 38.593-15.931 14.717-26.293-26.3-11.411-61.103-11.637-70.383-.455z" fill="maroon"/><g fill="#fff"><path d="M970.294 1038.449l-17.664-13.248 167.951-927.347 20.707-5.052z" opacity=".3"/><path d="M1120.582 97.854l-.043-21.064 20.75 16.013-20.707 5.052z" opacity=".8"/><path d="M1120.582 97.854H199.418l.043-21.064h921.077l.043 21.064z" opacity=".3"/></g><path d="M367.369 1095.797l-17.663-57.348L660 1117.89l310.294-79.441-17.663 57.348L660 1175.238l-292.63-79.441z" opacity=".7"/><g fill="#fff" transform="matrix(-1.88 0 0 -1.88 -4138.2763 682.33866)"><path d="M-2634.678-44.248c2.955 1.031 6.529 4.742 6.182 7.597s-4.615 4.853-7.57 3.822-4.597-5.09-4.25-7.945 2.684-4.504 5.639-3.473z" transform="matrix(.6258 0 0 .6258 -985.66284 -14.552711)" filter="url(#D)"/><path d="M-2590.641-120.356c4.236.371 7.81 4.082 8.016 6.762s-2.955 4.33-7.191 3.959-9.548-2.761-9.754-5.442 4.693-5.65 8.929-5.279z" filter="url(#E)"/><path d="M-2557.568-80.535c2.955 1.031 6.529 4.742 6.735 7.422s-2.955 4.33-5.91 3.299-5.704-4.742-5.91-7.422 2.131-4.33 5.086-3.299z" filter="url(#F)"/><path d="M-2597.8-26.02c1.966-.032 4.667 6.625 6.237 11.815s2.01 8.913.044 8.945-6.338-3.625-7.909-8.816-.339-11.912 1.628-11.944z" filter="url(#G)"/><path d="M-2576.012 39.023c4.081 1.467 7.654 5.179 7.86 7.859s-2.955 4.33-7.036 2.862-9.08-6.051-9.287-8.732 4.381-3.457 8.462-1.989z" filter="url(#H)"/></g><g transform="matrix(.8548 0 0 .8548 1747.523 -367.77056)" fill="#7d0000"><path d="M-1025.008 807.854v30.81h-250.315v-30.81z"/><path d="M-1275.323 807.854v30.81h-244.352v-30.81z"/><path d="M-1256.353 1071.147h-31.394V821.213h31.394z"/><path d="M-1256.937 821.213h-30.81V575.925h30.81zm231.929 227.593l-21.475 21.475-225.27-225.27 21.475-21.475zm-472.881 22.341l-21.133-21.133 225.825-225.825 21.133 21.133z"/><circle cx="-1272.342" cy="823.258" r="50.308"/></g></svg>