<svg xmlns="http://www.w3.org/2000/svg" xmlns:xlink="http://www.w3.org/1999/xlink" width="498.898" height="544.252" viewBox="0 0 1320 1440" xmlns:v="https://vecta.io/nano"><style><![CDATA[.C{filter:url(#D)}.D{color-interpolation-filters:sRGB}]]></style><defs><linearGradient id="A" x1="-1430.769" y1="-77.47" x2="-1409.955" y2="-77.47" spreadMethod="reflect" gradientUnits="userSpaceOnUse"><stop offset="0" stop-color="#ffd285"/><stop offset=".232" stop-color="#ffcd79"/><stop offset=".616" stop-color="#ffca73"/><stop offset=".808" stop-color="#ffd386"/><stop offset="1" stop-color="#ffc86e"/></linearGradient><filter id="B" x="-.014" y="-.011" width="1.028" height="1.022" class="D"><feGaussianBlur stdDeviation="2.441"/></filter><linearGradient id="C" x1="-905.021" y1="-376.306" x2="-904.556" y2="184.159" gradientUnits="userSpaceOnUse"><stop offset="0"/><stop offset=".603" stop-color="#fff"/></linearGradient><filter id="D" x="-.079" y="-.083" width="1.159" height="1.166" class="D"><feGaussianBlur stdDeviation=".392"/></filter><path id="E" d="M-2562.435-169.603c2.955 1.031 6.529 4.742 6.735 7.422s-2.955 4.33-5.91 3.299-5.704-4.742-5.91-7.422 2.131-4.33 5.086-3.299z"/></defs><path style="mix-blend-mode:multiply" d="M-2655.488 204.013l26.181 28.949 146.334 38.515 166.935-43.817 86.005-436.932-45.894-49.39z" transform="matrix(-2.0051 0 0 2.0051 -4364.0778 706.82307)" opacity=".5" filter="url(#B)"/><path d="M-1220.686-332.674l-149.881 42.384-8.809 28.459-81.338 481.636 10.349 7.986h459.359l10.348-7.986-81.338-481.636-8.809-28.459z" fill="url(#A)" transform="matrix(-2.0051 0 0 -2.0051 -1787.6392 533.54186)"/><path d="M-905.021-376.306l-149.881 44.065-8.809 26.778-81.358 481.64 10.349 7.986 459.383-.004 10.349-7.986-81.343-481.636-8.809-28.601z" opacity=".25" fill="url(#C)" transform="matrix(-2.0051 0 0 -2.0051 -1154.6881 446.05465)" style="mix-blend-mode:overlay"/><path d="M199.419 97.854l.043-21.064-20.75 16.013 20.707 5.052zm778.776 960.694l-17.664-13.248L660 1126.847v16.402z" opacity=".4"/><path d="M341.805 1058.548l17.664-13.248L660 1126.847v16.402z" opacity=".6"/><path d="M359.468 1115.896l-17.663-57.348L660 1143.25l318.195-84.702-17.663 57.348L660 1200.598l-300.532-84.702z" opacity=".7"/><path d="M341.805 1058.548l17.664-13.248-160.05-947.446-20.707-5.052z" opacity=".6"/><path d="M703.214 578.085c21.79 3.967 38.17 18.861 43.325 39.397 2.256 8.992 6.973 16.35 10.48 16.35s16.933 9.269 29.837 20.6c15.829 13.898 22.149 24.311 19.426 32.009-8.842 25.003-24.353 34.57-63.174 38.961-25.617 2.898-43.319 8.868-50.796 17.129-15.701 17.348-6.766 23.561 19.976 13.89 30.706-11.104 40.854-10.126 54.79 5.275 20.925 23.12 34.351 22.585 71.327-2.852 32.099-22.079 60.492-31.007 60.047-18.877-.1 2.78-10.809 12.635-23.793 21.9-36.387 25.967-156.145 160.447-171.942 193.078-12.098 24.992-12.991 32.438-6.319 52.657 14.259 43.204-10.945 51.003-46.45 14.371-21.481-22.161-21.923-23.727-13.39-47.325l8.826-24.406-70.482-70.807c-58.861-59.132-76.905-73.156-109.436-85.057-42.499-15.547-52.002-23.97-37.719-33.43 11.372-7.531 84.846-.406 104.293 10.114 16.118 8.719 38.072 33.864 90.526 103.677 20.189 26.87 40.322 48.855 44.742 48.855 7.471 0 35.906-34.179 35.906-43.157 0-2.208-12.226-4.014-27.165-4.014-30.09 0-41.055-13.081-26.084-31.122 7.176-8.645 16.663-9.855 48.789-6.22 37.25 4.215 41.152 3.296 59.112-13.909 38.335-36.728-13.181-49.889-76.229-19.474-37.456 18.069-55.101 17.011-66.333-3.976-5.831-10.897-2.378-18.658 20.224-45.465 19.962-23.673 27.255-38.349 27.255-54.84 0-13.528 6.607-31.18 16.555-44.221 9.104-11.939 14.665-23.596 12.354-25.907-6.871-6.871-34.901-4.781-48.326 3.601-15.989 9.986-30.742 4.187-45.098-17.722-10.74-16.392-10.704-18.139.653-30.686 9.498-10.495 20-13.111 49.745-12.387 20.737.504 45.284 2.298 54.55 3.984zm24.137 93.531c-18.777 7.206-12.231 22.864 9.556 22.864 20.551 0 28.755-15.648 11.792-22.492l-9.556-3.93c-.624-.293-5.93 1.309-11.792 3.559zM645.323 787.09c4.672 4.672 17.458-4.821 17.458-12.966 0-4.468-3.867-3.956-10.271 1.359-5.648 4.689-8.884 9.911-7.188 11.608z" fill="maroon"/><g fill="#fff"><path d="M978.195 1058.548l-17.664-13.248 160.05-947.446 20.707-5.052z" opacity=".3"/><path d="M1120.582 97.854l-.043-21.064 20.75 16.013-20.707 5.052z" opacity=".8"/><path d="M1120.582 97.854H199.419l.043-21.064h921.077l.043 21.064z" opacity=".3"/><g transform="matrix(-2.0072 0 0 -2.0072 -4462.6634 670.91336)"><use xlink:href="#E" class="C"/><use xlink:href="#E" x="72.103" y="105.462" class="C"/><use xlink:href="#E" x="-37.112" y="115.046" class="C"/><use xlink:href="#E" x="-53.193" y="162.879" class="C"/><use xlink:href="#E" x="-20.367" y="198.713" class="C"/></g></g><g transform="matrix(.8548 0 0 .8548 1747.523 -367.77096)" fill="#810000"><path d="M-1025.008 807.854v30.81h-250.315v-30.81z"/><path d="M-1275.323 807.854v30.81h-244.352v-30.81z"/><path d="M-1256.353 1071.147h-31.394V821.213h31.394z"/><path d="M-1256.937 821.213h-30.81V575.925h30.81zm231.929 227.593l-21.475 21.475-225.27-225.27 21.475-21.475zm-472.881 22.341l-21.133-21.133 225.825-225.825 21.133 21.133z"/><circle cx="-1272.342" cy="823.258" r="50.308"/></g></svg>