<svg xmlns="http://www.w3.org/2000/svg" xmlns:xlink="http://www.w3.org/1999/xlink" width="498.898" height="544.252" viewBox="0 0 1320 1440" xmlns:v="https://vecta.io/nano"><style><![CDATA[.B{color-interpolation-filters:sRGB}]]></style><defs><linearGradient id="A" x1="1091.453" y1="563.801" x2="1049.718" y2="563.801" spreadMethod="reflect" gradientUnits="userSpaceOnUse"><stop offset="0" stop-color="#ffd285"/><stop offset=".232" stop-color="#ffcd79"/><stop offset=".616" stop-color="#ffca73"/><stop offset=".808" stop-color="#ffd386"/><stop offset="1" stop-color="#ffc86e"/></linearGradient><filter id="B" x="-.016" y="-.012" width="1.031" height="1.025" class="B"><feGaussianBlur stdDeviation="2.441"/></filter><linearGradient id="C" x1="659.982" y1="1050.809" x2="659.982" y2="76.788" gradientUnits="userSpaceOnUse"><stop offset="0"/><stop offset=".6" stop-color="#fff"/></linearGradient><filter id="D" x="-.047" y="-.055" width="1.094" height="1.11" class="B"><feGaussianBlur stdDeviation=".392"/></filter><filter id="E" x="-.111" y="-.105" width="1.222" height="1.209" class="B"><feGaussianBlur stdDeviation=".392"/></filter><filter id="F" x="-.08" y="-.087" width="1.16" height="1.174" class="B"><feGaussianBlur stdDeviation=".392"/></filter><filter id="G" x="-.076" y="-.071" width="1.152" height="1.141" class="B"><feGaussianBlur stdDeviation=".392"/></filter><filter id="H" x="-.054" y="-.066" width="1.109" height="1.132" class="B"><feGaussianBlur stdDeviation=".392"/></filter><path id="I" d="M-1223.215-194.447c2.727 1.161 7.083 4.481 8.3 6.966s-.706 4.134-3.433 2.973-6.258-5.133-7.475-7.618-.119-3.482 2.608-2.321z"/></defs><path style="mix-blend-mode:multiply" d="M-2640.263 204.473l21.47 26.648 145.682 33.948 130.593-42.533 79.784-400.01-38.751-32.142z" transform="matrix(-2.0051 0 0 2.0051 -4364.0778 622.47092)" opacity=".5" filter="url(#B)"/><path d="M659.957 1108.158l270.001-75.701 17.663-57.348 142.368-882.306-20.751-16.013H250.674l-20.751 16.013 142.368 882.306 17.663 57.348z" fill="url(#A)"/><path d="M659.982 1050.81l287.664-75.701 142.368-882.306-20.749-16.013H250.701L229.95 92.803l142.37 882.306z" opacity=".25" fill="url(#C)" style="mix-blend-mode:overlay"/><g transform="matrix(-1.4632 0 0 -1.4632 -1118.6126 656.67207)"><path d="M-1304.68 51.383c-6.589-5.002-8.544-18.366-3.173-21.686 1.718-1.062 4.228-11.683 5.576-23.602s3.874-21.671 5.613-21.671 5.17 8.975 7.625 19.943c5.243 23.429 2.881 23.661 47.567-4.667 32.67-20.711 63.635-48.114 63.635-56.315 0-2.467-3.779-8.037-8.398-12.376l-8.398-7.89-4.571 15.359c-10.714 36.001-17.565 40.117-34.088 20.481-11.639-13.832-11.724-17.716-.389-17.716 10.684 0 15.142-12.324 10.034-27.733-3.691-11.134-14.286-14.604-25.789-8.449-6.791 3.635-6.873 4.42-1.451 13.868 5.591 9.741 5.38 10.528-7.718 28.759-14.289 19.889-18.148 21.714-29.053 13.74-7.64-5.587-5.386-13.106 9.449-31.521 10.175-12.63 6.316-18.033-10.911-15.278-11.739 1.877-15.387.675-25.573-8.426-8.168-7.298-11.147-12.526-9.534-16.73 1.852-4.827 3.824-5.325 9.36-2.361 7.671 4.105 32.332 5.041 41.377 1.569 7.19-2.759 7.427-19.335.409-28.614-12.952-17.124-2.12-28.041 18.205-18.349 11.581 5.523 12.267 6.873 12.267 24.139 0 17.829.248 18.261 9.896 17.151l9.896-1.139 1.027-32.739c.815-25.955-.118-33.689-4.498-37.324-7.101-5.894-7.124-17.711-.04-20.429 3.018-1.158 11.924 2.154 19.791 7.361 12.613 8.347 14.304 11.127 14.304 23.509 0 16.52 2.653 17.925 25.149 13.317 19.073-3.907 28.827-1.608 28.827 6.794 0 7.99-23.253 16.812-40.945 15.535-14.063-1.015-14.83-.555-14.83 8.896v9.966l32.386.794c38.752.95 56.81 8.852 55.031 24.08-1.336 11.432-59.452-1.194-74.166-2.438l-26.753-2.261 5.896 8.998c4.294 6.554 11.504 10.234 26.543 13.546 35.434 7.805 40.959 10.779 39.728 21.385-.802 6.908-3.46 9.698-10.085 10.586-8.665 1.161-28.787 17.021-28.787 22.689 0 1.516 7 5.853 15.556 9.638 20.173 8.923 28.537 25.689 18.403 36.887-10.037 11.09-19.892 7.132-33.892-13.614-6.964-10.319-13.562-18.82-14.663-18.892s-14.438 9.181-29.638 20.561c-68.167 51.035-72.417 53.139-86.208 42.67z"/><g fill="#fff"><path d="M-1308.221-103.926c4.716 2.302 11.81 7.057 13.613 10.731s-1.684 6.269-6.399 3.967-10.659-9.501-12.463-13.176.533-3.825 5.249-1.522z" filter="url(#D)"/><path d="M-1284.009-47.567c2.108.672 4.508 2.884 4.746 5.043s-1.684 4.264-3.792 3.592-4.4-4.122-4.639-6.281 1.576-3.026 3.684-2.354z" filter="url(#E)"/><use xlink:href="#I" filter="url(#F)"/><path d="M-1300.376 35.564c3.093 1.492 6.252 5.941 6.251 8.99s-3.163 4.698-6.256 3.206-6.119-6.125-6.118-9.174 3.029-4.514 6.123-3.022z" filter="url(#G)"/><path d="M-1268.354-148.745c3.601.916 10.033 3.751 12.613 7.215s1.309 7.557-2.291 6.641-9.53-6.839-12.111-10.304-1.811-4.468 1.789-3.553z" filter="url(#H)"/><use xlink:href="#I" x="-5.916" y="146.232" filter="url(#F)"/></g></g><path d="M389.995 1032.468l-17.663-57.348L660 1050.821l287.668-75.701-17.663 57.348L660 1108.169z" opacity=".7"/><path d="M250.668 97.849l.043-21.064-20.75 16.013 20.707 5.052z" opacity=".2"/><path d="M947.669 975.119l-17.664-13.248L660 1034.419v16.402z" opacity=".4"/><path d="M372.331 975.119l17.664-13.248L660 1034.419v16.402z" opacity=".6"/><path d="M372.331 975.119l17.664-13.248L250.668 97.849l-20.707-5.052z" opacity=".4"/><g fill="#fff"><path d="M947.669 975.119l-17.664-13.248 139.327-864.022 20.707-5.052z" opacity=".3"/><path d="M1069.332 97.849l-.043-21.064 20.75 16.013-20.707 5.052z" opacity=".8"/><path d="M1069.332 97.849H250.668l.043-21.064h818.579l.043 21.064z" opacity=".3"/></g><g transform="matrix(.8548 0 0 .8548 1747.523 -367.77474)"><path d="M-1256.353 1071.147h-31.394V821.213h31.394z"/><circle cx="-1272.342" cy="823.258" r="50.308"/></g></svg>