<svg xmlns="http://www.w3.org/2000/svg" xmlns:xlink="http://www.w3.org/1999/xlink" width="498.898" height="544.252" viewBox="0 0 1320 1440" xmlns:v="https://vecta.io/nano"><style><![CDATA[.B{color-interpolation-filters:sRGB}]]></style><defs><linearGradient id="A" x1="-1430.769" y1="-77.47" x2="-1409.955" y2="-77.47" spreadMethod="reflect" gradientUnits="userSpaceOnUse"><stop offset="0" stop-color="#ffd285"/><stop offset=".232" stop-color="#ffcd79"/><stop offset=".616" stop-color="#ffca73"/><stop offset=".808" stop-color="#ffd386"/><stop offset="1" stop-color="#ffc86e"/></linearGradient><filter id="B" x="-.012" y="-.01" width="1.024" height="1.021" class="B"><feGaussianBlur stdDeviation="2.441"/></filter><linearGradient id="C" x1="-904.556" y1="-406.052" x2="-904.556" y2="184.159" gradientUnits="userSpaceOnUse"><stop offset="0"/><stop offset=".599" stop-color="#fff"/></linearGradient><filter id="D" x="-.044" y="-.031" width="1.089" height="1.063" class="B"><feGaussianBlur stdDeviation=".392"/></filter><filter id="E" x="-.046" y="-.039" width="1.092" height="1.079" class="B"><feGaussianBlur stdDeviation=".392"/></filter><filter id="F" x="-.026" y="-.037" width="1.052" height="1.073" class="B"><feGaussianBlur stdDeviation=".392"/></filter><filter id="G" x="-.079" y="-.083" width="1.159" height="1.166" class="B"><feGaussianBlur stdDeviation=".392"/></filter><path id="H" d="M-2647.868-67.922c2.955 1.031 6.529 4.742 6.735 7.422s-2.955 4.33-5.91 3.299-5.704-4.742-5.91-7.422 2.131-4.33 5.086-3.299z"/></defs><path style="mix-blend-mode:multiply" d="M-2681.73 217.274l26.181 28.949 172.576 56.161 193.177-61.463 89.581-450.194-45.894-49.39z" transform="matrix(-2.0051 0 0 2.0051 -4364.0778 706.82307)" opacity=".5" filter="url(#B)"/><path d="M-1220.686-363.581l-176.123 60.03-8.809 28.459-84.914 494.898 10.349 7.986h518.995l10.348-7.986-84.914-495.039-8.809-28.459z" fill="url(#A)" transform="matrix(-2.0051 0 0 -2.0051 -1787.6392 533.54186)"/><path d="M-905.02-407.213l-176.123 59.888-8.809 26.778-84.914 496.72 10.349 7.986h518.995l10.349-7.986-84.914-494.898-8.809-28.601z" opacity=".25" fill="url(#C)" transform="matrix(-2.0051 0 0 -2.0051 -1154.6881 446.05465)" style="mix-blend-mode:overlay"/><path d="M139.629 97.854l.043-21.064-20.75 16.013 20.707 5.052zm891.185 987.285l-17.664-13.248L660 1188.821v16.402z" opacity=".4"/><path d="M289.186 1085.139l17.664-13.248L660 1188.821v16.402z" opacity=".6"/><path d="M289.186 1085.139l17.664-13.248L139.629 97.854l-20.707-5.052z" opacity=".6"/><g fill="#fff"><path d="M1030.814 1085.139l-17.664-13.248 167.221-974.037 20.707-5.052z" opacity=".3"/><path d="M1180.371 97.854l-.043-21.064 20.75 16.013-20.707 5.052z" opacity=".8"/><path d="M1180.371 97.854H139.629l.043-21.064h1040.656l.043 21.064z" opacity=".3"/></g><g transform="matrix(.6633 0 0 .6633 205.91995 502.4694)"><path d="M638.86 122.162c35.749 23.778 126.128 114.378 121.526 121.824-2.305 3.73-30.944-7.162-63.642-24.205s-69.023-30.987-80.724-30.987c-29.99 0-95.478 68.494-130.026 135.994-15.708 30.692-28.561 61.098-28.561 67.568 0 18.25 36.647 37.972 90.952 48.948 49.701 10.045 109.294 3.338 239.695-26.977 38.142-8.867 50.848-8.188 80.465 4.302l35.171 14.832-6.571 176.141c-5.728 153.55-4.72 178.783 7.858 196.741 33.558 47.911.889 59.022-58.324 19.836-30.316-20.062-45.972-23.847-97.299-23.526-63.001.394-156.012 22.273-187.522 44.111-25.324 17.55-52.521 15.359-75.54-6.087-40.967-38.167-33.825-42.964 116.056-77.946 37.367-8.722 69.405-16.858 71.194-18.081s-5.339-14.29-15.841-29.039l-19.094-26.815-42.216 12.705c-55.444 16.686-63.071 16.147-85.237-6.019-27.188-27.188-9.009-44.688 46.419-44.688 61.967 0 92.043-13.099 88.428-38.515-3.012-21.176-6.509-21.678-68.922-9.911-23.539 4.438-34.48 1.22-52.088-15.322-12.259-11.517-22.289-23.86-22.289-27.43s30.299-8.02 67.332-9.89 69.245-5.373 71.585-7.784 5.671-14.575 7.403-27.031l3.151-22.647-95.117-5.134c-186.056-10.043-225.936-66.981-143.541-204.931 37.227-62.327 110.233-144.122 144.411-161.796 32.938-17.033 53.321-16.589 80.908 1.76zm106.192 349.016c-9.523 4.887-15.853 18.511-15.853 34.119 0 24.828 2.116 26.151 47.559 29.751 26.157 2.072 50.616 2.225 54.353.34s6.794-21.58 6.794-43.765v-40.337l-38.5 5.878c-21.175 3.233-45.634 9.539-54.353 14.014zm-15.853 134.856c0 24.95 2.253 26.642 35.494 26.642 19.522 0 41.942 2.475 49.823 5.499 11.409 4.378 14.329-1.059 14.329-26.68 0-31.961-.292-32.197-43.029-34.946-54.706-3.518-56.618-2.523-56.618 29.486zm0 93.179c0 26.655 23.037 47.107 61.147 54.287 29.122 5.486 29.442 5.165 29.442-29.708 0-38.915-6.447-44.051-56.618-45.107-29.801-.628-33.97 1.892-33.97 20.528zm243.663-443.464c20.558 21.884 31.661 95.563 16.66 110.564-8.495 8.496-58.281-37.815-74.961-69.728-10.539-20.166-10.348-26.367 1.323-43.029 17.602-25.13 31.822-24.583 56.978 2.194zm-123.315 3.364c22.802 25.196 43.974 90.889 31.731 98.455-15.627 9.658-81.328-65.962-77.937-89.703 3.669-25.693 26.893-30.092 46.205-8.752zm-88.809 50.761c12.548 27.431 22.814 53.831 22.814 58.666 0 15.791-32.036.88-67.076-31.22-32.169-29.471-33.492-32.707-21.043-51.488 23.868-36.008 40.667-29.823 65.305 24.041zm-103.204 15.1c20.818 35.041 35.398 66.163 32.401 69.16-7.721 7.721-59.58-14.079-94.354-39.663-18.365-13.512-29.441-29.478-29.441-42.442 0-21.323 25.135-50.767 43.338-50.767 5.613 0 27.239 28.67 48.056 63.711z" fill="maroon"/><g fill="#fff" transform="matrix(-2.0051 0 0 -2.0051 -4438.6998 316.13998)"><path d="M-2537.012-14.767c2.957 1.032 14.289 14.254 18.372 21.687s.922 9.082-2.034 8.052-5.704-4.742-9.792-12.183-9.503-18.588-6.546-17.556z" filter="url(#D)"/><path d="M-2692.255 5.137c5.128 3.025 8.757 11.983 8.991 17.286s-2.928 6.952-8.051 3.928-12.211-10.723-12.444-16.029 6.377-8.21 11.505-5.185z" filter="url(#E)"/><path d="M-2537.288 72.347c9.021 5.665 12.594 9.376 12.8 12.057s-2.955 4.33-11.967-1.329-23.879-18.632-24.086-21.314 14.231 4.922 23.252 10.587z" filter="url(#F)"/><use xlink:href="#H" filter="url(#G)"/><use xlink:href="#H" x="-6.181" y="-184.898" filter="url(#G)"/></g></g><path d="M306.849 1142.487l-17.663-57.348L660 1205.223l370.814-120.084-17.663 57.348L660 1262.571l-353.151-120.084z" opacity=".7"/><g transform="matrix(.8548 0 0 .8548 1747.523 -367.77063)" fill="#820000"><path d="M-1025.008 807.854v30.81h-250.315v-30.81z"/><path d="M-1275.323 807.854v30.81h-244.352v-30.81z"/><path d="M-1256.353 1071.147h-31.394V821.213h31.394z"/><path d="M-1256.937 821.213h-30.81V575.925h30.81zm-262.738 249.379l22.606-93.752 71.146 71.146zm494.667-494.667l-93.752 22.606 71.146 71.146zm0 494.667l-93.752-22.606 71.146-71.146zm-494.667-494.667l22.606 93.752 35.573-35.573 35.573-35.573z"/><path d="M-1055.277 1023.806l-18.841 18.841-197.636-197.636 18.841-18.841zm-217.743-221.655l-17.763 17.763-189.807-189.807 17.763-17.763zm-201.914 246.041l-21.133-21.133 202.87-202.87 21.133 21.133zm224.496-224.497l-22.063-22.063 203.068-203.068 22.063 22.063z"/><circle cx="-1272.342" cy="823.258" r="50.308"/></g></svg>