<svg xmlns="http://www.w3.org/2000/svg" xmlns:xlink="http://www.w3.org/1999/xlink" width="498.898" height="544.252" viewBox="0 0 1320 1440" xmlns:v="https://vecta.io/nano"><style><![CDATA[.C{filter:url(#D)}.D{color-interpolation-filters:sRGB}]]></style><defs><linearGradient id="A" x1="-1430.769" y1="-77.47" x2="-1409.955" y2="-77.47" spreadMethod="reflect" gradientUnits="userSpaceOnUse"><stop offset="0" stop-color="#ffd285"/><stop offset=".232" stop-color="#ffcd79"/><stop offset=".616" stop-color="#ffca73"/><stop offset=".808" stop-color="#ffd386"/><stop offset="1" stop-color="#ffc86e"/></linearGradient><filter id="B" x="-.013" y="-.011" width="1.026" height="1.022" class="D"><feGaussianBlur stdDeviation="2.441"/></filter><linearGradient id="C" x1="-905.02" y1="-384.47" x2="-904.556" y2="184.159" gradientUnits="userSpaceOnUse"><stop offset="0"/><stop offset=".603" stop-color="#fff"/></linearGradient><filter id="D" x="-.079" y="-.083" width="1.159" height="1.166" class="D"><feGaussianBlur stdDeviation=".392"/></filter><path id="E" d="M-2632.34 29.151c2.955 1.031 6.529 4.742 6.735 7.422s-2.955 4.33-5.91 3.299-5.704-4.742-5.91-7.422 2.131-4.33 5.086-3.299z"/></defs><path style="mix-blend-mode:multiply" d="M-2659.569 204.596l26.181 28.949 150.416 46.096 171.017-51.398 98.911-437.515-45.894-49.39z" transform="matrix(-2.0051 0 0 2.0051 -4364.0778 706.82307)" opacity=".5" filter="url(#B)"/><path d="M-1220.686-340.838l-153.963 49.823-8.809 28.459-94.245 482.361 10.349 7.986h493.336l10.348-7.986-94.244-482.361-8.809-28.459z" fill="url(#A)" transform="matrix(-2.0051 0 0 -2.0051 -1787.6392 533.54186)"/><path d="M-905.02-384.47l-153.963 49.823-8.809 26.778-94.245 484.042 10.349 7.986h493.336l10.349-7.986-94.244-482.219-8.809-28.601z" opacity=".25" fill="url(#C)" transform="matrix(-2.0051 0 0 -2.0051 -1154.6881 446.05465)" style="mix-blend-mode:overlay"/><path d="M165.355 97.854l.043-21.064-20.75 16.013 20.707 5.052zm821.025 961.863l-17.664-13.248L660 1143.218v16.402z" opacity=".4"/><path d="M333.62 1059.717l17.664-13.248L660 1143.218v16.402z" opacity=".6"/><path d="M333.62 1059.717l17.664-13.248L165.355 97.854l-20.707-5.052z" opacity=".6"/><g fill="#fff"><path d="M986.38 1059.717l-17.664-13.248 185.93-948.615 20.707-5.052z" opacity=".3"/><path d="M1154.646 97.854l-.043-21.064 20.75 16.013-20.707 5.052z" opacity=".8"/><path d="M1154.646 97.854H165.355l.043-21.064h989.205l.043 21.064z" opacity=".3"/></g><path d="M817.039 582.617c28.443 10.492 47.057 31.455 41.287 46.493-2.984 7.777-18.878 9.048-70.933 5.677l-67.086-4.346v20.719c0 16.863 2.449 19.673 13.162 15.091 30.624-13.096 51.17-11.327 72.716 6.26 26.498 21.632 23.056 48.112-5.119 39.372-36.328-11.269-51.152-13.038-69.874-8.339-28.348 7.116-18.47 22.066 18.782 28.427 17.736 3.028 36.47 11.281 41.631 18.339 8.55 11.692 12.656 10.102 46.133-17.868 35.386-29.567 83.745-54.649 105.357-54.649 18.255 0 11.139 11.203-16.606 26.145-44.807 24.132-136.74 131.975-179.668 210.766-11.269 20.682-25.925 43.718-32.568 51.188-9.793 11.013-10.364 16.33-3.012 28.102 4.987 7.985 9.068 23.025 9.068 33.424 0 27.165-28.563 24.952-58.74-4.55-26.148-25.565-27.76-30.66-16.401-51.883 6.303-11.778 2.201-19.024-24.199-42.751l-92.201-85.358c-43.558-40.946-74.575-62.918-111.178-78.764-27.923-12.086-50.767-24.608-50.767-27.823 0-6.089 29.965-8.005 94.013-6.016 35.35 1.098 40.536 4.001 86.49 48.426l48.887 47.259 30.083-8.953c40.261-11.981 39.262-28.931-2.03-34.444-58.198-7.767-61.579-34.476-5.548-43.842 40.572-6.784 28.299-19.839-16.579-17.638-32.815 1.61-40.526-.559-47.355-13.318-10.835-20.248-3.657-29.971 22.127-29.971 43.742 0 68.186-8.74 68.186-24.379 0-11.998-3.369-13.987-16.923-9.99-9.307 2.744-36.093 6.967-59.523 9.385-38.784 4.001-44.344 2.652-62.049-15.05-22.002-22.002-24.478-36.676-8.438-49.991 8.696-7.216 21.051-6.619 58.769 2.84 69.331 17.387 99.931 15.486 219.781-13.659 8.273-2.011 26.42.539 40.326 5.67zm-100.295 200.15c-2.447 3.959 6.057 12.634 18.897 19.275 24.838 12.844 44.832 5.658 44.832-16.114 0-12.061-56.5-14.862-63.731-3.16zm-45.324 68.01c-2.556 4.135-12.91 7.521-23.008 7.521-10.142 0-18.36 4.42-18.36 9.873 0 10.19 43.103 55.468 47.357 49.746 1.314-1.766 13.104-17.123 26.2-34.125s21.648-33.078 19-35.725c-7.624-7.624-46.063-5.589-51.192 2.708z" fill="maroon"/><g fill="#fff" transform="matrix(-2.0027 0 0 -2.0027 -4452.25 670.22678)"><use xlink:href="#E" class="C"/><use xlink:href="#E" x="155.869" y="-77.11" class="C"/><use xlink:href="#E" x="60.203" y="-200.403" class="C"/><use xlink:href="#E" x="24.329" y="-77.11" class="C"/><use xlink:href="#E" x="11.546" y="-41.235" class="C"/></g><path d="M351.283 1117.065l-17.663-57.348L660 1159.62l326.38-99.903-17.663 57.348L660 1216.968l-308.717-99.903z" opacity=".7"/><g transform="matrix(.8548 0 0 .8548 1747.523 -367.77104)" fill="#810000"><path d="M-1025.008 807.854v30.81h-250.315v-30.81z"/><path d="M-1275.323 807.854v30.81h-244.352v-30.81z"/><path d="M-1256.353 1071.147h-31.394V821.213h31.394z"/><path d="M-1256.937 821.213h-30.81V575.925h30.81zm231.929 227.593l-21.475 21.475-225.27-225.27 21.475-21.475zm-472.881 22.341l-21.133-21.133 225.825-225.825 21.133 21.133z"/><circle cx="-1272.342" cy="823.258" r="50.308"/></g></svg>