<svg xmlns="http://www.w3.org/2000/svg" xmlns:xlink="http://www.w3.org/1999/xlink" width="498.898" height="544.252" viewBox="0 0 1320 1440" xmlns:v="https://vecta.io/nano"><defs><linearGradient id="A" x1="-1430.769" y1="-77.47" x2="-1409.955" y2="-77.47" spreadMethod="reflect" gradientUnits="userSpaceOnUse"><stop offset="0" stop-color="#ffd285"/><stop offset=".232" stop-color="#ffcd79"/><stop offset=".616" stop-color="#ffca73"/><stop offset=".808" stop-color="#ffd386"/><stop offset="1" stop-color="#ffc86e"/></linearGradient><linearGradient id="B" x1="-899.905" y1="-344.262" x2="-899.906" y2="125.211" gradientUnits="userSpaceOnUse"><stop offset=".597" stop-color="#fff"/><stop offset="1"/></linearGradient><filter id="C" x="-.011" y="-.011" width="1.022" height="1.022" color-interpolation-filters="sRGB"><feGaussianBlur stdDeviation="2.441"/></filter><path id="D" d="M693.561 549.856c5.267 1.838 11.636 8.452 12.004 13.229s-5.267 7.716-10.534 5.879-10.166-8.451-10.534-13.229 3.797-7.717 9.064-5.879z"/></defs><path style="mix-blend-mode:multiply" d="M-2745.657 265.144l28.198 35.189h489.331l10.087-9.413-110.95-494.045-31.462-17.601z" transform="matrix(-2.0051 0 0 2.0051 -4364.0778 816.66224)" opacity=".5" filter="url(#C)"/><path d="M-1215.57-304.058l-153.963 48.25-92.727 473.093 6.639 36.814 10.024 8.338h460.053l10.024-8.338 6.639-36.814-92.727-473.093z" fill="url(#A)" transform="matrix(2.0051 0 0 2.0051 3097.3821 831.9343)"/><path d="M-899.905-344.262l-153.963 48.25-92.727 473.093 6.639 36.814 10.024 8.338h460.054l10.024-8.338 6.639-36.814-92.727-473.093z" opacity=".25" fill="url(#B)" transform="matrix(2.0051 0 0 2.0051 2464.4309 912.54909)" style="mix-blend-mode:overlay"/><path d="M496.146 771.376c-26.008-22.328-31.175-44.577-8.95-38.549 28.552 7.744 55.101 9.269 63.515 3.651 8.197-5.474 7.99-7.113-1.612-12.771-14.467-8.524-36.003-51.229-36.003-71.392 0-18.149 7.254-20.44 19.188-6.061 4.5 5.424 18.746 15.25 31.656 21.836 26.267 13.401 34.718 30.489 24.51 49.562-5.858 10.946-4.975 12.774 6.174 12.774 12.26 0 12.907-2.971 11.191-51.34l-1.82-51.34-29.469-.538c-19.967-.364-35.533-5.023-48.283-14.45-18.764-13.873-18.874-13.878-39.491-1.867-25.533 14.875-67.692 23.482-67.692 13.822 0-3.743 8.114-11.002 18.032-16.13 27.128-14.028 89.344-85.033 136.266-155.515l41.77-62.744-13.202-27.174c-7.851-16.158-10.733-28.701-7.11-30.939 3.35-2.071 20.892 4.229 38.98 14 32.843 17.741 32.886 17.804 31.883 47.281-.978 28.728-.15 30.142 31.345 52.938 17.793 12.882 33.76 24.942 35.484 26.8 18.396 19.82 85.588 61.468 118.326 73.342 63.876 23.169 66.293 34.064 9.446 42.589-52.975 7.944-67.147.817-144.607-72.714-39.467-37.467-74.202-68.12-77.187-68.12s-11.716 9.168-19.4 20.374-21.072 28.102-29.748 37.548-13.836 19.111-11.469 21.478c4.37 4.371 80.573-5.83 98.754-13.22 5.79-2.353 16.254 1.306 25.075 8.768 14.843 12.558 14.901 12.992 2.97 22.216-6.692 5.174-18.683 9.408-26.644 9.408-8.724 0-14.474 3.758-14.474 9.458 0 7.735 6.063 8.745 33.289 5.546 29.422-3.458 35.37-2.123 51.202 11.495 20.446 17.587 18.375 36.19-4.026 36.19-13.045 0-12.562 1.448 7.338 21.98l21.304 21.98-26.748 27.253-26.746 27.253 36.45 3.737c29.031 2.976 39.384 7.137 50.874 20.447 13.653 15.817 13.854 17.34 3.749 28.506-9.828 10.86-17.686 11.49-99.055 7.945-58.403-2.545-100.075-1.347-122.859 3.533l-50.151 10.584c-11.726 2.393-22.309-2.498-42.027-19.425zm197.412-90.465c18.371-27.095 19.789-32.169 13.099-46.855-5.537-12.152-12.172-16.47-25.305-16.47h-17.8v47.017c0 25.859 2.116 46.944 4.702 46.855s13.972-13.835 25.305-30.547zm-92.695-102.547c0-4.332-11.632-11.508-25.849-15.944-22.733-7.095-27.266-6.784-37.613 2.58-18.975 17.173-14.025 21.242 25.849 21.242 26.014 0 37.613-2.429 37.613-7.877z"/><g fill="#fff"><g transform="matrix(.9132 0 0 .9132 61.872449 21.742592)"><path d="M635.978 364.056c8.147 4.718 15.669 10.674 16.036 15.451s-6.419 8.375-14.567 3.657-17.655-17.751-18.023-22.528 8.406-1.297 16.553 3.42zm254.915 232.565c6.976 8.821-14.129 12.09-31.66 4.903s-31.482-24.828-20.928-26.463 45.612 12.739 52.588 21.56z"/><use xlink:href="#D"/><path d="M732.376 611.414c7.489 1.837 17.644 9.275 17.682 14.463s-10.04 8.128-17.53 6.291-12.388-8.451-12.427-13.64 4.785-8.951 12.274-7.114z"/><use xlink:href="#D" x="94.07" y="232.236"/><path d="M558.605 720.994c6.502 1.837 14.352 9.604 14.226 14.957s-8.23 8.293-14.731 6.455-11.401-8.451-11.275-13.805 5.278-9.445 11.78-7.608zm192.656-40.214c3.21.52 14.352 10.427 16.53 17.179s-4.608 10.35-7.818 9.83-2.842-5.159-5.02-11.912-6.902-15.618-3.693-15.097z"/></g><path d="M1133.938 1262.57l-.043 21.064 20.75-16.013-20.707-5.052z" opacity=".8"/></g><path d="M1154.645 1267.622l-20.75 16.013-12.661 74.524 20.099-16.719 13.312-73.818z" opacity=".6"/><g fill="#fff"><path d="M351.284 319.007l17.664 13.248L660 238.66v-16.402z" opacity=".3"/><path d="M968.716 319.007l-17.664 13.248L660 238.66v-16.402z" opacity=".3"/><path d="M968.716 319.007l-17.664 13.248 182.886 930.315 20.707 5.052z" opacity=".3"/></g><path d="M351.284 319.007l17.664 13.248-182.886 930.315-20.707 5.052z" opacity=".4"/><path d="M165.355 1267.622l20.75 16.013 12.661 74.524-20.099-16.719-13.312-73.818z" opacity=".9"/><path d="M186.062 1262.57l.043 21.064-20.75-16.013 20.707-5.052z" opacity=".6"/><path d="M186.062 1262.57h947.876l-.043 21.064H186.105l-.043-21.064z" opacity=".2"/><path d="M1133.895 1283.634l-12.661 74.524H198.765l-12.66-74.524h947.791z" opacity=".7"/><g transform="matrix(.8548 0 0 .8548 1747.523 325.74731)"><path d="M-1025.008 807.854v30.81h-250.315v-30.81z"/><path d="M-1275.323 807.854v30.81h-244.352v-30.81z"/><path d="M-1256.353 1071.147h-31.394V821.213h31.394z"/><path d="M-1256.937 821.213h-30.81V575.925h30.81z"/><path d="M-1273.02 802.151l-21.108 21.108-225.548-225.548 21.108-21.108zm22.582 21.544l-22.063-22.063 225.707-225.707 22.063 22.063z"/><circle cx="-1272.342" cy="823.258" r="50.308"/></g></svg>