<svg xmlns="http://www.w3.org/2000/svg" width="498.898" height="544.252" viewBox="0 0 1320 1440" xmlns:v="https://vecta.io/nano"><style><![CDATA[.B{color-interpolation-filters:sRGB}]]></style><defs><linearGradient id="A" x1="228.547" y1="660.587" x2="270.281" y2="660.587" spreadMethod="reflect" gradientUnits="userSpaceOnUse"><stop offset="0" stop-color="#ffd285"/><stop offset=".232" stop-color="#ffcd79"/><stop offset=".616" stop-color="#ffca73"/><stop offset=".808" stop-color="#ffd386"/><stop offset="1" stop-color="#ffc86e"/></linearGradient><linearGradient id="B" x1="660.031" y1="176.668" x2="660.029" y2="1147.598" gradientUnits="userSpaceOnUse"><stop offset=".597" stop-color="#fff"/><stop offset="1"/></linearGradient><filter id="C" x="-.044" y="-.045" width="1.088" height="1.089" class="B"><feGaussianBlur stdDeviation=".392"/></filter><filter id="D" x="-.046" y="-.036" width="1.091" height="1.073" class="B"><feGaussianBlur stdDeviation=".392"/></filter><filter id="E" x="-.055" y="-.075" width="1.111" height="1.15" class="B"><feGaussianBlur stdDeviation=".392"/></filter><filter id="F" x="-.056" y="-.074" width="1.113" height="1.148" class="B"><feGaussianBlur stdDeviation=".392"/></filter><filter id="G" x="-.043" y="-.073" width="1.087" height="1.146" class="B"><feGaussianBlur stdDeviation=".392"/></filter><filter id="H" x="-.011" y="-.011" width="1.021" height="1.022" class="B"><feGaussianBlur stdDeviation="2.441"/></filter></defs><path style="mix-blend-mode:multiply" d="M-2758.546 269.702l24.453 34.897h517.576l14.375-11.25-104.69-501.167-31.462-17.601z" transform="matrix(-2.0051 0 0 2.0051 -4364.0779 800.65019)" opacity=".5" filter="url(#H)"/><path d="M660.043 176.666L306.898 293.594l-167.217 974.019 13.3 73.818 20.099 16.718h973.903l20.099-16.718 13.324-73.818-167.217-974.019z" fill="url(#A)"/><path d="M660.031 176.668L306.887 293.595 139.67 1267.615l13.312 73.816 20.099 16.719h973.903l20.099-16.719 13.312-73.816-167.217-974.019z" opacity=".25" fill="url(#B)" style="mix-blend-mode:overlay"/><path d="M1159.664 1262.571l-.043 21.064 20.75-16.013-20.707-5.052z" opacity=".8" fill="#fff"/><path d="M1180.371 1267.622l-20.75 16.013-12.637 74.514 20.099-16.718 13.288-73.808z" opacity=".6"/><g fill="#fff"><path d="M306.85 293.586l17.664 13.248L660 193.058v-16.402z" opacity=".3"/><path d="M1013.15 293.586l-17.664 13.248L660 193.058v-16.402z" opacity=".3"/><path d="M1013.15 293.586l-17.664 13.248 164.177 955.737 20.707 5.052z" opacity=".3"/></g><path d="M306.85 293.586l17.664 13.248-164.177 955.737-20.707 5.052z" opacity=".4"/><path d="M139.629 1267.622l20.75 16.013 12.702 74.514-20.099-16.718-13.353-73.808z" opacity=".9"/><path d="M160.337 1262.571l.043 21.064-20.75-16.013 20.707-5.052z" opacity=".6"/><path d="M160.337 1262.571h999.327l-.043 21.064H160.379l-.043-21.064z" opacity=".2"/><path d="M1159.621 1283.635l-12.637 74.514H173.081l-12.702-74.514h999.241z" opacity=".7"/><g transform="matrix(1.2855 0 0 1.2855 3944.6468 654.55648)"><path d="M-2532.279 96.741c-17.829-11.858-62.902-57.043-60.607-60.756 1.15-1.86 15.432 3.572 31.739 12.071s34.423 15.454 40.258 15.454c14.957 0 47.617-34.16 64.846-67.823 7.834-15.307 14.244-30.471 14.244-33.698 0-9.102-18.276-18.938-45.36-24.411-24.787-5.01-54.507-1.665-119.541 13.454-19.022 4.422-25.359 4.083-40.13-2.145l-17.541-7.397 3.277-87.845c2.857-76.578 2.354-89.163-3.919-98.119-16.736-23.894-.443-29.435 29.087-9.893 15.119 10.005 22.927 11.893 48.525 11.733 31.42-.196 77.806-11.108 93.521-21.999 12.63-8.753 26.193-7.66 37.673 3.036 20.431 19.034 16.869 21.427-57.88 38.873-18.636 4.35-34.614 8.408-35.506 9.017s2.663 7.127 7.9 14.482l9.523 13.373 21.054-6.336c27.651-8.322 31.455-8.053 42.509 3.002 13.559 13.559 4.493 22.287-23.15 22.287-30.904 0-45.903 6.533-44.101 19.208 1.502 10.561 3.246 10.811 34.373 4.943 11.74-2.213 17.196-.608 25.977 7.641 6.114 5.744 11.116 11.9 11.116 13.68s-15.111 4-33.58 4.932-34.534 2.68-35.701 3.882-2.828 7.269-3.692 13.481l-1.571 11.295 47.437 2.561c92.79 5.009 112.679 33.405 71.587 102.203-18.566 31.084-54.975 71.877-72.021 80.691-16.427 8.494-26.592 8.273-40.351-.878zm-52.96-174.061c4.749-2.437 7.906-9.232 7.906-17.016 0-12.382-1.055-13.042-23.718-14.838-13.045-1.034-25.243-1.11-27.107-.169s-3.388 10.762-3.388 21.827V-67.4l19.201-2.932c10.56-1.612 22.758-4.757 27.107-6.989zm7.906-67.256c0-12.443-1.124-13.287-17.702-13.287-9.736 0-20.918-1.234-24.848-2.742-5.69-2.183-7.146.528-7.146 13.306 0 15.94.146 16.058 21.46 17.428 27.283 1.755 28.236 1.258 28.236-14.705zm0-46.47c0-13.293-11.489-23.493-30.495-27.074-14.524-2.736-14.683-2.576-14.683 14.816 0 19.408 3.215 21.969 28.236 22.496 14.862.313 16.942-.944 16.942-10.238zm-121.519 221.164c-10.253-10.914-15.79-47.659-8.309-55.14 4.237-4.237 29.066 18.859 37.384 34.775 5.256 10.057 5.161 13.15-.66 21.46-8.779 12.533-15.87 12.26-28.416-1.094zm61.5-1.678c-11.372-12.566-21.931-45.328-15.825-49.101 7.794-4.817 40.56 32.897 38.869 44.736-1.83 12.814-13.412 15.008-23.044 4.365zm44.291-25.316c-6.258-13.681-11.378-26.847-11.378-29.258 0-7.875 15.977-.439 33.452 15.57 16.043 14.698 16.703 16.312 10.494 25.678-11.903 17.958-20.281 14.874-32.569-11.99zm51.47-7.531c-10.382-17.476-17.654-32.997-16.159-34.492 3.851-3.85 29.714 7.022 47.056 19.781 9.159 6.739 14.683 14.701 14.683 21.167 0 10.634-12.535 25.318-21.613 25.318-2.799 0-13.584-14.298-23.966-31.774z" fill="maroon"/><g fill="#fff"><path d="M-2521.938-17.516c4.971 1.317 15.443 10.437 17.089 15.54s-5.542 6.18-10.512 4.863-7.718-5.028-9.363-10.128-2.185-11.593 2.786-10.276z" filter="url(#C)"/><path d="M-2417.7-57.953c4.318 1.35 10.62 5.699 13.618 12.014s2.693 14.581-1.627 13.231-12.653-12.325-15.649-18.635-.66-7.959 3.659-6.61z" filter="url(#D)"/><path d="M-2486.595-139.784c4.235 1.743 10.371 6.878 10.577 9.559s-5.515 2.906-9.751 1.163-6.985-5.454-7.191-8.134 2.131-4.33 6.366-2.587z" filter="url(#E)"/><path d="M-2481.413-192.197c4.169 1.814 10.172 7.092 10.378 9.773s-5.383 2.763-9.553.949-6.919-5.525-7.125-8.206 2.131-4.33 6.3-2.516z" filter="url(#F)"/><path d="M-2468.511-262.693c5.408 1.879 13.89 7.289 14.096 9.97s-7.861 2.632-13.27.752-8.158-5.591-8.364-8.271 2.131-4.33 7.539-2.45z" filter="url(#G)"/></g></g><g transform="matrix(.8548 0 0 .8548 1747.523 325.74725)" fill="#7f0000"><path d="M-1025.008 807.854v30.81h-250.315v-30.81z"/><path d="M-1275.323 807.854v30.81h-244.352v-30.81z"/><path d="M-1256.353 1071.147h-31.394V821.213h31.394z"/><path d="M-1256.937 821.213h-30.81V575.925h30.81zm-262.738 249.379l22.606-93.752 71.146 71.146zm494.667-494.667l-93.752 22.606 71.146 71.146zm0 494.667l-93.752-22.606 71.146-71.146zm-494.667-494.667l22.606 93.752 35.573-35.573 35.573-35.573z"/><path d="M-1051.015 1022.799l-21.475 21.475-199.263-199.263 21.475-21.475zm-222.005-220.648l-21.108 21.108-196.526-196.526 21.108-21.108zm-199.075 243.202l-21.133-21.133 200.031-200.031 21.133 21.133z"/><path d="M-1250.438 823.695l-22.063-22.063 199.913-199.913 22.063 22.063z"/><circle cx="-1272.342" cy="823.258" r="50.308"/></g></svg>