<svg xmlns="http://www.w3.org/2000/svg" width="498.898" height="544.252" viewBox="0 0 1320 1440" xmlns:v="https://vecta.io/nano"><style><![CDATA[.C{color-interpolation-filters:sRGB}.D{filter:url(#E)}]]></style><defs><linearGradient id="A" x1="-1430.769" y1="-77.47" x2="-1409.955" y2="-77.47" spreadMethod="reflect" gradientUnits="userSpaceOnUse"><stop offset="0" stop-color="#ffd285"/><stop offset=".232" stop-color="#ffcd79"/><stop offset=".616" stop-color="#ffca73"/><stop offset=".808" stop-color="#ffd386"/><stop offset="1" stop-color="#ffc86e"/></linearGradient><linearGradient id="B" x1="-899.903" y1="-319.311" x2="-899.906" y2="125.211" gradientUnits="userSpaceOnUse"><stop offset=".598" stop-color="#fff"/><stop offset="1"/></linearGradient><filter id="C" x="-.012" y="-.011" width="1.024" height="1.023" class="C"><feGaussianBlur stdDeviation="2.441"/></filter><filter id="D" x="-.04" y="-.016" width="1.113" height="1.03" class="C"><feGaussianBlur stdDeviation=".599"/></filter><filter id="E" x="-.054" y="-.12" width="1.107" height="1.24" class="C"><feGaussianBlur stdDeviation=".344"/></filter><filter id="F" x="-.048" y="-.052" width="1.095" height="1.104" class="C"><feGaussianBlur stdDeviation=".392"/></filter></defs><path style="mix-blend-mode:multiply" d="M-2728.669 265.144l28.198 35.189h455.354l10.087-9.413-101.985-483.44-31.462-17.601z" transform="matrix(-2.0051 0 0 2.0051 -4364.0778 816.66224)" opacity=".5" filter="url(#C)"/><path d="M-1215.568-283.246l-145.942 38.045-83.762 462.487 6.639 36.814 10.024 8.338h426.077l10.024-8.338 6.639-36.814-83.759-462.487z" fill="url(#A)" transform="matrix(2.0051 0 0 2.0051 3097.3821 831.9343)"/><path d="M-899.903-323.401l-145.942 37.996-83.762 462.487 6.639 36.814 10.024 8.338h426.077l10.024-8.338 6.639-36.814-83.759-462.487z" opacity=".25" fill="url(#B)" transform="matrix(2.0051 0 0 2.0051 2464.4309 912.5491)" style="mix-blend-mode:overlay"/><path d="M724.794 785.923c-7.961-7.655-24.229-8.632-60.791-3.651-60.079 8.186-64.595 3.632-80.876-81.534-9.578-50.105-11.082-54.37-24.819-70.368-6.171-7.186-10.527-8.286-15.727-3.969-3.956 3.284-22.134 5.195-40.397 4.247-42.211-2.188-44.592-14.003-5.46-27.093 26.454-8.849 94.615-62.607 94.615-74.622 0-2.91-8.874-5.291-19.721-5.291-13.943 0-25.615-5.175-39.838-17.663-33.569-29.474-25.096-40.622 20.494-26.963 16.894 5.061 29.263 4.972 53.206-.387 35.962-8.048 39.203-11.266 31.57-31.34-4.591-12.076-9.276-14.705-26.195-14.705-27.538 0-53.661-15.836-53.661-32.528 0-7.149.657-13 1.461-13s10.2 2.507 20.882 5.57c20.86 5.982 46.754.444 121.697-26.027 61.535-21.736 92.955-16.243 88.31 15.44-1.597 10.897-9.028 14.423-52.788 25.046-28.01 6.799-51.612 14.68-52.449 17.51s2.181 10.047 6.708 16.039c7.735 10.235 11.072 10.47 55.337 3.885 33.607-5 51.6-5.3 62.784-1.047 17.53 6.664 30.31 28.986 24.807 43.329-3.135 8.17-9.881 8.885-51.245 5.441-46.057-3.835-71.846-.947-71.846 8.05 0 2.384 13.34 10.536 29.646 18.112 37.261 17.318 92.079 57.241 104.385 76.021 8.844 13.497 8.676 15.399-3.041 34.356-6.821 11.037-14.755 20.068-17.63 20.068s-30.837-25.61-62.138-56.911-59.472-56.911-62.602-56.911c-3.209 0-5.691 16.089-5.691 36.884v36.884l25.43-3.485c23.59-3.234 26.884-2.031 45.528 16.612 23.358 23.358 24.114 31.429 9.317 99.483-12.431 57.177-31.257 81.837-49.261 64.524zm-7.074-59.113c2.386-3.754 4.378-9.048 4.426-11.762.078-4.483-85.255.494-90.25 5.262-1.169 1.116-.475 6.329 1.541 11.586 3.147 8.198 9.083 9.001 41.805 5.648 20.977-2.15 40.091-6.979 42.478-10.734zm-50.406-52.371c22.389-5.832 36.114-6.801 43.13-3.045 11.955 6.398 17.48 2.57 17.48-12.113 0-8.686-4.633-10.434-27.662-10.434-50.585 0-80.469 6.276-80.469 16.898 0 19.444 3.674 20.117 47.521 8.694zm-19.129-76.036c-.037-5.122-1.638-18.839-3.562-30.482l-3.499-21.169-27.483 24.014c-31.552 27.57-34.436 36.746-12.345 39.287 27.466 3.16 46.955-1.683 46.889-11.651z"/><g transform="matrix(1.7332 0 0 1.7332 5081.8516 684.61857)" filter="url(#D)"><g fill="#fff"><path d="M-2482.627-183.737c-1.351-2.795-5.199-3.62-8.911-3.345s-7.285 1.649-5.934 4.443 7.627 7.008 11.338 6.733 4.857-5.035 3.506-7.831z" class="D"/><path d="M-2456.026-131.448c-2.026-2.659-8.119-4.398-12.951-4.58s-8.406 1.192-6.381 3.85 9.652 6.598 14.486 6.779 6.872-3.39 4.846-6.049z" transform="rotate(21.25 -2469.546 -134.552)" class="D"/><path d="M-2461.454-134.234c-1.084-1.702-4.933-2.526-8.644-2.252s-7.285 1.649-6.201 3.351 6.827 3.73 10.54 3.454 5.39-2.851 4.305-4.553z" transform="rotate(42.286 -2573.489 -70.519)" class="D"/><path d="M-2500.434-32.941c4.913 2.037 12.173 8.165 12.823 12.272s-5.308 6.186-10.222 4.149-8.772-8.187-9.422-12.294 1.908-6.165 6.821-4.127z" filter="url(#F)"/></g></g><path d="M1099.875 1262.57l-.043 21.064 20.75-16.013-20.707-5.052z" opacity=".8" fill="#fff"/><path d="M1120.582 1267.622l-20.75 16.013-12.661 74.524 20.099-16.719 13.312-73.818z" opacity=".6"/><g fill="#fff"><path d="M367.372 340.273l17.664 13.248 274.969-73.032v-16.402z" opacity=".3"/><path d="M952.633 340.273l-17.664 13.248-274.964-73.032v-16.402z" opacity=".3"/><path d="M952.633 340.273l-17.664 13.248 164.905 909.049 20.707 5.052z" opacity=".3"/></g><path d="M367.372 340.273l17.664 13.248-164.91 909.049-20.707 5.052z" opacity=".4"/><path d="M199.418 1267.622l20.75 16.013 12.661 74.524-20.099-16.719-13.312-73.818z" opacity=".9"/><path d="M220.126 1262.57l.043 21.064-20.75-16.013 20.707-5.052z" opacity=".6"/><path d="M220.126 1262.57h879.749l-.043 21.064H220.168l-.043-21.064z" opacity=".2"/><path d="M1099.832 1283.634l-12.661 74.524H232.829l-12.661-74.524h879.663z" opacity=".7"/><g transform="matrix(.8548 0 0 .8548 1747.523 325.74725)"><path d="M-1256.937 821.213h-30.81V617.064h30.81z"/><path d="M-1272.342 575.925l-50.308 82.278h100.616z"/><circle cx="-1272.342" cy="823.258" r="50.308"/></g></svg>