<svg xmlns="http://www.w3.org/2000/svg" width="498.898" height="544.252" viewBox="0 0 1320 1440" xmlns:v="https://vecta.io/nano"><style><![CDATA[.B{color-interpolation-filters:sRGB}]]></style><defs><linearGradient id="A" x1="236.943" y1="670.458" x2="278.677" y2="670.458" spreadMethod="reflect" gradientUnits="userSpaceOnUse"><stop offset="0" stop-color="#ffd285"/><stop offset=".232" stop-color="#ffcd79"/><stop offset=".616" stop-color="#ffca73"/><stop offset=".808" stop-color="#ffd386"/><stop offset="1" stop-color="#ffc86e"/></linearGradient><linearGradient id="B" x1="660" y1="115.844" x2="670.254" y2="1157.469" gradientUnits="userSpaceOnUse"><stop offset=".604" stop-color="#fff"/><stop offset="1"/></linearGradient><filter id="C" x="-.01" y="-.011" width="1.02" height="1.021" class="B"><feGaussianBlur stdDeviation="2.441"/></filter><filter id="D" x="-.043" y="-.034" width="1.086" height="1.068" class="B"><feGaussianBlur stdDeviation=".392"/></filter><filter id="E" x="-.043" y="-.061" width="1.087" height="1.122" class="B"><feGaussianBlur stdDeviation=".392"/></filter><filter id="F" x="-.048" y="-.065" width="1.095" height="1.13" class="B"><feGaussianBlur stdDeviation=".392"/></filter></defs><path style="mix-blend-mode:multiply" d="M-2765.718 268.206l28.198 35.189h538.751l10.087-9.413-86.673-527.828-31.462-17.601z" transform="matrix(-2.0051 0 0 2.0051 -4355.6821 800.27119)" opacity=".5" filter="url(#C)"/><path d="M660 115.844L254.043 268.378l-139.111 999.236 13.312 73.804 20.099 16.718H1169.89l20.099-16.718 13.312-73.804-137.282-999.246z" fill="url(#A)"/><path d="M660 115.844L253.994 268.369l-137.243 999.246 11.442 73.812 20.099 16.719h1021.563l20.134-16.728 15.13-73.802-139.1-999.248z" opacity=".25" fill="url(#B)" style="mix-blend-mode:overlay"/><g transform="matrix(1.6122 0 0 1.6122 2611.0082 657.29029)"><path d="M-1086.899 71.649l-20.345-12.068-73.7-.07c-60.779-.057-79.558 1.389-107.113 8.247-36.786 9.155-43.009 8.33-68.412-9.069-29.502-20.207-21.112-33.115 17.293-26.607 18.301 3.101 34.03 2.695 62.821-1.621l38.407-5.758-.343-38.579-.343-38.579-31.097 1.457c-28.064 1.314-32.67.416-47.22-9.213-10.267-6.794-16.123-13.768-16.123-19.202 0-7.771 1.363-8.22 15.259-5.029 16.167 3.713 66.812 3.637 76.59-.115 6.863-2.634 8.315-60.461 1.938-77.232-3.678-9.674-5.356-10.146-34.116-9.596-27.218.521-31.722-.545-44.96-10.642-24.767-18.891-16.638-38.67 10.191-24.796 16.369 8.464 70.74 6.274 105.63-4.256 12.13-3.661 29.379-8.553 38.33-10.873s22.357-6.82 29.789-10.001c12.311-5.27 14.515-5.071 24.775 2.236 32.012 22.795 26.252 29.547-33.251 38.982-25.15 3.988-49.905 8.786-55.013 10.662-9.195 3.379-9.215 3.542-2.034 16.687 4.076 7.462 8.142 25.748 9.286 41.758l2.034 28.483 16.225-1.412c8.923-.777 21.192-3.981 27.264-7.121 16.841-8.709 30.338-6.889 44.809 6.04 17.989 16.073 11.719 22.915-24.246 26.455l-46.759 5.152-19.328 2.452v41.866 41.866l46.031-2.267c54.27-2.673 70.148 1.256 88.211 21.829 13.371 15.229 13.651 27.018.881 37.056-8.494 6.677-7.86 6.821-31.363-7.121z"/><g fill="#fff"><path d="M-2511.772-200.939c5.302.635 15.589 12.044 16.808 18.975s-6.631 9.372-11.932 8.737-8.05-4.346-9.269-11.273-.909-17.074 4.393-16.439z" transform="matrix(.9525 0 0 .9525 1320.7699 226.03362)" filter="url(#D)"/><path d="M-2508.172-185.09c5.833 2.027 15.644 8.993 16.096 12.308s-8.459 2.973-14.289.946-8.58-5.738-9.032-9.05 1.393-6.231 7.226-4.204z" transform="matrix(.9525 0 0 .9525 1276.3351 78.286938)" filter="url(#E)"/><path d="M-2508.095-182.105c4.926 2.478 12.444 9.086 12.651 11.767s-6.897 1.434-11.825-1.045-7.676-6.19-7.883-8.871 2.131-4.33 7.057-1.851z" transform="matrix(.9525 0 0 .9525 1273.5576 -53.351947)" filter="url(#F)"/></g></g><path d="M1182.559 1262.571l-.043 21.064 20.75-16.013-20.707-5.052z" opacity=".8" fill="#fff"/><path d="M1203.266 1267.622l-20.75 16.013-12.661 74.512 20.099-16.719 13.312-73.805z" opacity=".6"/><g fill="#fff"><path d="M254.044 268.378l17.664 13.248 388.293-149.381v-16.402z" opacity=".3"/><path d="M1066.019 268.368l-17.664 13.248L660 132.246v-16.402z" opacity=".3"/><path d="M1064.146 251.267l-17.664 13.248 138.452 996.966 20.707 5.052z" opacity=".3"/></g><path d="M253.994 268.369l17.664 13.248-136.07 980.953-20.707 5.052z" opacity=".4"/><path d="M114.881 1267.622l20.75 16.013 12.661 74.512-20.099-16.719-13.312-73.805z" opacity=".9"/><path d="M135.588 1262.571l.043 21.064-20.75-16.013 20.707-5.052z" opacity=".6"/><path d="M135.588 1262.571h1046.971l-.043 21.064H135.631z" opacity=".2"/><path d="M1182.516 1283.635l-12.661 74.512H148.292l-12.661-74.512z" opacity=".7"/><g transform="matrix(.8548 0 0 .8548 1747.523 325.74745)"><path d="M-1025.008 807.854v30.81h-250.315v-30.81z"/><path d="M-1275.323 807.854v30.81h-244.352v-30.81z"/><path d="M-1256.353 1071.147h-31.394V821.213h31.394z"/><path d="M-1256.937 821.213h-30.81V575.925h30.81zm231.929 227.593l-21.475 21.475-225.27-225.27 21.475-21.475z"/><path d="M-1273.02 802.151l-21.108 21.108-225.548-225.548 21.108-21.108zm-224.869 268.996l-21.133-21.133 225.825-225.825 21.133 21.133zm247.451-247.452l-22.063-22.063 225.707-225.707 22.063 22.063z"/><circle cx="-1272.342" cy="823.258" r="50.308"/></g></svg>