<svg xmlns="http://www.w3.org/2000/svg" xmlns:xlink="http://www.w3.org/1999/xlink" width="498.898" height="544.252" viewBox="0 0 1320 1440" xmlns:v="https://vecta.io/nano"><style><![CDATA[.B{color-interpolation-filters:sRGB}]]></style><defs><linearGradient id="A" x1="228.547" y1="662.072" x2="270.281" y2="662.072" spreadMethod="reflect" gradientUnits="userSpaceOnUse"><stop offset="0" stop-color="#ffd285"/><stop offset=".232" stop-color="#ffcd79"/><stop offset=".616" stop-color="#ffca73"/><stop offset=".808" stop-color="#ffd386"/><stop offset="1" stop-color="#ffc86e"/></linearGradient><linearGradient id="B" x1="660.031" y1="178.153" x2="660.029" y2="1149.083" gradientUnits="userSpaceOnUse"><stop offset=".604" stop-color="#fff"/><stop offset="1"/></linearGradient><filter id="C" x="-.011" y="-.011" width="1.021" height="1.022" class="B"><feGaussianBlur stdDeviation="2.441"/></filter><filter id="D" x="-.023" y="-.037" width="1.045" height="1.074" class="B"><feGaussianBlur stdDeviation=".201"/></filter><filter id="E" x="-.041" y="-.043" width="1.081" height="1.085" class="B"><feGaussianBlur stdDeviation=".201"/></filter><filter id="F" x="-.024" y="-.036" width="1.048" height="1.072" class="B"><feGaussianBlur stdDeviation=".201"/></filter><filter id="G" x="-.026" y="-.036" width="1.053" height="1.073" class="B"><feGaussianBlur stdDeviation=".201"/></filter><path id="H" d="M-2490.279-28.919c2.955 1.031 6.529 4.742 6.735 7.422s-2.955 4.33-5.91 3.299-5.704-4.742-5.91-7.422 2.131-4.33 5.086-3.299z"/></defs><path style="mix-blend-mode:multiply" d="M-2758.487 273.13l24.394 31.47h517.576l14.375-11.25-104.69-501.167-31.462-17.601z" transform="matrix(-2.0051 0 0 2.0051 -4364.0778 802.13526)" opacity=".5" filter="url(#C)"/><path d="M660.043 178.151L306.898 295.079l-167.217 974.019 13.312 80.689 20.099 16.719h973.903l20.099-16.719 13.312-80.689-167.217-974.019z" fill="url(#A)"/><path d="M660.031 178.153L306.887 295.081 139.67 1269.1l13.312 73.816 20.099 16.718h973.903l20.099-16.718 13.312-73.816-167.217-974.019z" opacity=".25" fill="url(#B)" style="mix-blend-mode:overlay"/><g transform="matrix(1.6577 0 0 1.6577 2675.2344 667.44733)"><path d="M-1159.266 50.561c-13.014-14.453-24.179-27.713-24.811-29.468-2.356-6.546 10.987-2.851 25.798 7.145 8.422 5.684 16.786 10.335 18.585 10.335 4.539 0 4.256-112.299-.303-120.819-2.986-5.58-5.973-6.337-18.087-4.587-20.911 3.021-33.456 9.035-33.456 16.039 0 5.306 2.299 5.809 18.085 3.957 15.408-1.808 19.019-1.089 24.39 4.851 5.065 5.603 5.548 8.382 2.462 14.149-3.233 6.041-7.093 7.176-24.388 7.176-18.67 0-20.548.671-20.548 7.338 0 6.705 1.395 7.181 16.187 5.513 19.795-2.231 30.669 1.511 33.891 11.665 3.569 11.247-6.355 16.823-29.938 16.823h-19.882l-.991 31.866-.99 31.866h-12.057-12.057l-.036-30.832-.036-30.832-18.909-.014-18.909-.014-1.723 24.706c-1.92 27.535-7.968 37.575-20.278 33.667-12.45-3.951-13.757-16.994-7.091-70.746 2.467-19.895 4.597-47.023 4.731-60.287l.245-24.115-13.78-.918c-19.638-1.31-29.282-3.866-29.282-7.761 0-1.859 2.911-3.379 6.469-3.379 14.751 0 34.66-12.64 59.394-37.711 14.435-14.632 28.926-30.694 32.202-35.695 5.732-8.748 5.667-9.561-1.706-21.492-5.015-8.116-6.495-13.569-4.28-15.783 5.189-5.189 20.52.109 32.383 11.191 10.407 9.722 10.951 12.935 4.747 28.007-2.206 5.359-.118 6.029 18.783 6.029 11.695 0 24.185-1.563 27.753-3.473 9.513-5.091 28.903 6.442 30.285 18.012 1.271 10.647-10.225 19.809-41.832 33.338-26.959 11.54-35.495 16.518-32.853 19.16 1.156 1.155 8.894.37 17.195-1.746 28.098-7.158 34.582-7.603 43.797-3.002 22.011 10.989 21.251 7.868 21.246 87.238 0 62.285-.867 74.394-6.029 84.728-9.906 19.829-17.449 17.768-44.369-12.126zm-54.667-78.606c0-5.357-3.097-6.419-20.13-6.902-20.856-.592-24.934 1.324-21.557 10.126 1.517 3.954 6.671 4.931 21.837 4.141 16.594-.865 19.85-2.073 19.85-7.365zm-3.241-33.617c3.968-6.42-6.367-12.877-22.488-14.051-12.302-.896-15.633.058-16.586 4.752-1.867 9.198 33.878 17.705 39.074 9.299zm-13.542-39.197c1.072-2.793 15.75-13.951 32.619-24.796s30.669-20.753 30.669-22.019-11.233-3.104-24.963-4.087l-24.964-1.786-22.404 20.85c-12.323 11.467-22.954 22.237-23.626 23.934-1.976 4.992 10.77 12.754 21.138 12.873 5.346.061 10.443-2.135 11.53-4.969z"/><g fill="#fff" transform="matrix(.903 0 0 .903 1091.5983 3.685813)"><path d="M-2545.152-234.931c4.575 2.02 11.391 7.71 11.597 10.391s-6.195 2.351-10.771.331-7.325-5.731-7.531-8.412 2.131-4.33 6.706-2.31z" filter="url(#G)"/><path d="M-2465.551-191.592c5.004 2.062 12.677 7.837 12.883 10.518s-7.053 2.266-12.058.204-7.754-5.774-7.96-8.454 2.131-4.33 7.135-2.268z" filter="url(#F)"/><path d="M-2462.339-121.217c5.33 1.924 13.654 7.424 13.86 10.104s-7.704 2.542-13.035.617-8.079-5.636-8.286-8.316 2.131-4.33 7.46-2.405z" filter="url(#D)"/><use xlink:href="#H" filter="url(#E)"/><use xlink:href="#H" x="-5.361" y="-46.184" filter="url(#E)"/></g></g><path d="M1159.664 1264.056l-.043 21.064 20.75-16.013-20.707-5.052z" opacity=".8" fill="#fff"/><path d="M1180.371 1269.107l-20.75 16.013-12.661 81.397 20.099-16.719 13.312-80.69z" opacity=".6"/><g fill="#fff"><path d="M306.85 295.071l17.664 13.248L660 194.543v-16.402z" opacity=".3"/><path d="M1013.15 295.071l-17.664 13.248L660 194.543v-16.402z" opacity=".3"/><path d="M1013.15 295.071l-17.664 13.248 164.177 955.737 20.707 5.052z" opacity=".3"/></g><path d="M306.85 295.071l17.664 13.248-164.177 955.737-20.707 5.052z" opacity=".4"/><path d="M139.629 1269.107l20.75 16.013 12.661 81.397-20.099-16.719-13.312-80.69z" opacity=".9"/><path d="M160.337 1264.056l.043 21.064-20.75-16.013 20.707-5.052z" opacity=".6"/><path d="M160.337 1264.056h999.327l-.043 21.064H160.379l-.043-21.064z" opacity=".2"/><path d="M1159.621 1285.12l-12.661 81.397H173.04l-12.661-81.397h999.241z" opacity=".7"/><g transform="matrix(.8548 0 0 .8548 1747.523 327.23246)"><path d="M-1519.675 1070.592l22.606-93.752 71.146 71.146zm494.667-494.667l-93.752 22.606 71.146 71.146zm0 494.667l-93.752-22.606 71.146-71.146zm-494.667-494.667l22.606 93.752 35.573-35.573 35.573-35.573z"/><path d="M-1055.424 1018.39l-21.475 21.475-194.855-194.855 21.475-21.475zm-217.596-216.239l-21.108 21.108-190.848-190.848 21.108-21.108zm-198.371 242.498l-21.133-21.133 199.327-199.327 21.133 21.133z"/><path d="M-1250.438 823.695l-22.063-22.063 196.775-196.775 22.063 22.063z"/><circle cx="-1272.342" cy="823.258" r="50.308"/></g></svg>