<svg xmlns="http://www.w3.org/2000/svg" xmlns:xlink="http://www.w3.org/1999/xlink" width="498.898" height="544.252" viewBox="0 0 1320 1440" xmlns:v="https://vecta.io/nano"><style><![CDATA[.C{filter:url(#D)}.D{color-interpolation-filters:sRGB}]]></style><defs><linearGradient id="A" x1="-1430.769" y1="-77.47" x2="-1409.955" y2="-77.47" spreadMethod="reflect" gradientUnits="userSpaceOnUse"><stop offset="0" stop-color="#ffd285"/><stop offset=".232" stop-color="#ffcd79"/><stop offset=".616" stop-color="#ffca73"/><stop offset=".808" stop-color="#ffd386"/><stop offset="1" stop-color="#ffc86e"/></linearGradient><linearGradient id="B" x1="-899.903" y1="-319.311" x2="-899.906" y2="125.211" gradientUnits="userSpaceOnUse"><stop offset=".599" stop-color="#fff"/><stop offset="1"/></linearGradient><filter id="C" x="-.012" y="-.011" width="1.024" height="1.023" class="D"><feGaussianBlur stdDeviation="2.441"/></filter><filter id="D" x="-.079" y="-.083" width="1.159" height="1.166" class="D"><feGaussianBlur stdDeviation=".392"/></filter><path id="E" d="M-2567.052-177.85c2.955 1.031 6.529 4.742 6.735 7.422s-2.955 4.33-5.91 3.299-5.704-4.742-5.91-7.422 2.131-4.33 5.086-3.299z"/></defs><path style="mix-blend-mode:multiply" d="M-2728.669 265.144l28.198 35.189h455.354l10.087-9.413-101.985-483.44-31.462-17.601z" transform="matrix(-2.0051 0 0 2.0051 -4364.0778 816.66224)" opacity=".5" filter="url(#C)"/><path d="M-1215.568-283.246l-145.942 38.045-83.762 462.487 6.639 36.814 10.024 8.338h426.077l10.024-8.338 6.639-36.814-83.759-462.487z" fill="url(#A)" transform="matrix(2.0051 0 0 2.0051 3097.3821 831.9343)"/><path d="M-899.903-323.401l-145.942 37.996-83.762 462.487 6.639 36.814 10.024 8.338h426.077l10.024-8.338 6.639-36.814-83.759-462.487z" opacity=".25" fill="url(#B)" transform="matrix(2.0051 0 0 2.0051 2464.4309 912.5491)" style="mix-blend-mode:overlay"/><g transform="matrix(1.8041 0 0 1.8041 5267.989 682.45167)"><path d="M-2577.102 52.997c-16.549-8.981-19.376-23.989-7.237-38.416 8.416-10.002 7.629-13.246-3.217-13.246-9.03 0-15.642-10.411-18.411-28.992-1.218-8.169-3.546-15.676-5.174-16.682-5.004-3.093-3.284-7.743 2.865-7.743 8.575 0 22.454 14.237 22.454 23.032 0 4.191 2.104 9.367 4.676 11.502 6.629 5.501 8.431-.793 7.269-25.382-.93-19.667-1.118-20.051-10.16-20.735-5.067-.383-13.276-2.38-18.242-4.437-11.84-4.904-14.65-1.802-19.187 21.186-3.27 16.564-4.416 18.401-11.488 18.401-6.55 0-8.018-1.681-8.833-10.118-1.189-12.303 5.8-27.778 19.798-43.843l10.479-12.026 3.34 8.641c2.853 7.38 5.13 8.641 15.602 8.641 24.138 0 25.833-16.56 2.819-27.555-8.209-3.922-14.925-8.427-14.925-10.012s7.777-11.799 17.282-22.697c18.48-21.19 19.93-24.751 12.569-30.86-2.592-2.151-4.713-6.662-4.713-10.023 0-4.868 1.438-5.682 7.07-4.001 12.667 3.781 21.069 10.796 23.227 19.395 1.809 7.205.214 10.071-10.948 19.685-7.186 6.189-13.065 12.466-13.065 13.95 0 3.512 28.042-.331 33.11-4.538 2.798-2.322 6.644-.917 13.671 4.997 17.103 14.391 11.06 20.537-21.119 21.479-13.715.402-14.597.935-13.608 8.235 1.591 11.747 4.585 13.123 17.139 7.878 14.834-6.198 53.012-6.309 64.848-.188 16.572 8.57 17.186 23.512 1.572 38.237-9.622 9.075-13.435 10.583-26.752 10.583-16.956 0-24.419-3.181-39.525-16.85-14.244-12.888-17.883-8.932-16 17.39.853 11.924 2.412 22.541 3.464 23.593s8.226-.498 15.942-3.445c13.137-5.017 14.541-5.023 22.066-.092 13.61 8.917 10.222 14.806-13.174 22.898-31.576 10.922-50.793 31.92-29.213 31.92 5.104 0 12.875-1.638 17.269-3.641 6.658-3.034 9.041-2.69 14.288 2.058 9.693 8.772 7.894 16.542-5.084 21.965-14.264 5.96-31.604 5.902-42.743-.143zm79.229-116.037c9.318-11.227-7.366-19.244-29.609-14.227-18.066 4.075-20.528 8.474-7.828 13.985 13.989 6.07 32.501 6.19 37.437.242z" fill="maroon"/><g fill="#fff"><use xlink:href="#E" class="C"/><use xlink:href="#E" x="32.947" y="48.587" class="C"/><use xlink:href="#E" x="85.357" y="89.893" class="C"/><use xlink:href="#E" x="38.349" y="156.282" class="C"/><use xlink:href="#E" x="28.453" y="210.712" class="C"/></g></g><path d="M1099.875 1262.57l-.043 21.064 20.75-16.013-20.707-5.052z" opacity=".8" fill="#fff"/><path d="M1120.582 1267.622l-20.75 16.013-12.661 74.524 20.099-16.719 13.312-73.818z" opacity=".6"/><g fill="#fff"><path d="M367.372 340.273l17.664 13.248 274.969-73.032v-16.402z" opacity=".3"/><path d="M952.633 340.273l-17.664 13.248-274.964-73.032v-16.402z" opacity=".3"/><path d="M952.633 340.273l-17.664 13.248 164.905 909.049 20.707 5.052z" opacity=".3"/></g><path d="M367.372 340.273l17.664 13.248-164.91 909.049-20.707 5.052z" opacity=".4"/><path d="M199.418 1267.622l20.75 16.013 12.661 74.524-20.099-16.719-13.312-73.818z" opacity=".9"/><path d="M220.126 1262.57l.043 21.064-20.75-16.013 20.707-5.052z" opacity=".6"/><path d="M220.126 1262.57h879.749l-.043 21.064H220.168l-.043-21.064z" opacity=".2"/><path d="M1099.832 1283.634l-12.661 74.524H232.829l-12.661-74.524h879.663z" opacity=".7"/><g transform="matrix(.8548 0 0 .8548 1747.523 320.69425)" fill="#7f0000"><path d="M-1025.008 807.854v30.81h-250.315v-30.81z"/><path d="M-1275.323 807.854v30.81h-244.352v-30.81z"/><path d="M-1256.353 1071.147h-31.394V821.213h31.394z"/><path d="M-1256.937 821.213h-30.81V575.925h30.81z"/><path d="M-1273.02 802.151l-21.108 21.108-225.548-225.548 21.108-21.108zm22.582 21.544l-22.063-22.063 225.707-225.707 22.063 22.063z"/><circle cx="-1272.342" cy="823.258" r="50.308"/></g></svg>