<svg xmlns="http://www.w3.org/2000/svg" xmlns:xlink="http://www.w3.org/1999/xlink" width="498.898" height="544.252" viewBox="0 0 1320 1440" xmlns:v="https://vecta.io/nano"><style><![CDATA[.C{filter:url(#E)}.D{color-interpolation-filters:sRGB}]]></style><defs><linearGradient id="A" x1="-1430.769" y1="-77.47" x2="-1409.955" y2="-77.47" spreadMethod="reflect" gradientUnits="userSpaceOnUse"><stop offset="0" stop-color="#ffd285"/><stop offset=".232" stop-color="#ffcd79"/><stop offset=".616" stop-color="#ffca73"/><stop offset=".808" stop-color="#ffd386"/><stop offset="1" stop-color="#ffc86e"/></linearGradient><linearGradient id="B" x1="-1215.571" y1="-296.329" x2="-1215.572" y2="165.415" gradientUnits="userSpaceOnUse"><stop offset=".601" stop-color="#fff"/><stop offset="1"/></linearGradient><filter id="C" x="-.012" y="-.011" width="1.024" height="1.023" class="D"><feGaussianBlur stdDeviation="2.441"/></filter><filter id="D" x="-.015" y="-.011" width="1.03" height="1.022" class="D"><feGaussianBlur stdDeviation=".599"/></filter><filter id="E" x="-.079" y="-.083" width="1.159" height="1.166" class="D"><feGaussianBlur stdDeviation=".392"/></filter><path id="F" d="M-1215.571-296.329l-149.881 40.669-79.82 472.51 6.639 36.814 10.024 8.338h426.077l10.024-8.338 6.639-36.814-79.82-472.51z"/><path id="G" d="M-2510.066-183.552c2.955 1.031 6.529 4.742 6.735 7.422s-2.955 4.33-5.91 3.299-5.704-4.742-5.91-7.422 2.131-4.33 5.086-3.299z"/></defs><path style="mix-blend-mode:multiply" d="M-2728.669 264.709l28.198 35.189h455.354l10.087-9.413-98.043-493.462-31.462-17.601z" transform="matrix(-2.0051 0 0 2.0051 -4364.0778 816.66224)" opacity=".5" filter="url(#C)"/><use xlink:href="#F" fill="url(#A)" transform="matrix(2.0051 0 0 2.0051 3097.3821 831.9343)"/><use xlink:href="#F" x="315.666" y="-40.204" opacity=".25" fill="url(#B)" transform="matrix(2.0051 0 0 2.0051 2464.4309 912.54909)" style="mix-blend-mode:overlay"/><path d="M619.196 770.393l-23.761-16.127-14.554 13.672c-19.871 18.669-31.117 12.511-60.524-33.134-13.727-21.309-26.813-38.769-29.076-38.801s-7.794 4.373-12.285 9.785-13.121 9.842-19.175 9.842c-28.944 0-35.745-39.351-11.99-69.376 30.462-38.501 102.551-149.657 99.871-153.996-1.533-2.481-15.829-1.528-31.766 2.118-25.582 5.854-31.367 4.93-49.36-7.883-11.211-7.983-20.383-20.219-20.383-27.19 0-11.369 4.937-12.675 47.895-12.675 28.503 0 51.082-3.188 55.768-7.873 10.966-10.966 9.823-41.497-2.444-65.216-13.954-26.983-8.147-38.447 19.475-38.447 37.825 0 65.947 50.678 40.048 72.171-5.412 4.492-9.842 10.759-9.842 13.925 0 8.072 28.734 7.205 37.055-1.117 4.791-4.793 12.108-4.49 24.149.995 19.579 8.921 28.952 29.883 18.178 40.658-12.248 12.247-8.032 18.676 10.83 16.506 17.517-2.014 18.042-3.258 17.999-42.591-.034-31.644-3.267-44.876-14.763-60.423-19.061-25.781-18.606-37.722 1.629-42.801 19.629-4.926 54.364 8.672 71.618 28.037 10.962 12.305 11.574 17.187 4.922 39.393-4.176 13.941-7.595 33.438-7.595 43.33 0 14.475 2.239 17.1 11.482 13.46 6.315-2.488 26.244-6.059 44.287-7.941 29.043-3.026 34.593-1.498 48.396 13.327 26.795 28.78 21.849 31.77-89.403 54.071-9.541 1.912-14.763 7.713-14.763 16.398 0 9.7 3.193 12.508 11.482 10.09 6.315-1.842 24.975-5.249 41.468-7.57 26.283-3.701 32.563-2.054 50.848 13.331 39.737 33.436 27.223 42.631-58.02 42.631-59.106 0-73.29 5.622-58.66 23.25 5.291 6.374 20.715 9.555 46.341 9.555 34.129 0 39.657 1.902 49.592 17.065 17.814 27.188 5.547 38.704-41.228 38.704-33.667 0-38.78 1.676-40.439 13.253-1.738 12.135 1.676 13.242 40.503 13.121 55.999-.172 79.494 15.511 79.494 53.067 0 22.984-1.804 25.744-18.057 27.613-10.788 1.242-26.092-3.646-38.025-12.14-31.105-22.148-78.923-23.623-135.857-4.188l-47.596 16.248zm65.932-52.184c5.709-2.19 10.378-9.571 10.378-16.403 0-9.495-4.754-12.42-20.188-12.42-13.69 0-26.533-6.345-39.902-19.714-22.864-22.864-21.523-36.755 3.32-34.413 56.091 5.287 53.372 5.929 55.564-13.121 1.981-17.213.775-18.044-26.244-18.068-16.361-.018-37.063-5.355-49.023-12.647-11.387-6.943-22.459-10.868-24.603-8.723-5.611 5.613-4.623 115.105 1.121 123.973 8.337 12.871 66.562 20.371 89.577 11.539zm-135.338-73.636c1.061-29.852-.784-53.599-4.166-53.599-8.147 0-23.34 24.043-34.118 53.994-8.254 22.932-7.823 25.516 6.846 41.131 8.61 9.164 18.776 15.629 22.592 14.368 3.906-1.291 7.771-25.721 8.844-55.894zm152.277-89.148c0-1.509 1.793-7.415 3.983-13.121 3.057-7.969-.369-10.384-14.763-10.403-23.869-.031-61.753-22.909-66.221-39.988-3.911-14.953-20.097-14.264-29.879 1.272-11.909 18.912-.089 43.072 26.449 54.08 22.095 9.164 80.429 15.082 80.429 8.161z"/><g transform="matrix(1.9082 0 0 1.9082 5533.9934 699.96098)" filter="url(#D)"><g fill="#fff"><use xlink:href="#G" class="C"/><use xlink:href="#G" x="56.905" y="58.554" class="C"/><use xlink:href="#G" x="-87.419" y="-1.65" class="C"/><use xlink:href="#G" x="-49.72" y="43.306" class="C"/><use xlink:href="#G" x="59.379" y="106.387" class="C"/><use xlink:href="#G" x="47.05" y="157.198" class="C"/><use xlink:href="#G" x="61.028" y="204.527" class="C"/></g></g><path d="M1099.874 1261.697l-.043 21.064 20.75-16.013-20.707-5.052z" opacity=".8" fill="#fff"/><path d="M1120.582 1266.748l-20.75 16.013-12.661 74.524 20.099-16.719 13.312-73.818z" opacity=".6"/><g fill="#fff"><path d="M359.469 319.303l17.664 13.248L660 254.157v-16.402z" opacity=".3"/><path d="M960.531 319.303l-17.664 13.248L660 254.157v-16.402z" opacity=".3"/><path d="M960.531 319.303l-17.664 13.248 157.007 929.146 20.707 5.052z" opacity=".3"/></g><path d="M359.469 319.303l17.664 13.248-157.007 929.146-20.707 5.052z" opacity=".4"/><path d="M199.419 1266.748l20.75 16.013 12.661 74.524-20.099-16.719-13.312-73.818z" opacity=".9"/><path d="M220.126 1261.697l.043 21.064-20.75-16.013 20.707-5.052z" opacity=".6"/><path d="M220.126 1261.697h879.749l-.043 21.064H220.169l-.043-21.064z" opacity=".2"/><path d="M1099.831 1282.761l-12.661 74.524H232.829l-12.661-74.524h879.663z" opacity=".7"/><path d="M660 1235.238c-24.373-122.933-39.538-269.396-70.15-339.955s-76.665-65.203-113.515-83.379c24.573 19.377 49.146 38.753 79.756 109.309S623.35 1113.503 660 1235.238z"/><path d="M660 1235.238c24.373-122.933 39.538-269.396 70.15-339.955s76.665-65.203 113.515-83.379c-24.573 19.377-49.146 38.753-79.756 109.309S696.649 1113.503 660 1235.238z"/><circle cx="-1297.586" cy="1020.051" r="50.308" transform="matrix(.8548 0 0 .8548 1769.2215 320.25778)"/></svg>