<svg xmlns="http://www.w3.org/2000/svg" xmlns:xlink="http://www.w3.org/1999/xlink" width="498.898" height="544.252" viewBox="0 0 1320 1440" xmlns:v="https://vecta.io/nano"><style><![CDATA[.C{color-interpolation-filters:sRGB}.D{filter:url(#G)}]]></style><defs><linearGradient id="A" x1="228.547" y1="660.584" x2="270.281" y2="660.584" spreadMethod="reflect" gradientUnits="userSpaceOnUse"><stop offset="0" stop-color="#ffd285"/><stop offset=".232" stop-color="#ffcd79"/><stop offset=".616" stop-color="#ffca73"/><stop offset=".808" stop-color="#ffd386"/><stop offset="1" stop-color="#ffc86e"/></linearGradient><linearGradient id="B" x1="660.031" y1="176.665" x2="660.029" y2="1147.595" gradientUnits="userSpaceOnUse"><stop offset=".6" stop-color="#fff"/><stop offset="1"/></linearGradient><filter id="C" x="-.048" y="-.037" width="1.096" height="1.075" class="C"><feGaussianBlur stdDeviation=".392"/></filter><filter id="D" x="-.044" y="-.068" width="1.088" height="1.136" class="C"><feGaussianBlur stdDeviation=".392"/></filter><filter id="E" x="-.056" y="-.081" width="1.112" height="1.162" class="C"><feGaussianBlur stdDeviation=".392"/></filter><filter id="F" x="-.068" y="-.05" width="1.137" height="1.099" class="C"><feGaussianBlur stdDeviation=".392"/></filter><filter id="G" x="-.079" y="-.083" width="1.159" height="1.166" class="C"><feGaussianBlur stdDeviation=".392"/></filter><path id="H" d="M-1180.363-173.925c2.955 1.031 6.529 4.742 6.735 7.422s-2.955 4.33-5.91 3.299-5.704-4.742-5.91-7.422 2.13-4.33 5.086-3.299z"/><filter id="I" x="-.011" y="-.011" width="1.021" height="1.022" class="C"><feGaussianBlur stdDeviation="2.441"/></filter></defs><path style="mix-blend-mode:multiply" d="M-2758.546 269.702l24.453 34.897h517.576l14.375-11.25-104.69-501.167-31.462-17.601z" transform="matrix(-2.0051 0 0 2.0051 -4364.0776 800.64872)" opacity=".5" filter="url(#I)"/><path d="M660.043 176.664L306.898 293.591 139.681 1267.61l13.3 73.818 20.099 16.718h973.903l20.099-16.718 13.324-73.818-167.217-974.019z" fill="url(#A)"/><path d="M660.031 176.665L306.887 293.593 139.67 1267.612l13.312 73.816 20.099 16.718h973.903l20.099-16.718 13.312-73.816-167.217-974.019z" opacity=".25" fill="url(#B)" style="mix-blend-mode:overlay"/><path d="M772.12 788.058c-17.694-3.916-40.083-16.141-56.845-31.039l-27.655-24.578v-75.965c0-76.461-2.084-82.73-25.079-75.433-10.217 3.243-11.702 13.113-11.702 77.724 0 78.693-8.713 122.497-25.66 129.002-7.058 2.708-24.883-11.566-55.732-44.633l-45.355-48.613-25.302 24.706c-33.619 32.829-59.363 41.52-94.752 31.992-34.339-9.247-34.921-17.322-1.631-22.646 19.361-3.097 33.281-12.159 56.024-36.474 40.267-43.047 52.822-81.294 19.947-60.764-23.976 14.974-81.805-20.057-72.619-43.993 3.114-8.113 9.973-9.428 31.347-6.012 22.284 3.564 71.862-5.142 85.727-15.053 1.322-.944-1.688-11.156-6.688-22.694-8.176-18.87-11.342-20.618-31.523-17.409-28.023 4.454-62.441-2.012-59.393-11.159 1.26-3.782 16.173-10.923 33.137-15.87 33.052-9.637 65.407-40.769 65.407-62.931 0-9.638 4.708-12.861 18.785-12.861 46.258 0 54.872 38.437 14.654 65.376-25.786 17.273-32.953 28.25-18.442 28.25 5.182 0 16.609 7.649 25.392 16.997 9.192 9.784 21.747 16.17 29.589 15.047 12.571-1.8 13.433-5.811 11.196-52.107-1.332-27.587-5.09-55.214-8.345-61.397-4.023-7.633-2.629-14.533 4.346-21.507 9.233-9.233 12.625-9.144 33.633.873 26.469 12.622 35.195 34.415 23.796 59.43-8.107 17.793-10.191 57.841-3.365 64.667 2.294 2.294 15.394-1.554 29.112-8.552l24.94-12.725 22.573 18.844c19.774 16.508 21.436 20.213 13.403 29.89-5.042 6.076-7.496 12.72-5.451 14.763 5.352 5.353 36.46-16.306 41.212-28.696 5.056-13.177-7.477-28.845-23.072-28.845-18.97 0-51.923-35.542-56.736-61.193-2.41-12.846-1.521-39.096 1.975-58.333l6.358-34.978-20.885 4.163c-11.487 2.289-38.432 8.462-59.879 13.721s-44.833 9.558-51.972 9.558c-17.133 0-67.292-33.459-64.206-42.828 1.334-4.052 27.602-9.278 58.731-11.69 55.631-4.308 85.234-10.362 121.954-24.945 28.716-11.404 47.605-9.028 63.604 8.001 18.398 19.586 18.223 23.746-2.178 51.397-23.892 32.384-22.299 44.151 3.902 28.8 23.15-13.564 42.075-51.344 36.615-73.099-8.028-31.988 31.13-34.405 58.846-3.633 12.104 13.438 12.104 14.442 0 39.221-15.112 30.934-74.303 68.9-107.425 68.9-25.177 0-25.488.666-12.246 26.272 11.428 22.097 22.134 27.228 56.82 27.228 28.195 0 46.384-14.627 35.348-28.422-12.871-16.089-16.579-38.454-6.373-38.454 16.996 0 71.613 53.407 71.613 70.026 0 16.535-32.908 36.976-59.526 36.976-16.878 0-17.537 5.401-3.169 25.912 10.182 14.537 10.018 16.363-2.594 28.977-7.953 7.953-26.03 14.878-44.172 16.923-33.121 3.733-35.46 10.89-5.961 18.251 36.267 9.051 54.172 42.078 33.836 62.414-14.272 14.272-31.004 8.582-50.152-17.054-27.053-36.22-37.702-43.493-43.34-29.597-6.943 17.115-6.269 50.433 1.468 72.628 13.039 37.404 70.836 52.761 116.539 30.965 26.592-12.681 27.365-15.098 14.264-44.563-15.914-35.79-24.095-65.775-19.83-72.677 2.242-3.628 21.847 13.092 43.565 37.156s45.149 45.548 52.07 47.745c16.391 5.203 22.211 21.237 13.569 37.385-16.816 31.419-109.904 55.658-166.039 43.234zm-173.962-97.695c2.493-8.923 4.834-33.527 5.2-54.677.575-33.159-1.033-38.454-11.672-38.454-14.329 0-25.737 12.56-46.391 51.067-14.844 27.678-19.253 45.856-9.818 40.5 2.759-1.566 14.045 2.536 25.079 9.119 24.667 14.713 31.779 13.283 37.602-7.556z"/><g fill="#fff"><g transform="matrix(1.5791 0 0 1.5791 2499.8096 701.32303)"><path d="M-1020.442-7.827c2.956 1.031 13.365 11.788 16.992 17.995s.466 7.857-2.489 6.826-5.704-4.742-9.329-10.945-8.13-14.907-5.174-13.876z" filter="url(#C)"/><path d="M-1116.142-238.686c5.324 2.246 13.637 8.389 13.843 11.07s-7.692 1.899-13.017-.348-8.074-5.958-8.28-8.638 2.13-4.33 7.454-2.084z" filter="url(#D)"/><path d="M-1057.48-245.476c4.195 1.229 10.247 5.337 10.453 8.018s-5.433 3.933-9.628 2.704-6.944-4.94-7.15-7.621 2.13-4.33 6.325-3.101z" filter="url(#E)"/><path d="M-1042.458-155.358c2.956 1.031 9.53 8.651 11.238 13.288s-1.453 6.287-4.408 5.256-5.704-4.742-7.412-9.376-2.374-10.199.582-9.168z" filter="url(#F)"/><use xlink:href="#H" class="D"/><use xlink:href="#H" x="-51.957" y="3.299" class="D"/><use xlink:href="#H" x="98.964" y="135.252" class="D"/></g><path d="M1159.664 1262.568l-.043 21.064 20.75-16.013-20.707-5.052z" opacity=".8"/></g><path d="M1180.371 1267.619l-20.75 16.013-12.637 74.514 20.099-16.718 13.288-73.808z" opacity=".6"/><g fill="#fff"><path d="M306.85 293.583l17.664 13.248L660 193.055v-16.402z" opacity=".3"/><path d="M1013.15 293.583l-17.664 13.248L660 193.055v-16.402z" opacity=".3"/><path d="M1013.15 293.583l-17.664 13.248 164.177 955.737 20.707 5.052z" opacity=".3"/></g><path d="M306.85 293.583l17.664 13.248-164.177 955.737-20.707 5.052z" opacity=".4"/><path d="M139.629 1267.619l20.75 16.013 12.702 74.514-20.099-16.718-13.353-73.808z" opacity=".9"/><path d="M160.337 1262.568l.043 21.064-20.75-16.013 20.707-5.052z" opacity=".6"/><path d="M160.337 1262.568h999.327l-.043 21.064H160.379l-.043-21.064z" opacity=".2"/><path d="M1159.621 1283.632l-12.637 74.514H173.081l-12.702-74.514h999.241z" opacity=".7"/><g transform="matrix(.8548 0 0 .8548 1747.523 325.74439)"><path d="M-1073.189 807.854v30.81h-202.135v-30.81z"/><path d="M-1275.323 807.854v30.81h-194.387v-30.81zm250.315 15.404l-82.278 50.308V772.95z"/><path d="M-1519.675 823.258l82.278 50.308V772.95zm263.322 197.924h-31.394V821.214h31.394z"/><path d="M-1256.937 821.213h-30.81v-198h30.81zm-15.405 249.934l-50.308-82.278h100.616z"/><path d="M-1272.342 575.925l-50.308 82.278h100.616z"/><circle cx="-1272.342" cy="823.258" r="50.308"/></g></svg>