<svg xmlns="http://www.w3.org/2000/svg" width="498.898" height="544.252" viewBox="0 0 1320 1440" xmlns:v="https://vecta.io/nano"><style><![CDATA[.B{color-interpolation-filters:sRGB}]]></style><defs><linearGradient id="A" x1="-1430.769" y1="-77.47" x2="-1409.955" y2="-77.47" spreadMethod="reflect" gradientUnits="userSpaceOnUse"><stop offset="0" stop-color="#ffd285"/><stop offset=".232" stop-color="#ffcd79"/><stop offset=".616" stop-color="#ffca73"/><stop offset=".808" stop-color="#ffd386"/><stop offset="1" stop-color="#ffc86e"/></linearGradient><linearGradient id="B" x1="-899.905" y1="-344.262" x2="-899.906" y2="125.211" gradientUnits="userSpaceOnUse"><stop offset=".597" stop-color="#fff"/><stop offset="1"/></linearGradient><filter id="C" x="-.011" y="-.011" width="1.022" height="1.022" class="B"><feGaussianBlur stdDeviation="2.441"/></filter><filter id="D" x="-.009" y="-.009" width="1.019" height="1.017" class="B"><feGaussianBlur stdDeviation=".599"/></filter><filter id="E" x="-.042" y="-.038" width="1.084" height="1.076" class="B"><feGaussianBlur stdDeviation=".3"/></filter><filter id="F" x="-.047" y="-.041" width="1.095" height="1.083" class="B"><feGaussianBlur stdDeviation=".3"/></filter><filter id="G" x="-.047" y="-.051" width="1.095" height="1.102" class="B"><feGaussianBlur stdDeviation=".3"/></filter><filter id="H" x="-.054" y="-.076" width="1.109" height="1.153" class="B"><feGaussianBlur stdDeviation=".3"/></filter><filter id="I" x="-.041" y="-.061" width="1.082" height="1.121" class="B"><feGaussianBlur stdDeviation=".3"/></filter><filter id="J" x="-.043" y="-.031" width="1.086" height="1.062" class="B"><feGaussianBlur stdDeviation=".3"/></filter><filter id="K" x="-.084" y="-.046" width="1.167" height="1.092" class="B"><feGaussianBlur stdDeviation=".3"/></filter><filter id="L" x="-.061" y="-.063" width="1.122" height="1.127" class="B"><feGaussianBlur stdDeviation=".3"/></filter></defs><path style="mix-blend-mode:multiply" d="M-2745.657 265.144l28.198 35.189h489.331l10.087-9.413-110.95-494.045-31.462-17.601z" transform="matrix(-2.0051 0 0 2.0051 -4364.0778 816.66224)" opacity=".5" filter="url(#C)"/><path d="M-1215.57-304.058l-153.963 48.25-92.727 473.093 6.639 36.814 10.024 8.338h460.053l10.024-8.338 6.639-36.814-92.727-473.093z" fill="url(#A)" transform="matrix(2.0051 0 0 2.0051 3097.3821 831.9343)"/><path d="M-899.905-344.262l-153.963 48.25-92.727 473.093 6.639 36.814 10.024 8.338h460.054l10.024-8.338 6.639-36.814-92.727-473.093z" opacity=".25" fill="url(#B)" transform="matrix(2.0051 0 0 2.0051 2464.4309 912.54909)" style="mix-blend-mode:overlay"/><path d="M1133.938 1262.57l-.043 21.064 20.75-16.013-20.707-5.052z" opacity=".8" fill="#fff"/><path d="M1154.645 1267.622l-20.75 16.013-12.661 74.524 20.099-16.719 13.312-73.818z" opacity=".6"/><g fill="#fff"><path d="M351.284 319.007l17.664 13.248L660 238.66v-16.402z" opacity=".3"/><path d="M968.716 319.007l-17.664 13.248L660 238.66v-16.402z" opacity=".3"/><path d="M968.716 319.007l-17.664 13.248 182.886 930.315 20.707 5.052z" opacity=".3"/></g><path d="M351.284 319.007l17.664 13.248-182.886 930.315-20.707 5.052z" opacity=".4"/><path d="M165.355 1267.622l20.75 16.013 12.661 74.524-20.099-16.719-13.312-73.818z" opacity=".9"/><path d="M186.062 1262.57l.043 21.064-20.75-16.013 20.707-5.052z" opacity=".6"/><path d="M186.062 1262.57h947.876l-.043 21.064H186.105l-.043-21.064z" opacity=".2"/><path d="M1133.895 1283.634l-12.661 74.524H198.765l-12.66-74.524h947.791z" opacity=".7"/><path d="M457.943 774.762c-30.582-25.732-26.157-34.698 17.145-34.736 24.089-.017 43.441-4.021 55.808-11.53 17.65-10.719 18.808-13.823 17.109-45.827-1.002-18.881-4.326-40.914-7.385-48.96-5.07-13.335-7.3-13.974-25.207-7.215-16.158 6.098-22.731 5.542-37.032-3.135-32.225-19.552-24.619-28.918 33.58-41.354 29.487-6.3 37.176-25.89 9.043-23.036-10.696 1.086-23.036-4.267-34.652-15.035-13.794-12.785-22.34-15.86-36.299-13.069-26.304 5.261-22.858-5.206 13.314-40.438 34.02-33.136 77.455-96.22 77.455-112.495 0-5.508-3.535-15.676-7.855-22.594-5.928-9.491-6.042-14.393-.47-19.966s13.032-3.897 30.383 6.827c25.476 15.745 38.492 34.92 33.151 48.84-2.292 5.975 3.956 12.232 18.128 18.153 20.71 8.654 34.022 29.404 26.583 41.443-8.269 13.379-30.319 12.035-48.105-2.931-7.159-6.024-14.633-11.263-19.461-13.802-1.994-1.049-3.537-1.638-4.42-1.63-3.018.024-12.4 10.194-20.85 22.6s-25.144 31.146-37.099 41.642L489.07 515.6h22.433c12.337 0 37.449-5.918 55.803-13.154 65.887-25.97 105.945-1.834 44.695 26.928-17.667 8.296-31.227 17.97-30.133 21.498s14.961 5.593 30.812 4.59c20.583-1.301 31.32 1.189 37.565 8.71 7.483 9.016 7.115 11.723-2.55 18.792-10.726 7.844-10.652 9.313 1.482 29.265 16.039 26.374 10.584 38.113-28.303 60.903-31.699 18.577-39.978 34.591-9.821 18.995 24.561-12.701 32.417-12.35 32.24 1.439-.176 13.709-130.338 97.803-151.38 97.803-7.829 0-23.116-7.472-33.967-16.604zm151.192-131.232c9.124-9.124 2.936-38.151-8.132-38.151-5.864 0-8.872 7.611-8.872 22.446 0 22.966 5.065 27.643 17.005 15.703zm100.281 143.669c-4.275-1.734-13.645-12.655-20.823-24.268-11.961-19.353-13.289-34.295-15.93-179.27-2.685-147.428-3.774-159.292-16.054-174.904-29.1-36.995-5.954-55.353 30.799-24.428 18.327 15.421 21.304 15.92 58.853 9.874 21.752-3.504 42.868-8.967 46.926-12.142 9.358-7.326 49.097 8.675 48.968 19.716-.051 4.399-6.863 35.349-15.141 68.775l-15.047 60.778 21.614 7.432c56.195 19.318 54.142 42.443-6.398 72.111l-43.924 21.524 24.685 19.774c42.506 34.051 79.197 76.207 79.197 90.993 0 19.687-21.29 37.625-38.261 32.24-7.44-2.362-21.063-16.329-30.275-31.041s-21.935-33.432-28.272-41.602l-11.526-14.853-13.174 25.822c-7.246 14.202-13.174 29.876-13.174 34.832 0 10.058-24.152 43.09-30.929 42.301-2.389-.277-7.842-1.926-12.118-3.66zm45.843-104.406c12.179-13.458 12.108-13.732-9.347-35.867-11.889-12.269-23.939-22.306-26.776-22.306-6.045 0-7.068 72.91-1.106 78.872 5.364 5.364 22.025-3.901 37.226-20.699zm41.158-94.131c21.361-18.283 25.493-24.977 19.721-31.931-5.224-6.294-10.645-7.011-19.034-2.522-6.453 3.453-27.794 6.278-47.427 6.278-43.585 0-47.397 11.39-11.644 34.802 13.228 8.662 25.695 15.919 27.706 16.127s15.816-10.032 30.681-22.755zm-30.707-66.879c6.823-3.652 12.405-10.778 12.405-15.837 0-7.028-7.184-8.639-30.463-6.833-25.091 1.946-30.825 4.739-32.512 15.837-1.713 11.259 1.254 13.472 18.059 13.472 11.058 0 25.689-2.987 32.512-6.639zm17.215-67.391c11.686-3.683 9.969-28.582-1.97-28.582-5.493 0-22.807 3.228-38.481 7.174-21.475 5.407-28.493 10.244-28.493 19.632 0 11.16 3.176 12.033 30.463 8.379 16.754-2.243 34.07-5.216 38.479-6.605zM498.54 701.729c-16.634-6.698-38.534-50.162-29.715-58.979 3.982-3.981 14.874-2.025 30.501 5.476 30.119 14.457 40.893 29.889 31.389 44.955-8.578 13.6-15.234 15.369-32.174 8.548z"/><g transform="matrix(1.7588 0 0 1.7588 5153.9642 714.58493)" filter="url(#D)"><g fill="#fff" transform="matrix(.9122 0 0 .9122 -224.7959 -22.579949)"><path d="M-2459.687-178.631c4.249 1.015 11.35 5.216 11.923 9.831s-5.385 9.645-9.633 8.63-6.788-8.072-7.361-12.688.823-6.788 5.071-5.774z" filter="url(#E)"/><path d="M-2616.817-201.192c3.473 1.105 9.857 6.591 11.469 10.825s-1.55 7.214-5.023 6.109-7.257-6.295-8.869-10.529-1.05-7.51 2.423-6.405z" filter="url(#F)"/><path d="M-2583.355-159.738c3.695 1.623 8.748 6.517 9.694 9.715s-2.215 4.699-5.91 3.077-7.923-6.369-8.869-9.567 1.391-4.848 5.086-3.225z" filter="url(#G)"/><path d="M-2580.574-111.366c3.177.513 7.195 3.189 6.291 5.499s-6.727 4.256-9.905 3.743-3.707-3.484-2.804-5.795 3.24-3.96 6.417-3.447z" filter="url(#H)"/><path d="M-2439.191-76.665c4.361 1.401 10.745 5.852 10.951 8.532s-5.766 3.59-10.126 2.189-7.11-5.112-7.316-7.792 2.131-4.33 6.491-2.929z" filter="url(#I)"/><path d="M-2432.456 24.33c4.139 2.436 9.488 9.698 10.359 15.041s-2.733 8.768-6.872 6.331-8.811-10.733-9.683-16.076 2.056-7.732 6.195-5.296z" filter="url(#J)"/><path d="M-2568.311-36.939c2.142 1.031 4.828 6.961 4.59 10.751s-3.399 5.439-5.541 4.408-3.263-4.742-3.026-8.532 1.835-7.658 3.976-6.627z" filter="url(#K)"/><path d="M-2649.247-8.584c2.955 1.031 6.529 4.742 6.735 7.422s-2.955 4.33-5.91 3.299-5.704-4.742-5.91-7.422 2.131-4.33 5.086-3.299z" filter="url(#L)"/></g></g><g transform="matrix(.8548 0 0 .8548 1747.523 325.74725)"><path d="M-1256.937 821.213h-30.81V575.925h30.81zm231.929 227.593l-21.475 21.475-225.27-225.27 21.475-21.475z"/><path d="M-1273.02 802.151l-21.108 21.108-225.548-225.548 21.108-21.108zm-224.869 268.996l-21.133-21.133 225.825-225.825 21.133 21.133zm247.451-247.452l-22.063-22.063 225.707-225.707 22.063 22.063z"/><circle cx="-1272.342" cy="823.258" r="50.308"/></g></svg>