<svg xmlns="http://www.w3.org/2000/svg" width="498.898" height="544.252" viewBox="0 0 1320 1440" xmlns:v="https://vecta.io/nano"><style><![CDATA[.B{color-interpolation-filters:sRGB}]]></style><defs><linearGradient id="A" x1="1091.453" y1="563.801" x2="1049.718" y2="563.801" spreadMethod="reflect" gradientUnits="userSpaceOnUse"><stop offset="0" stop-color="#ffd285"/><stop offset=".232" stop-color="#ffcd79"/><stop offset=".616" stop-color="#ffca73"/><stop offset=".808" stop-color="#ffd386"/><stop offset="1" stop-color="#ffc86e"/></linearGradient><filter id="B" x="-.016" y="-.012" width="1.031" height="1.025" class="B"><feGaussianBlur stdDeviation="2.441"/></filter><linearGradient id="C" x1="659.982" y1="1050.809" x2="659.982" y2="76.788" gradientUnits="userSpaceOnUse"><stop offset="0"/><stop offset=".6" stop-color="#fff"/></linearGradient><clipPath id="D"><path d="M1799.134-1180.993h4.879c4.01 0 7.239 3.228 7.239 7.239v123.263c0 4.01-3.228 7.239-7.239 7.239h-4.879c-4.01 0-7.239-3.228-7.239-7.239v-123.263c0-4.01 3.228-7.239 7.239-7.239z" opacity="1" stroke-width="1.534"/></clipPath><filter id="E" x="-.195" y="-.027" width="1.39" height="1.055" class="B"><feGaussianBlur stdDeviation="1.571"/></filter><clipPath id="F"><path d="M527.951 714.097c14.659 25.654 46.178 41.047 80.627 42.146v-4.031c-25.654-21.623-41.78-53.507-75.863-62.303-4.031 4.398-8.796 13.927-4.764 24.188zm-12.094 80.261c14.293 10.628 35.916 14.293 58.272 16.858 19.79-10.995 57.172-6.597 75.863-7.33-3.298 6.963-3.298 17.591-4.764 26.754-30.785 6.963-64.135 2.565-79.894 19.057 22.722 14.293 53.874 12.461 80.261 6.23-2.932 16.492-6.963 27.487 1.832 38.115 10.995 1.466 22.722 14.293 37.015 14.66 5.497 0 8.796-2.199 14.66-1.466-2.565-13.927-13.194-24.555-23.089-34.083.733-8.429-3.298-12.094-2.932-20.157 5.131-.367 9.529-1.099 17.225-1.466-4.031-5.864-12.094-10.628-17.225-12.461 1.099-13.194-2.199-27.12 3.298-38.115 19.424-.367 34.816-5.864 52.408-2.199 3.665 13.56-.367 32.251 8.429 42.879 8.429 9.895 37.748 16.125 46.178 13.56-6.23-12.461-13.56-23.822-25.288-30.419l-5.864-31.518c10.995.733 18.691-1.466 23.455-6.597 4.398.367 4.398 5.131 8.063 6.23 7.33-5.131 12.094 2.932 21.256.733-4.031-16.492-26.021-25.288-39.947-36.282-21.989 17.225-53.874 17.225-89.057 19.424-6.963-24.555-9.895-54.607-1.466-75.13 13.927-.367 25.288 2.199 37.015 6.963-6.597-20.89-21.989-46.544-50.575-45.078.367-1.466.366-1.099 4.031-1.099 16.125-15.393 37.015-26.387 53.141-41.78-3.298-2.932 3.665-5.497 6.23-6.23.367 4.398 10.628-3.665 15.759-6.597 1.832-1.466 10.628-8.429 9.162-5.131 15.026-1.466 25.654-14.66 39.214-16.125.367-5.864-5.497-2.932-5.497-7.33-4.764.367-7.33-1.466-11.728-3.665 0 0 4.764.367 5.131-1.466-33.351-2.932-58.272 20.523-84.659 34.45-18.324 7.33-32.984 18.691-42.879 31.151-30.785 16.859-49.476 44.712-72.565 68.533 3.298 15.759 23.455 27.12 43.612 26.021 4.398-7.33-3.298-9.162-4.031-15.026 7.696-13.194 18.324-28.586 27.12-33.717.733-4.764 1.1-12.461 7.696-15.393-9.529 19.424-5.497 41.413-5.497 64.135 0 12.461-1.099 25.288-6.23 37.748 4.398 2.199 8.429 4.398 10.628 8.796-37.382-1.099-79.162 5.497-106.282-.733-8.429 2.565-17.225 4.764-26.387 6.597-3.665 1.099-1.099 4.764-1.099 7.696zm199.736-71.832c5.131 8.796 3.298 24.188 10.995 30.419 18.324-6.23 25.288-29.686 50.942-24.921 2.565-2.932 5.497-5.131 7.696-5.131-1.099-8.063 1.099-19.79 1.099-29.319s-2.199-17.225-12.094-16.492c-2.565 0-9.529 3.665-13.194 6.597-13.56 10.262-30.052 32.617-45.445 38.848z" fill="#000" stroke-width="18.184"/></clipPath><filter id="G" x="-.051" y="-.045" width="1.103" height="1.09" class="B"><feGaussianBlur stdDeviation="6.192"/></filter><filter id="H" x="-.246" y="-.4" width="1.493" height="1.8" class="B"><feGaussianBlur stdDeviation="1.005"/></filter><filter id="I" x="-.387" y="-.351" width="1.774" height="1.701" class="B"><feGaussianBlur stdDeviation="1.005"/></filter><filter id="J" x="-.269" y="-.191" width="1.537" height="1.382" class="B"><feGaussianBlur stdDeviation="1.005"/></filter><filter id="K" x="-.167" y="-.198" width="1.334" height="1.396" class="B"><feGaussianBlur stdDeviation="1.005"/></filter></defs><path style="mix-blend-mode:multiply" d="M-2640.263 204.473l21.47 26.648 145.682 33.948 130.593-42.533 79.784-400.01-38.751-32.142z" transform="matrix(-2.0051 0 0 2.0051 -4364.0778 622.47092)" opacity=".5" filter="url(#B)"/><path d="M659.957 1108.158l270.001-75.701 17.663-57.348 142.368-882.306-20.751-16.013H250.674l-20.751 16.013 142.368 882.306 17.663 57.348z" fill="url(#A)"/><path d="M659.982 1050.81l287.664-75.701 142.368-882.306-20.749-16.013H250.701L229.95 92.803l142.37 882.306z" opacity=".25" fill="url(#C)" style="mix-blend-mode:overlay"/><path d="M389.995 1032.468l-17.663-57.348L660 1050.821l287.668-75.701-17.663 57.348L660 1108.169z" opacity=".7"/><path d="M250.668 97.849l.043-21.064-20.75 16.013 20.707 5.052z" opacity=".2"/><path d="M947.669 975.119l-17.664-13.248L660 1034.419v16.402z" opacity=".4"/><path d="M372.331 975.119l17.664-13.248L660 1034.419v16.402z" opacity=".6"/><path d="M372.331 975.119l17.664-13.248L250.668 97.849l-20.707-5.052z" opacity=".4"/><g fill="#fff"><path d="M947.669 975.119l-17.664-13.248 139.327-864.022 20.707-5.052z" opacity=".3"/><path d="M1069.332 97.849l-.043-21.064 20.75 16.013-20.707 5.052z" opacity=".8"/><path d="M1069.332 97.849H250.668l.043-21.064h818.579l.043 21.064z" opacity=".3"/></g><path d="M656.554 461.696h7.03c5.778 0 10.429-4.651 10.429-10.429V273.682c0-5.778-4.651-10.429-10.429-10.429h-7.03c-5.777 0-10.429 4.651-10.429 10.429v177.585c0 5.777 4.651 10.429 10.429 10.429z"/><path transform="matrix(1.4407 0 0 -1.4407 -1935.458 -1239.7611)" d="M1789.477-1189.927h4.879c4.01 0 7.239 3.228 7.239 7.239v123.263c0 4.01-3.228 7.239-7.239 7.239h-4.879c-4.01 0-7.239-3.228-7.239-7.239v-123.263c0-4.01 3.228-7.239 7.239-7.239z" clip-path="url(#D)" fill="#29303d" filter="url(#E)"/><g transform="matrix(.9404 0 0 .9404 8.412701 54.351316)"><path d="M530.893 669.943c17.986 31.475 56.655 50.36 98.921 51.709v-4.946c-31.475-26.529-51.259-65.648-93.076-76.439-4.946 5.396-10.791 17.086-5.845 29.676zm-14.838 98.471c17.536 13.04 44.065 17.536 71.493 20.683 24.281-13.489 70.144-8.094 93.076-8.993-4.047 8.543-4.047 21.583-5.845 32.824-37.77 8.543-78.687 3.147-98.022 23.381 27.878 17.536 66.097 15.288 98.471 7.644-3.597 20.234-8.543 33.723 2.248 46.763 13.489 1.799 27.878 17.536 45.414 17.986 6.745 0 10.791-2.698 17.986-1.799-3.147-17.086-16.187-30.126-28.327-41.817.899-10.342-4.047-14.838-3.597-24.73 6.295-.45 11.691-1.349 21.133-1.799-4.946-7.194-14.838-13.04-21.133-15.288 1.349-16.187-2.698-33.273 4.047-46.763 23.831-.45 42.716-7.194 64.299-2.698 4.496 16.637-.45 39.568 10.342 52.608 10.342 12.14 46.313 19.784 56.655 16.637-7.644-15.288-16.637-29.227-31.025-37.32l-7.194-38.669c13.489.899 22.932-1.799 28.777-8.094 5.396.45 5.396 6.295 9.892 7.644 8.993-6.295 14.838 3.597 26.079.899-4.946-20.234-31.925-31.025-49.011-44.515-26.979 21.133-66.097 21.133-109.263 23.831-8.543-30.126-12.14-66.997-1.799-92.176 17.086-.45 31.025 2.698 45.414 8.543-8.093-25.63-26.978-57.104-62.05-55.306.45-1.799.45-1.349 4.946-1.349 19.784-18.885 45.414-32.374 65.198-51.259-4.047-3.597 4.496-6.745 7.644-7.644.45 5.396 13.04-4.496 19.335-8.094 2.248-1.799 13.04-10.342 11.241-6.295 18.435-1.799 31.475-17.986 48.112-19.784.45-7.194-6.745-3.597-6.745-8.993-5.845.45-8.993-1.799-14.389-4.496 0 0 5.845.45 6.295-1.799-40.917-3.597-71.493 25.18-103.867 42.266-22.482 8.993-40.468 22.932-52.608 38.219-37.77 20.684-60.702 54.856-89.029 84.083 4.047 19.335 28.777 33.273 53.507 31.925 5.396-8.993-4.047-11.241-4.946-18.435 9.442-16.187 22.482-35.072 33.273-41.367.899-5.845 1.349-15.288 9.442-18.885-11.691 23.831-6.745 50.809-6.745 78.687 0 15.288-1.349 31.025-7.644 46.313 5.396 2.698 10.342 5.396 13.04 10.791-45.863-1.349-97.123 6.745-130.396-.899-10.342 3.147-21.133 5.845-32.374 8.094-4.496 1.349-1.349 5.845-1.349 9.442zm245.054-88.13c6.295 10.791 4.047 29.676 13.489 37.32 22.482-7.644 31.025-36.421 62.5-30.576 3.148-3.597 6.745-6.295 9.442-6.295-1.349-9.892 1.349-24.281 1.349-35.971s-2.698-21.133-14.838-20.234c-3.148 0-11.691 4.496-16.187 8.094-16.637 12.59-36.871 40.018-55.756 47.662z"/><g transform="matrix(1.2269 0 0 1.2269 -116.84515 -206.17626)"><path d="M527.951 714.097c14.659 25.654 37.859 44.53 72.309 45.63v-4.031c-25.654-21.623-41.78-53.507-75.863-62.303-4.031 4.398-.477 10.443 3.554 20.704zm-12.094 80.261c14.293 10.628 35.916 14.293 58.272 16.858 19.79-10.995 57.172-6.597 75.863-7.33-3.298 6.963-3.298 17.591-4.764 26.754-24.484 29.406-64.135 2.565-79.894 19.057 22.722 14.293 53.874 12.461 80.261 6.23-2.932 16.492-6.963 27.487 1.832 38.115 10.995 1.466 22.722 14.293 37.015 14.66 5.497 0 5.37 0 10.56-1.537-2.565-13.927-12.33-15.585-22.225-25.114.733-8.429-14.894-13.982.304-29.056 5.131-.367 2.294-.594 9.991-.96-4.031-5.864-12.68-6.01-17.811-7.843 1.099-13.194-14.873-21.457 11.119-43.238 19.424-.367 34.816-5.864 52.408-2.199 3.665 13.56-.367 32.251 8.429 42.879 8.429 9.895 28.252 16.489 36.682 13.923-6.23-12.461-13.56-23.822-25.288-30.419-1.832-10.628-5.796-21.373 3.632-31.881 10.995.733 18.691-1.466 23.455-6.597 4.398.367 4.398 5.131 8.063 6.23 7.33-5.131 12.094 2.932 21.256.733-9.963-10.033-24.942-16.119-38.869-27.114-21.989 17.225-61.964 16.955-97.146 19.154-6.963-24.555-19.064-65.666 5.545-84.029 13.927-.367 17.558 1.214 29.796 4.308-6.597-20.89-20.395-39.694-48.981-38.228.367-1.466 5.991-5.294 9.656-5.294 16.125-15.393 37.015-26.387 53.141-41.78-3.298-2.932 3.665-5.497 6.23-6.23.367 4.398 10.628-3.665 15.759-6.597 1.832-1.466 10.628-8.429 9.162-5.131 15.026-1.466 12.219-9.838 25.779-11.304.367-5.864-5.497-2.932-5.497-7.33-4.764.367-7.33-1.466-11.728-3.665 0 0 4.764.367 5.131-1.466-33.35-2.932-44.836 15.701-71.224 29.628-18.324 7.33-32.984 18.691-42.879 31.151-30.785 16.858-49.476 44.712-72.565 68.533 3.298 15.759 23.455 27.12 43.612 26.021 4.398-7.33-13.595-8.39-14.328-14.254 7.696-13.194 28.621-29.358 37.417-34.489.733-4.764 1.1-12.461 7.696-15.393-9.529 19.424-5.497 41.413-5.497 64.135 0 12.461-1.099 25.288-6.23 37.748 4.398 2.199 8.429 4.398 10.628 8.796-25.974 22.837-64.67 13.887-91.79 7.657-8.429 2.565-17.225 4.764-26.387 6.597-3.665 1.099-15.591-3.625-15.591-.694zm199.736-71.832c5.131 8.796 3.298 24.188 10.995 30.419 18.324-6.23 25.288-29.686 50.942-24.921 2.565-2.932 5.497-5.131 7.696-5.131-1.099-8.063-4.833-5.498-4.833-15.027s-2.199-17.225-12.094-16.492c-2.565 0-9.529 3.665-13.194 6.597-13.56 10.262-24.12 18.326-39.512 24.556z" clip-path="url(#F)" fill="#29303d" filter="url(#G)"/><g fill="#fff"><path d="M539.593 715.556c2.436 2.918 7.134 1.393 7.047-2.288s-4.958-9.52-7.307-8.757-2.176 8.127.261 11.045z" filter="url(#J)"/><path d="M591.738 713.927c1.906 1.052 3.686-1.055 2.67-3.162s-4.829-4.214-5.719-3.159 1.143 5.269 3.049 6.321z" filter="url(#I)"/><path d="M747.344 839.794c2.465-2.238 7.396-6.715 5.456-8.91s-10.752-2.109-13.218.131 1.417 6.63 3.356 8.824 1.94 2.194 4.405-.044z" filter="url(#K)"/><path d="M651.539 885.735c2.096-1.488 7.926-1.048 8.744.658s-3.373 4.678-6.288 4.46-4.552-3.63-2.456-5.118z" filter="url(#H)"/></g></g></g></svg>