<svg xmlns="http://www.w3.org/2000/svg" width="498.898" height="544.252" viewBox="0 0 1320 1440" xmlns:v="https://vecta.io/nano"><style><![CDATA[.B{color-interpolation-filters:sRGB}]]></style><defs><linearGradient id="A" x1="-1430.769" y1="-77.47" x2="-1409.955" y2="-77.47" spreadMethod="reflect" gradientUnits="userSpaceOnUse"><stop offset="0" stop-color="#ffd285"/><stop offset=".232" stop-color="#ffcd79"/><stop offset=".616" stop-color="#ffca73"/><stop offset=".808" stop-color="#ffd386"/><stop offset="1" stop-color="#ffc86e"/></linearGradient><filter id="B" x="-.012" y="-.01" width="1.024" height="1.021" class="B"><feGaussianBlur stdDeviation="2.441"/></filter><linearGradient id="C" x1="-904.556" y1="-406.052" x2="-904.556" y2="184.159" gradientUnits="userSpaceOnUse"><stop offset="0"/><stop offset=".599" stop-color="#fff"/></linearGradient><clipPath id="D"><path d="M1720.699 1071.423c-1.85 0-3.7.708-5.118 2.125l-3.45 3.45c-2.836 2.836-2.836 7.401 0 10.237l5.263 5.263 8.565 30.343c.771 2.729 3.59 5.545 6.319 6.315l10.886-10.889 54.405 54.405-54.405 54.405-10.886-10.889c-2.729.771-5.548 3.59-6.319 6.319l-8.562 30.337-5.266 5.266c-2.836 2.836-2.836 7.401 0 10.237l3.45 3.45c2.836 2.836 7.401 2.836 10.237 0l5.259-5.259 30.347-8.569c2.729-.771 5.545-3.586 6.315-6.315l-10.889-10.889 54.405-54.405 54.405 54.405-10.889 10.889c.771 2.729 3.586 5.545 6.315 6.315l30.347 8.569 5.259 5.259c2.836 2.836 7.401 2.836 10.237 0l3.45-3.45c2.836-2.836 2.836-7.401 0-10.237l-5.263-5.263-8.565-30.34c-.771-2.729-3.59-5.548-6.319-6.319l-10.886 10.889-54.405-54.405 54.405-54.405 10.886 10.889c2.729-.771 5.548-3.586 6.319-6.315l8.569-30.347 5.259-5.26c2.836-2.836 2.836-7.401 0-10.237l-1.725-1.725-1.725-1.725c-2.836-2.836-7.401-2.836-10.237 0l-5.266 5.266-30.34 8.565c-2.729.771-5.545 3.586-6.315 6.315l10.889 10.889-54.405 54.405-54.405-54.405 10.889-10.889c-.771-2.729-3.586-5.545-6.315-6.315l-30.34-8.565-5.266-5.266c-1.418-1.418-3.268-2.125-5.118-2.125zm90.556 101.246h.01l-.01.01-.01-.01z" opacity="1" fill="#000" fill-opacity="1" stroke-width="10.708"/></clipPath><filter id="E" x="-.048" y="-.048" width="1.096" height="1.096" class="B"><feGaussianBlur stdDeviation="4.05"/></filter><clipPath id="F"><path d="M836.367 483.837c-2.099-12.596-41.988-30.651-63.402-28.972-7.558.42-13.436 6.298-20.994 7.138-9.237 1.26-33.171 5.458-42.408 3.779 10.077-17.215 20.154-34.43 27.292-54.165 7.558-5.458 25.613-7.138 26.872-13.856 7.138 2.099 15.955-2.519 18.475-8.398-18.895-15.536-42.828-30.231-73.899-26.452-8.398 15.116-26.033 13.436-47.027 11.337-3.779-23.933-56.264-13.436-66.341-14.276-.42 13.016 15.536 16.795 19.734 20.994-32.751 34.85-65.082 69.7-104.13 98.672 3.779 3.359 6.298 7.978 10.497 10.917 23.513.84 28.552-9.237 42.408-20.574 26.033-21.414 53.745-39.049 76.418-64.242 8.817-5.039 39.049-5.878 54.165-5.458 1.679 22.674-16.795 48.286-20.574 69.7-19.315 3.359-64.662 2.939-89.015 12.177-3.359-6.298-8.398-2.939-13.436-6.718-5.039 1.68-4.619 8.398-10.497 9.657 4.199 13.016 14.276 20.994 22.254 30.651 14.696 73.479-8.398 153.676-39.889 204.482 7.138 1.68 15.955 2.939 25.613-1.26 22.674-18.055 33.171-54.585 41.148-83.976 20.994 9.657 62.142-8.398 81.877 0 14.696-7.978 52.485-7.558 66.341-10.917-9.657-14.696-36.53-22.254-54.585-16.795.84-8.398 1.26-25.613 1.68-41.568 15.955-7.978 36.95-2.939 49.966-11.337-5.039-11.337-31.071-22.674-48.286-15.116-2.099-10.497.84-34.43-5.878-49.126 19.314-1.26 42.408-5.039 61.722-2.939 4.619 11.337 2.519 23.513 2.939 39.469 1.68 47.866 17.215 114.208-1.68 159.555-35.69-3.779-68.441-4.619-97.412-12.177 1.26.42.42 1.26-.42 2.519 10.077 2.099 18.475 5.458 27.292 9.657 7.978 3.779 13.436 10.077 20.994 13.856 8.398 4.199 19.734 5.458 28.552 10.077 2.099 1.26 2.519 5.458 4.619 6.718 14.696 10.077 45.347 27.712 57.104 11.337 12.177-24.353 9.657-57.524 7.558-89.015-1.26-20.994-10.077-41.988-8.818-62.562 1.26-24.353 4.619-48.706 7.558-66.341 7.138-9.657 28.132-11.337 25.613-26.452zM675.132 543.88c-22.254.42-38.629 6.718-57.524 5.039 1.26-17.215-6.718-28.552 1.679-44.507 6.718-7.138 35.69-6.298 44.087-10.497 13.436 8.817 11.757 30.231 11.757 49.966zm-1.679 23.093c.42 18.055 0 29.392-1.68 42.828-20.574-.42-36.949 5.458-58.783 4.619 0-13.016 5.458-27.712 4.619-42.828 18.475.84 39.049-2.099 55.844-4.619z" fill="#000" fill-opacity="1" stroke-width="20.833"/></clipPath><filter id="G" x="-.052" y="-.045" width="1.104" height="1.089" class="B"><feGaussianBlur stdDeviation="6.853"/></filter><filter id="H" x="-.079" y="-.127" width="1.159" height="1.253" class="B"><feGaussianBlur stdDeviation=".752"/></filter><filter id="I" x="-.097" y="-.141" width="1.194" height="1.283" class="B"><feGaussianBlur stdDeviation=".752"/></filter><filter id="J" x="-.215" y="-.261" width="1.43" height="1.522" class="B"><feGaussianBlur stdDeviation=".752"/></filter></defs><path style="mix-blend-mode:multiply" d="M-2681.73 217.274l26.181 28.949 172.576 56.161 193.177-61.463 89.581-450.194-45.894-49.39z" transform="matrix(-2.0051 0 0 2.0051 -4364.0778 706.82307)" opacity=".5" filter="url(#B)"/><path d="M-1220.686-363.581l-176.123 60.03-8.809 28.459-84.914 494.898 10.349 7.986h518.995l10.348-7.986-84.914-495.039-8.809-28.459z" fill="url(#A)" transform="matrix(-2.0051 0 0 -2.0051 -1787.6392 533.54186)"/><path d="M-905.02-407.213l-176.123 59.888-8.809 26.778-84.914 496.72 10.349 7.986h518.995l10.349-7.986-84.914-494.898-8.809-28.601z" opacity=".25" fill="url(#C)" transform="matrix(-2.0051 0 0 -2.0051 -1154.6881 446.05465)" style="mix-blend-mode:overlay"/><path d="M139.629 97.854l.043-21.064-20.75 16.013 20.707 5.052zm891.185 987.285l-17.664-13.248L660 1188.821v16.402z" opacity=".4"/><path d="M289.186 1085.139l17.664-13.248L660 1188.821v16.402z" opacity=".6"/><path d="M289.186 1085.139l17.664-13.248L139.629 97.854l-20.707-5.052z" opacity=".6"/><g fill="#fff"><path d="M1030.814 1085.139l-17.664-13.248 167.221-974.037 20.707-5.052z" opacity=".3"/><path d="M1180.371 97.854l-.043-21.064 20.75 16.013-20.707 5.052z" opacity=".8"/><path d="M1180.371 97.854H139.629l.043-21.064h1040.656l.043 21.064z" opacity=".3"/></g><path d="M306.849 1142.487l-17.663-57.348L660 1205.223l370.814-120.084-17.663 57.348L660 1262.571l-353.151-120.084z" opacity=".7"/><path d="M529.493 203.303a10.39 10.39 0 0 0-7.373 3.062l-4.971 4.971c-4.085 4.085-4.085 10.662 0 14.747l7.582 7.582 12.339 43.713c1.11 3.932 5.171 7.988 9.103 9.098l15.682-15.687 78.375 78.375-78.375 78.375-15.682-15.687c-3.931 1.11-7.993 5.171-9.103 9.103l-12.334 43.703-7.587 7.587c-4.085 4.085-4.085 10.662 0 14.747l4.971 4.971c4.085 4.085 10.662 4.085 14.747 0l7.577-7.577 43.717-12.344c3.931-1.11 7.988-5.167 9.098-9.098l-15.687-15.687 78.375-78.375 78.375 78.375-15.687 15.687c1.11 3.931 5.167 7.988 9.098 9.098l43.717 12.344 7.577 7.577c4.085 4.085 10.662 4.085 14.747 0l4.971-4.971c4.085-4.085 4.085-10.662 0-14.747l-7.582-7.582-12.339-43.708c-1.11-3.931-5.172-7.993-9.103-9.103l-15.682 15.687-78.375-78.375 78.375-78.375 15.682 15.687c3.931-1.11 7.993-5.167 9.103-9.098l12.344-43.717 7.577-7.577c4.085-4.085 4.085-10.662 0-14.747l-2.485-2.485-2.485-2.485c-4.085-4.085-10.662-4.085-14.747 0l-7.587 7.587-43.708 12.339c-3.932 1.11-7.988 5.167-9.098 9.098l15.687 15.687-78.375 78.375-78.375-78.375 15.687-15.687c-1.11-3.931-5.167-7.988-9.098-9.098l-43.708-12.339-7.586-7.587c-2.043-2.042-4.708-3.062-7.374-3.062zm130.455 145.855h.014l-.014.014-.014-.014z"/><path d="M1711.017 1079.746c-1.85 0-3.7.707-5.118 2.125l-1.725 1.725-1.725 1.725c-2.836 2.836-2.836 7.401 0 10.237l5.266 5.266 8.565 30.34c.771 2.729 3.586 5.545 6.315 6.315l10.889-10.886 54.401 54.401-54.401 54.401-10.889-10.886c-2.729.771-5.545 3.59-6.315 6.319l-8.565 30.337-5.266 5.266c-2.836 2.836-2.836 7.401 0 10.237l3.45 3.45c2.836 2.836 7.401 2.836 10.237 0l5.26-5.259 30.347-8.569c2.729-.771 5.545-3.59 6.315-6.319l-10.886-10.889 54.401-54.401 54.401 54.401-10.886 10.889c.771 2.729 3.59 5.548 6.319 6.319l30.34 8.565 5.263 5.263c2.836 2.836 7.401 2.836 10.237 0l3.45-3.45c2.836-2.836 2.836-7.401 0-10.237l-5.259-5.26-8.569-30.343c-.771-2.729-3.59-5.548-6.319-6.319l-10.889 10.886-54.401-54.401 54.401-54.401 10.889 10.886c2.729-.771 5.548-3.586 6.319-6.315l8.569-30.347 5.259-5.26c2.836-2.836 2.836-7.401 0-10.237l-3.45-3.45c-2.836-2.836-7.401-2.836-10.237 0l-5.266 5.266-30.337 8.565c-2.729.771-5.548 3.586-6.319 6.315l10.886 10.889-54.401 54.401-54.401-54.401 10.886-10.889c-.771-2.729-3.586-5.545-6.315-6.315l-30.34-8.565-5.266-5.266c-1.418-1.418-3.268-2.125-5.118-2.125zm90.556 101.246h.01l-.01.01z" transform="matrix(1.4406 0 0 1.4406 -1949.344989 -1340.189086)" clip-path="url(#D)" fill="#29303d" filter="url(#E)"/><g transform="matrix(-1.1816 0 0 -1.1816 1449.0687 1442.4467)"><path d="M836.367 483.837c-2.099-12.596-41.988-30.651-63.402-28.972-7.558.42-13.436 6.298-20.994 7.138-9.237 1.26-33.171 5.458-42.408 3.779 10.077-17.215 20.154-34.43 27.292-54.165 7.558-5.458 25.613-7.138 26.872-13.856 7.138 2.099 15.955-2.519 18.475-8.398-18.895-15.536-42.828-30.231-73.899-26.452-8.398 15.116-26.033 13.436-47.027 11.337-3.779-23.933-56.264-13.436-66.341-14.276-.42 13.016 15.536 16.795 19.734 20.994-32.751 34.85-65.082 69.7-104.13 98.672 3.779 3.359 6.298 7.978 10.497 10.917 23.513.84 28.552-9.237 42.408-20.574 26.033-21.414 53.745-39.049 76.418-64.242 8.817-5.039 39.049-5.878 54.165-5.458 1.679 22.674-16.795 48.286-20.574 69.7-19.315 3.359-64.662 2.939-89.015 12.177-3.359-6.298-8.398-2.939-13.436-6.718-5.039 1.68-4.619 8.398-10.497 9.657 4.199 13.016 14.276 20.994 22.254 30.651 14.696 73.479-8.398 153.676-39.889 204.482 7.138 1.68 15.955 2.939 25.613-1.26 22.674-18.055 33.171-54.585 41.148-83.976 20.994 9.657 62.142-8.398 81.877 0 14.696-7.978 52.485-7.558 66.341-10.917-9.657-14.696-36.53-22.254-54.585-16.795.84-8.398 1.26-25.613 1.68-41.568 15.955-7.978 36.95-2.939 49.966-11.337-5.039-11.337-31.071-22.674-48.286-15.116-2.099-10.497.84-34.43-5.878-49.126 19.314-1.26 42.408-5.039 61.722-2.939 4.619 11.337 2.519 23.513 2.939 39.469 1.68 47.866 17.215 114.208-1.68 159.555-35.69-3.779-68.441-4.619-97.412-12.177 1.26.42.42 1.26-.42 2.519 10.077 2.099 18.475 5.458 27.292 9.657 7.978 3.779 13.436 10.077 20.994 13.856 8.398 4.199 19.734 5.458 28.552 10.077 2.099 1.26 2.519 5.458 4.619 6.718 14.696 10.077 45.347 27.712 57.104 11.337 12.177-24.353 9.657-57.524 7.558-89.015-1.26-20.994-10.077-41.988-8.818-62.562 1.26-24.353 4.619-48.706 7.558-66.341 7.138-9.657 28.132-11.337 25.613-26.452zM675.132 543.88c-22.254.42-38.629 6.718-57.524 5.039 1.26-17.215-6.718-28.552 1.68-44.507 6.718-7.138 35.69-6.298 44.087-10.497 13.436 8.817 11.757 30.231 11.757 49.966zm-1.679 23.093c.42 18.055 0 29.392-1.68 42.828-20.574-.42-36.949 5.458-58.783 4.619 0-13.016 5.458-27.712 4.619-42.828 18.475.84 39.049-2.099 55.844-4.619z"/><path d="M836.367 483.837c-2.099-12.596-41.988-30.651-63.402-28.972-7.558.42-13.436 6.298-20.994 7.138-9.237 1.26-33.171 5.458-42.408 3.779 10.077-17.215 20.154-34.43 27.292-54.165 2.989-11.268 13.671-16.498 14.931-23.216 7.138 2.099 27.897 6.84 30.416.962-18.895-15.536-42.828-30.231-73.899-26.452-8.398 15.116-26.033 13.436-47.027 11.337-3.779-23.933-56.264-13.436-66.341-14.276 11.533 5.648 36.191 7.436 19.734 20.994-32.751 34.85-55.733 62.557-94.782 91.529 3.779 3.359 6.298 7.978 10.497 10.917 23.513.84 19.204-2.094 33.06-13.431 26.033-21.414 53.745-39.049 76.418-64.242 12.045-17.303 58.091-17.174 73.207-16.755 1.679 22.674-14.536 61.196-39.616 80.996-19.315 3.359-64.662 2.939-89.015 12.177-3.359-6.298-8.398-2.939-13.436-6.718-5.039 1.68 4.418 9.689-1.46 10.948 4.199 13.016 9.758 12.925 17.735 22.583 41.533 17.036-1.752 152.168-38.407 201.038 7.138 1.68 15.955 2.939 25.613-1.26 22.674-18.055 27.171-44.362 35.149-73.754 17.767-14.226 67.629-17.757 87.363-9.36 14.696-7.978 40.999-4.804 54.856-8.163-9.657-14.696-30.531-15.647-48.586-10.189.84-8.398 1.26-25.613 1.68-41.568 9.021-28.521 36.95-2.939 49.966-11.337-5.039-11.337-31.071-22.674-48.286-15.116-2.099-10.497.84-34.43-5.878-49.126 8.825-12.717 51.445-13.43 70.759-11.331 4.619 11.337 1.067 28.677 1.487 44.633 1.68 47.866 30.932 126.633-9.264 162.782-35.69-3.779-75.998-12.127-67.181-7.928 7.978 3.779 13.436 10.077 20.994 13.856 8.398 4.199 19.734 5.458 28.552 10.077 2.099 1.26 2.519 5.458 4.619 6.718 14.696 10.077 45.347 27.712 57.104 11.337 12.177-24.353 6.298-49.595 4.199-81.086-1.26-20.994-10.077-41.988-8.818-62.562 1.26-24.353 4.619-48.706 7.558-66.341 7.138-9.657 28.132-11.337 25.613-26.452zM675.132 543.88c-22.254.42-38.629 6.718-57.524 5.039 1.26-17.215-6.718-28.552 1.68-44.507 8.655-16.659 41.661-15.012 50.058-19.211 13.436 8.817 18.534 39.914 5.786 58.68zm4.453 13.572c.42 18.055 3.305 39.353-7.812 52.349-20.574-.42-36.949 5.458-58.783 4.619 0-13.016 5.458-27.712 4.619-42.828 11.213-10.618 45.181-11.62 61.976-14.14z" clip-path="url(#F)" fill="#29303d" filter="url(#G)"/><g fill="#fff"><path d="M807.132 477.393c-1.202 3.414 1.81 7.071 7.385 8.187s13.711-.314 14.913-3.73-4.532-8.817-10.106-9.93-10.99 2.059-12.192 5.473z" filter="url(#H)"/><path d="M752.449 384.773c4.646.356 9.957-2.918 9.799-6.098s-5.784-6.262-10.429-6.615-8.31 2.021-8.153 5.198 4.137 7.159 8.784 7.515z" filter="url(#I)"/><path d="M657.064 371.878c-.861 1.629-5.931.888-7.604-1.111s.048-5.255 2.582-4.886 5.883 4.367 5.022 5.996z" filter="url(#J)"/></g></g></svg>