<svg xmlns="http://www.w3.org/2000/svg" xmlns:xlink="http://www.w3.org/1999/xlink" width="498.898" height="544.252" viewBox="0 0 1320 1440" xmlns:v="https://vecta.io/nano"><style><![CDATA[.B{color-interpolation-filters:sRGB}.C{fill-opacity:.98}]]></style><defs><linearGradient id="A" x1="236.943" y1="670.458" x2="278.677" y2="670.458" spreadMethod="reflect" gradientUnits="userSpaceOnUse"><stop offset="0" stop-color="#ffd285"/><stop offset=".232" stop-color="#ffcd79"/><stop offset=".616" stop-color="#ffca73"/><stop offset=".808" stop-color="#ffd386"/><stop offset="1" stop-color="#ffc86e"/></linearGradient><linearGradient id="B" x1="660" y1="115.844" x2="670.254" y2="1157.469" gradientUnits="userSpaceOnUse"><stop offset=".604" stop-color="#fff"/><stop offset="1"/></linearGradient><filter id="C" x="-.01" y="-.011" width="1.02" height="1.021" class="B"><feGaussianBlur stdDeviation="2.441"/></filter><clipPath id="D"><path d="M-259.905 606.27c-34.215-15.43-56.354-45.62-98.62-41.595 16.772 26.835 49.645 87.215 92.582 107.342 19.456-16.101 16.101-40.253 6.038-65.747zm127.468 137.531c-23.481-39.582-77.152-48.975-118.076-59.709-20.127 15.43-42.266 19.456-67.089 19.456s-49.646-2.684-77.823-3.354c2.013-40.924 4.025-111.367 4.025-157.658 48.975-7.38 111.367-6.709 163.696-5.367 16.101 0 15.43-10.063 9.392-18.785-19.456-20.127-49.645-28.177-81.177-34.886-14.759 12.076-64.405 12.076-91.24 12.076 2.684-38.24 3.354-94.595 4.696-144.24 39.582-2.684 78.494-6.709 110.025-7.38 32.202-.671 61.051-2.013 90.569-8.051-8.721-38.24-44.949-47.633-85.202-51.658-3.354-.671-6.038 8.051-12.747 8.721-64.405 8.722-225.417 22.81-281.101 15.43-26.165-3.354-50.987-12.076-83.19-20.127-9.392-2.013-9.392 8.722-6.709 20.797 16.772 20.797 34.886 46.962 56.354 58.367 14.089 7.38 30.19-5.367 44.278-7.38 37.57-6.038 67.759-.671 98.62-5.367 6.038 24.823 8.722 46.962 10.063 69.772s1.342 45.62 1.342 76.481c-73.797 10.063-140.215-.671-193.215 6.709 10.063 12.747 39.582 47.633 69.772 58.367 11.405 4.025 20.127-6.709 30.861-9.392 29.519-7.38 61.721-7.38 91.911-10.734l1.342 158.329c-69.101 3.354-142.228 16.101-190.531 17.443-21.468.671-40.253-14.089-62.392-5.367 16.772 32.202 47.633 48.304 75.81 67.089 24.823 9.392 30.19-6.038 48.975-14.089 29.519-12.747 88.557-17.443 121.43-19.456 101.974-6.038 200.595-6.038 259.632 8.722 14.759 4.025 43.607 1.342 57.696-14.759z" clip-path="none" opacity=".593" stroke-width="5.943"/></clipPath><filter id="E" x="-.03" y="-.034" width="1.06" height="1.068" class="B"><feGaussianBlur stdDeviation="6.825"/></filter><filter id="F" x="-.013" y="-.011" width="1.025" height="1.023" class="B"><feGaussianBlur stdDeviation="2.152"/></filter><clipPath id="G"><path d="M1799.132 1043.252c-4.01 0-7.237 3.23-7.237 7.24v107.141l-75.759-75.762c-2.836-2.836-7.401-2.836-10.237 0l-3.45 3.45c-2.836 2.836-2.836 7.401 0 10.237l75.756 75.759h-107.138c-4.01 0-7.237 3.23-7.237 7.24v4.88a7.22 7.22 0 0 0 7.237 7.237h107.141l-75.759 75.759c-2.836 2.836-2.836 7.404 0 10.24l3.45 3.45c2.836 2.836 7.401 2.836 10.237 0l75.759-75.762v107.141c0 4.01 3.227 7.24 7.237 7.24h4.88c4.01 0 7.24-3.23 7.24-7.24V1204.36l75.759 75.762c2.836 2.836 7.401 2.836 10.237 0l3.45-3.45c2.836-2.836 2.836-7.404 0-10.24l-75.759-75.759h107.138c4.01 0 7.24-3.227 7.24-7.237v-4.88c0-4.01-3.23-7.24-7.24-7.24h-107.135l75.756-75.759c2.836-2.836 2.836-7.401 0-10.237l-3.45-3.45c-2.836-2.836-7.401-2.836-10.237 0l-75.759 75.762v-107.141c0-4.01-3.23-7.24-7.24-7.24zm2.438 137.74h0 0 0 0 0-.01 0 0z" opacity="1" stroke-width="1.534"/></clipPath><filter id="H" x="-.048" y="-.048" width="1.096" height="1.096" class="B"><feGaussianBlur stdDeviation="5.529"/></filter><path id="I" d="M654.456 1200.517c2.346 2.346 6.396 2.1 3.974 4.522s-6.287 2.483-8.633.137-2.285-6.211.137-8.633 2.176 1.628 4.522 3.974z"/></defs><path style="mix-blend-mode:multiply" d="M-2765.718 268.206l28.198 35.189h538.751l10.087-9.413-86.673-527.828-31.462-17.601z" transform="matrix(-2.0051 0 0 2.0051 -4355.6821 800.27119)" opacity=".5" filter="url(#C)"/><path d="M660 115.844L254.043 268.378l-139.111 999.236 13.312 73.804 20.099 16.718H1169.89l20.099-16.718 13.312-73.804-137.282-999.246z" fill="url(#A)"/><path d="M660 115.844L253.994 268.369l-137.243 999.246 11.442 73.812 20.099 16.719h1021.563l20.134-16.728 15.13-73.802-139.1-999.248z" opacity=".25" fill="url(#B)" style="mix-blend-mode:overlay"/><path d="M1182.559 1262.571l-.043 21.064 20.75-16.013-20.707-5.052z" opacity=".8" fill="#fff"/><path d="M1203.266 1267.622l-20.75 16.013-12.661 74.512 20.099-16.719 13.312-73.805z" opacity=".6"/><g fill="#fff"><path d="M254.044 268.378l17.664 13.248 388.293-149.381v-16.402z" opacity=".3"/><path d="M1066.019 268.368l-17.664 13.248L660 132.246v-16.402z" opacity=".3"/><path d="M1064.146 251.267l-17.664 13.248 138.452 996.966 20.707 5.052z" opacity=".3"/></g><path d="M253.994 268.369l17.664 13.248-136.07 980.953-20.707 5.052z" opacity=".4"/><path d="M114.881 1267.622l20.75 16.013 12.661 74.512-20.099-16.719-13.312-73.805z" opacity=".9"/><path d="M135.588 1262.571l.043 21.064-20.75-16.013 20.707-5.052z" opacity=".6"/><path d="M135.588 1262.571h1046.971l-.043 21.064H135.631z" opacity=".2"/><path d="M1182.516 1283.635l-12.661 74.512H148.292l-12.661-74.512z" opacity=".7"/><g transform="matrix(.8998 0 0 .8998 81.165859 78.823182)"><path d="M797.61 606.279c-34.215-15.43-56.355-45.62-98.621-41.595 16.772 26.836 49.646 87.215 92.583 107.342 19.456-16.101 16.101-40.253 6.038-65.747zm127.469 137.532c-23.481-39.582-77.152-48.975-118.076-59.709-20.127 15.43-42.266 19.456-67.089 19.456s-49.646-2.684-77.823-3.354c2.013-40.924 4.025-111.367 4.025-157.659 48.975-7.38 111.367-6.709 163.697-5.367 16.101 0 15.43-10.063 9.392-18.785-19.456-20.127-49.646-28.177-81.177-34.886-14.76 12.076-64.405 12.076-91.241 12.076 2.684-38.241 3.354-94.595 4.696-144.241 39.582-2.684 78.494-6.709 110.026-7.38 32.203-.671 61.051-2.013 90.57-8.051-8.722-38.241-44.949-47.633-85.203-51.658-3.354-.671-6.038 8.051-12.747 8.722-64.405 8.722-225.418 22.81-281.102 15.43-26.165-3.354-50.988-12.076-83.19-20.127-9.392-2.013-9.392 8.722-6.709 20.798 16.772 20.798 34.886 46.962 56.355 58.367 14.089 7.38 30.19-5.367 44.279-7.38 37.57-6.038 67.76-.671 98.621-5.367 6.038 24.823 8.722 46.962 10.063 69.772s1.342 45.62 1.342 76.481c-73.798 10.063-140.216-.671-193.216 6.709 10.063 12.747 39.582 47.633 69.772 58.367 11.405 4.025 20.127-6.709 30.861-9.392 29.519-7.38 61.722-7.38 91.912-10.734l1.342 158.33c-69.101 3.354-142.228 16.101-190.532 17.443-21.468.671-40.253-14.089-62.393-5.367 16.772 32.203 47.633 48.304 75.81 67.089 24.823 9.392 30.19-6.038 48.975-14.089 29.519-12.747 88.557-17.443 121.431-19.456 101.975-6.038 200.596-6.038 259.634 8.722 14.76 4.025 43.608 1.342 57.696-14.76z"/><g transform="matrix(1.0002 0 0 1.0002 1057.516207 .006113)" clip-path="url(#D)" filter="url(#E)"><g transform="matrix(5.9429 0 0 5.9429 3409.863 -1339.9635)"><path d="M-619.942 328.534c-5.757-2.596-5.64-6.416-12.752-5.739 2.822 4.516 6.946 12.372 14.17 15.759 3.274-2.709.275-5.73-1.419-10.02zm22.825 23.057c-3.055-3.82-13.141-6.243-20.027-8.049-3.387 2.596-7.112 3.274-11.289 3.274s-10.297-.492-15.039-.605c.169-3.443.783-25.842.783-25.842l3.056-3.603c8.241-1.242 18.74-1.129 27.545-.903 2.709 0 1.379-.998.363-2.465-3.274-3.387-8.235-3.603-13.541-4.732-2.484 2.032-13.69 3.641-18.205 3.641.226-3.217.888-21.681.888-21.681l3.854-6.033s13.208-1.129 18.514-1.242c5.419-.113 10.273-.339 15.24-1.355-2.567-1.697-3.451-1.929-5.982-2.943-2.592-1.038-5.706-2.46-9.092-2.798-.564-.113-1.016 1.355-2.145 1.468-10.837 1.468-37.746 2.793-47.116 1.551-4.403-.564-5.259-.987-10.678-2.341-1.58-.339-4.347-1.484-3.896.548 2.822 3.5 5.87 7.902 9.483 9.821 2.371 1.242 5.08-.903 7.451-1.242 6.322-1.016 11.402-.113 16.595-.903 1.016 4.177 1.468 7.902 1.693 11.74s.226 7.676.226 12.869l-2.812 3.193s-22.424.572-26.883 1.193c1.693 2.145 3.843 4.758 8.923 6.564 1.919.677 3.387-1.129 5.193-1.58 4.967-1.242 10.386-1.242 15.466-1.806l.226 26.642-1.418 2.655-29.659 2.432c-3.612.113-6.298-2.204-10.023-.737 2.822 5.419 6.556 5.81 11.297 8.971 4.177 1.58 5.08-1.016 8.241-2.371 4.967-2.145 14.901-2.935 20.433-3.274 17.159-1.016 33.754-1.016 43.688 1.468 2.484.677 5.236 1.141 8.65-1.525z" fill="#282f3e"/></g></g><g filter="url(#F)" transform="translate(1057.532)" fill="#fff"><path d="M-577.902 352.788c-9.392-9.727-42.936-26.723-50.316-25.492s11.405 20.686 28.177 29.182 31.531 6.036 22.139-3.69z"/><path d="M-555.433 553.254c-8.838-6.501-36.801-16.373-41.945-14.807s12.533 14.569 26.514 19.504 24.268 1.804 15.43-4.697z"/><path d="M-596.89 765.596c-13.006-9.374-51.71-22.448-67.582-24.679s-8.909 6.381 4.099 15.755 32.06 19.513 47.93 21.743 28.56-3.445 15.553-12.819z"/><path d="M-272.858 661.665c-9.701-3.543-26.32-17.439-38.675-30.297s-20.445-24.679-10.741-21.136 37.198 22.45 49.551 35.308 9.566 19.668-.135 16.125z"/></g></g><path d="M656.649 812.865c-5.777 0-10.426 4.653-10.426 10.431v154.359L537.077 868.504c-4.085-4.085-10.662-4.085-14.748 0l-4.971 4.971c-4.085 4.085-4.085 10.663 0 14.748l109.141 109.146H472.146c-5.778 0-10.426 4.653-10.426 10.431v7.03a10.4 10.4 0 0 0 10.426 10.426h154.359l-109.146 109.146a10.41 10.41 0 0 0 0 14.753l4.971 4.971c4.085 4.085 10.663 4.085 14.748 0l109.146-109.151v154.359c0 5.777 4.649 10.431 10.426 10.431h7.03a10.41 10.41 0 0 0 10.431-10.431v-154.359l109.146 109.151c4.085 4.085 10.662 4.085 14.748 0l4.971-4.971a10.41 10.41 0 0 0 0-14.753l-109.146-109.146h154.354c5.777 0 10.431-4.649 10.431-10.426v-7.03a10.41 10.41 0 0 0-10.431-10.431H693.834l109.141-109.146c4.085-4.085 4.085-10.662 0-14.748l-4.971-4.971c-4.085-4.085-10.663-4.085-14.748 0L674.11 977.654V823.296a10.41 10.41 0 0 0-10.431-10.431zm3.512 198.442h0 0 0 0 0-.014 0 0z"/><path d="M1789.457 1052.923c-4.01 0-7.237 3.23-7.237 7.24v107.141l-75.759-75.762c-2.836-2.836-7.401-2.836-10.237 0l-3.45 3.45c-2.836 2.836-2.836 7.401 0 10.237l85.431 66.088-9.675 9.671h-107.138c-4.01 0-7.237 3.23-7.237 7.24v4.88a7.22 7.22 0 0 0 7.237 7.237h107.141l-75.759 75.759c-2.836 2.836-2.836 7.404 0 10.24l3.45 3.45c2.836 2.836 7.401 2.836 10.237 0l75.759-75.762v107.141c0 4.01 3.227 7.24 7.237 7.24h4.88c4.01 0 7.24-3.23 7.24-7.24v-107.141l9.675-9.671 66.084 85.434c2.836 2.836 7.401 2.836 10.237 0l3.45-3.45c2.836-2.836 2.836-7.404 0-10.24l-75.759-75.759 9.675-9.671 97.463 9.671c3.991.396 7.24-3.227 7.24-7.237v-4.88c0-4.01-3.23-7.24-7.24-7.24h-107.135l75.756-75.759c2.836-2.836 2.836-7.401 0-10.237l-3.45-3.45c-2.836-2.836-7.401-2.836-10.237 0l-75.759 75.762v-107.141c0-4.01-3.23-7.24-7.24-7.24zm2.438 137.74h0 0 0 0 0-.01 0 0z" clip-path="url(#G)" fill="#29303d" fill-opacity=".99" filter="url(#H)" transform="matrix(1.4407 0 0 1.4407 -1935.360747 -690.147733)"/><g fill="#fff" class="C"><path d="M516.823 1140.931c3.607 3.607 8.68 4.384 6.258 6.806s-7.31 1.46-10.917-2.147-4.569-8.495-2.147-10.917 3.198 2.65 6.806 6.258z"/><use xlink:href="#I"/><use xlink:href="#I" x="-196.651" y="-197.774"/></g></svg>