<svg xmlns="http://www.w3.org/2000/svg" width="498.898" height="544.252" viewBox="0 0 1320 1440" xmlns:v="https://vecta.io/nano"><style><![CDATA[.B{color-interpolation-filters:sRGB}]]></style><defs><linearGradient id="A" x1="228.547" y1="662.072" x2="270.281" y2="662.072" spreadMethod="reflect" gradientUnits="userSpaceOnUse"><stop offset="0" stop-color="#ffd285"/><stop offset=".232" stop-color="#ffcd79"/><stop offset=".616" stop-color="#ffca73"/><stop offset=".808" stop-color="#ffd386"/><stop offset="1" stop-color="#ffc86e"/></linearGradient><linearGradient id="B" x1="660.031" y1="178.153" x2="660.029" y2="1149.083" gradientUnits="userSpaceOnUse"><stop offset=".604" stop-color="#fff"/><stop offset="1"/></linearGradient><filter id="C" x="-.011" y="-.011" width="1.021" height="1.022" class="B"><feGaussianBlur stdDeviation="2.441"/></filter><clipPath id="D"><path d="M-307.462 483.837c-2.099-12.596-41.988-30.651-63.402-28.972-7.558.42-13.436 6.298-20.994 7.138-9.237 1.26-33.171 5.458-42.408 3.779 10.077-17.215 20.154-34.43 27.292-54.165 7.558-5.458 25.613-7.138 26.872-13.856 7.138 2.099 15.955-2.519 18.475-8.398-18.895-15.536-42.828-30.231-73.899-26.452-8.398 15.116-26.033 13.436-47.027 11.337-3.779-23.933-56.264-13.436-66.341-14.276-.42 13.016 15.536 16.795 19.734 20.994-32.751 34.85-65.082 69.7-104.13 98.672 3.779 3.359 6.298 7.978 10.497 10.917 23.513.84 28.552-9.237 42.408-20.574 26.033-21.414 53.745-39.049 76.418-64.242 8.817-5.039 39.049-5.878 54.165-5.458 1.679 22.674-16.795 48.286-20.574 69.7-19.315 3.359-64.662 2.939-89.015 12.177-3.359-6.298-8.398-2.939-13.436-6.718-5.039 1.68-4.619 8.398-10.497 9.657 4.199 13.016 14.276 20.994 22.254 30.651 14.696 73.479-8.398 153.676-39.889 204.482 7.138 1.68 15.955 2.939 25.613-1.26 22.674-18.055 33.171-54.585 41.148-83.976 20.994 9.657 62.142-8.398 81.877 0 14.696-7.978 52.485-7.558 66.341-10.917-9.657-14.696-36.53-22.254-54.585-16.795.84-8.398 1.26-25.613 1.68-41.568 15.955-7.978 36.95-2.939 49.966-11.337-5.039-11.337-31.071-22.674-48.286-15.116-2.099-10.497.84-34.43-5.878-49.126 19.314-1.26 42.408-5.039 61.722-2.939 4.619 11.337 2.519 23.513 2.939 39.469 1.68 47.866 17.215 114.208-1.68 159.555-35.69-3.779-68.441-4.619-97.412-12.177 1.26.42.42 1.26-.42 2.519 10.077 2.099 18.475 5.458 27.292 9.657 7.978 3.779 13.436 10.077 20.994 13.856 8.398 4.199 19.734 5.458 28.552 10.077 2.099 1.26 2.519 5.458 4.619 6.718 14.696 10.077 45.347 27.712 57.104 11.337 12.177-24.353 9.657-57.524 7.558-89.015-1.26-20.994-10.077-41.988-8.817-62.562 1.26-24.353 4.619-48.706 7.558-66.341 7.138-9.657 28.132-11.337 25.613-26.452zm-161.234 60.043c-22.254.42-38.629 6.718-57.524 5.039 1.26-17.215-6.718-28.552 1.68-44.507 6.718-7.138 35.69-6.298 44.087-10.497 13.436 8.817 11.757 30.231 11.757 49.966zm-1.679 23.093c.42 18.055 0 29.392-1.68 42.828-20.574-.42-36.949 5.458-58.783 4.619 0-13.016 5.458-27.712 4.619-42.828 18.475.84 39.049-2.099 55.844-4.619z" fill="#000" fill-opacity="1" stroke-width="20.833"/></clipPath><filter id="E" x="-.052" y="-.045" width="1.104" height="1.09" class="B"><feGaussianBlur stdDeviation="7.025"/></filter><clipPath id="F"><path d="M1720.699 1071.423c-1.85 0-3.7.708-5.118 2.125l-3.45 3.45c-2.836 2.836-2.836 7.401 0 10.237l5.263 5.263 8.565 30.343c.771 2.729 3.59 5.545 6.319 6.315l10.886-10.889 54.405 54.405-54.405 54.405-10.886-10.889c-2.729.771-5.548 3.59-6.319 6.319l-8.562 30.337-5.266 5.266c-2.836 2.836-2.836 7.401 0 10.237l3.45 3.45c2.836 2.836 7.401 2.836 10.237 0l5.259-5.259 30.347-8.569c2.729-.771 5.545-3.586 6.315-6.315l-10.889-10.889 54.405-54.405 54.405 54.405-10.889 10.889c.771 2.729 3.586 5.545 6.315 6.315l30.347 8.569 5.259 5.259c2.836 2.836 7.401 2.836 10.237 0l3.45-3.45c2.836-2.836 2.836-7.401 0-10.237l-5.263-5.263-8.565-30.34c-.771-2.729-3.59-5.548-6.319-6.319l-10.886 10.889-54.405-54.405 54.405-54.405 10.886 10.889c2.729-.771 5.548-3.586 6.319-6.315l8.569-30.347 5.259-5.26c2.836-2.836 2.836-7.401 0-10.237l-1.725-1.725-1.725-1.725c-2.836-2.836-7.401-2.836-10.237 0l-5.266 5.266-30.34 8.565c-2.729.771-5.545 3.586-6.315 6.315l10.889 10.889-54.405 54.405-54.405-54.405 10.889-10.889c-.771-2.729-3.586-5.545-6.315-6.315l-30.34-8.565-5.266-5.266c-1.418-1.418-3.268-2.125-5.118-2.125zm90.556 101.246h.01l-.01.01-.01-.01z" opacity="1" fill="#000" fill-opacity="1" stroke-width="10.708"/></clipPath><filter id="G" x="-.048" y="-.048" width="1.096" height="1.096" class="B"><feGaussianBlur stdDeviation="4.05"/></filter><filter id="H" x="-.004" y="-.003" width="1.007" height="1.005" class="B"><feGaussianBlur stdDeviation=".377"/></filter></defs><path style="mix-blend-mode:multiply" d="M-2758.487 273.13l24.394 31.47h517.576l14.375-11.25-104.69-501.167-31.462-17.601z" transform="matrix(-2.0051 0 0 2.0051 -4364.0778 802.13526)" opacity=".5" filter="url(#C)"/><path d="M660.043 178.151L306.898 295.079l-167.217 974.019 13.312 80.689 20.099 16.719h973.903l20.099-16.719 13.312-80.689-167.217-974.019z" fill="url(#A)"/><path d="M660.031 178.153L306.887 295.081 139.67 1269.1l13.312 73.816 20.099 16.718h973.903l20.099-16.718 13.312-73.816-167.217-974.019z" opacity=".25" fill="url(#B)" style="mix-blend-mode:overlay"/><path d="M1159.664 1264.056l-.043 21.064 20.75-16.013-20.707-5.052z" opacity=".8" fill="#fff"/><path d="M1180.371 1269.107l-20.75 16.013-12.661 81.397 20.099-16.719 13.312-80.69z" opacity=".6"/><g fill="#fff"><path d="M306.85 295.071l17.664 13.248L660 194.543v-16.402z" opacity=".3"/><path d="M1013.15 295.071l-17.664 13.248L660 194.543v-16.402z" opacity=".3"/><path d="M1013.15 295.071l-17.664 13.248 164.177 955.737 20.707 5.052z" opacity=".3"/></g><path d="M306.85 295.071l17.664 13.248-164.177 955.737-20.707 5.052z" opacity=".4"/><path d="M139.629 1269.107l20.75 16.013 12.661 81.397-20.099-16.719-13.312-80.69z" opacity=".9"/><path d="M160.337 1264.056l.043 21.064-20.75-16.013 20.707-5.052z" opacity=".6"/><path d="M160.337 1264.056h999.327l-.043 21.064H160.379l-.043-21.064z" opacity=".2"/><path d="M1159.621 1285.12l-12.661 81.397H173.04l-12.661-81.397h999.241z" opacity=".7"/><g transform="matrix(1.133 0 0 1.133 -103.13252 -44.815199)"><path d="M836.367 483.837c-2.099-12.596-41.988-30.651-63.402-28.972-7.558.42-13.436 6.298-20.994 7.138-9.237 1.26-33.171 5.458-42.408 3.779 10.077-17.215 20.154-34.43 27.292-54.165 7.558-5.458 25.613-7.138 26.872-13.856 7.138 2.099 15.955-2.519 18.475-8.398-18.895-15.536-42.828-30.231-73.899-26.452-8.398 15.116-26.033 13.436-47.027 11.337-3.779-23.933-56.264-13.436-66.341-14.276-.42 13.016 15.536 16.795 19.734 20.994-32.751 34.85-65.082 69.7-104.13 98.672 3.779 3.359 6.298 7.978 10.497 10.917 23.513.84 28.552-9.237 42.408-20.574 26.033-21.414 53.745-39.049 76.418-64.242 8.817-5.039 39.049-5.878 54.165-5.458 1.679 22.674-16.795 48.286-20.574 69.7-19.315 3.359-64.662 2.939-89.015 12.177-3.359-6.298-8.398-2.939-13.436-6.718-5.039 1.68-4.619 8.398-10.497 9.657 4.199 13.016 14.276 20.994 22.254 30.651 14.696 73.479-8.398 153.676-39.889 204.482 7.138 1.68 15.955 2.939 25.613-1.26 22.674-18.055 33.171-54.585 41.148-83.976 20.994 9.657 62.142-8.398 81.877 0 14.696-7.978 52.485-7.558 66.341-10.917-9.657-14.696-36.53-22.254-54.585-16.795.84-8.398 1.26-25.613 1.68-41.568 15.955-7.978 36.95-2.939 49.966-11.337-5.039-11.337-31.071-22.674-48.286-15.116-2.099-10.497.84-34.43-5.878-49.126 19.314-1.26 42.408-5.039 61.722-2.939 4.619 11.337 2.519 23.513 2.939 39.469 1.68 47.866 17.215 114.208-1.68 159.555-35.69-3.779-68.441-4.619-97.412-12.177 1.26.42.42 1.26-.42 2.519 10.077 2.099 18.475 5.458 27.292 9.657 7.978 3.779 13.436 10.077 20.994 13.856 8.398 4.199 19.734 5.458 28.552 10.077 2.099 1.26 2.519 5.458 4.619 6.718 14.696 10.077 45.347 27.712 57.104 11.337 12.177-24.353 9.657-57.524 7.558-89.015-1.26-20.994-10.077-41.988-8.818-62.562 1.26-24.353 4.619-48.706 7.558-66.341 7.138-9.657 28.132-11.337 25.613-26.452zM675.132 543.88c-22.254.42-38.629 6.718-57.524 5.039 1.26-17.215-6.718-28.552 1.68-44.507 6.718-7.138 35.69-6.298 44.087-10.497 13.436 8.817 11.757 30.231 11.757 49.966zm-1.679 23.093c.42 18.055 0 29.392-1.68 42.828-20.574-.42-36.949 5.458-58.783 4.619 0-13.016 5.458-27.712 4.619-42.828 18.475.84 39.049-2.099 55.844-4.619z"/><g transform="translate(1143.829)"><path d="M-316.352 494.087c12.77 0-41.988-30.651-63.402-28.972-7.558.42-13.436 6.298-20.994 7.138-9.237 1.26-33.171 5.458-42.408 3.779 10.077-17.215 24.554-38.855 31.692-58.589 7.558-5.458 25.613-7.138 26.872-13.856 7.138 2.099 15.955-2.519 18.475-8.398-29.86-10.647-42.828-18.543-79.276-18.543-8.398 15.116-26.033 13.436-47.027 11.337-13.928-29.062-50.887-21.346-60.964-22.186-.42 13.016 15.536 16.795 19.734 20.994-32.751 34.85-65.082 69.7-104.13 98.672 3.779 3.359 6.298 7.978 10.497 10.917 23.513.84 28.552-9.237 42.408-20.574 26.033-21.414 53.745-39.049 76.418-64.242 8.817-5.039 39.049-5.878 54.165-5.458 1.679 22.674-16.795 48.286-20.574 69.7-19.315 3.359-64.662 2.939-89.015 12.177-3.359-6.298-8.398-2.939-13.436-6.718-5.039 1.68-4.619 8.398-10.497 9.657 4.199 13.016 14.276 20.994 22.254 30.651 14.696 73.479-8.398 153.676-39.889 204.482 7.138 1.68 15.955 2.939 25.613-1.26 22.674-18.055 33.171-54.585 41.148-83.976 20.994 9.657 62.142-8.398 81.877 0 14.696-7.978 52.485-7.558 66.341-10.917-9.657-14.696-36.53-22.254-54.585-16.795.84-8.398 1.26-25.613 1.68-41.568 15.955-7.978 36.95-2.939 49.966-11.337-5.039-11.337-31.071-22.674-48.286-15.116-2.099-10.497.84-34.43-5.878-49.126 19.314-1.26 42.408-5.039 61.722-2.939 4.619 11.337 2.519 23.513 2.939 39.469 1.68 47.866 17.215 114.208-1.68 159.555-35.69-3.779-68.441-4.619-97.412-12.177 1.26.42.42 1.26-.42 2.519 10.077 2.099 18.475 5.458 27.292 9.657 7.978 3.779 13.436 10.077 20.994 13.856 8.398 4.199 19.734 5.458 28.552 10.077 2.099 1.26 2.519 5.458 4.619 6.718 14.696 10.077 45.347 27.712 57.104 11.337 12.177-24.353 9.657-57.524 7.558-89.015-1.26-20.994-10.077-41.988-8.818-62.562 1.26-24.353 4.619-48.706 7.558-66.341 7.138-9.657 5.889-22.028 21.213-22.028zm-156.835 55.618c-22.254.42-38.629 6.718-57.524 5.039 1.26-17.215-6.718-28.552 1.68-44.507 6.718-7.138 35.69-6.298 44.087-10.497 13.436 8.817 11.757 30.231 11.757 49.966zm-1.679 23.093c.42 18.055 0 29.392-1.68 42.828-20.574-.42-36.949 5.458-58.783 4.619 0-13.016 5.458-27.712 4.619-42.828 18.475.84 39.049-2.099 55.844-4.619z" clip-path="url(#D)" fill="#29303d" filter="url(#E)"/><g filter="url(#H)" fill="#fff"><path d="M-473.569 493.528c-1.138 2.238 1.01 5.894 3.221 5.484s4.486-4.883 3.413-6.712-5.497-1.01-6.635 1.228z"/><path d="M-376.854 488.571c-.597 2.238.531 5.894 1.691 5.484s2.355-4.883 1.791-6.712-2.885-1.01-3.482 1.227z"/><path d="M-625.462 478.062c1.272-1.087 3.816-3.261 6.062-3.006s4.193 2.936 8.263 4.268 10.263 1.317 11.827 2.341-1.5 3.085-5.442 4.465-8.765 2.077-12.575.801-6.608-4.528-8.008-6.155-1.4-1.627-.128-2.714z"/><path d="M-538.025 368.773c-1.318 1.833 3.775 7.015 7.638 7.772s6.499-2.907 3.954-5.498-10.274-4.107-11.592-2.274z"/><path d="M-529.77 635.222c.568-.686 5.562-1.143 7.489-.686s.791 1.827-1.705 2.056-6.353-.684-5.785-1.37z"/><path d="M-389.109 718.056c2.905-.421 4.18-5.424 1.912-7.506s-8.082-1.24-8.719 1.263 3.902 6.664 6.808 6.243z"/></g></g></g><path d="M529.493 866.796a10.39 10.39 0 0 0-7.373 3.062l-4.971 4.971c-4.085 4.085-4.085 10.662 0 14.747l7.582 7.582 12.339 43.713c1.11 3.932 5.171 7.988 9.103 9.098l15.682-15.687 78.375 78.375-78.375 78.375-15.682-15.687c-3.931 1.11-7.993 5.171-9.103 9.103l-12.334 43.703-7.587 7.587c-4.085 4.085-4.085 10.662 0 14.747l4.971 4.971c4.085 4.085 10.662 4.085 14.747 0l7.577-7.577 43.717-12.344c3.931-1.11 7.988-5.167 9.098-9.098l-15.687-15.687 78.375-78.375 78.375 78.375-15.687 15.687c1.11 3.931 5.167 7.988 9.098 9.098l43.717 12.344 7.577 7.577c4.085 4.085 10.662 4.085 14.747 0l4.971-4.971c4.085-4.085 4.085-10.662 0-14.747l-7.582-7.582-12.339-43.708c-1.11-3.931-5.172-7.993-9.103-9.103l-15.682 15.687-78.375-78.375 78.375-78.375 15.682 15.687c3.931-1.11 7.993-5.167 9.103-9.098l12.344-43.717 7.577-7.577c4.085-4.085 4.085-10.662 0-14.747l-2.485-2.485-2.485-2.485c-4.085-4.085-10.662-4.085-14.747 0l-7.587 7.587-43.708 12.339c-3.932 1.11-7.988 5.167-9.098 9.098l15.687 15.687-78.375 78.375-78.375-78.375 15.687-15.687c-1.11-3.931-5.167-7.988-9.098-9.098l-43.708-12.339-7.586-7.587c-2.043-2.042-4.708-3.062-7.374-3.062zm130.455 145.855h.014l-.014.014-.014-.014z"/><path d="M1711.017 1079.746c-1.85 0-3.7.707-5.118 2.125l-1.725 1.725-1.725 1.725c-2.836 2.836-2.836 7.401 0 10.237l5.266 5.266 8.565 30.34c.771 2.729 3.586 5.545 6.315 6.315l10.889-10.886 54.401 54.401-54.401 54.401-10.889-10.886c-2.729.771-5.545 3.59-6.315 6.319l-8.565 30.337-5.266 5.266c-2.836 2.836-2.836 7.401 0 10.237l3.45 3.45c2.836 2.836 7.401 2.836 10.237 0l5.26-5.259 30.347-8.569c2.729-.771 5.545-3.59 6.315-6.319l-10.886-10.889 54.401-54.401 54.401 54.401-10.886 10.889c.771 2.729 3.59 5.548 6.319 6.319l30.34 8.565 5.263 5.263c2.836 2.836 7.401 2.836 10.237 0l3.45-3.45c2.836-2.836 2.836-7.401 0-10.237l-5.259-5.26-8.569-30.343c-.771-2.729-3.59-5.548-6.319-6.319l-10.889 10.886-54.401-54.401 54.401-54.401 10.889 10.886c2.729-.771 5.548-3.586 6.319-6.315l8.569-30.347 5.259-5.26c2.836-2.836 2.836-7.401 0-10.237l-3.45-3.45c-2.836-2.836-7.401-2.836-10.237 0l-5.266 5.266-30.337 8.565c-2.729.771-5.548 3.586-6.319 6.315l10.886 10.889-54.401 54.401-54.401-54.401 10.886-10.889c-.771-2.729-3.586-5.545-6.315-6.315l-30.34-8.565-5.266-5.266c-1.418-1.418-3.268-2.125-5.118-2.125zm90.556 101.246h.01l-.01.01z" transform="matrix(1.4406 0 0 1.4406 -1949.344989 -676.695906)" clip-path="url(#F)" fill="#29303d" filter="url(#G)"/></svg>