<svg xmlns="http://www.w3.org/2000/svg" width="498.898" height="544.252" viewBox="0 0 1320 1440" xmlns:v="https://vecta.io/nano"><style><![CDATA[.B{color-interpolation-filters:sRGB}]]></style><defs><linearGradient id="A" x1="228.547" y1="805.755" x2="270.281" y2="805.755" spreadMethod="reflect" gradientUnits="userSpaceOnUse"><stop offset="0" stop-color="#ffd285"/><stop offset=".232" stop-color="#ffcd79"/><stop offset=".616" stop-color="#ffca73"/><stop offset=".808" stop-color="#ffd386"/><stop offset="1" stop-color="#ffc86e"/></linearGradient><linearGradient id="B" x1="660.031" y1="318.746" x2="660.029" y2="1292.766" gradientUnits="userSpaceOnUse"><stop offset=".596" stop-color="#fff"/><stop offset="1"/></linearGradient><filter id="C" x="-.012" y="-.012" width="1.025" height="1.024" class="B"><feGaussianBlur stdDeviation="2.441"/></filter><clipPath id="D"><path d="M-124.639 624.558c-12.351-21.614-38.905-34.582-67.929-35.509v3.396c21.614 18.217 35.2 45.081 63.915 52.491 3.397-3.705 7.41-11.733 4.014-20.379zm10.189-67.621c-12.042-8.954-30.259-12.042-49.095-14.203-16.674 9.263-48.168 5.558-63.915 6.175 2.779-5.867 2.779-14.821 4.014-22.54 25.937-5.867 54.035-2.161 67.312-16.056-19.144-12.042-45.389-10.498-67.621-5.249 2.47-13.895 5.867-23.158-1.544-32.112-9.263-1.235-19.144-12.042-31.186-12.351-4.632 0-7.41 1.853-12.351 1.235 2.161 11.733 11.116 20.688 19.453 28.716-.618 7.102 2.779 10.189 2.47 16.982-4.323.309-8.028.926-14.512 1.235 3.397 4.94 10.189 8.954 14.512 10.498-.926 11.116 1.853 22.849-2.779 32.112-16.365.309-29.333 4.94-44.154 1.853-3.088-11.424.309-27.172-7.102-36.126-7.102-8.337-31.803-13.586-38.905-11.425 5.249 10.498 11.424 20.07 21.305 25.628l4.94 26.554c-9.263-.618-15.747 1.235-19.761 5.558-3.705-.309-3.705-4.323-6.793-5.249-6.175 4.323-10.189-2.47-17.909-.618 3.396 13.895 21.923 21.305 33.656 30.568 18.526-14.512 45.389-14.512 75.031-16.365 5.867 20.688 8.337 46.007 1.235 63.298-11.733.309-21.305-1.853-31.186-5.867 5.558 17.6 18.526 39.214 42.61 37.979-.309 1.235-.309.926-3.396.926-13.586 12.968-31.186 22.231-44.772 35.2 2.779 2.47-3.088 4.632-5.249 5.249-.309-3.705-8.954 3.088-13.277 5.558-1.544 1.235-8.954 7.102-7.719 4.323-12.66 1.235-21.614 12.351-33.038 13.586-.309 4.94 4.632 2.47 4.632 6.175 4.014-.309 6.175 1.235 9.881 3.088 0 0-4.014-.309-4.323 1.235 28.098 2.47 49.095-17.291 71.326-29.024 15.439-6.175 27.789-15.747 36.126-26.245 25.937-14.203 41.684-37.67 61.137-57.74-2.779-13.277-19.761-22.849-36.744-21.923-3.705 6.175 2.779 7.719 3.396 12.66-6.484 11.116-15.439 24.084-22.849 28.407-.618 4.014-.926 10.498-6.484 12.968 8.028-16.365 4.632-34.891 4.632-54.035 0-10.498.926-21.305 5.249-31.803-3.705-1.853-7.102-3.705-8.954-7.41 31.495.926 66.694-4.632 89.543.618 7.102-2.161 14.512-4.014 22.231-5.558 3.088-.926.926-4.014.926-6.484zm-168.28 60.519c-4.323-7.41-2.779-20.379-9.263-25.628-15.439 5.249-21.305 25.01-42.919 20.996-2.161 2.47-4.632 4.323-6.484 4.323.926 6.793-.926 16.674-.926 24.702s1.853 14.512 10.189 13.895c2.161 0 8.028-3.088 11.116-5.558 11.425-8.646 25.319-27.481 38.288-32.73z" fill="#000" stroke-width="15.32"/></clipPath><filter id="E" x="-.051" y="-.045" width="1.102" height="1.091" class="B"><feGaussianBlur stdDeviation="5.112"/></filter><clipPath id="F"><path d="M1799.134-1180.993h4.879c4.01 0 7.239 3.228 7.239 7.239v123.263c0 4.01-3.228 7.239-7.239 7.239h-4.879c-4.01 0-7.239-3.228-7.239-7.239v-123.263c0-4.01 3.228-7.239 7.239-7.239z" opacity="1" stroke-width="1.534"/></clipPath><filter id="G" x="-.195" y="-.027" width="1.39" height="1.055" class="B"><feGaussianBlur stdDeviation="1.571"/></filter><filter id="H" x="-.142" y="-.217" width="1.284" height="1.433" class="B"><feGaussianBlur stdDeviation=".815"/></filter><filter id="I" x="-.114" y="-.167" width="1.228" height="1.334" class="B"><feGaussianBlur stdDeviation=".815"/></filter><filter id="J" x="-.325" y="-.19" width="1.65" height="1.38" class="B"><feGaussianBlur stdDeviation=".815"/></filter></defs><path style="mix-blend-mode:multiply" d="M-2713.437 205.288l23.119 34.853h436.247l13.285-11.264-98.703-458.797-31.462-17.601z" transform="matrix(-2.0051 0 0 2.0051 -4364.0778 945.81849)" opacity=".5" filter="url(#C)"/><path d="M660.043 318.747l-287.664 75.701-142.368 882.306 13.312 80.689 20.099 16.718h793.244l20.099-16.718 13.312-80.689-142.368-882.306z" fill="url(#A)"/><path d="M660.031 318.746l-287.664 75.701L230 1283.627l13.312 73.816 20.099 16.718h793.244l20.099-16.718 13.312-73.816-142.37-889.18z" fill="url(#B)" opacity=".25" style="mix-blend-mode:overlay"/><path d="M1069.332 1271.707l-.043 21.064 20.75-16.013-20.707-5.052z" opacity=".8" fill="#fff"/><path d="M1090.039 1276.759l-20.75 16.013-12.661 81.397 20.099-16.719 13.312-80.69z" opacity=".6"/><g fill="#fff"><path d="M372.331 394.437l17.664 13.248L660 335.137v-16.402z" opacity=".3"/><path d="M947.669 394.437l-17.664 13.248L660 335.137v-16.402z" opacity=".3"/><path d="M947.669 394.437l-17.664 13.248 139.327 864.022 20.707 5.052z" opacity=".3"/></g><path d="M372.331 394.437l17.664 13.248-139.327 864.022-20.707 5.052z" opacity=".4"/><path d="M229.96 1276.759l20.75 16.013 12.661 81.397-20.099-16.719-13.312-80.69z" opacity=".9"/><path d="M250.668 1271.707l.043 21.064-20.75-16.013 20.707-5.052z" opacity=".6"/><path d="M250.668 1271.707h818.665l-.043 21.064H250.71l-.043-21.064z" opacity=".2"/><path d="M1069.289 1292.771l-12.661 81.397H263.371l-12.661-81.397z" opacity=".7"/><path d="M656.554 1106.744h7.03c5.778 0 10.429-4.651 10.429-10.429V918.73c0-5.778-4.651-10.429-10.429-10.429h-7.03c-5.777 0-10.429 4.651-10.429 10.429v177.585c0 5.777 4.651 10.429 10.429 10.429z"/><path transform="matrix(1.4407 0 0 -1.4407 -1935.458 -594.71296)" d="M1789.477-1189.927h4.879c4.01 0 7.239 3.228 7.239 7.239v123.263c0 4.01-3.228 7.239-7.239 7.239h-4.879c-4.01 0-7.239-3.228-7.239-7.239v-123.263c0-4.01 3.228-7.239 7.239-7.239z" clip-path="url(#F)" fill="#29303d" filter="url(#G)"/><g transform="matrix(1.1537 0 0 1.1537 -101.46527 -70.810636)"><path d="M792.049 655.207c-14.659-25.654-46.178-41.047-80.627-42.146v4.031c25.654 21.623 41.78 53.507 75.863 62.303 4.031-4.398 8.796-13.927 4.764-24.188zm12.094-80.261c-14.293-10.628-35.916-14.293-58.272-16.858-19.79 10.995-57.172 6.597-75.863 7.33 3.298-6.963 3.298-17.591 4.764-26.754 30.785-6.963 64.135-2.565 79.894-19.057-22.722-14.293-53.874-12.461-80.261-6.23 2.932-16.492 6.963-27.487-1.832-38.115-10.995-1.466-22.722-14.293-37.015-14.66-5.497 0-8.796 2.199-14.66 1.466 2.565 13.927 13.194 24.555 23.089 34.083-.733 8.429 3.298 12.094 2.932 20.157-5.131.367-9.529 1.099-17.225 1.466 4.031 5.864 12.094 10.628 17.225 12.461-1.099 13.194 2.199 27.12-3.298 38.115-19.424.367-34.816 5.864-52.408 2.199-3.665-13.56.367-32.251-8.429-42.879-8.429-9.895-37.748-16.125-46.178-13.56 6.23 12.461 13.56 23.822 25.288 30.419l5.864 31.518c-10.995-.733-18.691 1.466-23.455 6.597-4.398-.367-4.398-5.131-8.063-6.23-7.33 5.131-12.094-2.932-21.256-.733 4.031 16.492 26.021 25.288 39.947 36.282 21.989-17.225 53.874-17.225 89.057-19.424 6.963 24.555 9.895 54.607 1.466 75.13-13.927.367-25.288-2.199-37.015-6.963 6.597 20.89 21.989 46.544 50.575 45.078-.367 1.466-.366 1.099-4.031 1.099-16.125 15.393-37.015 26.387-53.141 41.78 3.298 2.932-3.665 5.497-6.23 6.23-.367-4.398-10.628 3.665-15.759 6.597-1.832 1.466-10.628 8.429-9.162 5.131-15.026 1.466-25.654 14.66-39.214 16.125-.367 5.864 5.497 2.932 5.497 7.33 4.764-.367 7.33 1.466 11.728 3.665 0 0-4.764-.367-5.131 1.466 33.35 2.932 58.272-20.523 84.659-34.45 18.324-7.33 32.984-18.691 42.879-31.151 30.785-16.858 49.476-44.712 72.565-68.533-3.298-15.759-23.455-27.12-43.612-26.021-4.398 7.33 3.298 9.162 4.031 15.026-7.696 13.194-18.324 28.586-27.12 33.717-.733 4.764-1.1 12.461-7.696 15.393 9.529-19.424 5.497-41.413 5.497-64.135 0-12.461 1.099-25.288 6.23-37.748-4.398-2.199-8.429-4.398-10.628-8.796 37.382 1.099 79.162-5.497 106.282.733 8.429-2.565 17.225-4.764 26.387-6.597 3.665-1.099 1.099-4.764 1.099-7.696zm-199.736 71.832c-5.131-8.796-3.298-24.188-10.995-30.419-18.324 6.23-25.288 29.686-50.942 24.921-2.565 2.932-5.497 5.131-7.696 5.131 1.099 8.063-1.099 19.79-1.099 29.319s2.199 17.225 12.094 16.492c2.565 0 9.529-3.665 13.194-6.597 13.56-10.262 30.052-32.617 45.445-38.848z"/><path d="M-135.698 628.753c-8.608-9.251-8.015-10.149-31.319-27.093l-25.551-9.214c21.614 18.217 35.2 45.081 63.915 52.491 3.397-3.705-3.649-7.538-7.045-16.184zm13.833-70.602c-12.042-8.954-26.349-5.57-45.184-7.732-16.674 9.263-53.095 4.749-68.842 5.366 1.389-2.933 4.645-24.53 4.645-24.53l7.801-4.886c25.937-5.867 43.39-2.547 59.363-10.374-19.144-12.042-45.396-7.686-67.627-2.437 2.47-13.895 3.002-19.74 4.037-28.357-9.263-1.235-12.267-12.042-24.31-12.351-4.632 0-6.918 1.868-11.859 1.251 2.161 11.733 6.121 8.423 14.458 16.451-.618 7.102 2.779 10.189 2.47 16.982-2.21 2.872-3.456 5.714-9.94 6.023 3.397 4.94 5.618 4.166 9.94 5.71-.926 11.116 1.853 22.849-2.779 32.112-2.214 5.919-2.64 5.604-7.151 7.458-8.269 3.401-35.526 2.14-42.936.596-3.088-11.425.444-29.734-6.967-38.688-7.102-8.337-22.624-10.892-29.726-8.73 5.249 10.498 8.043 13.735 17.924 19.293l4.94 26.554-11.537 12.569c-3.705-.309-12.469-4.862-15.557-5.788-6.175 4.323-7.689-3.982-15.409-2.129 5.284 11.198 19.962 16.345 31.695 25.608 18.526-14.512 45.389-14.512 75.031-16.365 5.867 20.688 8.337 46.007 1.235 63.298-4.722 9.612-17.219 8.622-27.1 4.608 3.901 6.703 14.44 28.739 38.524 27.504-.309 1.235-.309.926-3.396.926-13.586 12.968-31.186 22.231-44.772 35.2 2.779 2.47-3.088 4.632-5.249 5.249-.309-3.705-8.954 3.088-13.277 5.558-1.544 1.235-8.954 7.102-7.719 4.323-12.66 1.235-21.614 12.351-33.038 13.586-.309 4.94 4.632 2.47 4.632 6.175 4.014-.309 6.175 1.235 9.881 3.088 0 0-4.014-.309-4.323 1.235 28.098 2.47 49.095-17.291 71.326-29.024 15.439-6.175 27.789-15.747 36.126-26.245 25.937-14.203 31.437-37.94 50.89-58.01-2.779-13.277-9.984-14.187-27.55-17.298 4.45 8.304 3.832 3.364 4.45 8.304-6.484 11.116-15.439 24.084-22.849 28.407-.618 4.014-.926 10.498-6.484 12.968-4.107-1.129-2.418-43.871-1.705-69.675.338-12.221-2.706-17.781-2.706-17.781l5.338-5.793c31.495.926 66.694-4.632 89.543.618 7.102-2.161 14.512-4.014 22.231-5.558 3.088-.926-6.489-2.801-6.489-5.271zm-167.213 62.817c-4.323-7.41-5.257-9.659-8.826-16.936-20.332 10.399-22.778 13.139-35.483 14.513-2.694.291-6.157-1.398-8.01-1.398.926 6.793-.926 16.674-.926 24.702s1.853 14.512 10.189 13.895c2.161 0 8.028-3.088 11.116-5.558 11.425-8.646 18.971-23.97 31.939-29.219z" clip-path="url(#D)" transform="matrix(1.1869 0 0 1.1869 939.98686 -86.099342)" fill="#29303d" filter="url(#E)"/><g fill="#fff"><path d="M642.478 491.592c4.81 2.442 13.399.325 12.885-3.176s-10.131-8.387-14.427-7.328-3.268 8.062 1.542 10.504z" filter="url(#I)"/><path d="M630.788 690.397c1.733 1.307 4.585-2.347 4.28-5.481s-3.771-5.751-5.198-3.923-.814 8.098.918 9.405z" filter="url(#J)"/><path d="M545.954 688.375c4.214 1.647 8.612-.552 6.597-3.299s-10.444-6.046-12.643-4.946 1.832 6.598 6.046 8.245z" filter="url(#H)"/></g></g></svg>